<?xml version="1.0" encoding="utf-8"?>
<!-- Generator: Adobe Illustrator 24.1.1, SVG Export Plug-In . SVG Version: 6.00 Build 0)  -->
<svg version="1.1" id="SEC_3" xmlns="http://www.w3.org/2000/svg" xmlns:xlink="http://www.w3.org/1999/xlink" x="0px" y="0px"
	 viewBox="0 0 168.25 203.35" enable-background="new 0 0 168.25 203.35" xml:space="preserve">
<g>
	<path opacity="0.16" d="M54.21,195.93c3.1,1.62,6.26,2.59,9.59,3.61c6.88,2.1,13.88,3.18,21.11,2.99c3.42-0.09,6.93-0.2,10.34-0.41
		c4.01-0.24,7.86-1.84,11.65-3.14c4.45-1.53,8.54-4.47,12.89-6.33c-7.08-2.35-21.05-3.94-37.15-3.94c-15.2,0-28.52,1.43-35.91,3.56
		C48.33,193.73,52.87,195.23,54.21,195.93z"/>
	<g>
		<path fill="#3B8F3D" d="M29.19,91.49c0,0-0.7-6.36,2.05-6.56s12.23-0.11,12.44,0.01c0.21,0.12,2.85,0.27,3.1,6.12
			C47.17,99.73,29.19,91.49,29.19,91.49z"/>
		<path fill="#3B8F3D" d="M61.7,132.85c0,0-15.25,9.67-14.77-41.02c-0.62,0.04-3.88-0.64-3.88-0.64s-1.6,0.45-2.53,0.68
			c1.36,22.86-0.99,51.96,18.49,54.28c1.7,0.2,3.64,0,5.69-0.22L61.7,132.85z"/>
		<path fill="#38B54A" d="M50.04,130.21c0,0-6.01,2.92-5.83-38.92c-0.87,0.06-11.72-0.28-15.13-0.48
			c1.48,24.86-0.37,53.65,21.99,53.68L50.04,130.21z"/>
		<path fill="#3B8F3D" d="M139.06,91.29c0,0,0.83-6.31-2.11-6.48s-13.1-0.03-13.32,0.09c-0.23,0.12-1.95,0.28-2.3,6.14
			C120.82,99.74,139.06,91.29,139.06,91.29z"/>
		<path fill="#3B8F3D" d="M44.87,186.88l25.72,9.47l5.33-1.67c0,0,1.15-5.64,4.24-10.07c5.52-7.92-4.66-12.89-4.66-12.89
			s-29.33,9.24-29.75,9.5C45.32,181.49,44.87,186.88,44.87,186.88z"/>
		<path fill="#3B8F3D" d="M117.88,131.79c0,0,15.1,2.62,14.77-41.02c0.62,0.04,3.88-0.64,3.88-0.64s1.6,0.45,2.53,0.68
			c-1.36,22.86,0.99,51.96-18.49,54.28c-1.7,0.2-3.64,0-5.69-0.22L117.88,131.79z"/>
		<path fill="#38B54A" d="M46.25,191.69c0.51,1.02,2.87,2.1,4.94,2.96c8.95,0.83,19.18,1.39,19.18,1.39s2.76-11.99,10.13-19.43
			c0.66,2.08-0.19,8.08,4.39,19.01c0.79,1.89,18.83,1.13,27.9,0.63c1.51-0.82,3.01-1.67,4.53-2.44c-1.24-4.59-4.3-15.81-7.15-25.96
			l-61.74-3.5c0,0-2.17,13.36-3.97,25.37C45.16,190.11,45.78,190.76,46.25,191.69z"/>
		<path fill="#3B8F3D" d="M45.15,160.5c0.1,1.72,0.22,3.85,2.58,4.07l0.01,0l1.62,0.1l2.28,0.15c2.41,0.14,58.1,3.04,58.1,3.04
			l0.01-0.93c0,0-55.94-2.8-58.05-2.93l-3.89-0.25c-1.57-0.15-1.72-1.35-1.83-3.3l-0.01-0.19l0.83-36.67
			c0.14-1.42,1.31-2.47,2.73-2.4l13.35,0.74l0.01-0.82l-12.52-0.69c-0.01,0.1-0.01,0.18-0.01,0.26l-0.82-0.04
			c0.01-0.08,0.01-0.17,0.01-0.26c-1.88-0.07-3.39,1.29-3.57,3.17l-0.56,25.15l0.36,0.37c-0.13,0.13-0.25,0.25-0.38,0.36
			L45.15,160.5z"/>
		<path fill="#38B54A" d="M110.78,124.55l-1.96,42.34c-0.14-0.01-0.33-0.01-0.56-0.03c-7.19-0.35-54.55-2.74-56.66-2.87l-3.89-0.25
			c-1.57-0.15-1.72-1.35-1.83-3.3l-0.01-0.19l0.83-36.67c0.14-1.42,1.31-2.47,2.73-2.4l13.35,0.74"/>
		<path fill="#3B8F3D" d="M45.33,148.67l-0.02,0.73c0.13-0.11,0.26-0.23,0.38-0.36L45.33,148.67z"/>
		<path fill="#3B8F3D" d="M49.44,120.61l0.82,0.04c0.01-0.08,0.01-0.17,0.01-0.26l-0.79-0.04c-0.01,0-0.02,0-0.02,0
			C49.45,120.45,49.45,120.53,49.44,120.61z"/>
		<path fill="#3B8F3D" d="M49.46,120.35c0.01,0,0.02,0,0.02,0l0.79,0.04c0-0.28,0.01-0.63,0.01-1.05
			c0.04-4.96,0.17-20.03,9.95-28.96c6-5.48,14.65-7.79,25.72-6.87c10.74,0.9,18.91,4.86,24.27,11.76
			c8.56,11.02,7.43,26.47,6.97,30.41c0.13,0.05,0.24,0.1,0.33,0.13c0.18,0.06,0.33,0.1,0.45,0.15c0.46-3.73,1.77-19.75-7.1-31.19
			c-5.51-7.09-13.87-11.16-24.86-12.08c-11.3-0.93-20.15,1.46-26.33,7.1c-10.04,9.16-10.18,24.5-10.22,29.55
			C49.47,119.73,49.46,120.07,49.46,120.35z"/>
		<path fill="#38B54A" d="M50.29,119.34c0.04-4.96,0.17-20.03,9.95-28.96c6-5.48,14.65-7.79,25.72-6.87
			c10.74,0.9,18.91,4.86,24.27,11.76c8.56,11.02,7.43,26.47,6.97,30.41c-1.46-0.54-4.93-1.8-6.03-1.93l-0.09,0l-6.95-0.39
			c0.2-2.24,0.88-13.69-5.48-21.46c-0.62-0.77-7.65-6.84-15.75-7.45c-6.56-0.45-11.86,1.25-15.75,5.08
			c-7.11,6.99-7.33,18.69-7.28,21.39l-9.58-0.53C50.28,120.11,50.28,119.75,50.29,119.34z M64.82,95.45
			c0.33-0.03,0.64-0.2,0.85-0.48c2.99-3.95,6.01-6.21,8.74-6.52c0.02,0,0.04,0,0.06-0.01c2.1-0.22,3.31,0.77,3.37,0.81
			c0.51,0.43,1.29,0.37,1.72-0.14c0.44-0.52,0.39-1.28-0.11-1.72c-0.08-0.07-2.02-1.74-5.22-1.4c0,0-0.01,0-0.02,0
			c-3.49,0.37-7.02,2.89-10.5,7.49c-0.4,0.54-0.3,1.31,0.24,1.72C64.2,95.4,64.52,95.48,64.82,95.45z"/>
		<g>
			
				<path fill="none" stroke="#FFFFFF" stroke-width="1.6367" stroke-linecap="round" stroke-linejoin="round" stroke-miterlimit="10" d="
				M104.74,92.2c2.01,1.81,4.34,4.63,5.74,7.42"/>
			<circle fill="#FFFFFF" cx="102.4" cy="90.36" r="0.92"/>
		</g>
		<path fill="#38B54A" d="M59.86,120.92l0.82,0.05c-0.03-2.46,0.2-14.13,7.03-20.85c3.72-3.65,8.81-5.28,15.12-4.84
			c0.2,0.01,0.4,0.03,0.59,0.05c2.87,0.25,5.46,0.88,7.74,1.9c0.47-0.09,0.94-0.17,1.42-0.22c-2.78-1.44-6.01-2.29-9.68-2.55
			c-6.56-0.45-11.86,1.25-15.75,5.08C60.03,106.52,59.82,118.22,59.86,120.92z"/>
		<polygon fill="#FFFFFF" points="62.8,121.08 62.79,121.9 63.19,121.93 63.2,121.1 		"/>
		<polygon fill="#FFFFFF" points="63.19,121.93 63.61,121.95 63.62,121.12 63.2,121.1 		"/>
		<path d="M63.71,93.48c-0.4,0.54-0.3,1.31,0.24,1.72c0.26,0.19,0.57,0.28,0.87,0.25c0.33-0.03,0.64-0.2,0.85-0.48
			c2.99-3.95,6.01-6.21,8.74-6.52c0.02,0,0.04,0,0.06-0.01c2.1-0.22,3.31,0.77,3.37,0.81c0.51,0.43,1.29,0.37,1.72-0.14
			c0.44-0.52,0.39-1.28-0.11-1.72c-0.08-0.07-2.02-1.74-5.22-1.4c0,0-0.01,0-0.02,0C70.72,86.36,67.19,88.88,63.71,93.48z"/>
		<path d="M74.4,102.02c-2.47,0.26-4.26,2.48-4,4.95s2.47,4.27,4.95,4.01c2.47-0.26,4.27-2.47,4.01-4.95S76.88,101.76,74.4,102.02z"
			/>
		<path d="M78.36,114.95c-0.15,0.16-0.14,0.43,0.04,0.57c0.87,0.78,1.82,1.14,2.84,1.08c0.06,0,0.11,0,0.16-0.01
			c1.77-0.19,3.06-1.62,3.11-1.69c0.15-0.16,0.13-0.42-0.04-0.57c-0.17-0.15-0.43-0.14-0.58,0.04c-0.01,0-0.65,0.72-1.59,1.13
			c-1.2,0.53-2.34,0.33-3.36-0.58C78.76,114.77,78.5,114.78,78.36,114.95z"/>
		<path fill="#38B54A" d="M86.53,146.87l0.8,0.12c0-0.02,0-0.04,0.02-0.08c0-0.01,0-0.01,0-0.01c-0.24-0.12-0.52-0.21-0.79-0.25
			C86.55,146.79,86.53,146.86,86.53,146.87z"/>
		<path fill="#FFFFFF" d="M96.09,117.82"/>
		<line fill="#FFFFFF" x1="95.25" y1="122.88" x2="62.81" y2="121.09"/>
		<line fill="#FFFFFF" x1="94.84" y1="122.85" x2="95.25" y2="122.88"/>
		<path d="M89.84,102.34c-2.47,0.26-4.27,2.48-4.01,4.96c0.26,2.47,2.48,4.26,4.95,4c2.47-0.26,4.27-2.47,4.01-4.95
			S92.32,102.08,89.84,102.34z"/>
		<polygon fill="#FFFFFF" points="94.84,122.85 94.77,123.67 95.18,123.69 95.25,122.88 		"/>
		<path fill="#3B8F3D" d="M62.8,121.09l-0.05,0.81l48.03,2.65l0.03-0.53l0.82,0.04l-0.03,0.63c1.2,0.38,3.57,1.48,5.64,2.26
			c0.4,0.11,0.69-0.13,0.69-0.13l0.15,0.05c1.39,0.13,2.41,1.21,2.43,2.55c-1.47-0.1-2.35-0.08-2.39-0.08
			c-1.6-0.07-2.61-0.03-3.03,1.74c-0.36,1.49-0.64,9.87-0.65,12.09c0,0.03,0,0.06,0.01,0.08c0.01-2.22,0.28-10.6,0.65-12.09
			c0.42-1.77,1.44-1.81,3.03-1.74c0.04,0,1.11-0.03,2.85,0.11c0.12,0.01,0.22,0.02,0.34,0.03c0.08-1.78-1.25-3.3-3.09-3.51
			c-0.05-0.03-0.14-0.06-0.24-0.1c-0.05,0.5-0.1,0.78-0.11,0.8l-0.8-0.14c0.01-0.03,0.05-0.36,0.12-0.94
			c-1.46-0.54-4.93-1.8-6.03-1.93l-0.09,0l-6.95-0.39c-0.02,0.24-0.04,0.37-0.04,0.39l-0.82-0.1c0-0.01,0.02-0.13,0.03-0.33
			L62.8,121.09z"/>
		<path fill="#38B54A" d="M91.53,95.99c-0.34-0.12-1.68,0.62-0.38,1.25c1.19,0.57,3.35,1.87,3.71,2.16
			c1.16,0.86,2.21,1.87,3.15,3.01c6.19,7.58,5.49,18.83,5.29,20.9l0.83,0.04c0.2-2.24,0.88-13.69-5.48-21.46
			C98.02,101.13,92.25,96.64,91.53,95.99z"/>
		<path fill="#3B8F3D" d="M103.26,123.65l0.82,0.1c0-0.02,0.02-0.15,0.04-0.39l-0.83-0.04
			C103.28,123.52,103.26,123.64,103.26,123.65z"/>
		<path fill="#3B8F3D" d="M120.49,145.95c-0.14-0.02-0.28-0.04-0.42-0.05c-0.13-0.01-0.27-0.03-0.4-0.04l-0.39,7.46l-0.01,0
			c-0.56-0.07-1.04-0.13-1.47-0.08c-0.91,0.04-1.66,0.48-2.24,1.31c-1.85,2.67-1.31,8.84-0.68,10.76c0.7,2.18,2.51,2.09,3.48,2.04
			c0.04,0,0.07,0,0.11,0c-0.07,0.48-0.26,0.82-0.57,1.03c-0.35,0.25-0.9,0.36-1.67,0.33l-6.6-1.69l-0.02,0.83l6.27,1.61
			c0.1,0.02,0.66,0.07,0.91,0.06c0.08,0,0.15-0.01,0.22-0.01c1.35-0.14,1.9-2.08,1.9-2.08l0.04-0.89"/>
		<path fill="#38B54A" d="M110.78,124.55l-1.96,42.34c0.19,0,0.3,0.01,0.34,0.01l0.47,0.12l1.96-42.34c-0.2-0.06-0.36-0.1-0.48-0.12
			L110.78,124.55z"/>
		<path fill="#3B8F3D" d="M111.59,124.69l-1.96,42.34l6.6,1.69c0.77,0.03,1.32-0.08,1.67-0.33c0.31-0.21,0.49-0.55,0.57-1.03
			c-0.03,0-0.07,0-0.11,0c-0.97,0.04-2.78,0.14-3.48-2.04c-0.63-1.93-1.17-8.09,0.68-10.76c0.58-0.83,1.33-1.28,2.24-1.31
			c0.43-0.05,0.91,0.01,1.47,0.08l0.01,0l0.39-7.46c-1.75-0.14-3.15-0.06-3.15-0.06c-0.08,0.01-0.76,0.06-1.34-0.47
			c-0.36-0.33-0.6-0.81-0.68-1.42c-0.04-0.2-0.05-0.42-0.05-0.66c-0.01-0.02-0.01-0.05-0.01-0.08c0.01-2.22,0.28-10.6,0.65-12.09
			c0.42-1.77,1.44-1.81,3.03-1.74c0.04,0,0.92-0.02,2.39,0.08c-0.03-1.34-1.04-2.42-2.43-2.55l-0.15-0.05c0,0-0.29,0.24-0.69,0.13
			C115.16,126.17,112.79,125.06,111.59,124.69z"/>
		<path fill="#3B8F3D" d="M110.81,124.02l-0.03,0.53l0.33,0.01c0.13,0.02,0.29,0.06,0.48,0.12l0.03-0.63L110.81,124.02z"/>
		<path fill="#3B8F3D" d="M114.44,143.26c0,0.24,0.02,0.46,0.05,0.66c0.1,0.57,0.33,1.02,0.68,1.34c0.58,0.53,1.26,0.48,1.34,0.47
			c0,0,1.41-0.07,3.16,0.07l0,0.07c0.13,0.01,0.27,0.03,0.4,0.04c0.14,0.01,0.27,0.03,0.42,0.05l0.04-0.77
			c-0.18-0.03-0.36-0.04-0.55-0.07c-2.01-0.21-3.63-0.12-3.7-0.11c-0.03,0-0.42,0.03-0.74-0.27c-0.3-0.28-0.46-0.77-0.46-1.46
			c0-2.3,0.29-10.53,0.62-11.91c0.18-0.78,0.29-1.19,0.95-1.26c0.29-0.03,2.43-0.02,4.12,0.13c0.19,0.01,0.4,0.03,0.61,0.06
			l-0.08-0.72c0-0.01,0-0.01,0-0.02c-0.12-0.01-0.22-0.02-0.34-0.03c-1.74-0.15-2.81-0.12-2.85-0.11c-1.6-0.07-2.61-0.03-3.03,1.74
			C114.73,132.65,114.45,141.03,114.44,143.26z"/>
		<path fill="#3B8F3D" d="M115.17,145.25c-0.35-0.32-0.57-0.76-0.68-1.34c0.09,0.61,0.32,1.09,0.68,1.42
			c0.58,0.52,1.26,0.48,1.34,0.47c0,0,1.4-0.07,3.15,0.06l0-0.07c-1.75-0.15-3.16-0.07-3.16-0.07
			C116.43,145.73,115.75,145.78,115.17,145.25z"/>
		<path fill="#38B54A" d="M115.09,143.28c0,0.69,0.16,1.18,0.46,1.46c0.32,0.3,0.7,0.26,0.74,0.27c0.07-0.01,1.69-0.1,3.7,0.11
			c0.19,0.02,0.37,0.03,0.55,0.07l0-0.13l-0.39-0.03c-2.01-0.21-3.63-0.12-3.7-0.11c-0.03,0-0.42,0.03-0.74-0.27
			c-0.3-0.28-0.45-0.77-0.46-1.46c0.01-2.31,0.29-10.53,0.62-11.91c0.27-1.11,0.58-1.19,2.23-1.11c0.04,0,1.1-0.03,2.79,0.12
			l0.5,0.04l0-0.02c-0.21-0.03-0.42-0.05-0.61-0.06c-1.69-0.14-3.83-0.16-4.12-0.13c-0.66,0.07-0.77,0.48-0.95,1.26
			C115.38,132.75,115.09,140.97,115.09,143.28z"/>
		<path fill="#3B8F3D" d="M117.07,126.62l0.8,0.14c0.01-0.03,0.05-0.3,0.11-0.8c-0.12-0.04-0.27-0.09-0.45-0.15
			c-0.09-0.03-0.21-0.08-0.33-0.13C117.12,126.26,117.08,126.6,117.07,126.62z"/>
		<circle fill="#FFFFFF" cx="71.65" cy="105.01" r="1.53"/>
		<circle fill="#FFFFFF" cx="86.96" cy="105.2" r="1.53"/>
		<g>
			<g>
				<path fill="#FFFFFF" d="M67.38,144.57l-0.18,3.9c-0.23,5.03,3.69,9.33,8.71,9.56h0c5.03,0.23,9.33-3.69,9.56-8.71l0.18-3.9
					c0.23-5.03-3.69-9.33-8.71-9.56h0C71.92,135.62,67.62,139.54,67.38,144.57z M70.42,144.57c0.16-3.36,3.03-5.98,6.39-5.82h0
					c3.36,0.16,5.98,3.03,5.82,6.39l-0.19,4.19c-0.16,3.36-3.03,5.98-6.39,5.82h0c-3.36-0.16-5.98-3.03-5.82-6.39L70.42,144.57z"/>
			</g>
			<g>
				<path fill="#FFFFFF" d="M66.67,159.63l18.66,0.87c0.67,0.03,1.24-0.49,1.27-1.16l0.53-11.37c0.03-0.67-0.49-1.24-1.16-1.27
					l-18.66-0.87c-0.67-0.03-1.24,0.49-1.27,1.16l-0.53,11.37C65.48,159.03,66,159.6,66.67,159.63z"/>
			</g>
		</g>
		<path d="M100.97,101.64c0.39,0.55,0.28,1.32-0.27,1.72c-0.26,0.19-0.58,0.27-0.88,0.23c-0.32-0.04-0.63-0.21-0.84-0.5
			c-2.93-4-5.91-6.31-8.64-6.67c-0.02,0-0.04,0-0.06-0.01c-2.1-0.26-3.33,0.72-3.38,0.76c-0.52,0.42-1.3,0.35-1.72-0.17
			c-0.43-0.52-0.37-1.28,0.14-1.71c0.08-0.07,2.05-1.7,5.24-1.32c0,0,0.01,0,0.02,0C94.08,94.4,97.56,96.98,100.97,101.64z"/>
		<path fill="#38B54A" d="M115.51,130.21c0,0,6.01,2.92,5.83-38.92c0.87,0.06,11.72,0.51,15.13,0.31
			c-1.48,24.86,0.37,52.86-21.99,52.89L115.51,130.21z"/>
		<path fill="#3B8F3D" d="M121.76,191.89c-2.16-9.5-4.99-22.8-4.99-22.8l-7.15-2.5c2.67,10.84,6.12,22.47,7.58,27.28
			C118.7,193.1,120.21,192.41,121.76,191.89z"/>
	</g>
</g>
<path id="Icon_Bg_1_" fill="none" stroke="#4DB64A" stroke-width="2" stroke-linejoin="round" d="M131.5,79.63
	c14.21,12.9,23.13,31.51,23.13,52.21c0,38.94-31.56,70.5-70.5,70.5s-70.5-31.56-70.5-70.5c0-21.05,9.23-39.95,23.86-52.86"/>
<path id="Icon_Bg_4_" fill="none" stroke="#4DB64A" stroke-width="2" stroke-linejoin="round" d="M133.98,81.99
	c12.76,12.76,20.65,30.38,20.65,49.85c0,38.94-31.56,70.5-70.5,70.5s-70.5-31.56-70.5-70.5c0-19.22,7.69-36.64,20.16-49.36"/>
<g>
	<path fill="#3B8F3D" d="M126.66,82.03c22.58,0,40.88-18.57,40.88-41.15C167.55,18.3,149.24,0,126.66,0
		c-10.95,0-20.9,4.31-28.24,11.32l-0.04-0.03L80.26,29.87L56.4,54.34l-1.66,1.7c-3.65,3.34-8.51,5.37-13.85,5.37
		c-11.34,0-20.54-9.19-20.54-20.54c0-11.34,9.2-20.54,20.54-20.54c0.34,0,0.69,0.01,1.03,0.03c0.02,0,0.04,0,0.06,0
		c0.14,0.01,0.27,0.02,0.41,0.03c0.05,0,0.1,0.01,0.15,0.01c2.65,0.21,5.15,0.92,7.42,2.04c1.17,0.54,2.34,1.71,2.79,2.11
		l-6.59,6.58l0.81,5.59L76.7,32l-0.89-12.38L75.22,8.19l-0.63-5.62l-5.41,5.44c0,0-7.83-5.63-21.49-7.44
		c-2.35-0.31-4.88-0.51-7.57-0.56c-0.97,0.02-1.94,0.07-2.89,0.15C16.36,2.02,0,19.54,0,40.88c0,22.58,18.3,40.88,40.88,40.88
		c9.28,0,17.83-3.09,24.69-8.3c1.47-1.12,2.87-2.33,4.17-3.64l0.03-0.03l0.13-0.13c0.01-0.01,0.01-0.01,0.02-0.02l17.43-17.5
		l21.46-22.12l4.82-4.81c5.12-4.16,10.4-4.65,13-4.65c11.34,0,20.56,8.97,20.56,20.31c0,11.35-9.2,20.54-20.54,20.54
		c-3.07,0-5.51-0.76-7.79-1.53c-5.33-1.8-10.06-6.62-19.75-16.63L84.87,57.8l0.82,5.75c0,0,25.8,18.57,40.76,18.47
		C126.52,82.03,126.59,82.03,126.66,82.03"/>
	<path fill="#5BDB59" d="M127.37,87.58c22.58,0,40.88-18.57,40.88-41.15c0-22.58-18.3-40.88-40.88-40.88
		c-10.95,0-20.9,4.31-28.24,11.32l-0.04-0.03L80.97,35.42L57.1,59.89l-1.66,1.7c-3.65,3.34-8.51,5.37-13.85,5.37
		c-11.34,0-20.54-9.19-20.54-20.54c0-11.34,9.2-20.54,20.54-20.54c0.34,0,0.69,0.01,1.03,0.03c0.02,0,0.04,0,0.06,0
		c0.14,0.01,0.27,0.02,0.41,0.03c0.05,0,0.1,0.01,0.15,0.01c2.65,0.21,5.15,0.92,7.42,2.04c1.17,0.54,2.34,1.71,2.79,2.11
		l-6.59,6.58l13.01,0.37l17.53,0.5l-0.89-12.38L75.29,8.12l-5.41,5.44c0,0-7.83-5.63-21.49-7.44c-2.35-0.31-4.88-0.51-7.57-0.56
		c-0.97,0.02-1.94,0.07-2.89,0.15C17.06,7.57,0.7,25.09,0.7,46.43c0,22.58,18.3,40.88,40.88,40.88c9.28,0,17.83-3.09,24.69-8.3
		c1.47-1.12,2.87-2.33,4.17-3.64l0.03-0.03l0.13-0.13c0.01-0.01,0.01-0.01,0.02-0.02l17.43-17.5l21.46-22.12l4.82-4.81
		c5.12-4.16,10.4-4.65,13-4.65c11.34,0,20.56,8.97,20.56,20.31c0,11.35-9.2,20.54-20.54,20.54c-3.07,0-5.51-0.76-7.79-1.53
		c-5.33-1.8-7.42-3.83-17.11-13.84L88.21,66.14c11.46,12.02,22.05,21.54,38.94,21.43C127.22,87.58,127.29,87.58,127.37,87.58"/>
	<g>
		
			<path fill="none" stroke="#FFFFFF" stroke-width="2.5974" stroke-linecap="round" stroke-linejoin="round" stroke-miterlimit="10" d="
			M142.47,13.83c4.52,1.55,8.9,4.68,11.83,9.04"/>
		<circle fill="#FFFFFF" cx="138.45" cy="12.46" r="1.45"/>
	</g>
</g>
</svg>
