<?xml version="1.0" encoding="utf-8"?>
<!-- Generator: Adobe Illustrator 24.1.1, SVG Export Plug-In . SVG Version: 6.00 Build 0)  -->
<svg version="1.1" id="SEC_3" xmlns="http://www.w3.org/2000/svg" xmlns:xlink="http://www.w3.org/1999/xlink" x="0px" y="0px"
	 viewBox="0 0 168.3 203.4" style="enable-background:new 0 0 168.3 203.4;" xml:space="preserve">
<style type="text/css">
	.st0{fill:none;stroke:#FFFFFF;stroke-width:2;stroke-linecap:round;stroke-miterlimit:10;}
	.st1{fill:#F7FAFE;}
	.st2{opacity:0.16;}
	.st3{fill:#3A8F3D;}
	.st4{fill:#46AE4C;}
	.st5{fill:none;stroke:#FFFFFF;stroke-width:1.6339;stroke-linecap:round;stroke-linejoin:round;stroke-miterlimit:10;}
	.st6{fill:#FFFFFF;}
	.st7{fill:none;stroke:#000000;stroke-width:1.5696;stroke-linecap:round;stroke-linejoin:round;stroke-miterlimit:10;}
	.st8{fill:#D0873B;}
	.st9{fill:#818282;}
	.st10{fill:#B7B6B6;}
	.st11{fill:#C06C15;}
	.st12{fill:none;stroke:#53AF4D;stroke-width:2;stroke-linejoin:round;}
	.st13{fill:#F08506;}
	.st14{fill:#EF9F48;}
	.st15{fill:#D2883F;}
	.st16{fill:#F6A746;}
</style>
<g>
	<path class="st0" d="M95.6,124.7c0,0-4.4-3.2-11.3-3.9"/>
	<circle class="st1" cx="81.4" cy="120.3" r="1.1"/>
	<path class="st2" d="M70.5,186.7c-11.3,0-21.4,0.9-28.6,2.3c0.2,0.1,0.4,0.3,0.6,0.4c2.8,1.9,5.8,3.2,8.5,5.3
		c2.3,1.7,4.5,2.2,7.2,3.2c1.9,0.7,3.8,1.7,5.7,2.3c1,0.2,1.9,0.3,2.9,0.4c1.4,0.2,2.8,0.5,4.1,1.1c23.1,0,39-3.4,39-7.5
		C110,190.1,92.3,186.7,70.5,186.7z"/>
	<path class="st3" d="M107.1,84.6c-1.3-3.3-5.4-9.5-9.2-14.6l-17,6.8c3.1,4.1,6,9.5,7.5,17.3c4.8,25.1,8.5,45.8,8.5,45.8
		s0.5,0.2,6.6-1s7-10,7-10S111.4,95.7,107.1,84.6z"/>
	<path class="st3" d="M108.9,185.4l-25.8,8.4l-5.4-1.6c0,0-1-5.7-3.9-10.2c-5.2-8.1,5.1-12.7,5.1-12.7s28.9,10.2,29.3,10.4
		C108.6,180.1,108.9,185.4,108.9,185.4z"/>
	<path class="st4" d="M107.2,160.3l-62.8,4.1c-2.4,7.5-4.9,16-6.6,21.8c0.2,0.1,0.3,0.2,0.3,0.3c1.5,1,2.8,2.1,4.3,3.1
		c2.2,1.5,4.4,2.6,6.6,4c9.2,0.2,19.7,0.4,19.7,0.3c4-11.5,4.1-17.6,4.9-19.6c7.1,7.6,9.5,19.7,9.5,19.7s17.2-0.4,26.5-1.3
		C108.3,179.6,107.2,160.3,107.2,160.3z"/>
	<path class="st3" d="M110.8,156.6c0,1.7-0.1,3.8-2.4,4.1l0,0l-1.6,0.2l-2.3,0.2c-2.4,0.2-57.8,5-57.8,5l0-0.9
		c0,0,55.7-4.7,57.8-4.9l3.9-0.4c1.6-0.2,1.7-1.4,1.7-3.4l0-0.2l-2.1-36.5c-0.2-1.4-1.4-2.4-2.8-2.3l-13.3,1.2l0-0.8l12.5-1.1
		c0,0.1,0,0.2,0,0.3l0.8-0.1c0-0.1,0-0.2,0-0.3c1.9-0.1,3.4,1.2,3.7,3l1.4,25l-0.3,0.4c0.1,0.1,0.3,0.2,0.4,0.3L110.8,156.6z"/>
	<path class="st4" d="M91.9,118.7l13.3-1.2c1.4-0.1,2.6,0.9,2.8,2.3l2.1,36.5l0,0.2c0,2-0.1,3.2-1.7,3.4l-3.9,0.4
		c-2.1,0.2-49.2,4.2-56.4,4.8c-0.2,0-0.4,0-0.6,0.1L44.2,123"/>
	<path class="st3" d="M110.2,144.8l0,0.7c-0.1-0.1-0.3-0.2-0.4-0.3L110.2,144.8z"/>
	<path class="st3" d="M105.2,117l-0.8,0.1c0-0.1,0-0.2,0-0.3l0.8-0.1c0,0,0,0,0,0C105.2,116.8,105.2,116.9,105.2,117z"/>
	<path class="st3" d="M105.9,114.7c0,0,0.2,2.3,0.2,2.3l-0.8,0.1c0-0.3-0.3-2.9-0.3-3.3c-0.5-4.9-2-19.9-12.5-27.8
		c-6.5-4.9-15.3-6.4-26.2-4.5c-10.6,1.9-18.3,6.6-23,13.9c-7.5,11.7-4.9,27-4.1,30.8c-0.1,0.1-0.2,0.1-0.3,0.2
		c-0.2,0.1-0.3,0.1-0.4,0.2c-0.8-3.7-3.6-19.5,4.2-31.6c4.8-7.5,12.7-12.4,23.6-14.3c11.1-2,20.1-0.4,26.8,4.6
		c10.8,8.2,12.4,23.4,12.9,28.4C105.8,114.1,105.9,114.4,105.9,114.7z"/>
	<path class="st4" d="M105.4,117l-9.9,0.8c-0.2-2.7-1.4-15.8-9.1-22.1c-4.2-3.4-9.6-4.6-16.1-3.6c-8,1.3-14.4,8-15,8.8
		c-5.6,8.3-3.9,19.6-3.5,21.8l-6.9,1l-0.1,0c-1.1,0.2-4.4,1.8-5.8,2.5c-0.8-3.9-3.4-19.1,4.1-30.8c4.7-7.3,12.4-12,23-13.9
		C77.2,79.6,86,81.1,92.4,86c10.5,8,12.1,22.9,12.5,27.8C105,114.2,105.4,116.7,105.4,117z"/>
	<path class="st5" d="M48.4,91.9c-1.8,2-3.9,5-5,7.9"/>
	<circle class="st6" cx="50.6" cy="89.8" r="0.9"/>
	<path class="st4" d="M95.6,117.6l-0.6,0c-0.2-2.4-1.7-15.3-9.1-21.3c-4-3.3-9.2-4.4-15.5-3.4c-0.2,0-0.4,0.1-0.6,0.1
		c-2.8,0.5-5.3,1.4-7.5,2.6c-0.5,0-0.9-0.1-1.4-0.1c2.6-1.7,5.8-2.8,9.4-3.4c6.5-1.1,11.9,0.2,16.1,3.6
		C94.1,102,96.1,113,95.6,117.6z"/>
	<polygon class="st6" points="91.9,117.9 91.9,118.7 91.5,118.8 91.5,117.9 	"/>
	<polygon class="st6" points="91.5,118.8 91.1,118.8 91.1,118 91.5,117.9 	"/>
	<path d="M79.5,98.8c2.5,0,4.5,2.1,4.4,4.6c0,2.5-2.1,4.5-4.5,4.4c-2.5,0-4.5-2.1-4.4-4.5C74.9,100.8,77,98.8,79.5,98.8z"/>
	<path class="st4" d="M69.1,144.4l-0.8,0.1c0,0,0,0,0-0.1c0,0,0,0,0,0c0.2-0.1,0.5-0.2,0.8-0.3C69.1,144.3,69.1,144.4,69.1,144.4z"
		/>
	<path class="st6" d="M59.4,116.5"/>
	<line class="st6" x1="59.6" y1="120.8" x2="91.9" y2="117.9"/>
	<line class="st6" x1="60" y1="120.8" x2="59.6" y2="120.8"/>
	<path d="M64.2,100.5c2.5,0,4.5,2.1,4.4,4.6c0,2.5-2.1,4.5-4.6,4.4c-2.5,0-4.5-2.1-4.4-4.5C59.6,102.5,61.7,100.5,64.2,100.5z"/>
	<polygon class="st6" points="60,120.8 60.1,121.6 59.7,121.6 59.6,120.8 	"/>
	<path class="st3" d="M37.8,124.3c1.4-0.6,4.9-2,5.9-2.1l0.1,0l6.9-0.6c0,0.2,0.1,0.4,0.1,0.4l0.8-0.1c0,0,0-0.1,0-0.3l40.3-3.6
		l0.1,0.8L44.2,123l0-0.5l-0.8,0.1l0.1,0.6c-1.2,0.4-3.5,1.6-5.5,2.4c-0.4,0.1-0.7-0.1-0.7-0.1l-0.2,0.1c-1.4,0.2-2.4,1.3-2.3,2.6
		C36.1,128,37,128,37,128c1.6-0.1,2.6-0.1,3.1,1.6c0.4,1.5,1,9.8,1.1,12c0,0,0,0.1,0,0.1c-0.1-2.2-0.6-10.6-1.1-12
		c-0.5-1.8-1.5-1.8-3.1-1.6c0,0-1.1,0-2.8,0.2c-0.1,0-0.2,0-0.3,0c-0.1-1.8,1.3-2.9,3-3.6"/>
	<path class="st4" d="M61.9,94.4c0.3-0.1,1.7,0.5,0.5,1.2c-1.1,0.7-3.1,2.2-3.5,2.5c-1.1,1-2,2.1-2.8,3.3
		c-5.5,8.1-3.9,18.1-3.5,20.1l-0.8,0.1c-0.4-2.2-1.9-12.4,3.7-20.7C55.9,100.1,61.2,95.1,61.9,94.4z"/>
	<path class="st3" d="M51.6,121.8l-0.8,0.1c0,0,0-0.1-0.1-0.4l0.8-0.1C51.6,121.7,51.6,121.8,51.6,121.8z"/>
	<path class="st3" d="M35.2,144.7c0.1,0,0.3,0,0.4-0.1c0.1,0,0.3,0,0.4-0.1l0.6,7.4l0,0c0.6-0.1,1-0.2,1.5-0.1
		c0.9,0,1.7,0.4,2.3,1.2c1.9,2.6,1.6,8.8,1,10.7c-0.6,2.2-2.4,2.2-3.4,2.2c0,0-0.1,0-0.1,0c0.1,0.5,0.3,0.8,0.6,1
		c0.4,0.2,0.9,0.3,1.7,0.3l6.5-1.9l0,0.8l-6.2,1.8c-0.1,0-0.7,0.1-0.9,0.1c-0.1,0-0.1,0-0.2,0c-1.4-0.1-2-2-2-2l-0.1-0.9"/>
	<path class="st4" d="M44.2,123l3.4,42.1c-0.2,0-0.3,0-0.3,0l-0.5,0.1l-3.4-42.1c0.2-0.1,0.4-0.1,0.5-0.1L44.2,123z"/>
	<path class="st3" d="M43.4,123.2l3.4,42.1l-6.5,1.9c-0.8,0.1-1.3,0-1.7-0.3c-0.3-0.2-0.5-0.5-0.6-1c0,0,0.1,0,0.1,0
		c1,0,2.8,0,3.4-2.2c0.6-1.9,0.9-8.1-1-10.7c-0.6-0.8-1.4-1.2-2.3-1.2c-0.4,0-0.9,0-1.5,0.1l0,0l-0.6-7.4c1.7-0.2,3.1-0.2,3.1-0.2
		c0.1,0,0.8,0,1.3-0.5c0.4-0.3,0.6-0.8,0.6-1.4c0-0.2,0-0.4,0-0.7c0,0,0,0,0-0.1c-0.1-2.2-0.6-10.6-1.1-12c-0.5-1.8-1.5-1.8-3.1-1.6
		c0,0-0.9,0-2.4,0.2c0-1.3,1-2.5,2.3-2.6l0.2-0.1c0,0,0.3,0.2,0.7,0.1C39.9,124.8,42.2,123.6,43.4,123.2z"/>
	<path class="st3" d="M44.1,122.5l0,0.5l-0.3,0c-0.1,0-0.3,0.1-0.5,0.1l-0.1-0.6L44.1,122.5z"/>
	<path class="st3" d="M41.2,141.8c0,0.2,0,0.5,0,0.7c-0.1,0.6-0.3,1-0.6,1.4c-0.6,0.5-1.2,0.5-1.3,0.5c0,0-1.4,0-3.1,0.2l0,0.1
		c-0.1,0-0.3,0-0.4,0.1c-0.1,0-0.3,0-0.4,0.1l-0.1-0.8c0.2,0,0.4-0.1,0.5-0.1c2-0.3,3.6-0.2,3.7-0.2c0,0,0.4,0,0.7-0.3
		c0.3-0.3,0.4-0.8,0.4-1.5c-0.1-2.3-0.6-10.5-1-11.8c-0.2-0.8-0.3-1.2-1-1.2c-0.3,0-2.4,0.1-4.1,0.3c-0.2,0-0.4,0-0.6,0.1l0.1-0.7
		c0,0,0,0,0,0c0.1,0,0.2,0,0.3,0c1.7-0.2,2.8-0.2,2.8-0.2c1.6-0.1,2.6-0.1,3.1,1.6C40.5,131.2,41.1,139.6,41.2,141.8z"/>
	<path class="st3" d="M40.5,143.8c0.3-0.3,0.5-0.8,0.6-1.4C41.1,143,40.9,143.5,40.5,143.8c-0.6,0.6-1.2,0.6-1.3,0.6
		c0,0-1.4,0-3.1,0.2l0-0.1c1.7-0.2,3.1-0.2,3.1-0.2C39.3,144.3,39.9,144.3,40.5,143.8z"/>
	<path class="st4" d="M40.5,141.8c0,0.7-0.1,1.2-0.4,1.5c-0.3,0.3-0.7,0.3-0.7,0.3c-0.1,0-1.7,0-3.7,0.2c-0.2,0-0.4,0-0.5,0.1l0-0.1
		l0.4,0c2-0.3,3.6-0.2,3.7-0.2c0,0,0.4,0,0.7-0.3c0.3-0.3,0.4-0.8,0.4-1.5c-0.1-2.3-0.6-10.5-1-11.8c-0.3-1.1-0.6-1.2-2.3-1
		c0,0-1.1,0-2.8,0.2l-0.5,0.1l0,0c0.2,0,0.4-0.1,0.6-0.1c1.7-0.2,3.8-0.3,4.1-0.3c0.7,0,0.8,0.5,1,1.2
		C39.9,131.3,40.4,139.5,40.5,141.8z"/>
	<circle class="st6" cx="82.5" cy="101.5" r="1.5"/>
	<circle class="st6" cx="67.3" cy="103.1" r="1.5"/>
	<g>
		<path class="st6" d="M78.3,133.1L78.3,133.1c-5,0.4-8.8,4.8-8.4,9.8l0.3,3.9c0.4,5,4.8,8.8,9.8,8.4h0c5-0.4,8.8-4.8,8.4-9.8
			l-0.3-3.9C87.7,136.5,83.3,132.7,78.3,133.1z M85.4,145.7c0.3,3.3-2.2,6.3-5.6,6.6h0c-3.3,0.3-6.3-2.2-6.6-5.6l-0.3-4.2
			c-0.3-3.3,2.2-6.3,5.6-6.6h0c3.3-0.3,6.3,2.2,6.6,5.6L85.4,145.7z"/>
	</g>
	<g>
		<path class="st6" d="M89.3,156.5L70.8,158c-0.7,0.1-1.3-0.4-1.3-1.1l-0.9-11.3c-0.1-0.7,0.4-1.3,1.1-1.3l18.6-1.5
			c0.7-0.1,1.3,0.4,1.3,1.1l0.9,11.3C90.5,155.8,90,156.4,89.3,156.5z"/>
	</g>
	<path class="st3" d="M37.1,185.5c0.4,0.3,0.9,0.7,1.1,0.8c1.9-6,4.6-15,6.9-23.2l-7.2,2.3c0,0-2,8.3-4.1,16.4
		C35.2,182.7,36.3,184,37.1,185.5z"/>
	<path class="st7" d="M68.2,113.7c0,0,3.1-1.2,5.4,0.8"/>
	<path class="st7" d="M55.3,97.4c6.3-1.6,8.1,1.3,12.6,1.1"/>
	<path class="st7" d="M73.1,91.4c0,0,8.4-5.3,12.6,1.2"/>
	<path class="st3" d="M47,67.9c-10.8-4.7-16.7-3.3-21.3,2.9l17.4,4.8C44.7,72.3,46.2,69.5,47,67.9z"/>
	<path class="st3" d="M46.7,67.4c-6.6-2.8-12.5-1.7-17.2,4.4l14.7,4.1C46.2,70.7,48.9,68.3,46.7,67.4z"/>
	<circle class="st8" cx="80.5" cy="60.7" r="2.8"/>
	<path class="st9" d="M2.3,50.9L7,73c0,0,12.3-2.5,12.1-2.7c-6.7-5.2-4.4-16.2-1.7-23.6C11.6,46.5,6,47.3,2.3,50.9z"/>
	<path class="st10" d="M0.7,43.4l1.6,7.5c3.7-3.6,9.2-4.4,15-4.2c1.5-4.3,3.2-7.4,3.2-7.4L0.7,43.4z"/>
	<path class="st11" d="M118.6,172.8H118c-0.1,0-0.2,0.1-0.2,0.2v21.6c0.4,0.2,0.7,0.3,1.1,0.5v-22.1
		C118.9,172.9,118.7,172.8,118.6,172.8z"/>
	<path class="st11" d="M141.1,176.9h-0.7c-0.1,0-0.2,0-0.2,0v3.6c0,0,0.1,0,0.2,0h0.7c0.1,0,0.2,0,0.2,0v-3.6
		C141.3,176.9,141.2,176.9,141.1,176.9z"/>
	<path class="st11" d="M141.1,188.2h-0.7c-0.1,0-0.2,0.1-0.2,0.2v7c0.4-0.1,0.8-0.3,1.1-0.5v-6.5
		C141.3,188.2,141.2,188.2,141.1,188.2z"/>
	<path class="st11" d="M140.2,154.7v15.9c0,0.1,0.1,0.2,0.2,0.2h0.7c0.1,0,0.2-0.1,0.2-0.2v-16.4C141,154.4,140.6,154.5,140.2,154.7
		z"/>
	<path class="st11" d="M117.7,154v9.1c0,0.1,0.1,0.1,0.2,0.1h0.7c0.1,0,0.2-0.1,0.2-0.1v-8.7C118.4,154.3,118.1,154.2,117.7,154z"/>
	<path id="Icon_Bg_5_" class="st12" d="M37.5,79"/>
	<path id="Icon_Bg_3_" class="st12" d="M17.9,107.6"/>
	<path id="Icon_Bg_2_" class="st12" d="M131.5,79.6c14.2,12.9,23.1,31.5,23.1,52.2c0,12.4-3.2,24.1-8.9,34.3"/>
	<path class="st12" d="M24.4,94.4c-6.8,10.9-10.8,23.7-10.8,37.5c0,38.9,31.6,70.5,70.5,70.5s70.5-31.6,70.5-70.5
		c0-36.5-27.7-66.5-63.3-70.1l-3.5-0.4"/>
	<g>
		<ellipse class="st2" cx="130.4" cy="193.3" rx="16.7" ry="6.5"/>
		<ellipse class="st13" cx="129.7" cy="150.9" rx="14.9" ry="5.3"/>
		<ellipse class="st14" cx="129.7" cy="150.9" rx="13.5" ry="3.9"/>
		<path class="st15" d="M129.7,153.4c-5.3,0-8.7-1-10.6-1.8c-0.6-0.3-0.6-1.2,0-1.4c1.8-0.8,5.3-1.8,10.6-1.8c5.3,0,8.7,1,10.6,1.8
			c0.6,0.3,0.6,1.2,0,1.4C138.5,152.4,135,153.4,129.7,153.4z"/>
		<path class="st14" d="M129.7,152c-3.1,0-5.5-0.4-7.2-0.8c-0.4-0.1-0.4-0.7,0-0.8c1.7-0.4,4.1-0.8,7.2-0.8c3.1,0,5.5,0.4,7.2,0.8
			c0.4,0.1,0.4,0.7,0,0.8C135.2,151.7,132.9,152,129.7,152z"/>
		<path class="st13" d="M152.2,166.7c-1.3-1.9-2.9-3-3.5-2.6l-4,2.9v-16.1c0,2.9-6.7,5.3-14.9,5.3c-8.2,0-14.9-2.4-14.9-5.3v40.6
			c0,2.9,6.7,5.3,14.9,5.3c8.2,0,14.9-2.4,14.9-5.3v-14.4l8.9-6.3C154.1,170.4,153.5,168.6,152.2,166.7z"/>
		<path class="st11" d="M124.3,172.1h-0.7c-0.1,0-0.2,0-0.2,0.1v9.5c0,0.1,0.1,0.1,0.2,0.1h0.7c0.1,0,0.2,0,0.2-0.1v-9.5
			C124.5,172.2,124.4,172.1,124.3,172.1z"/>
		<path class="st11" d="M129.2,161.2h-0.7c-0.1,0-0.2,0-0.2,0.1v7.3c0,0,0.1,0.1,0.2,0.1h0.7c0.1,0,0.2,0,0.2-0.1v-7.3
			C129.4,161.2,129.3,161.2,129.2,161.2z"/>
		<path class="st11" d="M133.7,156v2.8c0,0,0.1,0,0.2,0h0.7c0.1,0,0.2,0,0.2,0v-2.9C134.5,155.9,134.1,156,133.7,156z"/>
		<path class="st11" d="M129.2,181.2h-0.7c-0.1,0-0.2,0.1-0.2,0.2v15.5c0.4,0,0.8,0,1.1,0v-15.5
			C129.4,181.3,129.3,181.2,129.2,181.2z"/>
		<path class="st11" d="M134.6,169.7H134c-0.1,0-0.2,0.1-0.2,0.2v17.7c0,0.1,0.1,0.2,0.2,0.2h0.7c0.1,0,0.2-0.1,0.2-0.2v-17.7
			C134.9,169.8,134.7,169.7,134.6,169.7z"/>
	</g>
	<path class="st3" d="M43.1,75.5l-17.4-4.8c-0.6,0.8-1.2,1.7-1.7,2.6c-1.5,3.1-7.3,22.4-6.9,28.8c0.5,7.4,7.7,37,7.7,37
		s4,7.1,10.1,6c6.1-1.1,6.5-1.4,6.5-1.4s-9.1-39-8.6-44.6C33.3,95.1,38.9,83.7,43.1,75.5z"/>
	<path class="st4" d="M27.7,74.6c-0.6,3.7-7.4,23.2-6.4,29.4c1.2,7.4,7.6,34,7.6,34s2.6,5.3,8.8,4.2s5.9-1.3,5.9-1.3
		S35.8,110,36.1,101c0.3-8.2,5.2-19.5,8-24.9c0-0.1,0.1-0.2,0.1-0.3l-14.7-4.1C28.9,72.6,28.3,73.6,27.7,74.6z"/>
	<path class="st3" d="M91.8,62.3c-4-10.2-21.8-8-18.8,6.1c2.1,2.1,4.7,4.4,7.2,7.5c0.2,0.3,0.5,0.6,0.7,0.9l17-6.8
		C95.3,66.4,92.9,63.4,91.8,62.3z"/>
	<g>
		<path class="st16" d="M4.3,73.4L4.3,73.4c-1.4,0.2-2.6,1.4-2.6,2.9C1.8,77.8,3,79,4.6,79c0.4,0,0.7-0.1,1-0.2L55,68.7L54.8,63
			L4.3,73.4z"/>
		<path class="st16" d="M81.2,63.4c1.2-0.3,2.1-1.4,2.1-2.7c0-0.6-0.2-1.1-0.4-1.5L81.2,63.4z"/>
		<path class="st16" d="M80.5,57.9c-0.2,0-0.3,0-0.5,0v0L54.8,63l0.2,5.7l25.8-5.2c0,0,0,0,0,0c0.1,0,0.3,0,0.4-0.1l1.7-4.2
			C82.4,58.4,81.5,57.9,80.5,57.9z"/>
	</g>
</g>
</svg>
