<?xml version="1.0" encoding="utf-8"?>
<!-- Generator: Adobe Illustrator 24.1.1, SVG Export Plug-In . SVG Version: 6.00 Build 0)  -->
<svg version="1.1" id="SEC_3" xmlns="http://www.w3.org/2000/svg" xmlns:xlink="http://www.w3.org/1999/xlink" x="0px" y="0px"
	 viewBox="0 0 168.3 203.4" style="enable-background:new 0 0 168.3 203.4;" xml:space="preserve">
<style type="text/css">
	.st0{fill:none;stroke:#53AF4D;stroke-width:2;stroke-linejoin:round;}
	.st1{opacity:0.16;}
	.st2{fill:#3B8F3D;}
	.st3{fill:#38B54A;}
	.st4{fill:none;stroke:#FFFFFF;stroke-width:1.619;stroke-linecap:round;stroke-linejoin:round;stroke-miterlimit:10;}
	.st5{fill:#FFFFFF;}
	.st6{fill:#F6A847;}
	.st7{fill:#F99F3D;}
	.st8{fill:#F28701;}
	.st9{fill:#FFB888;}
	.st10{fill:#FFD05A;}
</style>
<path class="st0" d="M105.6,64.7c-22.2-7.1-47.1-2.9-66,12.5l-2.8,2.2"/>
<path class="st0" d="M24.4,94.4c-6.8,10.9-10.8,23.7-10.8,37.5c0,38.9,31.6,70.5,70.5,70.5s70.5-31.6,70.5-70.5
	c0-36.5-27.7-66.5-63.3-70.1l-3.5-0.4"/>
<path class="st1" d="M28.3,175.3c0.3,0.5,0.5,1.1,0.8,1.6c0.1,0.1,0.9,0.9,0.9,1c0.9,0.9,1.9,1.6,2.8,2.5c0.8,0.8,1.4,1.8,2.1,2.7
	c0.7,0.8,0.1,0.2,0.5,0.6c0.9,0.9,1.9,1.7,2.9,2.5c0.7,0.3,1.4,0.8,1.9,1.3l36.9-1.5l-28-10l-21.6-1.7
	C27.9,174.6,28.1,174.9,28.3,175.3z"/>
<g>
	<path class="st2" d="M150.4,140.4l9.2,12c-6.2,6.7-11.8-6.3-12-7C147.3,144.2,149,141.8,150.4,140.4z"/>
	<path class="st2" d="M154.1,136.4c1.8-9-8.4-10.3-8.8-10.4c0,0,0,0,0,0c-0.2-0.2-1.5-1.2-2.8-2.3c-1.3-1.1-2-1.6-2.4-2
		c0,0,0.1,0,0.1,0c1.7,0.3,6.3,0.9,10.3,2.8C160.2,129.3,154.2,136.1,154.1,136.4z"/>
	<path class="st3" d="M159.7,152.4l-9.3-12c1.4-1.3,6.2-11.6,0.6-14.9c-3.7-2.6-8.8-3.4-10.5-3.6c-0.3,0-0.5-0.1-0.6-0.1l0,0
		c0,0,0,0,0,0l2.3-13.4c0,0,0,0,0,0l0.1,0l0-0.1c0.4,0,17.4,1.3,24.5,14.5C172,133.9,162.1,149,159.7,152.4z"/>
</g>
<path class="st1" d="M134.7,180.7c1-0.9,1.9-1.9,3-2.6c0.1-0.1,0.3-0.2,0.4-0.3c0,0,0.1-0.1,0.1-0.2c1.6-2.2,2.9-4.2,4.6-5.7
	c-8.3-1.7-20.2-2.7-33.3-2.7c-25.2,0-45.7,3.8-45.7,8.6s20.5,8.6,45.7,8.6c7.8,0,14.9-0.3,21.1-0.9
	C131.9,183.7,133.3,182.1,134.7,180.7z"/>
<path class="st2" d="M144.5,168.5c0.4-0.6,0.8-1.1,1.2-1.6c0.3-1.1,0.8-2,1.5-2.8c0,0,0,0,0,0c-0.4-0.3-29.4-9.4-29.4-9.4
	s-10.1,4.9-4.6,12.7c3.1,4.4,4.2,10,4.2,10l5.3,1.7l20.8-7.7C143.5,170.4,143.9,169.4,144.5,168.5z"/>
<path class="st3" d="M139.6,176.2c-0.4,0.9-0.2,0.4,0.6-1.5c0.3-0.9,0.8-1.7,1.3-2.4c1.8-2.8,4.1-5.2,5.5-8.4
	c-1.4-8.9-2.6-16.7-2.6-16.7l-61.1,3.5c-3.7,13-7.6,28.8-7.6,28.8s32.7-0.4,32.7-0.5c3.6-11.6,3.5-17.6,4.2-19.6
	c7.3,7.4,10,19.2,10,19.2s7.3-0.4,14.9-1C138.6,176.9,139.6,176.2,139.6,176.2z"/>
<path class="st2" d="M147.7,143.5c-0.1,1.7-0.2,3.8-2.5,4l0,0l-1.6,0.1l-2.3,0.1c-2.4,0.1-57.5,3-57.5,3l0-0.9
	c0,0,55.3-2.8,57.4-2.9l3.8-0.2c1.6-0.1,1.7-1.3,1.8-3.3l0-0.2l-0.8-36.3c-0.1-1.4-1.3-2.4-2.7-2.4l-13.2,0.7l0-0.8l12.4-0.7
	c0,0.1,0,0.2,0,0.3l0.8,0c0-0.1,0-0.2,0-0.3c1.9-0.1,3.4,1.3,3.5,3.1l0.6,24.9c0,0,0,0.5,0,0.7L147.7,143.5z"/>
<path class="st3" d="M130.2,105.4l13.2-0.7c1.4-0.1,2.6,1,2.7,2.4l0.8,36.3l0,0.2c-0.1,1.9-0.3,3.1-1.8,3.3l-3.8,0.2
	c-2.1,0.1-48.9,2.5-56,2.8c-0.2,0-0.4,0-0.6,0L82.8,108"/>
<path class="st2" d="M143.4,104.1l-0.8,0c0-0.1,0-0.2,0-0.3l0.8,0c0,0,0,0,0,0C143.4,103.9,143.4,104,143.4,104.1z"/>
<path class="st2" d="M143.4,103.8C143.4,103.8,143.4,103.8,143.4,103.8l-0.8,0c0-0.3,0-0.6,0-1c0-4.9-0.2-19.8-9.8-28.6
	c-5.9-5.4-14.5-7.7-25.4-6.8c-10.6,0.9-18.7,4.8-24,11.6c-8.5,10.9-7.4,26.2-6.9,30.1c-0.1,0.1-0.2,0.1-0.3,0.1
	c-0.2,0.1-0.3,0.1-0.4,0.1c-0.5-3.7-1.8-19.5,7-30.9c5.5-7,13.7-11,24.6-12c11.2-0.9,19.9,1.4,26,7c9.9,9.1,10.1,24.2,10.1,29.2
	C143.4,103.2,143.4,103.5,143.4,103.8z"/>
<path class="st3" d="M142.6,103.9l-9.5,0.5c0-2.7-0.2-14.2-7.2-21.2c-3.9-3.8-9.1-5.5-15.6-5c-8,0.6-15,6.6-15.6,7.4
	c-6.3,7.7-5.6,19-5.4,21.2l-6.9,0.4l-0.1,0c-1.1,0.1-4.5,1.4-6,1.9c-0.5-3.9-1.6-19.2,6.9-30.1c5.3-6.8,13.4-10.7,24-11.6
	c10.9-0.9,19.5,1.4,25.4,6.8c9.7,8.8,9.8,23.7,9.8,28.6C142.6,103.2,142.6,103.6,142.6,103.9z M129.1,78.9c0.5-0.4,0.6-1.2,0.2-1.7
	c-3.4-4.6-6.9-7-10.4-7.4c0,0,0,0,0,0c-3.2-0.3-5.1,1.3-5.2,1.4c-0.5,0.4-0.5,1.2-0.1,1.7c0.4,0.5,1.2,0.6,1.7,0.1
	c0.1,0,1.3-1,3.3-0.8c0,0,0,0,0.1,0c2.7,0.3,5.7,2.5,8.6,6.5c0.2,0.3,0.5,0.4,0.8,0.5C128.5,79.2,128.8,79.1,129.1,78.9z"/>
<g>
	<path class="st4" d="M88.7,76c-2,1.8-4.3,4.6-5.7,7.3"/>
	<circle class="st5" cx="91" cy="74.2" r="0.9"/>
</g>
<path class="st3" d="M133.1,104.4l-0.8,0c0-2.4-0.2-14-7-20.6c-3.7-3.6-8.7-5.2-15-4.8c-0.2,0-0.4,0-0.6,0.1
	c-2.8,0.2-5.4,0.9-7.7,1.9c-0.5-0.1-0.9-0.2-1.4-0.2c2.7-1.4,5.9-2.3,9.6-2.5c6.5-0.4,11.7,1.2,15.6,5
	C133,90.1,133.2,101.7,133.1,104.4z"/>
<polygon class="st5" points="130.2,104.5 130.2,105.4 129.8,105.4 129.8,104.6 "/>
<polygon class="st5" points="129.8,105.4 129.4,105.4 129.4,104.6 129.8,104.6 "/>
<path d="M129.3,77.2c0.4,0.5,0.3,1.3-0.2,1.7c-0.3,0.2-0.6,0.3-0.9,0.2c-0.3,0-0.6-0.2-0.8-0.5c-3-3.9-5.9-6.1-8.6-6.5
	c0,0,0,0-0.1,0c-2.1-0.2-3.3,0.8-3.3,0.8c-0.5,0.4-1.3,0.4-1.7-0.1c-0.4-0.5-0.4-1.3,0.1-1.7c0.1-0.1,2-1.7,5.2-1.4c0,0,0,0,0,0
	C122.4,70.2,125.9,72.7,129.3,77.2z"/>
<path d="M118.7,85.7c2.4,0.3,4.2,2.5,4,4.9c-0.3,2.4-2.4,4.2-4.9,4c-2.4-0.3-4.2-2.4-4-4.9C114.1,87.2,116.3,85.4,118.7,85.7z"/>
<path d="M114.8,98.5c0.1,0.2,0.1,0.4,0,0.6c-0.9,0.8-1.8,1.1-2.8,1.1c-0.1,0-0.1,0-0.2,0c-1.8-0.2-3-1.6-3.1-1.7
	c-0.1-0.2-0.1-0.4,0-0.6c0.2-0.2,0.4-0.1,0.6,0c0,0,0.6,0.7,1.6,1.1c1.2,0.5,2.3,0.3,3.3-0.6C114.4,98.3,114.7,98.3,114.8,98.5z"/>
<path class="st3" d="M106.7,130.1l-0.8,0.1c0,0,0,0,0-0.1c0,0,0,0,0,0c0.2-0.1,0.5-0.2,0.8-0.2C106.7,130,106.7,130.1,106.7,130.1z"
	/>
<path class="st5" d="M97.3,101.3"/>
<line class="st5" x1="98.1" y1="106.3" x2="130.2" y2="104.6"/>
<line class="st5" x1="98.5" y1="106.3" x2="98.1" y2="106.3"/>
<path d="M103.5,86c2.4,0.3,4.2,2.5,4,4.9c-0.3,2.4-2.5,4.2-4.9,4c-2.4-0.3-4.2-2.4-4-4.9C98.8,87.5,101,85.7,103.5,86z"/>
<polygon class="st5" points="98.5,106.3 98.6,107.1 98.2,107.1 98.1,106.3 "/>
<path class="st2" d="M130.2,104.6l0,0.8L82.8,108l0-0.5l-0.8,0l0,0.6c-1.2,0.4-3.5,1.5-5.6,2.2c-0.4,0.1-0.7-0.1-0.7-0.1l-0.2,0
	c-1.4,0.1-2.4,1.2-2.4,2.5c1.5-0.1,2.3-0.1,2.4-0.1c1.6-0.1,2.6,0,3,1.7c0.4,1.5,0.6,9.8,0.6,12c0,0,0,0.1,0,0.1
	c0-2.2-0.3-10.5-0.6-12c-0.4-1.8-1.4-1.8-3-1.7c0,0-1.1,0-2.8,0.1c-0.1,0-0.2,0-0.3,0c-0.1-1.8,1.2-3.3,3.1-3.5
	c0.1,0,0.1-0.1,0.2-0.1c0.1,0.5,0.1,0.8,0.1,0.8l0.8-0.1c0,0-0.1-0.4-0.1-0.9c1.4-0.5,4.9-1.8,6-1.9l0.1,0l6.9-0.4
	c0,0.2,0,0.4,0,0.4l0.8-0.1c0,0,0-0.1,0-0.3L130.2,104.6z"/>
<path class="st3" d="M101.8,79.7c0.3-0.1,1.7,0.6,0.4,1.2c-1.2,0.6-3.3,1.8-3.7,2.1c-1.1,0.8-2.2,1.8-3.1,3
	c-6.1,7.5-5.4,18.6-5.2,20.7l-0.8,0c-0.2-2.2-0.9-13.5,5.4-21.2C95.4,84.8,101.1,80.4,101.8,79.7z"/>
<path class="st2" d="M90.2,107.1l-0.8,0.1c0,0,0-0.1,0-0.4l0.8,0C90.2,107,90.2,107.1,90.2,107.1z"/>
<path class="st2" d="M73.2,129.2c0.1,0,0.3,0,0.4,0c0.1,0,0.3,0,0.4,0l0.4,7.4l0,0c0.6-0.1,1-0.1,1.5-0.1c0.9,0,1.6,0.5,2.2,1.3
	c1.8,2.6,1.3,8.7,0.7,10.6c-0.7,2.2-2.5,2.1-3.4,2c0,0-0.1,0-0.1,0c0.1,0.5,0.3,0.8,0.6,1c0.3,0.2,0.9,0.4,1.7,0.3l6.5-1.7l0,0.8
	l-6.2,1.6c-0.1,0-0.6,0.1-0.9,0.1c-0.1,0-0.1,0-0.2,0c-1.3-0.1-1.9-2.1-1.9-2.1l0-0.9"/>
<path class="st3" d="M82.8,108l1.9,41.9c-0.2,0-0.3,0-0.3,0l-0.5,0.1l-1.9-41.9c0.2-0.1,0.4-0.1,0.5-0.1L82.8,108z"/>
<path class="st2" d="M81.9,108.1l1.9,41.9l-6.5,1.7c-0.8,0-1.3-0.1-1.7-0.3c-0.3-0.2-0.5-0.5-0.6-1c0,0,0.1,0,0.1,0
	c1,0,2.8,0.1,3.4-2c0.6-1.9,1.2-8-0.7-10.6c-0.6-0.8-1.3-1.3-2.2-1.3c-0.4,0-0.9,0-1.5,0.1l0,0l-0.4-7.4c1.7-0.1,3.1-0.1,3.1-0.1
	c0.1,0,0.8,0.1,1.3-0.5c0.4-0.3,0.6-0.8,0.7-1.4c0-0.2,0.1-0.4,0.1-0.7c0,0,0,0,0-0.1c0-2.2-0.3-10.5-0.6-12c-0.4-1.8-1.4-1.8-3-1.7
	c0,0-0.9,0-2.4,0.1c0-1.3,1-2.4,2.4-2.5l0.2,0c0,0,0.3,0.2,0.7,0.1C78.4,109.6,80.8,108.5,81.9,108.1z"/>
<path class="st2" d="M82.7,107.5l0,0.5l-0.3,0c-0.1,0-0.3,0.1-0.5,0.1l0-0.6L82.7,107.5z"/>
<path class="st2" d="M79.1,126.5c0,0.2,0,0.5-0.1,0.7c-0.1,0.6-0.3,1-0.7,1.3c-0.6,0.5-1.2,0.5-1.3,0.5c0,0-1.4-0.1-3.1,0.1l0,0.1
	c-0.1,0-0.3,0-0.4,0c-0.1,0-0.3,0-0.4,0l0-0.8c0.2,0,0.4,0,0.5-0.1c2-0.2,3.6-0.1,3.7-0.1c0,0,0.4,0,0.7-0.3
	c0.3-0.3,0.5-0.8,0.5-1.4c0-2.3-0.3-10.4-0.6-11.8c-0.2-0.8-0.3-1.2-0.9-1.2c-0.3,0-2.4,0-4.1,0.1c-0.2,0-0.4,0-0.6,0.1l0.1-0.7
	c0,0,0,0,0,0c0.1,0,0.2,0,0.3,0c1.7-0.1,2.8-0.1,2.8-0.1c1.6-0.1,2.6,0,3,1.7C78.8,116,79.1,124.3,79.1,126.5z"/>
<path class="st2" d="M78.4,128.5c0.3-0.3,0.6-0.8,0.7-1.3C79,127.7,78.8,128.2,78.4,128.5c-0.6,0.6-1.3,0.6-1.3,0.5
	c0,0-1.4-0.1-3.1,0.1l0-0.1c1.7-0.1,3.1-0.1,3.1-0.1C77.2,128.9,77.8,129,78.4,128.5z"/>
<path class="st3" d="M78.5,126.5c0,0.7-0.2,1.2-0.5,1.4c-0.3,0.3-0.7,0.3-0.7,0.3c-0.1,0-1.7-0.1-3.7,0.1c-0.2,0-0.4,0-0.5,0.1
	l0-0.1l0.4,0c2-0.2,3.6-0.1,3.7-0.1c0,0,0.4,0,0.7-0.3c0.3-0.3,0.4-0.8,0.5-1.4c0-2.3-0.3-10.4-0.6-11.8c-0.3-1.1-0.6-1.2-2.2-1.1
	c0,0-1.1,0-2.8,0.1l-0.5,0l0,0c0.2,0,0.4,0,0.6-0.1c1.7-0.1,3.8-0.2,4.1-0.1c0.7,0.1,0.8,0.5,0.9,1.2
	C78.2,116.1,78.5,124.2,78.5,126.5z"/>
<path class="st2" d="M76.5,110l-0.8,0.1c0,0-0.1-0.3-0.1-0.8c0.1,0,0.3-0.1,0.4-0.1c0.1,0,0.2-0.1,0.3-0.1
	C76.5,109.7,76.5,110,76.5,110z"/>
<circle class="st5" cx="121.5" cy="88.6" r="1.5"/>
<circle class="st5" cx="106.3" cy="88.8" r="1.5"/>
<g>
	<g>
		<path class="st5" d="M116.2,119.2L116.2,119.2c-5,0.2-8.9,4.5-8.6,9.5l0.2,3.9c0.2,5,4.5,8.9,9.5,8.6h0c5-0.2,8.9-4.5,8.6-9.5
			l-0.2-3.9C125.5,122.8,121.2,118.9,116.2,119.2z M122.9,131.9c0.2,3.3-2.4,6.2-5.8,6.3h0c-3.3,0.2-6.2-2.4-6.3-5.8l-0.2-4.1
			c-0.2-3.3,2.4-6.2,5.8-6.3h0c3.3-0.2,6.2,2.4,6.3,5.8L122.9,131.9z"/>
	</g>
	<g>
		<path class="st5" d="M126.4,142.7l-18.4,0.9c-0.7,0-1.2-0.5-1.3-1.2l-0.5-11.2c0-0.7,0.5-1.2,1.2-1.3l18.4-0.9
			c0.7,0,1.2,0.5,1.3,1.2l0.5,11.2C127.6,142.1,127,142.6,126.4,142.7z"/>
	</g>
</g>
<path d="M92.5,85.3c-0.4,0.5-0.3,1.3,0.3,1.7c0.3,0.2,0.6,0.3,0.9,0.2c0.3,0,0.6-0.2,0.8-0.5c2.9-4,5.8-6.2,8.5-6.6c0,0,0,0,0.1,0
	c2.1-0.3,3.3,0.7,3.3,0.8c0.5,0.4,1.3,0.3,1.7-0.2c0.4-0.5,0.4-1.3-0.1-1.7c-0.1-0.1-2-1.7-5.2-1.3c0,0,0,0,0,0
	C99.3,78.2,95.8,80.7,92.5,85.3z"/>
<path class="st2" d="M76.8,152c0,0-3.2,15-5.4,24.4c-0.2,0.5,4.4,3.3,4.4,3.3s4.6-16.3,8.1-30.2"/>
<path class="st2" d="M76.8,109.7c-0.7,0.4-43.8,1.9-43.8,1.9s-3.5,0.4-3.9,2.8c-0.5,2.9-0.3,11.9-0.3,11.9s0.1,3.8,2.7,3.6
	s45.8-1.2,45.8-1.2l1.1-1.8l0.4-16.1L76.8,109.7z"/>
<polygon class="st3" points="36.5,111.5 36.5,125.9 78.7,125.2 78.4,109.8 "/>
<g>
	<g>
		<polygon class="st6" points="62.9,58.4 47,55.1 20,55.2 60.7,68 		"/>
	</g>
	<polygon class="st7" points="36.1,58.4 36.1,109.7 36.2,109.9 43.4,105.1 42.5,104.3 43.4,105.1 44.4,103.5 43.4,105.1 51.7,109.9 
		57.1,105.6 56.6,105.2 57.1,105.6 57.7,104.8 57.1,105.6 62.9,106.6 62.9,58.2 	"/>
	<polygon class="st8" points="21.7,98.6 22.2,99.8 22.5,99 22.2,99.8 27.1,109 30.8,103.5 30.2,102.2 30.8,103.5 31.7,101.3 
		30.8,103.5 36.1,110 36.1,58.5 20,55.2 19.9,55.3 19.9,102.4 22.2,99.8 	"/>
	<g>
		<g>
			<polygon class="st9" points="62.9,97.7 36.2,99 20,94.2 20,95.2 36,99.9 36.1,100 62.9,98.7 			"/>
		</g>
	</g>
	<g>
		<g>
			<polygon class="st9" points="36.1,69.1 36,69.1 20,65.3 20,64.3 36.2,68.1 62.9,67.2 62.9,68.2 			"/>
		</g>
	</g>
	<g>
		<rect x="21.9" y="55.6" class="st9" width="0.9" height="9.7"/>
	</g>
	<g>
		<rect x="30.4" y="67.5" class="st9" width="0.9" height="30.4"/>
	</g>
	<polygon class="st9" points="23.7,95.6 22.8,95.6 22.8,100.9 23.8,102.9 	"/>
	<g>
		<rect x="53.4" y="58.2" class="st9" width="0.9" height="10.1"/>
	</g>
	<g>
		<rect x="43.5" y="68.2" class="st9" width="0.9" height="30.8"/>
	</g>
	<polygon class="st9" points="60.1,98.3 59.2,98.3 59.2,105.9 60.1,106.1 	"/>
</g>
<g>
	<polygon class="st6" points="57.8,133.1 52.4,136.3 52.9,136.6 52.4,136.3 51.7,137 52.4,136.3 44.1,133.9 36.8,138.2 36.9,139.1 
		36.9,183.6 63.6,182 63.6,134.6 	"/>
	<path class="st8" d="M36.9,139l0-1l-5.3-3.6l-3.7,2.2l-5.6-4.5l-1.6-1.1v32.2c0.6,0.7,1,1.6,1.2,2.6c0,0.3,0.1,0.6,0.2,0.9
		c0.8,0.6,1.5,1.3,2,2.2c1.1,1,1.8,2.4,2.1,3.9c0.5,0.5,0.9,0.9,1.4,1.4c2.3,2.2,4.2,4.5,5.7,7.2c0.8,0.4,1.5,0.9,2,1.5l1.6,0.5
		L36.9,139z"/>
	<g>
		<g>
			<path class="st9" d="M63.6,170.5l-26.6,1.5l-13.5-3.7c0.2,0.2,0.3,0.5,0.5,0.8c0.1,0.1,0.2,0.2,0.2,0.2l12.5,3.4l0.1,0l26.8-1.5
				L63.6,170.5z"/>
		</g>
	</g>
	<g>
		<g>
			<polygon class="st9" points="36.8,148.9 36.7,148.9 20.7,144.5 20.7,143.7 36.9,148.2 63.6,146.7 63.6,147.5 			"/>
		</g>
	</g>
	<polygon class="st9" points="23.5,133.3 23.5,144.9 24.4,144.9 24.4,134 	"/>
	<g>
		<rect x="29.9" y="146.8" class="st9" width="0.9" height="23.6"/>
	</g>
	<polygon class="st9" points="59.9,133.6 59.9,147.3 60.8,147.3 60.8,133.9 	"/>
	<g>
		<rect x="46" y="147.8" class="st9" width="0.9" height="23.8"/>
	</g>
	<g>
		<rect x="56.2" y="171.4" class="st9" width="0.9" height="11"/>
	</g>
</g>
<polygon class="st10" points="27.6,114.4 7.4,102.2 3,111.7 "/>
<polygon class="st10" points="25.9,119 0.3,116.5 0.3,123.3 "/>
<polygon class="st10" points="27.2,122.4 6.9,127.2 10.7,133.5 "/>
<path class="st0" d="M15.4,147.6c2.9,12.5,9.1,24.4,18.9,34.2c27.5,27.5,72.2,27.5,99.7,0c7.7-7.7,13.2-16.7,16.6-26.3"/>
</svg>
