<?xml version="1.0" encoding="utf-8"?>
<!-- Generator: Adobe Illustrator 24.1.1, SVG Export Plug-In . SVG Version: 6.00 Build 0)  -->
<svg version="1.1" id="SEC_3" xmlns="http://www.w3.org/2000/svg" xmlns:xlink="http://www.w3.org/1999/xlink" x="0px" y="0px"
	 viewBox="0 0 168.3 203.4" style="enable-background:new 0 0 168.3 203.4;" xml:space="preserve">
<style type="text/css">
	.st0{opacity:0.16;}
	.st1{fill:#3B8F3D;}
	.st2{fill:#38B54A;}
	.st3{fill:none;stroke:#FFFFFF;stroke-width:1.6367;stroke-linecap:round;stroke-linejoin:round;stroke-miterlimit:10;}
	.st4{fill:#FFFFFF;}
	.st5{fill:#FFD05A;}
	.st6{fill:none;stroke:#53AF4D;stroke-width:2;stroke-linejoin:round;}
	.st7{fill:none;stroke:#F6A847;stroke-width:4.6484;stroke-linecap:round;stroke-miterlimit:10;}
	.st8{fill:#B2B1AF;}
	.st9{fill:#828282;}
	.st10{fill:#C6C6C6;}
</style>
<path class="st0" d="M80.6,180.6c-19.9,0-36.6,2.4-41.1,5.7c0.9,0.7,1.7,1.4,2.4,2.4c0.3,0.2,0.6,0.3,0.9,0.5
	c0.8,0.4,1.5,0.8,2.2,1.3c0.9,0.7,1.7,1.4,2.3,2.3c7.8,1.8,19.8,2.9,33.4,2.9c25.1,0,42.4-3.4,42.4-7.5S104,180.6,80.6,180.6z"/>
<path class="st1" d="M26.8,82.7c0,0-0.7-6.4,2.1-6.6c2.8-0.2,12.3-0.1,12.5,0c0.2,0.1,2.9,0.3,3.1,6.2C44.9,91,26.8,82.7,26.8,82.7z
	"/>
<path class="st1" d="M59.5,124.4c0,0-15.4,9.7-14.9-41.3c-0.6,0-3.9-0.6-3.9-0.6s-1.6,0.5-2.6,0.7c1.4,23-1,52.4,18.6,54.7
	c1.7,0.2,3.7,0,5.7-0.2L59.5,124.4z"/>
<path class="st2" d="M47.8,121.7c0,0-6.1,2.9-5.9-39.2C41,82.5,30.1,82.2,26.7,82c1.5,25.1-0.4,54.1,22.2,54.1L47.8,121.7z"/>
<path class="st1" d="M137.5,82.5c0,0,0.8-6.4-2.1-6.5c-3-0.2-13.2,0-13.4,0.1c-0.2,0.1-2,0.3-2.3,6.2
	C119.1,91,137.5,82.5,137.5,82.5z"/>
<path class="st1" d="M42.6,178.8l25.9,9.5l5.4-1.7c0,0,1.2-5.7,4.3-10.2c5.6-8-4.7-13-4.7-13s-29.6,9.3-30,9.6
	C43,173.4,42.6,178.8,42.6,178.8z"/>
<path class="st1" d="M116.1,123.3c0,0,15.2,2.6,14.9-41.3c0.6,0,3.9-0.6,3.9-0.6s1.6,0.5,2.6,0.7c-1.4,23,1,52.4-18.6,54.7
	c-1.7,0.2-3.7,0-5.7-0.2L116.1,123.3z"/>
<path class="st2" d="M46.2,156.1c0,0-2.7,16.8-4.6,29.7c9.4,1.3,26.7,2.2,26.7,2.2s2.8-12.1,10.2-19.6c0.7,2.1-0.2,8.1,4.4,19.2
	c1.1,2.5,33.3,0.3,33.3,0.3s-4.1-15.1-7.8-28.3"/>
<path class="st1" d="M42.9,152.2c0.1,1.7,0.2,3.9,2.6,4.1l0,0l1.6,0.1l2.3,0.1c2.4,0.1,58.5,3.1,58.5,3.1l0-0.9c0,0-56.4-2.8-58.5-3
	l-3.9-0.3c-1.6-0.1-1.7-1.4-1.8-3.3l0-0.2l0.8-37c0.1-1.4,1.3-2.5,2.8-2.4l13.5,0.7l0-0.8l-12.6-0.7c0,0.1,0,0.2,0,0.3l-0.8,0
	c0-0.1,0-0.2,0-0.3c-1.9-0.1-3.4,1.3-3.6,3.2l-0.6,25.3l0.4,0.4c-0.1,0.1-0.3,0.3-0.4,0.4L42.9,152.2z"/>
<path class="st2" d="M109,116l-2,42.7c-0.1,0-0.3,0-0.6,0c-7.2-0.3-55-2.8-57.1-2.9l-3.9-0.3c-1.6-0.1-1.7-1.4-1.8-3.3l0-0.2l0.8-37
	c0.1-1.4,1.3-2.5,2.8-2.4l13.5,0.7"/>
<path class="st1" d="M43,140.3l0,0.7c0.1-0.1,0.3-0.2,0.4-0.4L43,140.3z"/>
<path class="st1" d="M47.2,112l0.8,0c0-0.1,0-0.2,0-0.3l-0.8,0c0,0,0,0,0,0C47.2,111.9,47.2,111.9,47.2,112z"/>
<path class="st1" d="M47.2,111.8C47.2,111.8,47.2,111.8,47.2,111.8l0.8,0c0-0.3,0-0.6,0-1.1c0-5,0.2-20.2,10-29.2
	c6-5.5,14.8-7.8,25.9-6.9c10.8,0.9,19.1,4.9,24.5,11.8c8.6,11.1,7.5,26.7,7,30.6c0.1,0.1,0.2,0.1,0.3,0.1c0.2,0.1,0.3,0.1,0.5,0.2
	c0.5-3.8,1.8-19.9-7.2-31.4c-5.6-7.1-14-11.2-25.1-12.2c-11.4-0.9-20.3,1.5-26.5,7.2c-10.1,9.2-10.3,24.7-10.3,29.8
	C47.2,111.1,47.2,111.5,47.2,111.8z"/>
<path class="st2" d="M48,110.7c0-5,0.2-20.2,10-29.2c6-5.5,14.8-7.8,25.9-6.9c10.8,0.9,19.1,4.9,24.5,11.8c8.6,11.1,7.5,26.7,7,30.6
	c-1.5-0.5-5-1.8-6.1-1.9l-0.1,0l-7-0.4c0.2-2.3,0.9-13.8-5.5-21.6c-0.6-0.8-7.7-6.9-15.9-7.5c-6.6-0.5-11.9,1.3-15.9,5.1
	c-7.2,7-7.4,18.8-7.3,21.6l-9.7-0.5C48,111.5,48,111.2,48,110.7z M62.7,86.7c0.3,0,0.6-0.2,0.9-0.5c3-4,6.1-6.3,8.8-6.6
	c0,0,0,0,0.1,0c2.1-0.2,3.3,0.8,3.4,0.8c0.5,0.4,1.3,0.4,1.7-0.1c0.4-0.5,0.4-1.3-0.1-1.7c-0.1-0.1-2-1.8-5.3-1.4c0,0,0,0,0,0
	c-3.5,0.4-7.1,2.9-10.6,7.5c-0.4,0.5-0.3,1.3,0.2,1.7C62.1,86.6,62.4,86.7,62.7,86.7z"/>
<path class="st3" d="M102.9,83.4c2,1.8,4.4,4.7,5.8,7.5"/>
<circle class="st4" cx="100.5" cy="81.5" r="0.9"/>
<path class="st2" d="M57.7,112.3l0.8,0c0-2.5,0.2-14.2,7.1-21c3.8-3.7,8.9-5.3,15.2-4.9c0.2,0,0.4,0,0.6,0.1
	c2.9,0.3,5.5,0.9,7.8,1.9c0.5-0.1,0.9-0.2,1.4-0.2c-2.8-1.4-6.1-2.3-9.8-2.6c-6.6-0.5-11.9,1.3-15.9,5.1
	C57.9,97.8,57.6,109.6,57.7,112.3z"/>
<polygon class="st4" points="60.6,112.5 60.6,113.3 61,113.3 61,112.5 "/>
<polygon class="st4" points="61,113.3 61.5,113.4 61.5,112.5 61,112.5 "/>
<path d="M61.6,84.7c-0.4,0.5-0.3,1.3,0.2,1.7c0.3,0.2,0.6,0.3,0.9,0.2c0.3,0,0.6-0.2,0.9-0.5c3-4,6.1-6.3,8.8-6.6c0,0,0,0,0.1,0
	c2.1-0.2,3.3,0.8,3.4,0.8c0.5,0.4,1.3,0.4,1.7-0.1c0.4-0.5,0.4-1.3-0.1-1.7c-0.1-0.1-2-1.8-5.3-1.4c0,0,0,0,0,0
	C68.6,77.5,65.1,80,61.6,84.7z"/>
<path d="M72.3,93.3c-2.5,0.3-4.3,2.5-4,5c0.3,2.5,2.5,4.3,5,4c2.5-0.3,4.3-2.5,4-5C77.1,94.8,74.8,93,72.3,93.3z"/>
<path d="M76.3,106.3c-0.1,0.2-0.1,0.4,0,0.6c0.9,0.8,1.8,1.2,2.9,1.1c0.1,0,0.1,0,0.2,0c1.8-0.2,3.1-1.6,3.1-1.7
	c0.1-0.2,0.1-0.4,0-0.6c-0.2-0.2-0.4-0.1-0.6,0c0,0-0.7,0.7-1.6,1.1c-1.2,0.5-2.4,0.3-3.4-0.6C76.7,106.1,76.5,106.1,76.3,106.3z"/>
<path class="st2" d="M84.6,138.5l0.8,0.1c0,0,0,0,0-0.1c0,0,0,0,0,0c-0.2-0.1-0.5-0.2-0.8-0.2C84.6,138.4,84.6,138.5,84.6,138.5z"/>
<path class="st4" d="M94.2,109.2"/>
<line class="st4" x1="93.3" y1="114.3" x2="60.7" y2="112.5"/>
<line class="st4" x1="92.9" y1="114.3" x2="93.3" y2="114.3"/>
<path d="M87.9,93.6c-2.5,0.3-4.3,2.5-4,5c0.3,2.5,2.5,4.3,5,4c2.5-0.3,4.3-2.5,4-5C92.6,95.2,90.4,93.3,87.9,93.6z"/>
<polygon class="st4" points="92.9,114.3 92.9,115.1 93.3,115.1 93.3,114.3 "/>
<path class="st1" d="M60.6,112.5l0,0.8L109,116l0-0.5l0.8,0l0,0.6c1.2,0.4,3.6,1.5,5.7,2.3c0.4,0.1,0.7-0.1,0.7-0.1l0.2,0.1
	c1.4,0.1,2.4,1.2,2.5,2.6c-1.5-0.1-2.4-0.1-2.4-0.1c-1.6-0.1-2.6,0-3.1,1.8c-0.4,1.5-0.6,9.9-0.7,12.2c0,0,0,0.1,0,0.1
	c0-2.2,0.3-10.7,0.7-12.2c0.4-1.8,1.4-1.8,3.1-1.8c0,0,1.1,0,2.9,0.1c0.1,0,0.2,0,0.3,0c0.1-1.8-1.3-3.3-3.1-3.5
	c-0.1,0-0.1-0.1-0.2-0.1c-0.1,0.5-0.1,0.8-0.1,0.8l-0.8-0.1c0,0,0.1-0.4,0.1-1c-1.5-0.5-5-1.8-6.1-1.9l-0.1,0l-7-0.4
	c0,0.2,0,0.4,0,0.4l-0.8-0.1c0,0,0-0.1,0-0.3L60.6,112.5z"/>
<path class="st2" d="M89.6,87.2c-0.3-0.1-1.7,0.6-0.4,1.3c1.2,0.6,3.4,1.9,3.7,2.2c1.2,0.9,2.2,1.9,3.2,3c6.2,7.6,5.5,19,5.3,21.1
	l0.8,0c0.2-2.3,0.9-13.8-5.5-21.6C96.1,92.4,90.3,87.9,89.6,87.2z"/>
<path class="st1" d="M101.4,115.1l0.8,0.1c0,0,0-0.2,0-0.4l-0.8,0C101.4,115,101.4,115.1,101.4,115.1z"/>
<path class="st1" d="M118.8,137.6c-0.1,0-0.3,0-0.4,0c-0.1,0-0.3,0-0.4,0l-0.4,7.5l0,0c-0.6-0.1-1.1-0.1-1.5-0.1
	c-0.9,0-1.7,0.5-2.3,1.3c-1.9,2.7-1.3,8.9-0.7,10.8c0.7,2.2,2.5,2.1,3.5,2.1c0,0,0.1,0,0.1,0c-0.1,0.5-0.3,0.8-0.6,1
	c-0.4,0.3-0.9,0.4-1.7,0.3l-6.6-1.7l0,0.8l6.3,1.6c0.1,0,0.7,0.1,0.9,0.1c0.1,0,0.1,0,0.2,0c1.4-0.1,1.9-2.1,1.9-2.1l0-0.9"/>
<path class="st2" d="M109,116l-2,42.7c0.2,0,0.3,0,0.3,0l0.5,0.1l2-42.7c-0.2-0.1-0.4-0.1-0.5-0.1L109,116z"/>
<path class="st1" d="M109.8,116.1l-2,42.7l6.6,1.7c0.8,0,1.3-0.1,1.7-0.3c0.3-0.2,0.5-0.5,0.6-1c0,0-0.1,0-0.1,0
	c-1,0-2.8,0.1-3.5-2.1c-0.6-1.9-1.2-8.2,0.7-10.8c0.6-0.8,1.3-1.3,2.3-1.3c0.4,0,0.9,0,1.5,0.1l0,0l0.4-7.5
	c-1.8-0.1-3.2-0.1-3.2-0.1c-0.1,0-0.8,0.1-1.4-0.5c-0.4-0.3-0.6-0.8-0.7-1.4c0-0.2-0.1-0.4-0.1-0.7c0,0,0,0,0-0.1
	c0-2.2,0.3-10.7,0.7-12.2c0.4-1.8,1.4-1.8,3.1-1.8c0,0,0.9,0,2.4,0.1c0-1.3-1.1-2.4-2.5-2.6l-0.2-0.1c0,0-0.3,0.2-0.7,0.1
	C113.4,117.6,111,116.5,109.8,116.1z"/>
<path class="st1" d="M109,115.5l0,0.5l0.3,0c0.1,0,0.3,0.1,0.5,0.1l0-0.6L109,115.5z"/>
<path class="st1" d="M112.7,134.8c0,0.2,0,0.5,0.1,0.7c0.1,0.6,0.3,1,0.7,1.3c0.6,0.5,1.3,0.5,1.4,0.5c0,0,1.4-0.1,3.2,0.1l0,0.1
	c0.1,0,0.3,0,0.4,0c0.1,0,0.3,0,0.4,0l0-0.8c-0.2,0-0.4,0-0.6-0.1c-2-0.2-3.7-0.1-3.7-0.1c0,0-0.4,0-0.7-0.3
	c-0.3-0.3-0.5-0.8-0.5-1.5c0-2.3,0.3-10.6,0.6-12c0.2-0.8,0.3-1.2,1-1.3c0.3,0,2.4,0,4.2,0.1c0.2,0,0.4,0,0.6,0.1l-0.1-0.7
	c0,0,0,0,0,0c-0.1,0-0.2,0-0.3,0c-1.8-0.1-2.8-0.1-2.9-0.1c-1.6-0.1-2.6,0-3.1,1.8C113,124.2,112.7,132.6,112.7,134.8z"/>
<path class="st1" d="M113.4,136.9c-0.3-0.3-0.6-0.8-0.7-1.3C112.8,136.1,113.1,136.6,113.4,136.9c0.6,0.6,1.3,0.6,1.4,0.6
	c0,0,1.4-0.1,3.2,0.1l0-0.1c-1.8-0.1-3.2-0.1-3.2-0.1C114.7,137.3,114,137.4,113.4,136.9z"/>
<path class="st2" d="M113.3,134.9c0,0.7,0.2,1.2,0.5,1.5c0.3,0.3,0.7,0.3,0.7,0.3c0.1,0,1.7-0.1,3.7,0.1c0.2,0,0.4,0,0.6,0.1l0-0.1
	l-0.4,0c-2-0.2-3.7-0.1-3.7-0.1c0,0-0.4,0-0.7-0.3c-0.3-0.3-0.5-0.8-0.5-1.5c0-2.3,0.3-10.6,0.6-12c0.3-1.1,0.6-1.2,2.2-1.1
	c0,0,1.1,0,2.8,0.1l0.5,0l0,0c-0.2,0-0.4,0-0.6-0.1c-1.7-0.1-3.9-0.2-4.2-0.1c-0.7,0.1-0.8,0.5-1,1.3
	C113.6,124.3,113.3,132.5,113.3,134.9z"/>
<path class="st1" d="M115.3,118.1l0.8,0.1c0,0,0.1-0.3,0.1-0.8c-0.1,0-0.3-0.1-0.5-0.2c-0.1,0-0.2-0.1-0.3-0.1
	C115.4,117.7,115.3,118.1,115.3,118.1z"/>
<circle class="st4" cx="69.6" cy="96.3" r="1.5"/>
<circle class="st4" cx="85" cy="96.5" r="1.5"/>
<g>
	<path class="st4" d="M65.3,136.2l-0.2,3.9c-0.2,5.1,3.7,9.4,8.8,9.6h0c5.1,0.2,9.4-3.7,9.6-8.8l0.2-3.9c0.2-5.1-3.7-9.4-8.8-9.6h0
		C69.8,127.2,65.5,131.1,65.3,136.2z M68.3,136.2c0.2-3.4,3.1-6,6.4-5.9l0,0c3.4,0.2,6,3.1,5.9,6.4l-0.2,4.2c-0.2,3.4-3.1,6-6.4,5.9
		h0c-3.4-0.2-6-3.1-5.9-6.4L68.3,136.2z"/>
</g>
<g>
	<path class="st4" d="M64.5,151.3l18.8,0.9c0.7,0,1.2-0.5,1.3-1.2l0.5-11.5c0-0.7-0.5-1.2-1.2-1.3l-18.8-0.9c-0.7,0-1.2,0.5-1.3,1.2
		l-0.5,11.5C63.3,150.7,63.9,151.3,64.5,151.3z"/>
</g>
<path d="M99.1,92.9c0.4,0.6,0.3,1.3-0.3,1.7c-0.3,0.2-0.6,0.3-0.9,0.2c-0.3,0-0.6-0.2-0.8-0.5c-2.9-4-6-6.4-8.7-6.7c0,0,0,0-0.1,0
	c-2.1-0.3-3.4,0.7-3.4,0.8c-0.5,0.4-1.3,0.3-1.7-0.2c-0.4-0.5-0.4-1.3,0.1-1.7c0.1-0.1,2.1-1.7,5.3-1.3c0,0,0,0,0,0
	C92.2,85.6,95.7,88.2,99.1,92.9z"/>
<path class="st2" d="M113.8,121.7c0,0,6.1,2.9,5.9-39.2c0.9,0.1,11.8,0.5,15.2,0.3c-1.5,25.1,0.4,53.3-22.2,53.3L113.8,121.7z"/>
<path class="st1" d="M115,160.9c0,0,3.2,15.3,5.5,24.8c0.2,0.5-4.3,2.4-4.3,2.4s-4.8-15.6-8.3-29.8"/>
<polygon class="st5" points="79.1,47.9 79.1,32.3 81.3,32.9 80.4,22 74.7,19.4 77,30.2 73.8,29.1 "/>
<polygon class="st5" points="72.6,44.1 70.3,36.6 71.5,36.6 69.5,31.4 66.4,31 69,35.9 67.3,35.8 "/>
<polygon class="st5" points="86,46.7 89.5,37 90.8,37.9 92.7,30.8 89.7,27.9 88.7,35.2 86.9,33.8 "/>
<path id="Icon_Bg_2_" class="st6" d="M131.5,79.6c14.2,12.9,23.1,31.5,23.1,52.2c0,12.4-3.2,24.1-8.9,34.3"/>
<path class="st6" d="M24.4,94.4c-6.8,10.9-10.8,23.7-10.8,37.5c0,38.9,31.6,70.5,70.5,70.5s70.5-31.6,70.5-70.5
	c0-36.5-27.7-66.5-63.3-70.1l-3.5-0.4"/>
<g>
	<path class="st7" d="M94.5,62.9c15,0.9,29.5,8.4,38.7,20.3c10,13,10.8,29.7,10.9,45.4c0.1,10,0.4,20.1,3.9,29.6"/>
	<path class="st7" d="M70.1,62.9c-14,2.8-28.7,7.7-37.9,19.2C22.6,94,20.6,110,20.4,124.8c-0.2,9.7,0.8,19.7-2,29.2"/>
	<path class="st8" d="M74.2,70l-15.4,3.6c-2.7,0.6-5.4-1.2-6-3.9l-1.7-7.8c-0.6-2.7,1.2-5.4,3.9-6l15.4-3.6c2.7-0.6,5.1,1.1,5.7,3.8
		l1.7,7.8C78.3,66.6,76.9,69.4,74.2,70z"/>
	<path class="st9" d="M75,68.4L75,68.4c-1.3,0.3-2.6-0.6-2.9-1.9l-1.9-10.2c-0.2-1.3,0.6-2.6,1.9-2.8l0,0c1.3-0.2,2.6,0.6,2.8,1.9
		l1.9,10.2C77.1,66.9,76.3,68.2,75,68.4z"/>
	<path class="st8" d="M92.3,70.9l14.2,3.3c2.5,0.5,5-1.2,5.6-3.9l1.7-7.8c0.6-2.7-1-5.3-3.5-5.9l-14.2-3.3c-2.5-0.5-4.7,1.2-5.3,3.9
		l-1.7,7.8C88.5,67.6,89.8,70.4,92.3,70.9z"/>
	<path class="st9" d="M92.4,69.5L92.4,69.5c1.3,0.3,2.6-0.6,2.9-1.9l1.9-10.2c0.2-1.3-0.6-2.6-1.9-2.8l0,0c-1.3-0.2-2.6,0.6-2.8,1.9
		l-1.9,10.2C90.3,68,91.1,69.3,92.4,69.5z"/>
	<path class="st10" d="M83.8,67l7.4,1.8c1.3,0.3,2.7-1.2,3.2-3.3l1.3-6c0.4-2.1-0.3-4-1.6-4.3l-7.4-1.8c-1.3-0.3-2.6,1.1-3,3.2
		l-1.3,6C81.9,64.7,82.5,66.7,83.8,67z"/>
	<path class="st9" d="M83.6,66.4L83.6,66.4c1.3,0.3,2.6-0.6,2.9-1.9l1.5-8c0.2-1.3-0.6-2.6-1.9-2.8l0,0c-1.3-0.2-2.6,0.6-2.8,1.9
		l-1.5,8C81.4,64.9,82.3,66.1,83.6,66.4z"/>
</g>
<path class="st6" d="M144.5,168.2c3.5-5.8,6.2-12.1,7.9-18.8"/>
<path class="st6" d="M14.7,144.4c1.2,6.8,3.4,13.2,6.4,19.1"/>
</svg>
