<svg xmlns="http://www.w3.org/2000/svg" viewBox="0 0 168.3 203.4"><g fill="none" stroke="#4db64a" stroke-width="2" stroke-linejoin="round"><path d="M131.5 79.3c14.2 12.9 23.1 31.5 23.1 52.2 0 38.9-31.6 70.5-70.5 70.5s-70.5-31.6-70.5-70.5c0-21.1 9.2-39.9 23.9-52.9"/><path d="M134 81.6c12.7 12.8 20.6 30.4 20.6 49.9 0 38.9-31.6 70.5-70.5 70.5s-70.5-31.6-70.5-70.5c0-19.2 7.7-36.6 20.2-49.4"/><path d="M34.2 181.4c-12.7-12.8-20.6-30.4-20.6-49.9C13.6 92.6 45.2 61 84.1 61s70.5 31.6 70.5 70.5c0 19.2-7.7 36.6-20.2 49.4"/></g><path fill="#3b8f3d" d="M114.2 121.5h0-.8v-1.2c.2-5.6 2-24.5-7-34.6-5.6-6.2-13.9-9-24.7-8.1-10.5.8-18.7 5.1-24.3 12.8-8.9 12.2-8.6 29.6-8.4 34-.1.1-.2.1-.3.1-.2.1-.3.1-.4.2-.2-4.2-.7-22.2 8.6-34.9 5.6-7.8 13.9-12.3 24.7-13.1 11.1-.9 19.6 2 25.3 8.4 9.3 10.4 7.5 29.7 7.3 35.3v1.1z"/><path fill="#38b54a" d="M113.4 121.5l-8.3-1.5c.2-3 .6-16.1-6-24.1-3.6-4.4-9.3-7-15.7-6.6-12 .7-16.4 7.3-17 8.1-6.6 8.6-4.6 22.1-4.6 24.6l-6.9.3c-1.1.1-4.5 1.5-6 2.1-.2-4.4-.5-21.8 8.4-34 5.6-7.7 13.8-12 24.3-12.8 10.8-.8 19.2 1.9 24.7 8.1 9.1 10.2 7.3 29.1 7 34.6.1.5.1.9.1 1.2z"/><path fill="#4ab048" d="M46 149.3l-.8-29.2H110l-.2 28.5z"/><ellipse opacity=".45" cx="83.4" cy="187.5" rx="37.2" ry="5.3"/><path fill="#4ab048" d="M111.8 188.6l-30.6-.2-7.7-.2-23.8-.2-3.1-26.7v-.4l63.2.4-3.7 1.3 4.7-1.7.2 6.3v.2z"/><g fill="#3b8f3d"><path d="M72.7 188.1s-2.2-13.8 5-13.8c7 0 5.9 9.9 6.7 14.1l-11.7-.3zm33.8-25.6c-.2-.1-.5-.1-.7-.3h0l.3-.4-.2.4c.2 0 .4.1.6.3z"/><path d="M106.1 161.7l-.2.4h-.1c-.1-.1-.1-.3-.2-.4 0-.1-.1-.1-.1-.2v-.1l.1.1.1.2v.1l.2.3.2-.4z"/></g><path fill="#4ab048" d="M108 144.5c-5.4-3.9-8.4-13.6-9.3-16.5-.5-1.8-.3-4.6.4-7.8l-32.7.2c.5 5.4.4 9.9-.7 12.2-.2.4-.4.9-.7 1.3-.2.3-.3.7-.5 1-.1.3-.3.5-.4.8 0 .1-.1.1-.1.2-.1.1-.1.2-.2.3-.2.3-.3.6-.5.8-.1.1-.2.3-.3.4s-.2.3-.3.4c-.1.2-.3.4-.4.6l-.6.9c-.2.3-.5.7-.7 1-.1.2-.3.4-.4.6s-.3.4-.4.6h0c-.3.4-.7.8-1 1.2-.1.2-.3.3-.4.5l-.2.2c-.2.2-.4.4-.5.6l-.7.7c-.2.2-.4.4-.7.6-.2.2-.4.4-.7.5a3.04 3.04 0 0 1-.7.5c-.2.2-.5.3-.7.5h0a.76.76 0 0 1-.4.2c-.4 0-.5 0-.6.1-.2.1-.3.2-.5.2-.1.1-.3.1-.4.2-.1 0-.2.1-.4.1-.1 0-.2.1-.4.1s-.3.1-.4.1c-.2 0-.3.1-.5.1-2 .2-3.5.1-4.7-.3-.1 0-.3-.1-.4-.1l.2 12.6 64.5 1.9c2-3.3 2.9-12-2.6-17.5z"/><path fill="#666" d="M99.1 120h0z"/><path fill="#3b8f3d" d="M108.9 120.1l-64.2.2v-.5l64.2-.2v.5z"/><path d="M100.2 103a5.9 5.9 0 0 1-2.3 4c-1.3 1-2.9 1.4-4.5 1.2-.3 0-.6-.1-.8-.2-1.3-.3-2.4-1.1-3.2-2.2-1-1.3-1.4-2.9-1.2-4.5.1-1.1.6-2.1 1.3-3l.1-.1h9.3l.1.1c1 1.4 1.5 3 1.2 4.7z"/><path fill="#fff" d="M99.8 102.9c-.1.8-.4 1.5-.8 2.2-.5.3-1.1.4-1.8.3-1.2-.3-1.9-1.5-1.5-2.7.3-1.2 1.5-1.9 2.7-1.5.7.2 1.2.7 1.4 1.3v.4z"/><path d="M80.9 102.8c-.4 3.3-3.5 5.6-6.8 5.2-.3 0-.6-.1-.8-.2-1.3-.4-2.4-1.1-3.2-2.2-1-1.3-1.4-2.9-1.2-4.5.1-1 .5-2 1.1-2.8l.1-.1h9.6l.1.1c.9 1.4 1.3 3 1.1 4.5z"/><path fill="#666" d="M79.7 104.9c.4-.6.6-1.3.7-2.1v-.5l-.7 2.6z"/><path fill="#fff" d="M80.4 102.8c-.1.8-.4 1.5-.7 2.1-.5.4-1.2.5-1.8.3-1.2-.3-1.9-1.5-1.5-2.7.3-1.2 1.5-1.9 2.7-1.5.7.2 1.2.7 1.5 1.3-.1.1-.1.3-.2.5z"/><path fill="#3b8f3d" d="M110.9 162.9l-65.2-1.6v-1.4l-.9-40c.2.1.3.1.5.2l.9 40 64.8 1.4-.1 1.4z"/><g fill="#fff"><path d="M80.6 128.6h0c-5.3-.1-9.7 4.3-9.8 9.6v4.1c-.1 5.3 4.3 9.7 9.6 9.8h0c5.3.1 9.7-4.3 9.8-9.6v-4.1c.1-5.3-4.3-9.7-9.6-9.8zm6.3 14.1c0 3.6-3 6.4-6.5 6.4h0c-3.6 0-6.4-3-6.4-6.5v-4.4c0-3.6 3-6.4 6.5-6.4h0c3.6 0 6.4 3 6.4 6.5v4.4z"/><path d="M89.7 154.4l-19.1-.2c-.9 0-1.6-.8-1.6-1.7l.1-11.3c0-.9.8-1.6 1.7-1.6l19.1.2c.9 0 1.6.8 1.6 1.7l-.1 11.3c-.1.9-.8 1.6-1.7 1.6z"/></g><path fill="none" stroke="#000" stroke-width="2.47" stroke-linecap="round" stroke-linejoin="round" stroke-miterlimit="10" d="M80.5 111.9s3.8 5.2 8.2.1"/><path fill="#3b8f3d" d="M114.1 121l2.6 64.7-5 3-2.8-69.1z"/><path d="M103.8 89c.3.7.1 1.5-.6 1.8-.3.2-.7.2-1 .1-.4-.1-.7-.3-.8-.7-2.6-4.9-5.5-7.9-8.4-8.8h-.1c-2.3-.6-3.8.2-3.9.3-.6.4-1.5.2-1.9-.5-.4-.6-.2-1.5.4-1.9.1-.1 2.5-1.5 6-.6h0c3.9 1.2 7.3 4.6 10.3 10.3z"/><path fill="#fff" d="M106.3 110l17.9-15.8c6.7-5.9 16.9-5.3 22.8 1.4l1.3 1.5c5.9 6.7 5.3 16.9-1.4 22.8L129 135.7c-6.7 5.9-16.9 5.3-22.8-1.4l-1.3-1.5c-5.9-6.7-5.3-16.9 1.4-22.8z"/><path fill="#ffaf2e" d="M107.6 110.1l17.9-15.8c6.7-5.9 16.9-5.3 22.8 1.4l1.3 1.5c5.9 6.7 5.3 16.9-1.4 22.8l-17.9 15.8c-6.7 5.9-16.9 5.3-22.8-1.4l-1.3-1.5c-5.9-6.7-5.3-16.9 1.4-22.8z"/><path d="M121.9 108.5l11.7-.9c1.1-.1 2 .9 1.7 2l-2.8 11.4c-.3 1.3-2 1.7-2.8.7l-9-10.5c-.8-1.1-.2-2.6 1.2-2.7z"/><path fill="#3b8f3d" d="M120.9 153.5c-1.1.7-2.2 1-3.2 1.1s-2 0-2.9-.2c-.8-.2-1.5-.5-2.2-.9-2.4-1.3-4-3.3-4-3.3s-.4-.5-.9-1.4c-.1-.1-.1-.2-.2-.3h0c-.1-.1-.1-.2-.2-.3h.1c.2.1.4.3.7.4l.8 1.3c.1.1 5.6 7 11.7 3.3 3.1-1.9 11.6-7.6 13.4-14.3.5-1.8.5-3.8-.2-5.7 0 0-1.9-3.3-4.4-5.9-.3-.8-.6-1.3-.7-1.4 3 2.7 5.5 7.1 5.5 7.1 3.7 9.2-9.3 18-13.3 20.5z"/><path fill="#38b54a" d="M134 138.8c-1.9 6.7-10.3 12.4-13.4 14.3-6.1 3.7-11.6-3.2-11.7-3.3 0 0-.4-.5-.8-1.3a8.18 8.18 0 0 0 2.4 1c4 1.1 6.4-1.5 9.4-4.7 1-1 2-2.1 3.1-3.2 7.6-7 7.3-12.1 6.5-14.4 2.4 2.6 4.3 5.9 4.4 5.9a10.07 10.07 0 0 1 .1 5.7z"/><path fill="#3b8f3d" d="M129.4 127.2c-.3-.8-.6-1.3-.7-1.4h0c-.3-.3-.6-.5-.9-.8-.2-.1-.3-.2-.5-.3-.9-.5-1.9-.8-2.9-1.1-1.4-.3-2.8-.4-4.2-.5h-.1s-.4.1-1 .4v.2c-.9.3-2 .8-3.3 1.7-1.5 1-3.4 2.6-6 5l-.2.2c-6.3 6.1-4.4 13.1-2.6 16.9h0v.1l.1.1.1.2v.1l.2.3.3-.4-.2.4c.2.1.4.3.7.4a8.18 8.18 0 0 0 2.4 1c4 1.1 6.4-1.5 9.4-4.7 1-1 2-2.1 3.1-3.2 7.5-7.2 7.2-12.3 6.3-14.6zm-19.4 3.6h0c0-.1.1-.1.1-.2h0l-.1.2z"/><path fill="#fff" d="M31.7 130.7L18.3 111c-5-7.4-3.1-17.5 4.3-22.5l1.7-1.1c7.4-5 17.5-3.1 22.5 4.3l13.4 19.7c5 7.4 3.1 17.5-4.3 22.5l-1.7 1.1c-7.4 5-17.4 3.1-22.5-4.3z"/><path fill="#ffaf2e" d="M32 129.5l-13.4-19.8c-5-7.4-3.1-17.5 4.3-22.5l1.7-1.1c7.4-5 17.5-3.1 22.5 4.3l13.4 19.7c5 7.4 3.1 17.5-4.3 22.5l-1.7 1.1c-7.4 5.1-17.5 3.2-22.5-4.2z"/><path d="M44.2 102.2l-.4 11.7c0 1.1-1.1 1.9-2.2 1.5l-11.1-4a1.63 1.63 0 0 1-.4-2.9l11.5-7.7c1.1-.8 2.6 0 2.6 1.4z"/><path fill="#3b8f3d" d="M48.9 134.3c-.1-.4-1.3-3.9-3-8l-.3-.8-1.4-3.2-.9-1.9-3-5.1c-1.5-1.9-3.1-3.1-4.5-2.9-2.7.4-3.7.7-4 .8h-.1c-.2.1-1.8.6-3.7 1.5h-.1c-3.3 1.5-7.7 4.1-8.2 7.1-.7 5 4 19.8 12.1 22.6.2.1.4.1.5.2 7 1.9 12.9-4.6 14.3-6.3.2-.2.3-.4.3-.4.2-.2 1.8-1.8 2-3.1v-.5zm-5.9 6.9c-2.7 2.2-6.7 4.2-11.1 2.8-7.9-2.7-12.5-17.2-11.8-22 .4-2.6 4.1-4.9 7.2-6.4-.8 1.6-1.7 5.8 2.4 13.4 3.9 7.3 7.4 11.3 10.6 12.2a6.15 6.15 0 0 0 2.7 0c-.2 0-.2.1 0 0zm2.2-15.3h0z"/><path fill="#38b54a" d="M43 141.2c-2.7 2.2-6.7 4.2-11.1 2.8-7.9-2.7-12.5-17.2-11.8-22 .4-2.6 4.1-4.9 7.2-6.4-.8 1.6-1.7 5.8 2.4 13.4 3.9 7.3 7.4 11.3 10.6 12.2a6.15 6.15 0 0 0 2.7 0z"/><path d="M82.8 89.6c-.1 0-.2-.1-.4-.1-.5 0-1 .2-1.2.7-.1.2-.9 1.8-4.3.6-.5-.2-.9-.4-1.4-.5-.3-.1-.6-.2-.9-.4-.4-.2-.9-.3-1.4-.4-.2-.1-.5-.1-.7-.2-.3-.1-.6-.1-.9-.2-2.2-.4-4.8 0-8 2-.6.4-.7 1.1-.4 1.7.2.3.4.4.7.5s.7 0 1-.1c.8-.5 1.6-.9 2.3-1.2.4-.2.8-.3 1.2-.4.1 0 .3-.1.4-.1.6-.1 1.2-.1 1.8-.1 1.4.1 2.6.6 4 1.1.5.2 1 .4 1.5.5 4.6 1.7 6.8-.5 7.4-1.9.2-.6-.1-1.2-.7-1.5z"/></svg>