<?xml version="1.0" encoding="utf-8"?>
<!-- Generator: Adobe Illustrator 24.1.1, SVG Export Plug-In . SVG Version: 6.00 Build 0)  -->
<svg version="1.1" id="SEC_3" xmlns="http://www.w3.org/2000/svg" xmlns:xlink="http://www.w3.org/1999/xlink" x="0px" y="0px"
	 viewBox="0 0 168.25 203.35" enable-background="new 0 0 168.25 203.35" xml:space="preserve">
<g>
	<path id="Icon_Bg_8_" fill="none" stroke="#4DB64A" stroke-width="2" stroke-linejoin="round" d="M135.91,84
		c11.62,12.57,18.72,29.38,18.72,47.84c0,38.94-31.56,70.5-70.5,70.5s-70.5-31.56-70.5-70.5c0-37.26,28.91-67.78,65.53-70.33"/>
	<g>
		<g>
			<g>
				<path fill="#ED1C24" d="M68.37,152.31c0,0.2,0.01,0.4,0.02,0.6h-0.02V152.31z"/>
				<path fill="#ED1C24" d="M73.15,177.52c0,0.2-0.01,0.4-0.02,0.6h0.02V177.52"/>
				<path fill="#3B8F3D" d="M83.24,151.58l-53.19,15.57v10.5c0.7,0.36,1.34,0.91,1.88,1.68c1.25,1.82,2.72,3.55,4.35,5.19
					c1.58,0.2,2.71,1.05,3.38,2.17c0.98,0.52,1.68,1.36,2.08,2.34l14.22,8.21c0.46,0.18,0.91,0.36,1.37,0.52
					c5.87,2.12,12.27,2.75,18.21,4.47c0.58-0.25,1.25-0.39,2.02-0.39c0.88,0,1.64,0.19,2.28,0.52c1.21-0.08,2.46,0.13,3.65,0.39
					c0.62-0.29,1.3-0.46,2-0.41c4.23,0.3,9.04-0.89,13.33-1.37c1.61-0.18,3.15-0.44,4.67-0.74c0.8-0.97,2.03-1.63,3.67-1.63
					c0.12,0,0.23,0.01,0.34,0.02l25.09-14.49c0.74-1.12,1.6-2.17,2.23-3.36c0.33-0.62,0.77-1.12,1.3-1.5v-12.31L83.24,151.58z"/>
				<polyline fill="#3B8F3D" points="83.19,197.96 136.38,167.25 136.38,152.11 83.52,136.73 30.33,152.31 30.33,167.44 
					83.19,197.96 				"/>
				<polyline fill="#5BDB59" points="83.19,182.83 136.38,152.11 83.52,121.59 30.33,152.31 83.19,182.83 				"/>
				<path fill="#375759" d="M60.48,164.8c12.68,7.32,33.3,7.28,46.07-0.08c12.76-7.37,12.82-19.27,0.14-26.59
					c-12.68-7.32-33.31-7.28-46.07,0.08C47.86,145.57,47.8,157.48,60.48,164.8z"/>
				<path fill="#D1E5E7" d="M60.48,161.98c12.68,7.32,33.3,7.28,46.07-0.08c12.76-7.37,12.82-19.27,0.14-26.59
					c-12.68-7.32-33.31-7.28-46.07,0.08C47.86,142.76,47.8,154.66,60.48,161.98z"/>
				<path d="M63.08,160.48c11.25,6.5,29.55,6.46,40.88-0.07c11.32-6.54,11.38-17.1,0.13-23.6c-11.25-6.5-29.55-6.46-40.88,0.07
					C51.89,143.42,51.83,153.99,63.08,160.48z"/>
				<linearGradient id="SVGID_1_" gradientUnits="userSpaceOnUse" x1="55.1122" y1="149.4194" x2="112.0562" y2="149.4194">
					<stop  offset="0" style="stop-color:#FABE51"/>
					<stop  offset="0.088" style="stop-color:#F7A025"/>
					<stop  offset="0.192" style="stop-color:#F59414"/>
					<stop  offset="0.32" style="stop-color:#F38C08"/>
					<stop  offset="0.5" style="stop-color:#F28701"/>
				</linearGradient>
				<path fill="url(#SVGID_1_)" d="M55.11,134.43v13.65c0,0.13,0,0.26,0.01,0.39c0.17,4.06,2.92,8.08,8.27,11.16
					c11.08,6.4,29.11,6.37,40.26-0.07c5.34-3.08,8.13-7.07,8.38-11.09c0.01-0.2,0.02-0.4,0.02-0.6v-13.44H55.11z"/>
				<path fill="#ED1C24" d="M79.62,125.81v0.39h0.01C79.62,126.07,79.62,125.94,79.62,125.81z"/>
				<path fill="#FFAF2E" d="M63.39,145.79c11.08,6.4,29.11,6.37,40.27-0.07c11.15-6.44,11.21-16.85,0.13-23.25
					c-11.08-6.4-29.11-6.37-40.27,0.07C52.36,128.98,52.3,139.39,63.39,145.79z"/>
				<path fill="#DFECED" d="M41.73,189.03c0,0.01,0.01,0.02,0.01,0.03l14.09,8.13c0.04,0.02,0.08,0.03,0.13,0.05L41.73,189.03z"/>
				<path fill="#3B8F3D" d="M30.33,167.44v10.35c0.59,0.36,1.14,0.86,1.6,1.53c1.25,1.82,2.72,3.55,4.35,5.19
					c1.58,0.2,2.71,1.05,3.38,2.17c0.98,0.52,1.68,1.36,2.08,2.34l14.22,8.21c0.46,0.18,0.91,0.36,1.37,0.52
					c5.87,2.12,12.27,2.75,18.21,4.47c0.58-0.25,1.25-0.39,2.02-0.39c0.89,0,1.64,0.19,2.29,0.52c1.11-0.07,2.25,0.1,3.35,0.33
					v-4.73L30.33,167.44z"/>
				<polyline fill="#3B8F3D" points="30.33,152.31 30.33,152.31 30.33,167.44 83.19,197.96 83.19,182.83 30.33,152.31 				"/>
			</g>
		</g>
		<g>
			<path fill="#3B8F3D" d="M73.79,131.58c0,0,1.46,5.47,4.1,5.36c2.94-0.12,12.1-1.1,12.25-1.28s1.54-0.86-0.07-5.87
				C87.69,122.36,73.79,131.58,73.79,131.58z"/>
			<path fill="#3B8F3D" d="M79.79,94.63c0,0-14.92-1.15-0.53,35.21c-0.54,0.17-3.03,1.79-3.03,1.79s-1.48,0.14-2.34,0.25
				c-6.25-19.55-16.17-39.25-0.65-47.49c1.36-0.72,3.04-1.18,4.83-1.65L79.79,94.63z"/>
			<path fill="#3B8F3D" d="M95.95,14.27l-19.88,8.55L72.3,27.3c0,0,5.15,3.16,1.46,9.58c-4.31,7.5,10.81,5.82,10.81,5.82
				S98.63,19,98.75,18.57S95.95,14.27,95.95,14.27z"/>
			<path fill="#38B54A" d="M107.05,31.45c0,0-1.85-12.5-10.46-17.99c-8.06,3.65-20.54,9.37-20.54,9.37s7.18,6.92,6.7,16.29
				c-1.68-0.99-3.49-6.81-13.08-11.38c-2.22-1.06-20.47,17-20.47,17s13.02,6.99,14.91,20.93"/>
			<g>
				<path fill="#3B8F3D" d="M126.31,57.53c1.29-3.21-11.22-36.03-11.22-36.03l-3.75,1.03l4.55,27.31L126.31,57.53z"/>
				<path fill="#3B8F3D" d="M111.36,22.58c0,0-0.12-4.48,2.7-4.68c2.82-0.2,7.7-0.02,8.41,0.06c0.72,0.08,2.74,1.62,2.57,4.15
					c-0.17,2.53-11.8,4.67-11.8,4.67"/>
				<path fill="#38B54A" d="M129.95,56.47c1.29-3.21-4.89-34.6-4.89-34.6l-10.07-0.4l4.55,27.31L129.95,56.47z"/>
			</g>
			<path fill="#3B8F3D" d="M111.53,32.05c-1.09-1.09-2.45-2.44-4.15-1.18l0,0.01l-1.14,0.9l-1.61,1.26
				c-1.69,1.35-40.6,32.69-40.6,32.69l0.55,0.63c0,0,39.02-31.57,40.51-32.74l2.74-2.16c1.14-0.84,1.96-0.13,3.2,1.11l0.12,0.12
				l21.36,24.97c0.76,1.03,0.6,2.43-0.39,3.24l-9.35,7.49l0.48,0.56l8.77-7.02c-0.06-0.07-0.1-0.12-0.15-0.18l0.57-0.46
				c0.04,0.06,0.09,0.11,0.15,0.18c1.3-1.07,1.5-2.89,0.49-4.25l-14.66-17.12l-0.46-0.03c0.01-0.16,0.02-0.32,0.04-0.47
				L111.53,32.05z"/>
			<path fill="#38B54A" d="M89.2,95.27L65.2,65.84c0.1-0.08,0.23-0.19,0.39-0.32c5.01-4.06,38.05-30.77,39.54-31.94l2.74-2.16
				c1.14-0.84,1.96-0.13,3.2,1.11l0.12,0.12l21.36,24.97c0.76,1.03,0.6,2.43-0.39,3.24l-9.35,7.49"/>
			<path fill="#3B8F3D" d="M118.48,40.05l-0.42-0.5c-0.02,0.15-0.03,0.31-0.04,0.47L118.48,40.05z"/>
			<path fill="#3B8F3D" d="M132.5,61.24l-0.57,0.46c0.04,0.06,0.09,0.11,0.15,0.18l0.55-0.45c0-0.01,0.01-0.01,0.01-0.02
				C132.59,61.35,132.54,61.3,132.5,61.24z"/>
			<path fill="#3B8F3D" d="M132.65,61.42c0,0.01-0.01,0.01-0.01,0.02l-0.55,0.45c0.17,0.19,0.37,0.43,0.62,0.71
				c2.94,3.33,11.85,13.48,10.66,25.28c-0.73,7.24-5.13,13.95-13.06,19.96c-7.71,5.82-15.53,8.06-23.23,6.65
				c-12.3-2.24-20.78-13.23-22.83-16.13c-0.12,0.04-0.22,0.08-0.3,0.11c-0.15,0.07-0.28,0.13-0.39,0.17
				c1.93,2.76,10.62,14.25,23.38,16.57c7.92,1.44,15.93-0.84,23.82-6.79c8.1-6.13,12.58-13.02,13.33-20.47
				c1.23-12.11-7.85-22.44-10.83-25.83C133.01,61.84,132.81,61.61,132.65,61.42z"/>
			<path fill="#38B54A" d="M132.69,62.59c2.94,3.33,11.85,13.48,10.66,25.28c-0.73,7.24-5.13,13.95-13.06,19.96
				c-7.71,5.82-15.53,8.06-23.23,6.65c-12.3-2.24-20.78-13.23-22.83-16.13c1.29-0.51,4.37-1.74,5.18-2.31l0.06-0.05l4.87-3.9
				c1.21,1.62,7.6,9.67,16.48,11.05c0.87,0.14,9.19-0.01,14.96-4.44c4.65-3.61,7.17-7.92,7.48-12.8c0.57-8.92-6.28-16.86-7.92-18.63
				l6.72-5.37C132.24,62.08,132.45,62.32,132.69,62.59z M137.27,87.23c-0.2,0.22-0.31,0.51-0.28,0.83c0.36,4.43-0.3,7.74-1.94,9.58
				c-0.01,0.01-0.02,0.03-0.03,0.04c-1.27,1.4-2.67,1.47-2.74,1.47c-0.6,0.02-1.08,0.53-1.07,1.12c0.01,0.61,0.5,1.09,1.1,1.08
				c0.1,0,2.39-0.05,4.32-2.18c0,0,0-0.01,0.01-0.01c2.11-2.33,2.96-6.12,2.54-11.28c-0.06-0.6-0.59-1.06-1.19-1.01
				C137.71,86.89,137.46,87.03,137.27,87.23z"/>
			<g>
				
					<path fill="none" stroke="#FFFFFF" stroke-width="1.4665" stroke-linecap="round" stroke-linejoin="round" stroke-miterlimit="10" d="
					M112.56,113.25c-2.42,0-5.67-0.5-8.27-1.52"/>
				<circle fill="#FFFFFF" cx="115.22" cy="113.08" r="0.82"/>
			</g>
			<path fill="#38B54A" d="M125.36,67.26l-0.57,0.46c1.49,1.62,8.31,9.56,7.77,18.12c-0.3,4.66-2.73,8.79-7.2,12.27
				c-0.14,0.11-0.29,0.22-0.43,0.32c-2.07,1.55-4.17,2.67-6.3,3.35c-0.26,0.34-0.52,0.67-0.81,1c2.71-0.7,5.38-2.06,7.99-4.08
				c4.65-3.61,7.17-7.92,7.48-12.8C133.85,76.97,127,69.03,125.36,67.26z"/>
			<polygon fill="#FFFFFF" points="123.31,68.91 122.82,68.35 122.54,68.58 123.02,69.14 			"/>
			<polygon fill="#FFFFFF" points="122.54,68.58 122.25,68.81 122.73,69.37 123.02,69.14 			"/>
			<path d="M139.19,87.88c-0.06-0.6-0.59-1.06-1.19-1.01c-0.29,0.02-0.55,0.16-0.73,0.36c-0.2,0.22-0.31,0.51-0.28,0.83
				c0.36,4.43-0.3,7.74-1.94,9.58c-0.01,0.01-0.02,0.03-0.03,0.04c-1.27,1.4-2.67,1.47-2.74,1.47c-0.6,0.02-1.08,0.53-1.07,1.12
				c0.01,0.61,0.5,1.09,1.1,1.08c0.1,0,2.39-0.05,4.32-2.18c0,0,0-0.01,0.01-0.01C138.77,96.82,139.62,93.03,139.19,87.88z"/>
			<path d="M126.95,88.57c1.5-1.65,1.36-4.2-0.29-5.7s-4.2-1.37-5.7,0.28c-1.5,1.65-1.37,4.21,0.28,5.7
				C122.89,90.35,125.45,90.22,126.95,88.57z"/>
			<path d="M116.58,82.3c0-0.2-0.16-0.37-0.37-0.36c-1.05,0-1.9,0.33-2.54,0.98c-0.04,0.03-0.07,0.07-0.1,0.1
				c-1.07,1.18-1.07,2.91-1.07,2.99c0,0.2,0.17,0.36,0.37,0.36c0.21,0,0.37-0.17,0.37-0.37c0-0.01,0-0.87,0.39-1.71
				c0.49-1.07,1.36-1.61,2.59-1.62C116.42,82.67,116.59,82.5,116.58,82.3z"/>
			<path fill="#38B54A" d="M92.04,65.88l-0.61,0.4c0.01,0.01,0.02,0.03,0.04,0.07c0.01,0,0.01,0,0.01,0
				c0.24-0.06,0.47-0.17,0.68-0.31C92.08,65.94,92.05,65.88,92.04,65.88z"/>
			<path fill="#FFFFFF" d="M103.03,90.99"/>
			<line fill="#FFFFFF" x1="100.57" y1="87.11" x2="123.29" y2="68.91"/>
			<line fill="#FFFFFF" x1="100.86" y1="86.87" x2="100.57" y2="87.11"/>
			<path d="M116.45,97.58c1.5-1.65,1.37-4.21-0.28-5.71c-1.65-1.5-4.2-1.36-5.7,0.29c-1.5,1.65-1.37,4.2,0.28,5.7
				S114.96,99.24,116.45,97.58z"/>
			<polygon fill="#FFFFFF" points="100.86,86.87 100.42,86.29 100.13,86.52 100.57,87.11 			"/>
			<path fill="#3B8F3D" d="M123.3,68.9l-0.45-0.57L89.2,95.27l0.3,0.37l-0.57,0.46l-0.35-0.44c-1.03,0.47-3.27,1.14-5.11,1.86
				c-0.33,0.16-0.38,0.5-0.38,0.5l-0.13,0.06c-1,0.75-2.33,0.63-3.15-0.25c1.04-0.81,1.62-1.35,1.64-1.37
				c1.11-0.91,1.76-1.54,0.98-2.98c-0.65-1.21-5.47-6.97-6.79-8.46c-0.02-0.02-0.03-0.04-0.05-0.05c1.32,1.49,6.15,7.25,6.79,8.46
				c0.78,1.44,0.12,2.07-0.98,2.98c-0.02,0.03-0.72,0.68-1.97,1.63c-0.09,0.06-0.16,0.12-0.25,0.18c1.01,1.23,2.81,1.45,4.16,0.49
				c0.05-0.01,0.13-0.04,0.22-0.08c-0.26-0.37-0.4-0.58-0.41-0.6l0.62-0.39c0.01,0.02,0.18,0.27,0.48,0.7
				c1.29-0.51,4.37-1.74,5.18-2.31l0.06-0.05l4.87-3.9c-0.13-0.18-0.2-0.28-0.21-0.29l0.61-0.42c0.01,0,0.06,0.1,0.18,0.24
				L123.3,68.9z"/>
			<path fill="#38B54A" d="M119.12,102.83c0.3-0.12,0.75-1.42-0.49-1.06c-1.13,0.33-3.35,0.75-3.77,0.78
				c-1.29,0.12-2.59,0.08-3.9-0.13c-8.66-1.36-14.92-9.28-16.03-10.79l-0.58,0.46c1.21,1.62,7.6,9.67,16.48,11.05
				C111.71,103.27,118.25,102.83,119.12,102.83z"/>
			<path fill="#3B8F3D" d="M94.76,91.38l-0.61,0.42c0.01,0.01,0.08,0.11,0.21,0.29l0.58-0.46C94.82,91.48,94.76,91.38,94.76,91.38z"
				/>
			<path fill="#3B8F3D" d="M69.93,86.78c0.11-0.07,0.21-0.14,0.31-0.22c0.1-0.07,0.2-0.14,0.29-0.21l-4.19-5.21l0-0.01
				c0.42-0.29,0.77-0.54,1.03-0.82c0.58-0.57,0.82-1.31,0.71-2.22c-0.36-2.89-4.41-6.68-5.98-7.59c-1.77-1.04-2.92,0.1-3.55,0.72
				c-0.02,0.03-0.05,0.04-0.07,0.07c-0.24-0.37-0.32-0.7-0.24-1.03c0.09-0.38,0.39-0.78,0.92-1.22l5.42-2.81l-0.48-0.57l-5.15,2.67
				c-0.07,0.05-0.48,0.35-0.64,0.5c-0.05,0.05-0.09,0.09-0.14,0.14c-0.82,0.9-0.03,2.52-0.03,2.52l0.51,0.62"/>
			<path fill="#38B54A" d="M89.2,95.27L65.2,65.84c-0.13,0.11-0.2,0.17-0.23,0.19l-0.39,0.2l23.99,29.43
				c0.17-0.08,0.3-0.14,0.39-0.21L89.2,95.27z"/>
			<path fill="#3B8F3D" d="M88.57,95.66L64.58,66.23l-5.42,2.81c-0.53,0.44-0.83,0.84-0.92,1.22c-0.08,0.33,0,0.66,0.24,1.03
				c0.02-0.02,0.04-0.04,0.07-0.07c0.62-0.61,1.78-1.75,3.55-0.72c1.57,0.91,5.62,4.7,5.98,7.59c0.11,0.9-0.13,1.65-0.71,2.22
				c-0.26,0.29-0.62,0.54-1.03,0.82l0,0.01l4.19,5.21c1.25-0.95,2.14-1.84,2.14-1.84c0.05-0.05,0.47-0.49,1.17-0.49
				c0.44,0,0.88,0.18,1.3,0.54c0.15,0.11,0.29,0.25,0.43,0.41c0.02,0.01,0.03,0.03,0.05,0.05c1.32,1.49,6.15,7.25,6.79,8.46
				c0.78,1.44,0.12,2.07-0.98,2.98c-0.02,0.03-0.6,0.56-1.64,1.37c0.82,0.88,2.15,0.99,3.15,0.25l0.13-0.06c0,0,0.05-0.33,0.38-0.5
				C85.3,96.81,87.55,96.13,88.57,95.66z"/>
			<path fill="#3B8F3D" d="M89.5,95.64l-0.3-0.37l-0.23,0.19c-0.1,0.06-0.23,0.13-0.39,0.21l0.35,0.44L89.5,95.64z"/>
			<path fill="#3B8F3D" d="M75.57,84.97c-0.14-0.16-0.28-0.3-0.43-0.41c-0.41-0.32-0.83-0.48-1.25-0.49
				c-0.71-0.01-1.13,0.43-1.17,0.49c0,0-0.9,0.89-2.15,1.84l-0.04-0.05c-0.1,0.07-0.2,0.14-0.29,0.21c-0.1,0.08-0.2,0.14-0.31,0.22
				l0.43,0.54c0.14-0.08,0.27-0.18,0.41-0.28c1.46-1.06,2.5-2.09,2.54-2.13c0.03-0.02,0.26-0.27,0.65-0.26
				c0.37,0.01,0.76,0.24,1.18,0.7c1.37,1.54,6.1,7.2,6.7,8.32c0.34,0.63,0.52,0.97,0.12,1.41c-0.18,0.2-1.61,1.46-2.83,2.38
				c-0.13,0.11-0.29,0.22-0.44,0.32l0.48,0.43c0.01,0,0.01,0,0.01,0.01c0.09-0.06,0.16-0.12,0.25-0.18c1.25-0.94,1.95-1.6,1.97-1.63
				c1.11-0.91,1.76-1.54,0.98-2.98C81.72,92.22,76.9,86.46,75.57,84.97z"/>
			<path fill="#3B8F3D" d="M73.9,84.07c0.42,0.01,0.84,0.17,1.25,0.49c-0.42-0.35-0.86-0.53-1.3-0.54c-0.7,0-1.13,0.43-1.17,0.49
				c0,0-0.89,0.89-2.14,1.84l0.04,0.05c1.26-0.95,2.15-1.84,2.15-1.84C72.77,84.51,73.19,84.07,73.9,84.07z"/>
			<path fill="#3B8F3D" d="M83.76,97.65l-0.62,0.39c0.01,0.02,0.15,0.23,0.41,0.6c0.11-0.04,0.24-0.1,0.39-0.17
				c0.08-0.04,0.18-0.07,0.3-0.11C83.94,97.92,83.77,97.67,83.76,97.65z"/>
			<circle fill="#FFFFFF" cx="127" cy="84.93" r="1.37"/>
			<path fill="#38B54A" d="M83.24,94.47c0,0-8.42,0.66,6.74,35.12c-0.74,0.23-10.46,1.65-13.62,2.04
				c-6.8-21.26-16.02-40.58-1.13-46.85L83.24,94.47z"/>
			<circle fill="#FFFFFF" cx="116.67" cy="93.95" r="1.37"/>
			<g>
				<g>
					<path fill="#FFFFFF" d="M106.2,55.97l-2.21-2.71c-2.85-3.49-8.04-4.02-11.53-1.18l0,0c-3.49,2.85-4.02,8.04-1.18,11.53
						l2.21,2.71c2.85,3.49,8.04,4.02,11.53,1.18l0,0C108.52,64.65,109.05,59.46,106.2,55.97z M104.18,57.79
						c1.9,2.33,1.55,5.8-0.79,7.7l0,0c-2.33,1.9-5.8,1.55-7.7-0.79l-2.37-2.91c-1.9-2.33-1.55-5.8,0.79-7.7l0,0
						c2.33-1.9,5.8-1.55,7.7,0.79L104.18,57.79z"/>
				</g>
				<g>
					<path fill="#FFFFFF" d="M97.58,45.57L84.8,55.98c-0.52,0.42-0.6,1.19-0.17,1.71l6.28,7.71c0.42,0.52,1.19,0.6,1.71,0.17
						l12.78-10.42c0.52-0.42,0.6-1.19,0.17-1.71l-6.28-7.71C98.87,45.22,98.1,45.15,97.58,45.57z"/>
				</g>
			</g>
			<path d="M109.44,104.7c-0.59-0.13-0.97-0.72-0.85-1.3c0.06-0.28,0.22-0.52,0.45-0.68c0.24-0.17,0.55-0.24,0.86-0.17
				c4.34,0.92,7.72,0.68,9.75-0.71c0.01-0.01,0.03-0.02,0.04-0.03c1.55-1.08,1.79-2.47,1.8-2.53c0.1-0.59,0.66-1,1.25-0.92
				c0.6,0.09,1.01,0.63,0.93,1.23c-0.01,0.1-0.35,2.36-2.71,4.01c0,0-0.01,0-0.01,0.01C118.37,105.41,114.5,105.78,109.44,104.7z"/>
			<path fill="#3B8F3D" d="M58.58,69.12c0,0-2.38-13.62-10.03-17.01c-0.43-0.21,0.85-7.46,0.85-7.46s13.8,5.36,15.45,21.87"/>
		</g>
	</g>
	<path id="Icon_Bg_3_" fill="none" stroke="#4DB64A" stroke-width="2" stroke-linejoin="round" d="M144.91,96.1
		c6.18,10.48,9.72,22.7,9.72,35.74c0,38.94-31.56,70.5-70.5,70.5s-70.5-31.56-70.5-70.5c0-29.69,18.35-55.09,44.33-65.48"/>
</g>
</svg>
