<?xml version="1.0" encoding="utf-8"?>
<!-- Generator: Adobe Illustrator 24.1.1, SVG Export Plug-In . SVG Version: 6.00 Build 0)  -->
<svg version="1.1" id="SEC_3" xmlns="http://www.w3.org/2000/svg" xmlns:xlink="http://www.w3.org/1999/xlink" x="0px" y="0px"
	 viewBox="0 0 168.25 203.35" enable-background="new 0 0 168.25 203.35" xml:space="preserve">
<g>
	<circle id="Icon_Bg_5_" fill="none" stroke="#4DB64A" stroke-width="2" stroke-linejoin="round" cx="84.12" cy="131.85" r="70.5"/>
	<g>
		<g>
			<g>
				<rect x="30.3" y="93.57" fill="#BAE3DE" width="107.07" height="68.18"/>
				<rect x="33.36" y="96.63" opacity="0.27" fill="#88CCAB" width="100.95" height="62.06"/>
				<polygon opacity="0.27" fill="#FFFFFF" points="115.98,145.03 100.68,96.47 133.57,96.47 133.57,145.03 				"/>
				<rect x="64.36" y="120.01" fill="#BAE3DE" width="56.59" height="54.68"/>
				<g>
					<path fill="#56BAAE" d="M147.1,162.95c0.07-0.44,0.23-0.84,0.44-1.21h-23.55v-45.18c0-4.64-3.77-8.41-8.41-8.41H66.63
						c-4.64,0-8.41,3.77-8.41,8.41v18.35h-5.35c-4.64,0-8.41,3.77-8.41,8.41v18.41h-24.6c0.07,0.09,0.15,0.17,0.22,0.26
						c1.42,1.85,2.27,4.01,3.37,6.05c1.19,2.2,2.65,4.1,4.35,5.92h16.66v15.95c0.09,0.08,0.18,0.16,0.27,0.25
						c2.15,2.17,5.09,3.21,7.85,4.4c3.69,1.58,7.42,3.06,11.13,4.59h7.52c4.38,0,7.99-3.37,8.37-7.65h35.98
						c4.64,0,8.41-3.77,8.41-8.41v-9.12h17.01C142.5,170.2,146.42,167.1,147.1,162.95z M84.98,112.74h12.24v3.06H84.98V112.74z
						 M62.04,196.1c-1.48,0-2.68-1.2-2.68-2.68c0-1.48,1.2-2.68,2.68-2.68c1.48,0,2.68,1.2,2.68,2.68
						C64.71,194.9,63.51,196.1,62.04,196.1z M75.04,187.69h-26v-42.83h26V187.69z M91.1,185.36c-2.11,0-3.82-1.71-3.82-3.82
						c0-2.11,1.71-3.82,3.82-3.82c2.11,0,3.82,1.71,3.82,3.82C94.92,183.65,93.21,185.36,91.1,185.36z M119.39,174.69H79.63v-31.35
						c0-4.64-3.77-8.41-8.41-8.41H62.8v-14.91h56.59V174.69z"/>
					<path fill="#56BAAE" d="M30.3,93.57h107.07v68.94h4.59V90.87c0-4.64-3.77-8.41-8.41-8.41H34.12c-4.64,0-8.41,3.77-8.41,8.41
						V162h4.59V93.57z M83.83,86.29c1.06,0,1.91,0.86,1.91,1.91c0,1.06-0.86,1.91-1.91,1.91c-1.06,0-1.91-0.86-1.91-1.91
						C81.92,87.14,82.78,86.29,83.83,86.29z"/>
				</g>
				<rect x="49.04" y="144.86" fill="#BAE3DE" width="26" height="42.83"/>
				<path fill="none" d="M83.83,183.11c1.06,0,1.91-0.86,1.91-1.91s-0.86-1.91-1.91-1.91c-1.06,0-1.91,0.86-1.91,1.91
					C81.92,182.25,82.78,183.11,83.83,183.11z"/>
				<rect x="39.86" y="161.75" fill="#408E83" width="4.59" height="12.24"/>
				<rect x="124" y="161.75" fill="#408E83" width="4.59" height="12.24"/>
				<rect x="79.59" y="174.69" fill="#408E83" width="4.63" height="16.82"/>
				<rect x="58.21" y="130.33" fill="#408E83" width="4.59" height="4.59"/>
				<circle fill="#D2E5D2" cx="62.04" cy="193.42" r="2.68"/>
				<circle fill="#D2E5D2" cx="91.1" cy="181.53" r="3.82"/>
				<rect x="84.98" y="112.74" fill="#D2E5D2" width="12.24" height="3.06"/>
				<circle fill="#D2E5D2" cx="83.83" cy="88.2" r="1.91"/>
				<polygon opacity="0.27" fill="#FFFFFF" points="98.74,171.63 83.45,123.07 116.33,123.07 116.33,171.63 				"/>
				<polygon opacity="0.27" fill="#FFFFFF" points="69.68,184.63 54.39,147.92 71.98,147.92 71.98,184.63 				"/>
			</g>
			<g>
				<path opacity="0.22" d="M114.99,80.26l19.95,0.23c0,0,1.49-0.05,2.8,0.77c1.31,0.81-5.84,3.16-12.02,3.1
					C119.71,84.31,115.26,81.12,114.99,80.26z"/>
				<path opacity="0.22" d="M66.81,80.34c0,0-2.37,1.05-2.3,3.42c0.07,2.37,15.65,15.39,15.65,15.39l6.51,0.53c0,0,6.91-10,11.31-10
					c4.41,0,4.54-0.53,5.13-1.32c0.59-0.79,8.68-8.09,8.68-8.09L66.81,80.34z"/>
				<g>
					<circle fill="#FFFFFF" cx="104.43" cy="45.42" r="17.4"/>
					<path fill="#3B8F3D" d="M68.89,46.72l-10.04,2.85c1.39,6.1,9.56,1.24,9.91,0.95C69.42,49.99,69.27,48,68.89,46.72z"/>
					<path fill="#3B8F3D" d="M68.09,43.08c2.17-5.64,8.9-2.31,9.21-2.14c0,0,0.01,0,0.01,0.01c0.19-0.01,1.37-0.08,2.56-0.14
						c1.17-0.06,1.83-0.1,2.2-0.11c-0.02-0.01-0.04-0.02-0.07-0.03c-1.11-0.52-4.19-2.03-7.33-2.56
						C66.95,36.8,68.16,42.89,68.09,43.08z"/>
					<path fill="#38B54A" d="M58.83,49.58l10.1-2.85c-0.37-1.26,0.44-8.77,5.05-8.33c3.22,0.06,6.62,1.65,7.74,2.17
						c0.2,0.1,0.36,0.17,0.4,0.18l0,0.02c0,0,0,0,0.01,0l3.5-8.19c0,0-0.01-0.01-0.02-0.01l-0.06-0.04l0.04-0.09
						c-0.22-0.14-11.18-6.16-20.34-1.78C58.02,34.58,58.6,46.79,58.83,49.58z"/>
					<path fill="#3B8F3D" d="M53.82,62.86L61.98,81c0,0,5.87-6.24,10.93-2.1c6.05,2.78,3.7-8.69,3.7-8.69s-23-11.7-23.34-11.76
						C52.94,58.38,53.82,62.86,53.82,62.86z"/>
					<path fill="#38B54A" d="M66.42,53.77c0,0-8.97-3.5-13.22,4.67c3.36,5.92,8.66,17.64,8.66,17.64s5.11-6.41,12.13-4.23
						c-0.64,1.36-4.98,3.15-7.8,10.82c-0.65,1.77,14.46,14.49,14.46,14.49s4.44-10.46,14.99-12.89"/>
					<path fill="#3B8F3D" d="M66.56,50.29c-0.76,0.91-1.7,2.05-0.61,3.27l0,0l0.77,0.81l1.08,1.14c1.15,1.2,27.9,28.81,27.9,28.81
						l0.44-0.46c0,0-26.92-27.68-27.92-28.74l-1.84-1.95c-0.72-0.81-0.24-1.49,0.63-2.53l0.08-0.1l17.64-18.12
						c0.74-0.65,1.82-0.63,2.51,0.07l6.39,6.64l0.39-0.41l-6-6.23c-0.05,0.05-0.09,0.09-0.13,0.13l-0.4-0.4
						c0.04-0.04,0.08-0.08,0.13-0.13c-0.91-0.92-2.32-0.94-3.29-0.07L72.24,44.46l0.01,0.36c-0.12,0.01-0.24,0.01-0.36,0
						L66.56,50.29z"/>
					<path fill="#38B54A" d="M116.57,62.97L95.7,83.41c-0.07-0.07-0.16-0.16-0.27-0.28c-3.46-3.55-26.24-27-27.25-28.05l-1.84-1.95
						c-0.72-0.81-0.24-1.49,0.63-2.53l0.08-0.1l17.64-18.12c0.74-0.65,1.82-0.63,2.51,0.07l6.39,6.64"/>
					<path fill="#3B8F3D" d="M72.21,44.41l-0.36,0.36c0.12,0,0.24,0,0.36,0L72.21,44.41z"/>
					<path fill="#3B8F3D" d="M87.46,32.18l0.4,0.4c0.04-0.04,0.08-0.08,0.13-0.13l-0.38-0.39c0,0-0.01-0.01-0.01-0.01
						C87.54,32.1,87.5,32.14,87.46,32.18z"/>
					<path fill="#3B8F3D" d="M87.59,32.05c0,0,0.01,0.01,0.01,0.01l0.38,0.39c0.13-0.14,0.3-0.32,0.5-0.52
						c2.35-2.48,9.49-10.03,18.62-9.94c5.6,0.05,11.05,2.95,16.21,8.6c5,5.5,7.26,11.33,6.73,17.33
						c-0.85,9.58-8.68,16.85-10.76,18.62c0.04,0.09,0.08,0.16,0.11,0.22c0.06,0.11,0.12,0.21,0.16,0.29
						c1.98-1.67,10.17-9.14,11.06-19.08c0.55-6.17-1.76-12.14-6.87-17.77c-5.27-5.77-10.86-8.73-16.62-8.78
						c-9.37-0.09-16.64,7.59-19.03,10.11C87.89,31.74,87.72,31.91,87.59,32.05z"/>
					<path fill="#38B54A" d="M88.48,31.93c2.35-2.48,9.49-10.03,18.62-9.94c5.6,0.05,11.05,2.95,16.21,8.6
						c5,5.5,7.26,11.33,6.73,17.33c-0.85,9.58-8.68,16.85-10.76,18.62c-0.48-0.95-1.64-3.22-2.13-3.81l-0.05-0.04l-3.33-3.46
						c1.15-1.04,6.87-6.5,7.31-13.4c0.04-0.68-0.65-7.04-4.45-11.15c-3.1-3.31-6.57-4.93-10.33-4.83
						c-6.87,0.19-12.47,5.99-13.72,7.37l-4.59-4.77C88.12,32.31,88.29,32.14,88.48,31.93z M107.04,26.7
						c0.18,0.14,0.41,0.2,0.65,0.15c3.36-0.59,5.95-0.31,7.48,0.81c0.01,0.01,0.02,0.02,0.03,0.02c1.16,0.87,1.31,1.95,1.32,1.99
						c0.06,0.46,0.48,0.79,0.93,0.74c0.46-0.05,0.8-0.46,0.75-0.92c-0.01-0.08-0.2-1.82-1.97-3.16c0,0,0,0-0.01-0.01
						c-1.93-1.45-4.9-1.84-8.82-1.15c-0.46,0.09-0.77,0.52-0.69,0.98C106.75,26.38,106.87,26.57,107.04,26.7z"/>
					<g>
						
							<path fill="none" stroke="#FFFFFF" stroke-width="1.009" stroke-linecap="round" stroke-linejoin="round" stroke-miterlimit="10" d="
							M128.71,43.8c0.17,1.86,0.02,4.38-0.59,6.44"/>
						<circle fill="#FFFFFF" cx="128.39" cy="41.78" r="0.63"/>
					</g>
					<path fill="#38B54A" d="M92.57,37.22l0.39,0.41c1.14-1.25,6.74-7.04,13.34-7.22c3.59-0.09,6.92,1.47,9.9,4.66
						c0.09,0.1,0.19,0.2,0.27,0.3c1.33,1.47,2.34,3.01,3.01,4.59c0.28,0.17,0.55,0.35,0.82,0.55c-0.73-2.03-1.96-3.98-3.69-5.83
						c-3.1-3.31-6.57-4.93-10.33-4.83C99.42,30.04,93.82,35.84,92.57,37.22z"/>
					<polygon fill="#FFFFFF" points="93.98,38.68 93.59,39.09 93.78,39.3 94.18,38.89 					"/>
					<polygon fill="#FFFFFF" points="93.78,39.3 93.98,39.5 94.37,39.09 94.18,38.89 					"/>
					<path d="M107.4,25.18c-0.46,0.09-0.77,0.52-0.69,0.98c0.04,0.22,0.16,0.41,0.33,0.53c0.18,0.14,0.41,0.2,0.65,0.15
						c3.36-0.59,5.95-0.31,7.48,0.81c0.01,0.01,0.02,0.02,0.03,0.02c1.16,0.87,1.31,1.95,1.32,1.99c0.06,0.46,0.48,0.79,0.93,0.74
						c0.46-0.05,0.8-0.46,0.75-0.92c-0.01-0.08-0.2-1.82-1.97-3.16c0,0,0,0-0.01-0.01C114.28,24.88,111.32,24.49,107.4,25.18z"/>
					<path d="M108.79,34.51c-1.37-1.03-3.32-0.75-4.35,0.62c-1.03,1.37-0.75,3.31,0.62,4.34c1.37,1.03,3.32,0.76,4.35-0.61
						S110.16,35.54,108.79,34.51z"/>
					<path d="M104.71,42.89c-0.15,0.01-0.27,0.15-0.25,0.31c-0.12,0.81-1.02,4.92,3.38,2.56c0.15-0.01,0.26-0.15,0.25-0.31
						c-0.01-0.16-0.16-0.27-0.31-0.25c0,0-0.66,0.06-1.33-0.18c-0.86-0.3-1.33-0.93-1.42-1.87C105,42.99,104.87,42.88,104.71,42.89z
						"/>
					<path fill="#38B54A" d="M93.85,62.85l0.35,0.44c0.01-0.01,0.02-0.02,0.05-0.03c0,0,0,0,0,0c-0.07-0.18-0.16-0.35-0.28-0.5
						C93.9,62.81,93.85,62.84,93.85,62.85z"/>
					<path fill="#FFFFFF" d="M112.32,52.67"/>
					<line fill="#FFFFFF" x1="109.52" y1="54.83" x2="93.98" y2="38.69"/>
					<line fill="#FFFFFF" x1="109.32" y1="54.62" x2="109.52" y2="54.83"/>
					<path d="M116.43,41.92c-1.37-1.03-3.32-0.75-4.35,0.62c-1.03,1.37-0.75,3.32,0.62,4.35c1.37,1.03,3.31,0.75,4.34-0.62
						C118.07,44.9,117.8,42.95,116.43,41.92z"/>
					<polygon fill="#FFFFFF" points="109.32,54.62 108.9,55 109.1,55.21 109.52,54.83 					"/>
					<path fill="#3B8F3D" d="M93.97,38.69l-0.4,0.39l23,23.89l0.26-0.25l0.4,0.4l-0.31,0.3c0.43,0.75,1.11,2.43,1.78,3.79
						c0.15,0.24,0.41,0.26,0.41,0.26l0.05,0.1c0.64,0.71,0.65,1.74,0.03,2.43c-0.69-0.74-1.15-1.14-1.17-1.16
						c-0.77-0.78-1.3-1.24-2.35-0.55c-0.88,0.58-0.91,0.63-0.03,0.05c1.05-0.7,1.58-0.24,2.35,0.55c0.02,0.02,0.57,0.5,1.39,1.39
						c0.05,0.06,0.1,0.11,0.16,0.18c0.87-0.86,0.92-2.25,0.09-3.22c-0.01-0.04-0.04-0.09-0.08-0.16c-0.26,0.23-0.41,0.34-0.43,0.35
						l-0.34-0.45c0.01-0.01,0.2-0.16,0.5-0.42c-0.48-0.95-1.64-3.22-2.13-3.81l-0.05-0.04l-3.33-3.46c-0.13,0.11-0.2,0.17-0.2,0.18
						l-0.36-0.44c0,0,0.07-0.05,0.17-0.15L93.97,38.69z"/>
					<path fill="#38B54A" d="M120.26,39.51c-0.11-0.22-1.14-0.48-0.78,0.45c0.33,0.85,0.81,2.51,0.86,2.84
						c0.18,0.98,0.24,1.98,0.18,3c-0.43,6.73-6.07,12.08-7.14,13.03l0.4,0.41c1.15-1.04,6.87-6.5,7.31-13.4
						C121.12,45.15,120.32,40.18,120.26,39.51z"/>
					<path fill="#3B8F3D" d="M113.2,58.98l0.36,0.44c0.01-0.01,0.08-0.07,0.2-0.18l-0.4-0.41C113.27,58.92,113.2,58.97,113.2,58.98z
						"/>
					<path fill="#3B8F3D" d="M112.47,77.33c-0.06-0.08-2.24-3.59-2.3-3.66c-0.06-0.07-1.88,2.12-1.95,2.05l-0.88,5.76l0,0
						c-0.25-0.3-0.47-0.55-0.7-0.73c-0.48-0.41-1.06-0.54-1.75-0.39c-2.19,0.48-4.81,3.84-5.4,5.11c-0.67,1.43,0.28,2.23,0.8,2.67
						c0.02,0.02,0.04,0.04,0.06,0.05c-0.26,0.21-0.51,0.29-0.77,0.25c-0.3-0.04-0.62-0.24-1-0.62l-2.53-3.95l-0.4,0.41l2.41,3.76
						c0.04,0.05,0.3,0.34,0.43,0.46c0.04,0.04,0.08,0.07,0.12,0.1c0.75,0.56,1.93-0.16,1.93-0.16l0.44-0.43"/>
					<path fill="#38B54A" d="M116.57,62.97L95.7,83.41c0.09,0.09,0.15,0.14,0.16,0.17l0.18,0.28l20.87-20.45
						c-0.07-0.12-0.13-0.22-0.19-0.29L116.57,62.97z"/>
					<path fill="#3B8F3D" d="M116.91,63.42L96.05,83.86l2.53,3.95c0.38,0.37,0.7,0.58,1,0.62c0.25,0.04,0.51-0.04,0.77-0.25
						c-0.02-0.01-0.03-0.03-0.06-0.05c-0.51-0.43-1.47-1.24-0.8-2.67c0.59-1.27,3.21-4.63,5.4-5.11c0.68-0.15,1.27-0.02,1.75,0.39
						c0.24,0.18,0.46,0.43,0.7,0.73l0,0l3.7-3.58c-0.82-0.89-1.97-1.84-2.02-2.38c-0.03-0.34,0.49-1.27,0.6-1.39
						c0.01-0.02,0.02-0.03,0.03-0.05c1.05-1.12,5.12-5.22,6-5.8c1.05-0.7,1.58-0.24,2.35,0.55c0.02,0.02,0.47,0.42,1.17,1.16
						c0.62-0.69,0.61-1.71-0.03-2.43l-0.05-0.1c0,0-0.26-0.01-0.41-0.26C118.02,65.84,117.34,64.17,116.91,63.42z"/>
					<path fill="#3B8F3D" d="M116.83,62.71l-0.26,0.25l0.16,0.16c0.05,0.07,0.12,0.16,0.19,0.29l0.31-0.3L116.83,62.71z"/>
					<path fill="#3B8F3D" d="M109.06,75.47c-0.03-0.32,0.07-0.65,0.29-0.99c-0.24,0.35-0.35,0.7-0.32,1.04
						c0.05,0.54,0.41,0.83,0.46,0.87c0,0,0.74,0.62,1.56,1.51l0.04-0.04c-0.82-0.9-1.56-1.52-1.56-1.52
						C109.47,76.31,109.11,76.02,109.06,75.47z"/>
					<path fill="#3B8F3D" d="M118.77,66.96l0.34,0.45c0.01-0.01,0.17-0.13,0.43-0.35c-0.04-0.08-0.09-0.18-0.16-0.29
						c-0.03-0.06-0.07-0.14-0.11-0.22C118.97,66.81,118.78,66.95,118.77,66.96z"/>
					<circle fill="#FFFFFF" cx="105.99" cy="34.73" r="1.06"/>
					<circle fill="#FFFFFF" cx="113.63" cy="42.01" r="1.06"/>
					<g>
						<g>
							<path fill="#FFFFFF" d="M85.27,52.69l-1.92,1.88c-2.48,2.43-2.52,6.44-0.09,8.92l0,0c2.43,2.48,6.44,2.52,8.92,0.09
								l1.92-1.88c2.48-2.43,2.52-6.44,0.09-8.92l0,0C91.76,50.31,87.74,50.27,85.27,52.69z M86.8,54.12
								c1.66-1.62,4.34-1.59,5.96,0.06l0,0c1.62,1.66,1.59,4.34-0.06,5.96l-2.07,2.02c-1.66,1.62-4.34,1.59-5.96-0.06l0,0
								c-1.62-1.66-1.59-4.34,0.06-5.96L86.8,54.12z"/>
						</g>
						<g>
							<path fill="#FFFFFF" d="M78.1,60.23l8.48,8.66c0.47,0.48,1.24,0.49,1.72,0.02l5.06-4.96c0.48-0.47,0.49-1.24,0.02-1.72
								l-8.48-8.66c-0.47-0.48-1.24-0.49-1.72-0.02l-5.06,4.96C77.64,58.98,77.63,59.75,78.1,60.23z"/>
						</g>
					</g>
					<path d="M122.37,46.79c-0.06,0.46-0.48,0.8-0.94,0.74c-0.22-0.03-0.42-0.14-0.55-0.3c-0.15-0.17-0.22-0.4-0.19-0.64
						c0.4-3.39-0.02-5.96-1.23-7.42c-0.01-0.01-0.02-0.02-0.03-0.03c-0.94-1.11-2.02-1.2-2.06-1.2c-0.46-0.03-0.82-0.43-0.79-0.89
						c0.03-0.47,0.41-0.82,0.88-0.8c0.08,0,1.83,0.1,3.26,1.8c0,0,0,0,0.01,0.01C122.29,39.9,122.84,42.84,122.37,46.79z"/>
					<path fill="#3B8F3D" d="M98.68,88.25c0,0-10.27,2.78-12.33,8.88C86.22,97.48,80.58,97,80.58,97s3.14-10.95,15.67-13.37"/>
					<path fill="#3B8F3D" d="M123.5,64.69l9.43-5.18c-3.49-4.78-9.83,1.08-10.12,1.43C122.28,61.61,122.85,63.52,123.5,64.69z"/>
					<path fill="#3B8F3D" d="M128.81,70.55c-3.93,4.59-9.16-0.8-9.39-1.06c-2.18-2.14-0.01-0.01-0.01-0.01
						c-0.18-0.05-1.72-1.62-2.86-1.95c-1.12-0.33-1.35,0.71-1.71,0.6c0.02,0.01-7.18,6.87-7.16,6.9c0.87,0.86,10.49-3.53,13.27-1.98
						C127.79,76.85,128.68,70.71,128.81,70.55z"/>
					<path fill="#38B54A" d="M109.83,74.74c0,0,0.01,0.01,0.01,0.02l0.04,0.06l-0.07,0.07c0.17,0.22,8.73,9.62,19.48,8.49
						c11.91-2.3,9.63-17.22,3.51-24.02l-9.43,5.15c-0.08,1.4,6.94,10.56,0.19,8.54c-3.21-1.21-7.29-5.23-7.32-5.25"/>
				</g>
			</g>
		</g>
	</g>
	<path id="Icon_Bg_6_" fill="none" stroke="#4DB64A" stroke-width="2" stroke-linejoin="round" d="M147.04,100.01
		c4.85,9.56,7.58,20.38,7.58,31.84c0,38.94-31.56,70.5-70.5,70.5s-70.5-31.56-70.5-70.5c0-12.16,3.08-23.6,8.5-33.58"/>
</g>
</svg>
