<svg xmlns="http://www.w3.org/2000/svg" viewBox="0 0 168.3 203.4"><style><![CDATA[.B{fill:#3b8f3d}.C{fill:#8e8e8e}.D{fill:#c4c4c4}.E{fill:#38b54a}]]></style><path opacity=".16" d="M143.8 151.4c-5.1-.8-11.5-1.4-18.4-1.4-16.4 0-29.7 2.8-29.7 6.3s13.3 6.3 29.7 6.3c5.5 0 10.7-.3 15.1-.9.6-3.6 1.9-6.8 3.3-10.3zM36.7 178.6c-5 0-9.7.1-14 .3.3.4.7.8 1.1 1.2 2.2 2.3 4.8 4.3 7.4 6.2.4.3.8.7 1.1 1h4.5c21 0 38-2 38-4.4s-17.1-4.3-38.1-4.3z"/><path fill="#ffc47d" d="M59.1 149.6v3.2h-7.7v-3.6c0-5.9-3.4-11.1-8.3-13.7l4.2-6.1c2.4 1.4 4.6 3.2 6.3 5.3 3.4 4 5.5 9.2 5.5 14.9z"/><path fill="#a30c00" d="M62.8 182.3l-6.2 1.7c-1.7 0-5.1-1.2-5.1-3v-28.4c0-1.7 1.6-3.5 3.4-3.5l8 .4a3.12 3.12 0 0 1 3.1 3.1v26.6c0 1.7-1.6 2.6-3.2 3.1z"/><path fill="#ffc47d" d="M26.8 134.8c-5.4 2.4-9.1 7.8-9.1 14.1v3.6H10v-3.2c0-9 4.3-15.1 11-19.3l5.8 4.8z"/><path fill="#ff1800" d="M56.2 149l-48-.6c-.6 0-1.2.2-1.7.6.6.7 1.1 1.5 1.2 2.6.2 1.4.5 2.8.9 4.3 3.4 5.5 5 11.8 9.2 16.7 2.1 2.4 3.6 5.2 5.8 7.6a23.52 23.52 0 0 0 3.3 3l29.2.7a2.69 2.69 0 0 0 2.7-2.7v-29.5c.1-1.5-1.1-2.7-2.6-2.7zm-32.3 9.4a3.12 3.12 0 0 1 3.1 3.1 3.12 3.12 0 0 1-3.1 3.1 3.12 3.12 0 0 1-3.1-3.1 3.12 3.12 0 0 1 3.1-3.1zM42 173.6c-.1.8-.9 1.4-1.7 1.4H40l-16.9-2.8c-.9-.2-1.6-1-1.4-2 .1-.8.9-1.4 1.7-1.4h.3l.6.1 12.3 2 4 .7c.9.2 1.5 1.1 1.4 2zm-2.2-9a3.12 3.12 0 0 1-3.1-3.1 3.12 3.12 0 0 1 3.1-3.1 3.12 3.12 0 0 1 3.1 3.1c.1 1.7-1.3 3.1-3.1 3.1z"/><g fill="none" stroke="#4db64a" stroke-width="2" stroke-linejoin="round"><path d="M127.6 83.6c11.6 12.6 18.7 29.4 18.7 47.8 0 38.9-31.6 70.5-70.5 70.5S5.3 170.4 5.3 131.4c0-34.2 24.4-62.7 56.7-69.1"/><path d="M136.6 95.7c6.2 10.5 9.7 22.7 9.7 35.7 0 38.9-31.6 70.5-70.5 70.5S5.3 170.4 5.3 131.4c0-29.6 18.4-55.1 44.3-65.4"/></g><g class="C"><path d="M46 113.7c-.3-1-.8-1.9-1.6-2.5s-1.7-1-2.8-.9l-1.6-1.2s.1-.1.2-.3c1.3-.6 3.5.1 5.5 1.7s3 3.7 2.5 4.9l-2.2-1.7zm6.7-8.7l-1.1 2.5c-.1-.4-.1-.9 0-1.3.1-.5.5-.9 1.1-1.2z"/><path d="M47.9 115.9c-.4.4-1 .6-1.8.6.1-.9.1-1.9-.2-2.7l2.3 1.7c0 .1-.1.3-.3.4z"/></g><path fill="#ff6700" d="M46 113.7c.2.9.3 1.8.2 2.7-.1.6-.3 1.2-.5 1.7-1.1 2-6.4 7.8-10.7 11.5s-9.3 9.2-6.1 4.3c.8-1.2 1.4-2.7 1.9-4.2 1.5-4.7 2.2-10.6 5.7-15.4 1.1-1.5 2.1-2.5 3-3.1.8-.5 1.5-.8 2.2-.8 1.1-.1 2 .3 2.8.9.7.5 1.2 1.4 1.5 2.4z"/><path fill="#757470" d="M51.8 109.2l-3.5 6.3c.5-1.2-.5-3.3-2.5-4.9-1.9-1.6-4.2-2.2-5.5-1.7l3.7-5c.9-.2 1.7-.1 2.5 0 2.6.5 4.2 2.6 5 3.9h0v.1c0 .5.1.9.3 1.3z"/><g class="C"><path d="M52.5 100.5l-1.2 1.3 1.1 2.4h.1a3.93 3.93 0 0 0-1.3 2.1c-.1.5-.1 1.1 0 1.6-.8-1.3-2.4-3.4-5-3.9l3.5-3.8c1.2-.7 2.2-.6 2.8-.3l.4.3s.1 0 .1.1c-.1-.1-.3 0-.5.2z"/><path d="M52.7 105c-.6.3-1 .7-1.1 1.3-.1.4-.1.8 0 1.3l-.2.4v-.1c-.1-.6-.1-1.1 0-1.6a3.93 3.93 0 0 1 1.3-2.1h.4l-.4.8z"/></g><g class="B"><path d="M157.5 98.9l.1.3-.2.1v-.2l.1-.2c0 .1 0 .1 0 0z"/><path d="M156.6 96.9l.9 2v.1c0 .1-.1.1-.1.2v.1l-.9-1.9c0-.2 0-.3.1-.5h0zm-.2.4l.9 1.9c-1 2-2.3 3.3-3.9 3.7h-.1c-3.3.7-6.8-2.2-6.8-2.2l-1.4-1.3c.2.1.4.2.5.3 3.2 1.5 5.5 2.1 7.2 1.6.2-.1.4-.1.6-.2 1.3-.5 2.3-1.7 3-3.8z"/><path d="M156.6 96.9h0l-.2.1v-.1h.2z"/><path d="M156.5 96.9h0c0 .2-.1.3-.1.4l-.1-.2c0-.1 0-.1.1-.2h.1z"/><path d="M156.4 96.9c0 .1 0 .1-.1.2l-.1-.1.2-.1zm-6.9 5.8h0c-.1.1-.2 0-.3 0h.3z"/><path d="M149.5 102.8h0l-.3.1v-.2c.1 0 .2 0 .3.1z"/><path d="M149.5 102.9h0c0 .3-.1.6-.3.8v-.8h.3z"/><path d="M149.2 102.9h0v.8l-.3.3s-.1 0-.2.1c-1.5.4-4.8-2.4-5.3-2.8.1 0 .1-.1.2-.2 1.1.9 3.8 3 5 2.7h.1c.3-.3.5-.5.5-.9z"/><path d="M143.6 100.9c0 .1 0 .1 0 0 0 .1 0 .2-.1.2h0l.1-.2zm-18.5 11.7s0 .1 0 0c0 .1 0 0 0 0h0zm-32 1.1l.2.2-.3.1-.1-.1.2-.2z"/></g><g class="C"><path d="M79.8 123.4s.7 1.8-2 2.1c-.8.1-6.1-4.9-6.1-4.9s2.1-1.1 2.4-2c0 0 0-.1.1-.1l5.6 4.9z"/><path d="M74.1 118.4s0 .1 0 0c0 .1 0 0 0 0h0zm-19.9-16.7l-.9 2c-.3.1-.5.3-.7.5h-.1l-1.1-2.4 1.2-1.3c.2-.2.4-.3.6-.4.7.7 1 1.6 1 1.6z"/></g><path d="M53.1 100.1l-.4-.3c.1.1.3.2.4.3z" class="D"/><path d="M54 104.6c-.5.1-.9.3-1.3.5l.4-.8c.2-.1.5 0 .9.3z" class="B"/><path d="M53.3 103.7l-.2.5h-.4c.1-.2.3-.4.6-.5z" class="C"/><g class="D"><path d="M51.4 107.9l.5 1.1s0 .1-.1.2c-.2-.4-.3-.8-.4-1.3h0z"/><path d="M51.4 107.9h0z"/></g><path d="M40 109.2l1.6 1.2c-.7 0-1.4.3-2.2.8-.2-.8-.1-1.5.3-1.9l.3-.3c.1 0 .2-.1.2-.1-.1.1-.2.3-.2.3z" class="C"/><path d="M118.7 72.8c.4-.1.8-.1 1.2-.1l.1.1c1.4.2 2.8 1 3.7 2.1l17.4 20.8c.4 1 1.2 2 2.3 2.8h0c0 .1.1.1.1.2s.1.1.1.2h0c0 .1.1.1.1.2s0 .1.1.2c.1.2.1.4.1.6l-.1.7.3-.6c0 .4-.2.8-.5 1.1l-.1-.1-.2.2c-.2.1-.4.2-.7.3l-49.3 12.4-.2-.2-.2.2.1.1-1.2.3c-1.6.4-4-.5-5.3-2.1l-3.7-4.4v-.4h-.2L71 93.6c-1-2.5-3.6-4.6-3.6-4.7l-.2.1c-.7-.9-1-1.8-.8-2.5l.2.1.3-.9c.2-.2.5-.3.8-.4l50.9-12.8.1.3zm4.6 2.4c-.9-1-2.3-1.8-3.7-2-.5-.1-.9 0-1.3.1L68.7 85.7c-.6.1-1 .5-1.1.9-.2.6 0 1.4.7 2.2l18.7 22c1.2 1.4 3.4 2.3 4.9 1.9l49.7-12.5c.7-.2 1.2-.6 1.2-1.3h0c0-.2 0-.4-.1-.6 0-.1 0-.1-.1-.2 0-.1 0-.1-.1-.2h0c0-.1-.1-.1-.1-.2s-.1-.1-.1-.2h0c-.1-.1-.2-.3-.3-.4l-18.7-21.9zM143.5 98h0c.1.1.1.2.2.2h0l-.1.1c-.1-.2-.2-.3-.4-.5l-1.9-2.3.1-.1 1.9 2.3c.1.1.1.2.2.3zm-.3-8.8l.1-.1.1.1-.1.2c-1 1.7-1.9 2.8-1.9 2.8s-.6 1.3-.1 3l-.2-.2c-.4-1.6.2-2.7.2-2.8-.1 0 .9-1.3 1.9-3z" class="B"/><path d="M60.1 104.8c-.2.1-1.1 1-2 1.5h0c-.9.4-1.5.3-1.9.1-.9-1-1.7-1.6-2.3-1.9 1.3-.3 3.1-.5 4.8-.8l1.4 1.1z" class="C"/><path d="M143.9 98.8h0zm2-16.3v.3l-.1-.3zm10.5 14.6c-1.6 4.6-4.3 5.5-10.7 2.5-.3-.2-.7-.3-.9-.5l-.4-.3-.1.1c-.1-.1-.3-.2-.4-.3 0 0-.1 0-.1-.1h0l-.2-.2c.1.1.2.1.3.2.2.1.4.2.6.4.4.2.7.4 1.2.6 3.5 1.7 5.9 2.1 7.6 1.4 1.3-.5 2.2-1.8 2.9-3.9l-12.9-7.5c-1 1.7-1.9 2.8-1.9 2.9 0 0-.5 1.1-.2 2.7 0 .2.1.3.2.5h0l-.2-.3c-.5-1.7.1-3 .1-3s.9-1.2 1.9-2.8h0s0-.1.1-.1l4.6 2.7 8.6 5-.1.1v-.1z" class="B"/><path d="M53.3 103.7c.9-.5 2-.9 3.5-1.2l1.8 1.2.2.2c-1.7.3-3.5.4-4.8.8l-.9-.4.2-.6z" class="C"/><g class="B"><path d="M143.7 98.6h0zm-76.3-9.7S70 91 71 93.6l-3.8-4.5.2-.2z"/><path d="M143.6 98.4l.1-.1s0 .1.1.1c0 0 0 .1.1.1h0c-.2 0-.2-.1-.3-.1h0zm.1.2l-.2-.1.2.1s.1 0 .1.1h0s.1.1.1.2h0s-.1 0-.1-.1 0-.1-.1-.2h0z"/><path d="M143.3 89.5l12.9 7.5c-.7 2.1-1.7 3.4-2.9 3.9-1.7.7-4.1.3-7.6-1.4l-1.2-.6c-.2-.1-.4-.2-.6-.4-.1-.1-.2-.2-.3-.2 0-.1-.1-.2-.2-.2h0c-.1-.1-.1-.2-.2-.3l-1.9-2.3c-.1-.2-.1-.3-.2-.5-.4-1.5.2-2.7.2-2.7.1 0 1-1.2 2-2.8z"/><path d="M144 98.8h0c-.1 0-.1 0 0 0h0zm1.7-15.2c-.4 1.9-1.4 3.9-2.4 5.6h0l-.1-.1-.1.1c-1 1.7-1.9 2.9-2 3 0 0-.6 1.2-.2 2.8l-.1-.1L125.9 77l.9-.8.1.1h.1c.4.1 5.3 1.6 7.1 2.2h0s3.7-1 7-.2h0l4.5 5.3h.1zm.3-1.1v.3h-.1v-.3h.1c0-.1 0-.1 0 0 0-.1 0 0 0 0zM143.5 98h0z"/><path d="M143.9 99.9c0-.2 0-.4-.1-.6 0-.1 0-.1-.1-.2 0-.1 0-.1-.1-.2h0c0-.1-.1-.1-.1-.2s-.1-.2-.1-.2h0l.2.1h.1l.2.1s.1.1.1.2.1.2.1.2c.1.2.1.5.1.7h0l-.3.6v-.5zm-78.6 4c4.6 1.9 9.6 8.7 9.7 11h-.1v.3h.1c0 1.3-.3 2.3-.9 3.2h0v.1c-.5.7-1.1 1.3-1.9 1.7-.5.3-1.1.5-1.7.6-3.5.9-7.7-.3-8.2-.6 0 0-.1-.1-.3-.2-1.4-1-8.3-6.3-10.3-10.9.1-.1.1-.2.1-.2s-.1-.5-.5-1.1l.2-.4c.8 5 9.9 11.9 10.9 12.5.3.2 6 1.9 9.6-.1 1.7-.9 2.6-2.6 2.7-4.9.1-2-5-9.1-9.6-10.9-1.9-.8-3.5-.6-4.7.7-3 3.2-4.7 1.7-4.7 1.6l.2-.2s.1.1.4.2c0 0 0 .1.1.1.4.4 1.1.2 1.8-.2h0c.6-.3 1.2-.7 2-1.5h0l.1-.1.1.1-.1-.1c1.3-1.3 2.9-1.5 5-.7zm59.8-40.5h0zm18.6 34.9h0c0 .1 0 0 0 0z"/><path d="M125 63.4h0v-.2h.3v.1h-.1l-.2.1zm18.9 35.3h0c0 .1 0 .1 0 0h0c-.1 0-.1 0 0 0zm17-25.1c4.4 9.3.6 17.5-2.3 23.4-.4.7-.7 1.4-1 2.1 0 0 0 .1-.1.1h0l-.1-.3c.3-.7.6-1.3 1-2.1 2.7-5.7 6.3-13.3 2.8-22-.1-.4-.2-.8-.4-1.2h.1z"/><path d="M161.2 74.8c3.5 8.7-.1 16.4-2.8 22-.3.7-.7 1.4-1 2.1l-.9-2-.1-.1c1.4-3.8 7-13.9 4.8-22z"/></g><path d="M161.2 74.8c2.2 8-3.4 18.2-4.8 22l-13.1-7.6c1-1.6 2-3.7 2.4-5.6l.1-.1-.1-.1c0-.2.1-.4.1-.7l.1.4v-.4h.1c0-.1-.1-.2-.1-.3h0c0-.6 0-1.2-.2-1.6-1-2.6-3.1-4.3-6.5-5.1-4.5-1.1-9.9-.1-11.6.3-.3.1-.6.1-.6.1h0l-2-12.7h.1v-.1c.4-.1 1.1-.4 2.3-.7 0 0 .1 0 .1.1l.1-.1c5.5-1.3 18.5-3.1 29.7 6.4 1.7 1.4 2.8 3 3.4 4.7h0l-.1.1c.3.3.5.7.6 1z" class="E"/><g class="B"><path d="M160.8 73.6c.1.4.3.8.4 1.2-.2-.4-.3-.8-.5-1.2h.1zm-3.2 25.6s0 .1 0 0c-1 2.2-2.4 3.5-4.1 3.9h-.1c-1.3.3-2.7 0-3.9-.4v-.1h-.3c-1.7-.7-2.9-1.7-3-1.7l-1.8-1.7v-.1c.2.1.4.2.5.3l1.4 1.3s3.5 2.9 6.8 2.2h.1c1.6-.4 2.9-1.6 3.9-3.7v.1l.5-.1z"/><path d="M156.5 96.8h0l-8.6-4.9-4.6-2.6s0-.1.1-.1l13.1 7.6zm-.1.3l.1.2c-.7 2.1-1.7 3.3-3 3.9-.2.1-.4.2-.6.2-1.7.4-4-.1-7.2-1.6-.2-.1-.4-.2-.5-.3l-.4-.3c.3.2.6.3.9.5 6.4 2.9 9.1 2 10.7-2.6zm-10.6-16.3c.2.5.3 1 .2 1.6h-.1c0-.6 0-1.1-.2-1.6-1.1-2.9-3.6-4.3-6.4-5-5.5-1.3-12.2.3-12.2.3h0c.1 0 .3 0 .6-.1 1.8-.3 7.1-1.3 11.6-.3 3.3.8 5.5 2.5 6.5 5.1z"/><path d="M145.7 80.8c.2.5.2 1 .2 1.6h-.1c-.6-2-2-3.3-4.1-4l-.3-.3-.2.2c-3.2-.8-6.9.2-7 .2h0l-7.1-2.2h-.1l-.1-.1v-.1s0-.1.1 0h0s6.7-1.6 12.2-.3c2.9.7 5.4 2.2 6.5 5zm0 .9c0-.3-.1-.6-.2-.8-.9-2.5-3.1-4.1-6.4-4.9-4.5-1.1-9.8-.1-11.5.3h-.1c.5.2 1.4.4 3 .9l3.5 1.1c.5-.1 4-.9 7.1-.2h.1c2.3.6 3.8 1.8 4.5 3.6zm.3.7c0 .1.1.2.1.3h-.1v-.3c0 .1 0 0 0 0z"/><path d="M145.6 80.9c.1.3.2.5.2.8-.8-1.8-2.3-3-4.4-3.5h-.1c-3.1-.8-6.6 0-7.1.2h0l-3.5-1.1-3-.9h.1c1.7-.3 7-1.3 11.5-.3 3.2.6 5.3 2.3 6.3 4.8zm.4 1.9v.4l-.1-.4z"/><path d="M145.8 82.5l.1.3c-.1-.1-.1-.2-.1-.3zm0 1h0v.2-.2z"/><path d="M145.8 83.5v.2l-.1.1-4.5-5.3c.1 0 .3.1.4.1l4.2 4.9zm3.4 19.2v.2c0 .4-.2.7-.5.8h-.1c-1.2.3-3.9-1.8-5-2.7.3-.3.5-.6.5-1.1l.3-.7 1.8 1.7c.2.1 1.4 1.1 3 1.8z"/><path d="M149.2 103.6c.1-.2.2-.4.3-.7.1 2.6-1.2 4.9-3.7 6.9-2.1 1.6-4.9 2.8-7.7 3.5-3.5.9-7 1-9.3.3-.5-.1-1-.3-1.5-.5l-2.1-.6-.2-.1s0 .1-.1.2v-.1c-2.4-.7-4.9-1.3-5.9-1h-.1c-.1 0-.2.1-.1.2.1.7 2.2 2.5 4 2.5.5 0 1-.1 1.3-.4-.1.2-.3.3-.4.5-.3.1-.7.1-1 .1-1.9-.1-4.1-1.9-4.3-2.8a.55.55 0 0 1 .3-.5c1.4-.5 5.4.7 8.5 1.7.6.2 1.1.3 1.5.5 4.1 1.2 12.2-.2 16.8-3.9 2.3-1.6 3.5-3.6 3.7-5.8z"/></g><path fill="#4ab048" d="M148.9 103.9c.1-.1.3-.1.3-.3-.2 2.2-1.4 4.2-3.6 5.9-4.7 3.6-12.8 5-16.8 3.9-.5-.1-1-.3-1.5-.5-3.2-1-7.2-2.2-8.5-1.7-.2.1-.4.3-.3.5.1.9 2.4 2.7 4.3 2.8.3 0 .6 0 1-.1-2.2 2.6-6.5 5.2-11.8 6.1-4 .6-11.8.6-18.5-6.6l49.4-12.4c.3-.1.5-.2.7-.3.4.4 3.7 3.2 5.3 2.8-.1-.1-.1-.1 0-.1z"/><g class="B"><path d="M141.4 78.2l.3.3c-.1 0-.3-.1-.4-.1h0l.1-.2zm1.9 11h0c0 .1 0 .1 0 0 0 .1 0 .2-.1.2l.1-.2z"/><path d="M143.3 89.2l-.1.2zm1.4 9.9l.4.3c-.2-.1-.4-.2-.5-.3v-.2c0 .2.1.2.1.2z"/><path d="M144.4 98.8l.4.3-.1-.1s-.1 0-.1-.1l-.2-.1c0 .1-.1.1 0 0h0z"/><path d="M144.6 99h0z"/><path d="M144.6 99h0l-.1.1s-.1 0-.1-.1c0 0-.1 0-.1-.1l.1-.1s.1 0 .1.1.1.1.1.1h0z"/><path d="M144.5 99.1h0l-.2-.1s.1 0 .2.1z"/><path d="M144.3 99.1l.2.2-.3.7c0-.2 0-.5-.1-.7v.2l.2-.4zm0-.3c0 .1.1.1 0 0v.2-.2z"/><path d="M144.3 98.8h0-.3l-.2-.3s.1 0 .1.1c.2.1.3.2.4.2zm0 .2h0l-.1-.1.1.1z"/><path d="M143.9 98.5l.2.3s-.1 0-.1-.1h0c-.1 0-.1-.1-.1-.2h0c-.1 0-.1 0 0 0h0z"/><path d="M143.8 98.4l.1.1-.1-.1c0 .1 0 0 0 0z"/><path d="M143.6 98.4h-.1c-.1-.1-.2-.3-.3-.5l-1.9-2.3.1-.1 1.9 2.3c0 .2.2.4.3.6z"/><path d="M143.5 98.4h0c-1.1-.8-1.9-1.7-2.3-2.8h0l1.9 2.3c.1.2.3.3.4.5zm-.9-1.1l-.6-.7c.2.3.4.5.6.7z"/></g><path d="M142.7 98.3c0 .1 0 .1.1.2 0 .2.1.4.1.6h0c0 .6-.5 1.1-1.2 1.3l-49.8 12.4c-1.5.4-3.7-.5-4.9-1.9l-18.7-22c-.7-.8-.9-1.6-.7-2.2a1.44 1.44 0 0 1 1.1-.9l49.7-12.5c.4-.1.8-.1 1.3-.1 1.3.2 2.8.9 3.7 2l18.7 22c.1.1.2.3.3.4h0c0 .1.1.1.1.2s.1.1.1.2h0c0 .2.1.2.1.3z" class="E"/><g class="B"><path d="M141.2 95.2l.2.3-.1.1c0-.2-.1-.3-.1-.4z"/><path d="M141.3 95.6h0-.1c-.1-.2-.1-.4-.2-.6l.2.2c0 .1.1.2.1.4z"/><path d="M141.2 95.6h0z"/><path d="M141.2 95.6l-17.4-20.8c-.9-1.1-2.3-1.9-3.7-2.1 0 0 .1-.1.1-.3 1.4.2 2.9 1.1 3.8 2.2l2 2.4 14.9 17.9.3.7z"/><path d="M141.2 95.6l-.3-.7.1.1c0 .2.1.4.2.6zm-13.5-33.2l-.1.1h-.2c-.7-.4-1.5-.7-2.2-.8h0l-.2-.1v.1c-.4 0-.7 0-1 .1l-2.7.7s0-.1-.1-.1v-.1l2.8-.7c1-.3 2.4 0 3.7.8z"/><path d="M127.6 62.5h0c-.1.1-.2.1-.2 0h.2z"/><path d="M127.5 62.5l-2.3.7v-.1h-.3v.2h.1l2 12.7h-.1v.1l-.9.8-2-2.4c-.9-1.1-2.4-1.9-3.8-2.2l5-10.8c.8.3 1.5.6 2.3 1z"/><path d="M125.3 61.7h0-.3v-.1l.3.1z"/><path d="M125 61.7h.3l-5 10.8h-.3c.6-1.4 4.4-9.5 5-10.8z"/></g><path fill="#5bdb59" d="M124 61.8c.3-.1.7-.1 1-.1-.5 1.2-4.4 9.4-5 10.8-.5-.1-.9 0-1.3.1L67.8 85.3c-.3.1-.6.2-.8.4l1.7-4.6.6.6c1.1.6 2.2.7 3.3.4 1-.3 1.9-.8 2.5-1.3.2-.2.4-.4.5-.6 1.2-1.8 1.2-4.1.5-4.8-.1-.1-.5-.5-1.2-1.3l34.6-8.7c1.4 2.3 2.2 4 2.3 4 0 0 1.2 2.4 4.9 1.3 2.1-.6 3.6-1.8 4.6-3.5.8-1.4.8-3.2.1-4.7l2.6-.7z"/><g class="B"><path d="M121.2 62.5c.7 1.5.6 3.3-.1 4.7-.9 1.7-2.5 2.9-4.6 3.5-3.7 1.1-6.8-.8-6.8-.8s-.8-1.6-2.3-4h.1l-.1-.2h-.2c-4.7-7.5-15.1-24.3-30.4-17.8-4 1.7-6.7 3.9-8.1 6.5-.1 0-.2 0-.3.1 1.4-2.8 4.2-5.1 8.3-6.8 15.6-6.6 26.2 10.6 30.9 18.1 1.5 2.4 2.3 4.1 2.3 4.1 0 .1 3 1.7 6.5.7 2-.6 3.5-1.7 4.4-3.4.6-1.1.7-2.4.4-3.6-.1-.3-.2-.7-.3-1 0-.1-.1-.2-.1-.3-4.2-7.9-19.1-31.8-42-26a34.87 34.87 0 0 0-4.9 1.6C64.8 41.7 59.4 47 58 53.6c-2.6 11.5 7.5 23.7 10.6 27.2.4.5.7.8.7.8 2 1.2 4.3.1 5.4-.9l.5-.5c1.2-1.8 1.1-3.9.5-4.5-.1-.1-.6-.6-1.4-1.5-2.5-3-8.3-10.6-6.7-17.5h0c.1 0 .2-.1.3-.1 0 .1 0 .1-.1.2-1.6 6.7 4 14.2 6.6 17.2h-.1l.1.2.2-.1c.7.8 1.1 1.3 1.2 1.3.8.7.7 3-.5 4.8-.1.2-.3.4-.5.6-.6.5-1.5 1.1-2.5 1.3-1 .3-2.2.2-3.3-.4l-.6-.6.1-.2-.2-.1v.1c-3.1-3.6-13.2-15.8-10.6-27.4 1.5-6.7 6.1-12.9 16.1-15.9 26.9-8 42.7 16 47.2 24.5 0 .1.1.1.1.2h-.1l.1.2h.1z"/><path d="M121.2 62.4s0 .1.1.1h-.1v-.1c-.1-.1-.1-.1 0 0z"/></g><path d="M120.9 62.5c.1.3.3.6.3 1 .3 1.2.2 2.5-.4 3.6-.9 1.7-2.3 3.1-4.3 3.7-3.5 1-6.3.3-6.4.2 0 0-1.2-2.8-2.7-5.2-4.6-7.5-14.5-22.7-30.1-16.1-4.1 1.7-5 2.2-7.1 4.8-1.5.3-4.8 1.1-6.6 3-.3.4-.3 1 .1 1.3.2.2.4.2.6.2.3 0 .5-.1.7-.3.9-1 1.4-1.9 1.5-1.9l2.5-.7c-1.6 6.9 4.9 14.5 7.4 17.5a34.94 34.94 0 0 0 1.4 1.5c.6.6.7 2.7-.5 4.5-.1.2-.3.4-.5.5-1.1 1-5.1 3-7 1.8 0 0-.7-.7-1.1-1.2-3.2-3.4-13.3-15.6-10.7-27.2 1.5-6.6 6.8-11.9 15.9-15.7a34.87 34.87 0 0 1 4.9-1.6c22.9-5.8 37.8 18.1 42 26 0 .1.1.2.1.3zM92.2 45.1c.3-.4.1-1-.3-1.3-3.7-2.4-6.8-3.2-9.4-2.6h0c-2.4.6-3.3 2.3-3.3 2.3-.2.4-.1 1 .4 1.2.4.3 1 .1 1.3-.3 0 0 .6-1.1 2.2-1.4h0c2-.5 4.7.3 7.9 2.4.2.1.5.2.7.1.1-.1.4-.2.5-.4z" class="E"/><g class="B"><path d="M120 72.5h.2c-.1.1-.1.2-.1.3h-.1l-.1-.1s0-.1.1-.2h0z"/><path d="M120 72.7c0 .1.1 0 0 0 .1.1.1.1 0 0h0zm-.2 0h0c-.3 0-.8.1-1.1.2l-.1-.3c.4-.1.8-.1 1.3-.1 0 .1-.1.2-.1.2zm5.1 39.8l.2.1v.1c-.2.5-.5.9-.9 1.4h0l-.6.3c.1-.2.3-.3.4-.5.4-.3.6-.7.9-1.4-.1.1-.1 0 0 0z"/><path d="M124.8 112.5c0 .1 0 .1 0 0-.2.5-.5.9-.8 1.4-.3.3-.8.4-1.3.4-1.8-.1-3.9-1.8-4-2.5 0-.1 0-.2.1-.2h.1c1-.4 3.5.2 5.9.9zm-.6 1.6c.4-.5.7-.9.9-1.4-.2.7-.6 1.1-.9 1.4z"/><path d="M124.6 113.9c-.2.6-.4 1-.8 1.3l.8-1.3zm-1 .5l.6-.3c-1.9 2.5-5.6 5-10.3 6.2-.7.2-1.3.3-2 .4-4.1.6-12 .6-18.8-6.7l.3-.1c6.7 7.2 14.5 7.2 18.5 6.6 5.2-.9 9.5-3.5 11.7-6.1zm-16-48.6c0 .1 0 .1 0 0l-31.1 7.9s-.1-.1-.1-.2l-.1-.1 31.2-7.8c0 .1 0 .2.1.2z"/></g><path d="M91.9 43.8c.4.3.6.9.3 1.3-.1.2-.3.3-.6.4-.2.1-.5 0-.7-.1-3.2-2-5.9-2.8-7.9-2.4h0c-1.5.4-2.2 1.4-2.2 1.4-.3.4-.8.6-1.3.3-.4-.2-.6-.8-.4-1.2 0-.1 1-1.8 3.3-2.3h0c2.7-.6 5.8.2 9.5 2.6zm2.2 14.3c1.2 2 .1 3.9-2.6 4.3-.3 0-.5.1-.8.1.1 0 .2-.1.3-.1.7-.4.7-1.1 0-1.7a2.57 2.57 0 0 0-2.5-.4c-.7.4-.7 1.1 0 1.7.2.2.5.3.7.4-2-.3-3.8-1.3-4.7-2.7-1.2-2-.1-3.9 2.6-4.4 2.7-.4 5.8.8 7 2.8z"/><path fill="#fff" d="M91 60.7c.7.6.7 1.3 0 1.7-.1.1-.2.1-.3.1-.5 0-1 0-1.5-.1-.3-.1-.5-.2-.7-.4-.7-.6-.7-1.3 0-1.7a2.57 2.57 0 0 1 2.5.4z"/><path d="M89.7 64.9c.2.1.3.4.2.7-.7 1.3-1.7 2.2-2.9 2.5-.1 0-.1 0-.2.1-2.2.6-4.3-.6-4.4-.6-.2-.1-.3-.4-.2-.7s.5-.3.7-.2c0 0 1.1.6 2.4.6 1.7.1 2.9-.6 3.7-2.2.1-.3.5-.4.7-.2zM77.4 52.4c.5.1.9.5.8 1-.1 1.1-1.3 3.2-5 2.9-.4 0-.8-.1-1.2-.1-1.1-.1-2.2-.2-3.2 0-.3.1-.6.1-.9.2.2-.7.5-1.4.8-2.1.5-.1 1-.1 1.6-.1.4 0 .7 0 1.1.1.3 0 .5 0 .8.1.4 0 .7.1 1.1.1 2.7.2 3-1.1 3-1.3.1-.4.4-.7.8-.8h.3zm2.5 9.7c1.2 2 .1 3.9-2.6 4.4-.5.1-1 .1-1.5.1.2 0 .4-.1.5-.2.7-.4.7-1.1 0-1.7a2.57 2.57 0 0 0-2.5-.4c-.7.4-.7 1.1 0 1.7.1.1.3.2.4.3-1.6-.4-3.1-1.4-3.8-2.6-1.2-2-.1-3.9 2.6-4.4 2.5-.4 5.6.8 6.9 2.8z"/><g fill="#fff"><path d="M76.2 64.6c.7.6.7 1.3 0 1.7-.2.1-.3.1-.5.2a4.53 4.53 0 0 1-1.6-.3c-.1-.1-.3-.2-.4-.3-.7-.6-.7-1.3 0-1.7.7-.3 1.8-.1 2.5.4z"/><path d="M73.3 65.6c.6.2 1.1.3 1.7.3-.6.1-1.2 0-1.7-.3z"/></g><g class="B"><path d="M82.6 107.4h.2v.4l-.2-.4z"/><path d="M82.6 107.4l.3.4c0 .7 0 2.3-1.1 3.9-1.1 1.5-2.9 2.6-5.3 3.2l-1.4.3v-.3c3.1-.5 5.2-1.7 6.5-3.4 1.2-1.9 1-3.9 1-4.1z"/></g><path d="M71 93.6l11.6 13.8c0 .2.3 2.2-1.1 4.1-1.2 1.7-3.4 2.9-6.5 3.4-.2-2.3-5.1-9.1-9.7-11-2.1-.8-3.7-.6-5 .8h0c-.4-.3-.8-.6-1.1-.9h.1c5.5-.9 10.3-3.8 11.7-6.7.5-1.2.4-2.4 0-3.5z" class="E"/><path d="M68.5 54.5c.1 0 .2 0 .3-.1-.4.7-.6 1.4-.8 2.1-.1 0-.2.1-.3.1.2-.7.4-1.4.8-2.1z"/><path d="M63.6 57.5c1.7-1.9 3.3-2.7 4.8-3-.4.7-.6 1.4-.8 2.2 0 0-.1 0-.1.1-.8.4-1.6 1-2.5 2-.2.2-.4.3-.7.3-.2 0-.4-.1-.6-.2a1.07 1.07 0 0 1-.1-1.4z"/><g class="B"><path d="M68.7 80.9l-.1.2c0-.1-.1-.1-.1-.2l-.1-.1v-.1l.3.2z"/><path d="M68.5 80.9c.1.1.1.1.1.2l-1.7 4.6c-.3.2-.4.5-.5.8l2.1-5.6c-.1 0-.1 0 0 0z"/></g><path fill="#5bdb59" d="M71 93.6c.4 1.1.6 2.3 0 3.5-1.4 3-6.2 5.8-11.7 6.7h-.1l-1.7-1.4c5.4-.9 8.8-2.8 10.2-5.6 1.7-3.5-.3-7.3-.5-7.7l3.8 4.5z"/><g class="B"><path d="M74.9 115h0c.1.1.1.1.1.2v.1h-.1v-.3z"/><path d="M65.2 104.1c4.6 1.9 9.6 8.9 9.6 10.9-.1 2.3-1 4-2.7 4.9-3.6 2-9.3.2-9.6.1-.9-.6-10.1-7.5-10.9-12.5l1.1-2.5c.4-.2.8-.3 1.3-.5.6.3 1.3.9 2.3 1.9-.2-.1-.3-.2-.4-.2l-.2.2c.1.1 1.8 1.6 4.7-1.6 1.3-1.2 2.8-1.5 4.8-.7zm1.7-18.4l-.3.9-.2-.1c.1-.3.3-.6.5-.8z"/><path d="M66.4 86.5h0z"/></g><g class="D"><path d="M60.3 104.7h0z"/><path d="M60.3 104.7h0l-1.4-.9h.3c.3.3.7.6 1.1.9z"/><path d="M59.1 103.8h-.3l-.3-.2-1.6-1.2c.2 0 .3-.1.5-.1l1.7 1.5z"/></g><path d="M58.9 103.8h0l-.3-.2.3.2z" class="B"/><path d="M58.6 103.6l-1.8-1.2h.2l1.6 1.2z" class="C"/><path d="M55 100.1l2.4 2.2c-.2 0-.3.1-.5.1l-2.6-2c-.3-.3-.8-.3-1.2-.2l-.1-.1c-.1-.1-.3-.2-.4-.3.7-1.3 2.4.3 2.4.3z" class="D"/><g class="C"><path d="M57 102.4h-.2l-3.6-2.3c.4-.1.8 0 1.2.2l2.6 2.1z"/><path d="M53.2 100.1l3.6 2.3c-1.4.3-2.6.7-3.5 1.2l.9-2c0 .1-.3-.8-1-1.5h0zm3.1 6.4c.4.1 1 .3 1.9-.1-.8.3-1.5.6-1.9.1h0z"/></g><path d="M156.5 96.8c1.3-3.8 7-14 4.8-22m-15.4 8c0 .2-.1.4-.1.7v.2c-.4 1.9-1.4 3.9-2.4 5.6m-18.3-25.9l1.9 12.7m33.8-2.5h0c-.7-1.8-1.8-3.4-3.4-4.8-11.3-9.4-24.2-7.7-29.7-6.4h-.2c-1.1.3-1.9.5-2.3.7" fill="none" stroke="#3b8f3d" stroke-width=".297" stroke-miterlimit="10"/><g fill="#fff"><path d="M94.2 87.7h0c-3.7.9-4.7 4.3-2.2 7.7l2 2.6c2.5 3.4 7.6 5.4 11.3 4.5h0c3.7-.9 4.7-4.3 2.2-7.7l-2-2.6c-2.4-3.4-7.5-5.4-11.3-4.5zm11.2 7.7c1.7 2.2 1 4.6-1.5 5.1h0c-2.5.6-5.9-.8-7.6-3l-2.1-2.8c-1.7-2.2-1-4.6 1.5-5.1h0c2.5-.6 5.9.8 7.6 3l2.1 2.8z"/><path d="M113.2 102.3l-14 3.2c-.4.1-1-.1-1.3-.5l-5.8-7.8c-.3-.4-.2-.8.3-.9l14-3.2c.4-.1 1 .1 1.3.5l5.8 7.8c.3.3.2.8-.3.9z"/></g><path fill="#ffef7d" d="M43.3 115.5c.1.4.2.9.1 1.4 0 .3-.1.6-.3.8-.5 1-3.2 3.8-5.3 5.7-2.1 1.8-4.6 4.5-3 2.1.4-.6.7-1.3.9-2.1.7-2.3 1.1-5.2 2.8-7.6.5-.7 1-1.2 1.5-1.5.4-.3.8-.4 1.1-.4.5 0 1 .2 1.4.4.4.3.7.7.8 1.2z"/><path d="M21.1 116.5l-4.4-3.6c-.6-.6-.7-1.6-.1-2.3h0c.6-.6 1.6-.7 2.3-.1l3.8 4.3c.4.4.4 1.1.4 1.6 0 .2-.2.4-.4.5-.5 0-1.2 0-1.6-.4zm6.4-2.4l-.7-5.7c0-.9.6-1.6 1.5-1.7h0c.9 0 1.6.6 1.7 1.5l-.1 5.7c0 .6-.5 1.1-.8 1.4a.37.37 0 0 1-.6 0c-.4-.1-.9-.6-1-1.2zm-5.6 9.9l-5.7-.5a1.58 1.58 0 0 0-1.6 1.6h0a1.58 1.58 0 0 0 1.6 1.6l5.7-.4c.6 0 1.1-.5 1.4-.9.1-.2.2-.4 0-.6-.3-.3-.8-.8-1.4-.8zm19.4 10.1l4.1 4c.7.6 1.7.5 2.3-.2h0c.6-.7.5-1.7-.2-2.3l-4.7-3.3c-.5-.4-1.2-.3-1.6-.2-.2 0-.4.2-.4.5 0 .4 0 1.1.5 1.5zm-5.5 2.8l-.2 5.7c-.1.9-.9 1.5-1.8 1.4h0c-.9-.1-1.5-.9-1.4-1.8l1-5.6c.1-.6.6-1 1-1.3.2-.1.5-.1.6.1.4.4.8 1 .8 1.5z" fill="#ff6700"/></svg>