<?xml version="1.0" encoding="utf-8"?>
<!-- Generator: Adobe Illustrator 24.1.1, SVG Export Plug-In . SVG Version: 6.00 Build 0)  -->
<svg version="1.1" id="SEC_3" xmlns="http://www.w3.org/2000/svg" xmlns:xlink="http://www.w3.org/1999/xlink" x="0px" y="0px"
	 viewBox="0 0 68.8 89.2" style="enable-background:new 0 0 68.8 89.2;" xml:space="preserve">
<style type="text/css">
	.st0{opacity:0.18;}
	.st1{fill:#349334;}
	.st2{fill:#4CB649;}
	.st3{fill:#118011;}
	.st4{fill:url(#Ellipse_1_1_);}
	.st5{fill:#FFFFFF;}
	.st6{fill:url(#Path_8_1_);}
	.st7{fill:url(#Path_10_1_);}
	.st8{fill:url(#SVGID_1_);}
	.st9{fill:#A6A8AB;}
</style>
<g>
	<ellipse class="st0" cx="34.4" cy="85.5" rx="34.4" ry="3.7"/>
	<path id="Path_1_2_" class="st1" d="M60.6,39.9h-2.8v-2.6C57.8,24.4,47.4,14,34.5,14S11.2,24.6,11.2,37.3v2.6H8.4
		c-3,0-5.4,2.4-5.4,5.4l0,0v21.3c-0.2,1.1,0.2,2.2,0.6,3.2c0.7,0.7,1.9,1.1,3,0.9h4.7l0.7,11.2c0,0,0,0,0,0.2c0,0.6,0.2,1.1,0.4,1.7
		c0.6,0.7,1.5,1.3,2.4,1.3h11.7l6.2-6.5h4.5l6,6.7h10.6c0.9,0,1.7,0,2.4-0.4c0.9-0.7,1.3-1.9,1.3-3c0.4-2.2,0.4-8.4,0.6-11h4.7
		c1.1,0.2,2.1-0.2,3-0.7c0.6-0.9,0.7-2.1,0.7-3V45.3C66,42.3,63.6,39.9,60.6,39.9L60.6,39.9z"/>
	<path id="Path_2_2_" class="st2" d="M65.3,67c0,1.3-0.2,2.2-0.6,2.6c-0.4,0.4-0.9,0.6-2.4,0.6h-5.2v0.4c-0.2,2.4-0.2,9-0.6,11.4
		c-0.2,1.5-0.6,2.1-1.1,2.4c-0.6,0.2-1.3,0.2-2.1,0.2H43.1l-5.8-6.7h-5.2l-6.2,6.5H14.6c-0.7,0-1.5-0.2-1.7-0.9
		c-0.2-0.4-0.4-0.7-0.4-1.3v-0.2l0,0l-0.7-11.9H6.5c-1.3,0-2.1-0.2-2.4-0.7c-0.4-0.9-0.6-1.9-0.6-2.8V45.3c0-2.6,2.1-4.7,4.7-4.7
		h3.5v-3.4c0-12.5,10.1-22.6,22.6-22.6s22.6,10.1,22.6,22.6v3.4h3.5c2.6,0,4.7,2.1,4.7,4.7L65.3,67L65.3,67z"/>
	<rect id="Rectangle_1_2_" x="12.5" y="69.6" class="st3" width="43.8" height="1.5"/>
	<path id="Path_3_2_" class="st3" d="M11.8,70.1V42.7h0.7v27.4H11.8z"/>
	<path id="Path_4_2_" class="st3" d="M56.3,70.1V42.7h0.7v27.4H56.3z"/>
	
		<linearGradient id="Ellipse_1_1_" gradientUnits="userSpaceOnUse" x1="16.6283" y1="-1582.1497" x2="16.6283" y2="-1583.8485" gradientTransform="matrix(16.808 0 0 3.08 -245.3501 4924.4409)">
		<stop  offset="0" style="stop-color:#4CB649"/>
		<stop  offset="1" style="stop-color:#78B280"/>
	</linearGradient>
	<ellipse id="Ellipse_1_2_" class="st4" cx="34.1" cy="48.5" rx="15.7" ry="2.8"/>
	<path id="Path_5_2_" class="st5" d="M48.7,41.2v-4.1c0-7.8-6.3-14.4-14.4-14.4c-7.8,0-14.4,6.3-14.4,14.4v4.1H48.7z"/>
	<circle id="Ellipse_2_2_" cx="29.7" cy="30.6" r="2.6"/>
	<circle id="Ellipse_3_2_" cx="39" cy="30.6" r="2.6"/>
	<rect id="Rectangle_3_2_" x="29.3" y="57.1" class="st5" width="9.5" height="7.1"/>
	<path id="Path_6_2_" class="st5" d="M30.8,56.3c0.6-1.9,2.4-3,4.3-2.4c1.3,0.4,2.2,1.3,2.4,2.4h1.1c-0.6-2.4-2.8-4.1-5.4-3.5
		c-1.9,0.4-3.4,1.9-3.5,3.5H30.8z"/>
	<path id="Path_7_2_" class="st3" d="M63,71.6c0.2,0,0.6,0,0.7,0v-0.7c-0.6,0-0.9,0.2-1.5,0h-4.5c0,1.3-0.2,3.5-0.2,5.6h0.7
		c0-1.9,0.2-3.7,0.2-4.8H63z"/>
	
		<linearGradient id="Path_8_1_" gradientUnits="userSpaceOnUse" x1="-229.0302" y1="-1961.8306" x2="-227.0668" y2="-1959.5144" gradientTransform="matrix(2.953 0 0 2.622 731.9327 5212.3228)">
		<stop  offset="0" style="stop-color:#23FF16"/>
		<stop  offset="1" style="stop-color:#189A33"/>
	</linearGradient>
	<path id="Path_8_2_" class="st6" d="M63.8,72v-0.4c-0.2,0-0.4,0-0.7,0h-4.7c0,1.1-0.2,3-0.2,4.8h1.1C61.9,76.5,63.8,74.4,63.8,72
		L63.8,72z"/>
	<path id="Path_9_2_" class="st3" d="M11,70.9H6.4c-0.6,0-1.3,0-1.9-0.2v0.9c0.4,0,0.6,0,0.9,0h4.7l0.4,4.8h0.9L11,70.9z"/>
	
		<linearGradient id="Path_10_1_" gradientUnits="userSpaceOnUse" x1="-213.1467" y1="-1960.8457" x2="-215.9436" y2="-1957.111" gradientTransform="matrix(3.161 0 0 2.624 688.7963 5211.1201)">
		<stop  offset="0" style="stop-color:#23FF16"/>
		<stop  offset="1" style="stop-color:#189A33"/>
	</linearGradient>
	<path id="Path_10_2_" class="st7" d="M5.6,71.6c-0.4,0-0.6,0-0.9,0V72c0,2.4,2.1,4.5,4.5,4.5l0,0h1.5l-0.4-4.8H5.6z"/>
	
		<radialGradient id="SVGID_1_" cx="34.4699" cy="37.4451" r="6.1754" gradientTransform="matrix(1.1838 0 0 1 -6.3498 0)" gradientUnits="userSpaceOnUse">
		<stop  offset="0" style="stop-color:#000000"/>
		<stop  offset="0.19" style="stop-color:#030303"/>
		<stop  offset="0.324" style="stop-color:#0C0C0C"/>
		<stop  offset="0.44" style="stop-color:#1C1C1C"/>
		<stop  offset="0.546" style="stop-color:#323232"/>
		<stop  offset="0.646" style="stop-color:#4E4E4E"/>
		<stop  offset="0.74" style="stop-color:#717171"/>
		<stop  offset="0.831" style="stop-color:#9A9A9A"/>
		<stop  offset="0.916" style="stop-color:#C9C9C9"/>
		<stop  offset="0.998" style="stop-color:#FEFEFE"/>
		<stop  offset="1" style="stop-color:#FFFFFF"/>
	</radialGradient>
	<path class="st8" d="M25.8,39.3l-1.5-1.2c0.1-0.1,3-2.6,10.1-2.6c7.1,0,10,2.5,10.1,2.6l-1.5,1.2c0,0-2.5-2.1-8.6-2.1
		C28.3,37.3,25.9,39.3,25.8,39.3z"/>
	<g>
		<path class="st9" d="M28.9,2.8c0-0.7,0.3-1.1,0.4-1.3h-1.2c-0.1,0.3-0.3,0.8-0.3,1.3c0,1.3,0.4,2.2,0.8,3.1
			c0.4,0.8,0.7,1.6,0.7,2.6c0,0.9-0.2,1.5-0.4,1.8h1.1c0.2-0.4,0.3-1,0.3-1.8c0-1.3-0.4-2.2-0.8-3C29.2,4.7,28.9,3.9,28.9,2.8z"/>
		<path class="st9" d="M34.2,1.4c0-0.7,0.3-1.1,0.5-1.3L33.5,0c-0.2,0.3-0.3,0.8-0.4,1.3c-0.1,1.3,0.3,2.3,0.6,3.2
			c0.3,0.8,0.6,1.7,0.6,2.7c-0.1,0.9-0.3,1.5-0.5,1.8L35,9.1c0.2-0.4,0.4-1,0.4-1.8c0.1-1.3-0.3-2.2-0.6-3.1
			C34.4,3.3,34.1,2.5,34.2,1.4z"/>
		<path class="st9" d="M40.3,2.5c0.1-0.7,0.4-1.2,0.6-1.4h-1.1c-0.2,0.4-0.4,0.8-0.5,1.4c-0.2,1.4,0,2.3,0.3,3.3
			c0.2,0.9,0.4,1.7,0.3,2.7c-0.2,1-0.4,1.6-0.7,1.9h1c0.2-0.5,0.4-1.1,0.6-1.9c0.2-1.3,0-2.3-0.3-3.2C40.4,4.5,40.1,3.7,40.3,2.5z"
			/>
	</g>
</g>
</svg>
