<svg xmlns="http://www.w3.org/2000/svg" xmlns:xlink="http://www.w3.org/1999/xlink" viewBox="0 0 138.4 79.7" enable-background="new 0 0 138.4 79.7"><style type="text/css">.st0{fill:#38B54A;} .st1{fill:#3B8F3D;} .st2{fill:#993317;} .st3{fill:#CE5029;} .st4{clip-path:url(#XMLID_2_);fill:#3B8F3D;} .st5{fill:#38B54A;stroke:#3B8F3D;stroke-width:0.2841;stroke-miterlimit:10;} .st6{fill:#38B54A;stroke:#3B8F3D;stroke-width:0.2538;stroke-miterlimit:10;} .st7{fill:#5BDD6B;stroke:#3B8F3D;stroke-width:0.2841;stroke-miterlimit:10;} .st8{clip-path:url(#XMLID_5_);fill:#3B8F3D;} .st9{fill:#FFFFFF;}</style><path class="st0" d="M10.9 26.3zM10.8 26.3l-.2-.1c0 .1.1.1.2.1zM10.4 27h-.2l.1-.1.1.1z"/><path class="st1" d="M96.5 74.1l.5-5.3-18.4-4-2.5 8.9 19.5.5"/><path class="st2" d="M125.5 38.8s-31.1-6.1-32.8 14.8c-.7 9.3-17.2-26.4-17.2-26.4s34.3-12.7 50 11.6z"/><path class="st3" d="M41.1 33.7s0-1.8 2.1-2.9c6.4-3.4 14.2-9.3 27.5-15.5 8.4-3.9 20-1.3 32.8 4.3 14.1 6.2 18.5 5.7 18.5 5.7-.6-.2 18.4.6 16.3 12-.8 4.1-11.8 10.2-11.9 9.5-1.4-11.6-32.9-18.7-37.7-20.3-4.8-1.6-7.5-3.1-11.5 1.4l-35.4 10.2"/><defs><path id="XMLID_4_" d="M97.1 41.1s7.9 9.2 13.8 7c1.2-.5-.2 15.9-.2 15.9l-10.3 7.8s-11.4.5-15.9-2.3-5 5.5 11.8 4.6c1.5-.1-13 5.4-13 5.4s-17.5 2.2-26.7-11l40.5-27.4"/></defs><use xlink:href="#XMLID_4_" overflow="visible" fill="#38B54A"/><clipPath id="XMLID_2_"><use xlink:href="#XMLID_4_" overflow="visible"/></clipPath><path class="st4" d="M111.6 64.1s-17.8-.6-23.6-9.4l7.3-16.7c4-2.1 41.1 18.6 16.3 26.1z"/><use xlink:href="#XMLID_4_" overflow="visible" stroke="#3B8F3D" stroke-width=".284" stroke-miterlimit="10" fill="none"/><path class="st5" d="M97 40.9"/><path class="st6" d="M41.2 48.7c-.3-.2-8.7-5.5-8.7-5.5s-13.2-12-13.8-12.6c-.4-.4-5.1-5.9-9.6-8.7l-5 7.3 5-7.3c-2.8-1.7-5.5-2.5-7.1-.6-3.1 3.5-1.6 6.7 0 8.8l2.2-.9-2.2.9c.7.9 1.4 1.6 1.8 2 1.1 1.2 29.1 19.7 31 20.2 1.9.5 3.9-1 4.2-1.1-.2 0 2.5-2.4 2.2-2.5z"/><path class="st1" d="M11.9 17.5c-1.1-.7-5.3-2.2-8.1 1.1-2.6 3.2-5.8 6.7-2 11.3.1.1 2.4-.7 2.4-.7l1-1.6 6.8-10s-.1 0-.1-.1zM43.3 37.7c-.5-.7-3.7-2.7-3.7-2.7s-26.2-16.3-27.6-17.4l-6.9 9.9c4.8 4.5 30 21.2 30.3 21.2.2.1 2.9 2.6 4.1 1.6.2-.2 1.9-.4 2.2-1 1.5-3 1.9-11.1 1.6-11.6z"/><path class="st5" d="M32.8 47.5l22.1 22.1 34.5-13.2-23.1-27.3"/><path class="st7" d="M72.9 12.8l-6.6 16.3-33.3 18.2 6.9-14.8z"/><defs><path id="XMLID_3_" d="M69.1 15.2s-21.2-26.4-40.8-9.4c-18.9 16.4 6.7 37.3 6.7 37.3s1 1.1 4.2-1.1c3.1-2.2 3.4-5.3 3.4-5.3s-18.5-15.5-10.3-22.4c12.5-10.4 28.3 10.8 28.3 10.8s2.5-.2 4.3-2c1.8-1.9 4.1-6.2 4.2-7.9z"/></defs><use xlink:href="#XMLID_3_" overflow="visible" fill="#38B54A"/><clipPath id="XMLID_5_"><use xlink:href="#XMLID_3_" overflow="visible"/></clipPath><path class="st8" d="M42 39.9c-.4-.5-20.8-13.8-10.1-24.9 9-9.3 23.5 6.8 23.2 7.1-.3.3-13.1 17.8-13.1 17.8z"/><use xlink:href="#XMLID_3_" overflow="visible" stroke="#3B8F3D" stroke-width=".284" stroke-miterlimit="10" fill="none"/><path class="st1" d="M106.6 30.5l-18.1-1-15.2-17-6.9 16.6 23.1 27.3 8.3-16.5-3.4-3.8c5.1 1 9.4 1.8 9.9 1.8 1.1-2.3 1.8-4.8 2.3-7.4z"/><path class="st5" d="M107.7 25c-5.8-2.6-18.2-6.9-32.2-7.5l-2.2 11.5s24.5 4.1 32.5 6.4c1.1-3.2 1.6-6.8 1.9-10.4z"/><path class="st1" d="M110.6 26.4c-.4-.3-1.5-1-3.3-1.8-.3 3.6-.8 7.2-1.9 10.4-.3 1-.7 1.9-1.2 2.8 2.3.3 4 .2 4.6-.2 2.2-1.6 2.6-5.4 2.6-6.3.4-2.1-.1-4.3-.8-4.9z"/><path d="M27.8 19.8c.1.4.5.7.9.6.2 0 .4-.2.5-.3.1-.2.2-.4.1-.6-.6-3-.4-5.4.6-6.8.8-1.1 1.7-1.2 1.8-1.2.4-.1.7-.5.6-.9-.1-.4-.4-.7-.9-.7-.1 0-1.7.2-2.8 1.9-1.3 1.8-1.6 4.5-.8 8zM40.9 27c0 .2.1.3.2.4.8.2 1.6.1 2.2-.3 0 0 .1 0 .1-.1 1.1-.7 1.4-2.1 1.4-2.2 0-.2-.1-.3-.2-.4-.2 0-.3.1-.4.2 0 0-.2.7-.6 1.3-.6.8-1.4 1-2.4.8-.1 0-.3.1-.3.3zM34.5 14.4c.6.7 2.4 1.6 4.8-.4l.8-.6c.7-.6 1.4-1.2 2.2-1.5.3-.1.7-.3 1.1-.3.7-.1 1.6-.1 2.7.2.2.1.4 0 .6-.1.2-.1.3-.3.3-.5.1-.4-.2-.8-.6-.9-3-.7-4.7 0-6.1 1-.2.2-.5.4-.7.5l-.5.4-.7.6c-1.8 1.4-2.6.6-2.7.5-.2-.2-.6-.3-.9-.2l-.2.1c-.3.4-.4.9-.1 1.2zM33.5 19.9c-1.5 1-1.9 3.1-.9 4.6 1 1.5 3.1 1.9 4.6.9s1.9-3.1.9-4.6-3.1-1.9-4.6-.9z"/><circle class="st9" cx="32.8" cy="22.8" r="1.1"/><path d="M42.4 15.6c-1.5 1-1.9 3.1-.9 4.6s3.1 1.9 4.6.9 1.9-3.1.9-4.6-3.1-1.9-4.6-.9z"/><circle class="st9" cx="41.6" cy="18.5" r="1.1"/><path class="st9" d="M51.7 52.3l2.3 3.2c3 4.1 7.7 6.1 10.6 4.6 2.9-1.4 2.8-5.7-.2-9.7l-2.3-3.1c-3-4.2-7.7-6.6-10.6-5.3-2.8 1.3-2.7 6 .2 10.3zm1.7-1c-2-2.8-2-5.9-.1-6.8 1.9-.9 5.1.7 7.1 3.5l2.5 3.4c2 2.7 2 5.6.1 6.5-1.9 1-5.1-.4-7.1-3.1l-2.5-3.5zM60.5 64.5l11.3-4.8c.3-.2.3-.7 0-1.1l-7.4-9.8c-.4-.5-.9-.7-1.3-.6l-10.7 5.2c-.3.2-.3.7 0 1.2l6.9 9.4c.3.5.9.7 1.2.5z"/></svg>