<svg xmlns="http://www.w3.org/2000/svg" xmlns:xlink="http://www.w3.org/1999/xlink" width="80" height="80" viewBox="0 0 80 80"><circle fill="#EAF7E7" cx="40" cy="40" r="35"/><defs><path id="a" d="M21.709 23.652h36.583v32.696h-36.583z"/></defs><clipPath id="b"><use xlink:href="#a" overflow="visible"/></clipPath><path clip-path="url(#b)" stroke="#4BB749" stroke-width="2" stroke-linecap="round" stroke-miterlimit="10" d="M28.459 31.319h-3.75c-1.1 0-2-.9-2-2v-2.667c0-1.1.9-2 2-2h3.75c1.1 0 2 .9 2 2v2.667c0 1.1-.9 2-2 2zm0 17.362h-3.75c-1.1 0-2-.9-2-2v-2.667c0-1.1.9-2 2-2h3.75c1.1 0 2 .9 2 2v2.667c0 1.1-.9 2-2 2zm26.833-10.695h-3.75c-1.1 0-2-.9-2-2v-2.667c0-1.1.9-2 2-2h3.75c1.1 0 2 .9 2 2v2.667c0 1.1-.9 2-2 2zm0 17.362h-3.75c-1.1 0-2-.9-2-2v-2.667c0-1.1.9-2 2-2h3.75c1.1 0 2 .9 2 2v2.667c0 1.1-.9 2-2 2z" fill="none"/><path clip-path="url(#b)" stroke="#4BB749" stroke-width="2" stroke-linecap="round" stroke-linejoin="round" stroke-miterlimit="10" d="M30.625 27.652h5v7h13m-18 11h11v7h7m-9-18v11" fill="none"/></svg>