<svg xmlns="http://www.w3.org/2000/svg" width="80" height="80" viewBox="0 0 80 80"><circle fill="#EAF7E7" cx="40" cy="40" r="35"/><path fill="#4BB749" d="M40 21.333c-10.309 0-18.667 8.357-18.667 18.667 0 10.308 8.358 18.667 18.667 18.667s18.667-8.359 18.667-18.667c0-10.31-8.358-18.667-18.667-18.667zm16.569 16.865c-1.471-.665-2.945-1.2-4.408-1.624l.007-.141c0-1.38-1.119-2.5-2.5-2.5-1.069 0-1.98.673-2.337 1.617-1.625-.227-3.217-.335-4.752-.353l-.016-.861c-.05-1.413-.154-2.773-.291-4.051 1.147-.228 2.013-1.239 2.013-2.453 0-1.38-1.119-2.5-2.5-2.5l-.236.013c-.135-.729-.272-1.39-.399-1.969 8.069.551 14.56 6.84 15.419 14.822zm-16.458-14.862c.145.655.305 1.433.465 2.309-.77.426-1.292 1.246-1.292 2.188 0 1.195.839 2.193 1.959 2.44.123 1.15.22 2.369.275 3.637-3.043-4.053-6.859-6.56-11.309-7.394 2.749-2.001 6.132-3.183 9.792-3.183l.11.003zm-10.966 4.022c4.904.648 8.957 3.279 12.11 7.848-2.978.064-5.715.45-8.045.941-.693.145-1.363.303-2.011.467-.423-.78-1.249-1.31-2.199-1.31-1.381 0-2.501 1.12-2.501 2.501l.013.249c-1.249.453-2.315.892-3.162 1.269.191-4.782 2.398-9.046 5.795-11.965zm-5.8 13.077c.876-.399 2.054-.894 3.477-1.405.429.761 1.243 1.277 2.179 1.277 1.381 0 2.499-1.119 2.499-2.5l-.01-.205c2.95-.747 6.389-1.326 10.078-1.389.001 4.038-.479 8.407-1.903 12.486l-.382-.031c-1.381 0-2.5 1.119-2.5 2.5 0 .765.345 1.449.887 1.908-.603 1.044-1.293 2.047-2.078 2.997-6.931-1.897-12.055-8.152-12.247-15.638zm13.311 15.896c.685-.869 1.315-1.793 1.883-2.777.236.073.485.113.744.113 1.381 0 2.5-1.12 2.5-2.5 0-.897-.475-1.682-1.185-2.123 1.214-3.449 1.88-7.38 1.977-11.715.905 1.607 1.721 3.402 2.447 5.385l.214.601c-.767.427-1.287 1.245-1.287 2.185 0 1.381 1.119 2.501 2.499 2.501l.156-.009c.662 2.739 1.021 5.147 1.207 6.731-2.329 1.241-4.988 1.945-7.812 1.945-1.144-.001-2.263-.118-3.343-.337zm12.098-2.149c-.203-1.613-.563-3.89-1.183-6.451.818-.411 1.379-1.255 1.379-2.233 0-1.38-1.12-2.5-2.501-2.5l-.258.014-.222-.623c-.837-2.292-1.811-4.351-2.906-6.174 1.345.029 2.719.133 4.108.323.057 1.331 1.151 2.393 2.495 2.393.983 0 1.831-.569 2.239-1.394 1.581.459 3.167 1.051 4.743 1.797l.017.665c.002 5.993-3.163 11.246-7.911 14.183z"/></svg>