<svg xmlns="http://www.w3.org/2000/svg" width="80" height="80" viewBox="0 0 80 80"><circle fill="#EAF7E7" cx="40" cy="40" r="35"/><path fill="#4BB749" stroke="#4BB749" stroke-width=".75" stroke-miterlimit="10" d="M59.27 37.48c-.227 0-.454-.091-.59-.318-3.996-6.221-10.671-9.627-18.709-9.627s-14.713 3.451-18.709 9.672c-.182.318-.636.409-.954.182-.318-.182-.409-.636-.182-.954 4.269-6.63 11.353-10.308 19.89-10.308s15.576 3.678 19.89 10.308c.182.318.091.727-.182.954-.182.091-.318.091-.454.091zm-32.514 4.813c-.136 0-.272-.045-.363-.091-.318-.182-.409-.636-.182-.954 2.952-4.586 7.856-7.129 13.759-7.129s10.808 2.543 13.759 7.129c.182.318.091.727-.182.954-.318.182-.727.091-.954-.182-2.725-4.223-7.175-6.539-12.624-6.539s-9.899 2.316-12.624 6.494c-.135.227-.362.318-.589.318zm20.707 4.905c-.227 0-.454-.091-.59-.318-1.499-2.316-3.951-3.542-6.902-3.542-2.997 0-5.449 1.271-6.902 3.542-.182.318-.636.409-.954.182-.318-.182-.409-.636-.182-.954 1.726-2.679 4.586-4.178 8.083-4.178 3.451 0 6.312 1.499 8.083 4.178.182.318.091.727-.182.954-.181.09-.318.136-.454.136zm-7.674 6.675c-1.816 0-3.27-1.453-3.27-3.27s1.453-3.27 3.27-3.27 3.27 1.453 3.27 3.27-1.499 3.27-3.27 3.27zm0-5.177c-1.044 0-1.907.863-1.907 1.907s.863 1.907 1.907 1.907 1.907-.863 1.907-1.907-.863-1.907-1.907-1.907z"/></svg>