<svg xmlns="http://www.w3.org/2000/svg" viewBox="0 0 80 80" enable-background="new 0 0 80 80"><style type="text/css">.st0{fill:#EAF7E7;} .st1{fill:none;stroke:#4BB749;stroke-width:2;stroke-linecap:round;stroke-linejoin:round;stroke-miterlimit:10;} .st2{enable-background:new ;} .st3{fill:#4BB749;}</style><circle class="st0" cx="40" cy="40" r="35"/><circle class="st1" cx="39.8" cy="40.3" r="18"/><g class="st2"><path class="st3" d="M32.7 33.2h2l4.7 12.9h-1.9l-1.3-3.9h-5.1l-1.4 3.9h-1.8l4.8-12.9zm2.9 7.6l-2-5.7-2.1 5.7h4.1zM40.1 33.2h5.2c1.8 0 3.1.6 4.1 1.9.9 1.1 1.3 2.6 1.3 4.4 0 1.4-.3 2.6-.8 3.7-.9 2-2.4 2.9-4.6 2.9h-5.1v-12.9zm4.8 11.4c.6 0 1.1-.1 1.4-.2.7-.2 1.2-.7 1.6-1.3.3-.5.6-1.2.7-2 .1-.5.1-.9.1-1.4 0-1.6-.3-2.8-.9-3.7-.6-.9-1.6-1.3-3-1.3h-3v9.9h3.1z"/></g><path class="st1" d="M52.8 28l-25.4 25.4"/></svg>