<svg xmlns="http://www.w3.org/2000/svg" xmlns:xlink="http://www.w3.org/1999/xlink" width="80" height="80" viewBox="0 0 80 80"><circle fill="#EAF7E7" cx="40" cy="40" r="35"/><defs><path id="a" d="M25.566 21.462h28.869v37.076h-28.869z"/></defs><clipPath id="b"><use xlink:href="#a" overflow="visible"/></clipPath><path clip-path="url(#b)" stroke="#4BB749" stroke-width="2" stroke-miterlimit="10" d="M48.627 52.56v2.978c0 1.1-.9 2-2 2h-18.062c-1.1 0-2-.9-2-2v-26.098c0-1.1.9-2 2-2h2.807" fill="none"/><path clip-path="url(#b)" stroke="#4BB749" stroke-width="2" stroke-linecap="round" stroke-miterlimit="10" d="M51.624 52.56h-18.441c-.996 0-1.81-.815-1.81-1.81v-26.478c0-.995.814-1.81 1.81-1.81h14.348l5.903 7.444v20.844c0 .995-.814 1.81-1.81 1.81zM35.022 31.062h7M35.022 35.062h7M35.022 39.062h15M35.022 43.062h15" fill="none"/><path clip-path="url(#b)" stroke="#4BB749" stroke-width="2" stroke-linecap="round" stroke-linejoin="round" stroke-miterlimit="10" fill="none" d="M47.022 23.062v7h6"/></svg>