<svg xmlns="http://www.w3.org/2000/svg" xmlns:xlink="http://www.w3.org/1999/xlink" width="80" height="80" viewBox="0 0 80 80"><circle fill="#EAF7E7" cx="40" cy="40" r="35"/><defs><path id="a" d="M21.5 21.621h37v36.759h-37z"/></defs><clipPath id="b"><use xlink:href="#a" overflow="visible"/></clipPath><path clip-path="url(#b)" fill="#4BB749" d="M43.085 35.692h5.534v1.422h-1.62c-.553 0-.988.435-.988.988 0 .553.435.988.988.988h5.256c.553 0 .988-.435.988-.988 0-.553-.435-.988-.988-.988h-1.62v-1.422h5.534c1.304 0 2.332-1.067 2.332-2.333v-9.407c0-1.304-1.067-2.332-2.332-2.332h-13.045c-1.304 0-2.332 1.067-2.332 2.332v9.368c-.039 1.305.989 2.372 2.293 2.372m-.356-11.74c0-.198.158-.356.356-.356h13.044c.198 0 .356.158.356.356v9.368c0 .198-.158.356-.356.356h-13.044c-.198 0-.356-.158-.356-.356v-9.368zm-18.932 31.029h5.533v1.422h-1.62c-.553 0-.988.435-.988.988s.435.988.988.988h5.257c.553 0 .987-.435.987-.988s-.434-.988-.987-.988h-1.621v-1.422h5.534c1.304 0 2.332-1.067 2.332-2.333v-9.368c0-1.305-1.067-2.332-2.332-2.332h-13.044c-1.305 0-2.333 1.066-2.333 2.332v9.368c-.078 1.305.989 2.333 2.294 2.333m-.395-11.7c0-.198.158-.356.356-.356h13.043c.198 0 .356.158.356.356v9.368c0 .198-.158.356-.356.356h-13.044c-.198 0-.356-.158-.356-.356v-9.368zm3.873-6.68c-.395-.395-.395-1.028 0-1.384.395-.395 1.028-.395 1.384 0l.671.672v-7.234c0-.553.435-.988.988-.988h7.155c.553 0 .987.435.987.988 0 .553-.434.988-.987.988h-6.166v6.206l.672-.672c.395-.395 1.028-.395 1.384 0 .394.395.394 1.028 0 1.384l-2.372 2.371c-.198.198-.435.277-.712.277-.277 0-.514-.079-.712-.277l-2.292-2.331zm22.332 16.126h-7.154c-.553 0-.988-.435-.988-.988 0-.553.435-.988.988-.988h6.165v-6.205l-.672.672c-.395.395-1.027.395-1.383 0-.395-.395-.395-1.028 0-1.384l2.371-2.372c.395-.394 1.028-.394 1.384 0l2.371 2.372c.395.395.395 1.028 0 1.384-.198.198-.435.277-.712.277-.276 0-.513-.079-.711-.277l-.672-.672v7.193c.001.553-.434.988-.987.988"/></svg>