<svg xmlns="http://www.w3.org/2000/svg" width="80" height="80" viewBox="0 0 80 80"><circle fill="#EAF7E7" cx="40" cy="40" r="35"/><path stroke="#4BB749" stroke-width="2" stroke-linecap="round" stroke-linejoin="round" stroke-miterlimit="10" d="M58.417 48.202c0 .844-.684 1.527-1.527 1.527h-31.946c-.844 0-1.527-.684-1.527-1.527v-20.946c0-.844.684-1.527 1.527-1.527h31.945c.844 0 1.527.684 1.527 1.527v20.946zm4 5c0 .844-.684 1.527-1.527 1.527h-40.946c-.844 0-1.527-.684-1.527-1.527v-1.945c0-.844.684-1.527 1.527-1.527h40.945c.844 0 1.527.684 1.527 1.527v1.945z" fill="none"/><path fill="#3AB54A" d="M43.348 36.931l4.419 9.02.84-3.433 3.834 3.287.803-.877-3.798-3.405 3.36-1.159z"/></svg>