<svg xmlns="http://www.w3.org/2000/svg" width="80" height="80" viewBox="0 0 80 80"><circle fill="#EAF7E7" cx="40" cy="40" r="35"/><path d="M58.125 24.893c0-1.663-1.356-3.018-3.018-3.018h-30.214c-1.663 0-3.018 1.356-3.018 3.018v7.086c0 .771.293 1.477.778 2.012-.485.535-.778 1.242-.778 2.019v7.086c0 1.663 1.356 3.018 3.018 3.018h14.1v4.246h-1.87c-.557 0-1.006.45-1.006 1.006v1.87h-8.991c-.557 0-1.006.45-1.006 1.006 0 .557.45 1.006 1.006 1.006h8.991v1.87c0 .557.45 1.006 1.006 1.006h5.751c.557 0 1.006-.45 1.006-1.006v-1.87h8.991c.557 0 1.006-.45 1.006-1.006 0-.557-.45-1.006-1.006-1.006h-8.991v-1.87c0-.557-.45-1.006-1.006-1.006h-1.87v-4.246h14.1c1.663 0 3.018-1.356 3.018-3.018v-7.086c0-.771-.293-1.477-.778-2.012.478-.535.778-1.242.778-2.012v-7.093zm-16.255 27.481v3.739h-3.74v-3.739h3.74zm14.243-9.284c0 .557-.45 1.006-1.006 1.006h-30.214c-.557 0-1.006-.45-1.006-1.006v-7.086c0-.557.45-1.006 1.006-1.006h30.206c.557 0 1.006.45 1.006 1.006v7.086h.008zm0-11.111c0 .557-.45 1.006-1.006 1.006h-30.214c-.557 0-1.006-.45-1.006-1.006v-7.086c0-.557.45-1.006 1.006-1.006h30.206c.557 0 1.006.45 1.006 1.006v7.086h.008zm-9.255-4.545h-.813c-.557 0-1.006.45-1.006 1.006 0 .557.45 1.006 1.006 1.006h.813c.557 0 1.006-.45 1.006-1.006 0-.557-.45-1.006-1.006-1.006zm5.059 0h-.813c-.557 0-1.006.45-1.006 1.006 0 .557.45 1.006 1.006 1.006h.813c.557 0 1.006-.45 1.006-1.006 0-.557-.45-1.006-1.006-1.006zm-24.183-1.37c-.557 0-1.006.45-1.006 1.006v2.74c0 .557.45 1.006 1.006 1.006s1.006-.45 1.006-1.006v-2.74c0-.557-.45-1.006-1.006-1.006zm4.352 0c-.557 0-1.006.45-1.006 1.006v2.74c0 .557.45 1.006 1.006 1.006s1.006-.45 1.006-1.006v-2.74c.001-.557-.456-1.006-1.006-1.006zm14.772 12.48h-.813c-.557 0-1.006.45-1.006 1.006s.45 1.006 1.006 1.006h.813c.557 0 1.006-.45 1.006-1.006s-.45-1.006-1.006-1.006zm5.059 0h-.813c-.557 0-1.006.45-1.006 1.006s.45 1.006 1.006 1.006h.813c.557 0 1.006-.45 1.006-1.006s-.45-1.006-1.006-1.006zm-24.183-1.37c-.557 0-1.006.45-1.006 1.006v2.74c0 .557.45 1.006 1.006 1.006s1.006-.45 1.006-1.006v-2.74c0-.556-.45-1.006-1.006-1.006zm4.352 0c-.557 0-1.006.45-1.006 1.006v2.74c0 .557.45 1.006 1.006 1.006s1.006-.45 1.006-1.006v-2.74c.001-.556-.456-1.006-1.006-1.006z" fill="#4BB749"/></svg>