<svg xmlns="http://www.w3.org/2000/svg" width="80" height="80" viewBox="0 0 80 80"><circle fill="#EAF7E7" cx="40" cy="40" r="35"/><g stroke="#4BB749" stroke-width="2" stroke-linejoin="round" stroke-miterlimit="10" fill="none"><path d="M53.133 28.823c2.519 3.032 4.034 6.928 4.034 11.177 0 4.832-1.959 9.208-5.126 12.374l-3.281-3.281m-18.198.011l-3.27 3.27c-3.167-3.167-5.126-7.542-5.126-12.374 0-9.665 7.835-17.5 17.5-17.5 2.953 0 5.735.731 8.175 2.023"/><path d="M43.692 39.64c-.979 1.167-2.875 1.395-4.109.36-1.234-1.035-1.448-2.812-.36-4.109 1.088-1.297 11.608-9.297 11.608-9.297.001 0-6.159 11.879-7.139 13.046z"/></g></svg>