<svg xmlns="http://www.w3.org/2000/svg" xmlns:xlink="http://www.w3.org/1999/xlink" width="80" height="80" viewBox="0 0 80 80"><circle fill="#EAF7E7" cx="40" cy="40" r="35"/><defs><path id="a" d="M25.5 22.065h29v35.87h-29z"/></defs><clipPath id="b"><use xlink:href="#a" overflow="visible"/></clipPath><path clip-path="url(#b)" stroke="#4BB749" stroke-width="2" stroke-miterlimit="10" d="M52.263 36.509h-2.056v-3.357c0-5.556-4.651-10.076-10.207-10.076s-10.207 4.52-10.207 10.076v3.357h-2.267c-.452 0-1.015.773-1.015 1.225v18.348c0 .452.562.842 1.015.842h24.737c.452 0 1.225-.389 1.225-.842v-18.348c0-.452-.773-1.225-1.225-1.225zm-7.889 0h-8.749v-3.357c0-2.394 1.982-4.342 4.375-4.342s4.374 1.947 4.374 4.342v3.357z" fill="none"/></svg>