<svg xmlns="http://www.w3.org/2000/svg" viewBox="0 0 77.98 13.85"><defs><style>.cls-1{fill:#efce4a;}</style></defs><title>Layer 1</title><g id="Layer_1-2"><path id="star-2" class="cls-1" d="M7.28 0l2.25 4.56 5 .73-3.61 3.54.86 5-4.5-2.36-4.5 2.37.86-5-3.64-3.55 5-.73z"/><path id="star-3" class="cls-1" d="M23.13 0l2.25 4.56 5 .73-3.61 3.54.86 5-4.5-2.36-4.5 2.37.86-5-3.64-3.55 5-.73z"/><path id="star-4" class="cls-1" d="M39 0l2.25 4.56 5 .73-3.62 3.54.86 5-4.49-2.35-4.5 2.37.86-5-3.65-3.56 5-.73z"/><path id="star-5" class="cls-1" d="M54.85 0l2.24 4.56 5 .73-3.61 3.54.86 5-4.49-2.36-4.5 2.37.85-5-3.63-3.55 5-.73z"/><path id="star-6" class="cls-1" d="M70.7 0l2.3 4.56 5 .73-3.66 3.54.86 5-4.5-2.36-4.5 2.37.86-5-3.64-3.55 5-.73z"/></g></svg>