<svg xmlns="http://www.w3.org/2000/svg" xmlns:xlink="http://www.w3.org/1999/xlink" viewBox="0 0 2443.6 3223.4" xmlns:v="https://vecta.io/nano"><style><![CDATA[.K{fill:#132233}.L{fill:#ed2939}.M{fill:#fdfffd}.N{fill:#165ad3}.O{fill:#ff7f29}]]></style><path d="M2177.5 477.5l-1702.3-97c-69.3-3.9-135.2 7.3-194.9 31.3-60.3 24.3-113.9 61.4-157.7 108.6-44 47.4-77.8 104.5-98.7 168.3C3.1 752.4-4.6 822.1 3.2 894.6l222.2 2072.8c5.4 50.8 22.8 95.5 49.3 132.7 26.1 36.7 61.1 66.1 102.1 86.9 40.4 20.5 86.8 32.7 136.5 35.7 49 2.9 101.3-3.2 154.8-19.3l1376.2-413.9c35.9-10.8 70.3-28.9 101.8-52.3 31.2-23.3 59.8-51.9 84.2-84 24.4-32 44.8-67.7 59.9-105.2 15.1-37.6 25-77.2 28.2-117.1L2442 878.8c4.1-51.8.3-101.6-10.2-147.4-10.6-46.4-28.1-88.9-51.3-125.3-23.5-36.9-52.9-67.7-86.9-89.9-34.4-22.6-73.6-36.3-116.1-38.7" fill="#192d49"/><path d="M980.3 2557.4c237.2-29.1 480.4-25.3 712.9 16.2a2067.13 2067.13 0 0 1 99 20.4c-41.5-38.1-154.3-107.2-192.4-166.2-10.2-15.9-15.1-31.3-11.4-45.2 2.6-9.9 31-42.9 61.8-72.9 30.3-29.7 62.9-56.3 75-54.8-54-6.8-113.2-2-168.9-4.2-294.4-11.4-643.9 31-921.5 134.8-192.5 70-369.5 169.1-513.9 290-3 2.5-5.9 5.6-10.2 9.8 16.4-15.9 66-13.4 89.2-13.1h3.7c46.3 0 87.1-4.6 84.9 29-.5 8.3-4.7 18.3-10.8 29.2-20 35.4-61.9 80.5-76.8 107.5-23.5 42.1-44 85.4-53.7 129.3 11.3-7.3 22.1-15.4 32.6-24 42.1-34.7 79-78 121.1-111.7 182.9-149.2 427-243.5 679.4-274.1z" class="K"/><path d="M981.5 2481.2c237.2-29.1 480.4-25.3 712.9 16.2a2067.13 2067.13 0 0 1 99 20.4c-41.5-38.1-154.3-107.2-192.4-166.2-10.2-15.9-15.1-31.3-11.4-45.2 2.6-9.9 31-42.9 61.8-72.9 30.3-29.7 62.9-56.3 75-54.8-54-6.8-113.2-2-168.9-4.2-294.4-11.4-643.9 31-921.5 134.8-192.5 70-369.5 169.1-513.9 290-3 2.5-5.9 5.6-10.2 9.8 16.4-15.9 66-13.4 89.2-13.1h3.7c46.3 0 87.1-4.6 84.9 29-.5 8.3-4.7 18.3-10.8 29.2-20 35.4-61.9 80.5-76.8 107.5-23.5 42.1-44 85.4-53.7 129.3 11.3-7.3 22.1-15.4 32.6-24 42.1-34.7 79-78 121.1-111.7 182.8-149.2 426.9-243.5 679.4-274.1z" class="N"/><path d="M565.2 2333.8c2.8-1.6 1.1-.7 0 0h0z" class="K"/><path d="M565.2 2303.8c2.8-1.6 1.1-.6 0 0h0z" class="L"/><path d="M97.6 2404.2c11.6-10.8 20.8-24.8 36.2-39.5 34.3-32.8 75.6-61.5 115.5-88.4 78.8-53.1 164.2-97.8 253.5-134.2 180.1-73.5 375.3-113.9 570.8-125 357.4-20.4 712.3 51 1050 152.4 19.2 5.8 134.1 27.7 98.7-14.1-21.9-25.9-136.5-37.9-172.1-47.1-118.1-30.5-237.2-58.1-358-79.6-185.7-33-377.9-52.8-571.6-44-185.5 8.4-371.1 42.4-545.5 96.9-129.3 40.4-253.4 93.4-363.3 161.1-74.5 45.9-142 98.8-195 165.3-2 2.6-4.2 5.6-3.2 8.6 1 3.2 5.1 4.6 8.8 5.4 26.7 5.6 55.5.4 75.2-17.8zm225.3-177.1c1.2-.7 3.1-1.8 0 0h0z" class="K"/><path d="M69.8 2319.5c12.1-10.3 21.8-23.9 37.8-37.9 35.6-31.3 78.1-58.3 119-83.5 80.9-49.9 168.1-90.9 258.8-123.7 182.9-66 379.7-98.4 575.5-101.5 357.9-5.7 709.6 80.2 1042.9 195.4 19 6.6 132.9 33.2 99.2-10-20.8-26.7-134.9-43.5-170-54.1-116.8-35.3-234.7-67.8-354.4-94.2-184.2-40.6-375.5-68.3-569.3-67.4-185.7.8-372.5 27.1-549 74.5-130.9 35.1-257 82.9-369.6 146.1-76.3 42.8-146 92.9-201.6 157.2-2.1 2.5-4.4 5.4-3.6 8.5.9 3.3 4.9 4.9 8.5 5.7 26.4 6.4 55.4 2.4 75.8-15.1zm232.3-167.7c1.3-.6 3.2-1.6 0 0h0z" class="L"/><path d="M1757.6 2736.6c-2.8-13-35.5-30.1-59.2-36.8-45.2-12.6-91.8-18.4-137.8-27-124.7-23.3-251.5-36.1-378.2-35.3-22.4.1-51.4 6.7-53.5 29.3 107.1.7 214.3 9.4 320.3 25.8 55.8 8.6 109.8 25.8 164.9 37.8 35.7 7.7 73.3 24.2 110.3 21.7 26.3-1.8 34.8-8 33.2-15.5z" class="K"/><path d="M1752.5 2707.1c-2.8-13-35.5-30.1-59.2-36.8-45.2-12.6-91.8-18.4-137.8-27-124.7-23.3-251.5-36.1-378.2-35.3-22.4.1-51.4 6.7-53.5 29.3 107.1.7 214.3 9.4 320.3 25.8 55.8 8.6 109.8 25.8 164.9 37.8 35.7 7.7 73.3 24.2 110.3 21.7 26.3-1.9 34.8-8 33.2-15.5z" class="L"/><g class="K"><use xlink:href="#B"/><path d="M1901.3 641.5c7.4 21.4 14.3 36.9 19.3 38.5 16.6 5.4 12.4-11.6 13.7-17.9 8.1-39.6-5.4-228.2-80.8-190.5 12.3 57 28.8 114.9 47.8 169.9zM1584 613.9c104.7 71.3 133.4 170.9 161.8 183.1 1.4.6 2.8 1.1 4.3 1.6 19.2 6.4 36.6 0 29-19.4-32.2-81.5-85.6-154.7-159.7-217.8-10-8.5-41.1-32-56.3-14-2.9 3.4-4.2 7.8-4.5 12.7-1.2 19.4 14.9 46.7 25.4 53.8z"/></g><use xlink:href="#B" x="3.3" y="-45.7" class="N"/><path d="M1904.7 595.7c7.4 21.4 14.3 36.9 19.3 38.5 16.6 5.4 12.4-11.6 13.7-17.9 8.1-39.6-5.4-228.2-80.8-190.5 12.3 57 28.8 115 47.8 169.9z" class="L"/><path d="M1587.3 568.2c104.7 71.3 133.4 170.9 161.8 183.1 1.4.6 2.8 1.1 4.3 1.6 19.2 6.4 36.6 0 29-19.4-32.2-81.5-85.6-154.7-159.7-217.8-10-8.5-41.1-32-56.3-14-2.9 3.4-4.2 7.8-4.5 12.7-1.1 19.4 14.9 46.6 25.4 53.8z" class="M"/><path d="M2004 1253.5c-.4-2.3.6-5.5 2.1-7.7l36-52.9c.7-1-.2-4.2-1.2-4.5l-54.5-17c-5.2-1.6-8.3-6.4-7.5-11.7 6-38 23.4-103 24.7-130.9.2-5 1.7-5.9 6.5-4.2 1.2.4 4.3-.8 5.1-2l33.6-54c.6-1-1-4.3-2.3-4.7-9.4-2.5-36.5-4.2-44.9-11.5-8.3-7.2 118.7-375.9 122.3-378.7s11.4-.5 15.2.1c1.5.3 4.7-.8 5.6-1.9l42.1-56.2c.6-.8-.4-3.3-1.4-3.4l-35.2-5.6c-1.6-.3-3.6-2.8-3.2-4.2l20.7-68.3c2.6-9.2-2.2-15.2-4.8-15.7-13.4-2.4-17.2-3.6-30.9-4.8-6-.5-10.9 1.4-17.9 14.9-13.2 25.8-20.4 38.1-34.2 63.4-.9 1.6-5.3 3.7-7.4 3.5-10.9-1-21.5-3-32.4-4-3.5-.3-4.2 3.6-6.4 11.2-5 18-5.2 28.6-8.2 46.9-.2 1.4 1.6 3.6 3.2 3.8 2.5.5 8.3.4 9.3 4 1 3.7-181.5 356.1-189.3 358.3-7.8 2.1-40.7-9.3-51.2-11.7-1.3-.3-4.6.9-4.7 1.5-3 21-7 37.5-9.6 58.6-.1.9 7.7 2.1 8 3.1.4 1.4-2.2 3.1-2.9 3.9-21 22.9-55.1 79.4-79.7 112.4-3.1 4.2-9 6.2-14.4 4.7l-52.9-13.9c-5.4-1.4-6.7-.3-7.7 4.1-4 18.1-6.6 31.6-11.2 49.5-1 3.7-3.5 7.8-6.8 10.2-56.6 41.2-176.9 95.9-167 120.7 8.8 22.1 77.6 29.5 128.1 43.2 15.9 4.3 31.1 1.2 47.6-16.6 14.9-16 19.3-22.9 28.2-31.4 70.4-67.7 183.5-51.6 231.6 28.6 20 35.2 21.4 81 18.2 111.4-1 10.2 4.2 54.5 30.6 68.5 36.7 19.5 93.3 38.8 101.7 32.6 25.8-19.3-19.1-172.1-30.6-241.6zm-79.8-245.7c-5 26.5-24.7 89.1-33.4 125.8-1.1 4.5-6.2 7.3-10.8 6l-72.3-20.6c-4.8-1.3-6.8-6.3-4.3-10.3 21.1-33.9 52.4-92.9 69.9-116.9.9-1.2 4.1-2.3 5.6-1.9l39.9 10c5 1.1 6.3 2.9 5.4 7.9zm15.1-70.7l-32.8-7.6c-1.4-.3-2-1.5-1.5-2.7l141.1-295.3c1.4-2.7 6.4-1.9 5.3.9l-108.6 303c-.4 1.3-2 2.1-3.5 1.7z" class="K"/><path d="M2011 1217.3c-.4-2.2.5-5.2 1.8-7.2l32.2-49.5c.6-.9-.2-3.9-1.1-4.2l-48.8-15.9c-4.7-1.5-7.5-6-6.7-11 5.4-35.6 21-96.3 22.1-122.4.2-4.7 1.5-5.5 5.8-3.9 1.1.4 3.9-.8 4.5-1.8l30.1-50.5c.6-1-.9-4-2.1-4.4-8.4-2.3-32.7-3.9-40.2-10.7-7.5-6.7 106.3-351.5 109.5-354.1s10.2-.5 13.6.1c1.4.2 4.2-.7 5-1.8l37.7-52.6c.5-.7-.4-3.1-1.3-3.2-10.4-1.9-21.1-3.3-31.5-5.2-1.5-.3-3.2-2.6-2.8-3.9l18.5-63.9c2.4-8.6-2-14.3-4.3-14.7-12-2.2-15.4-3.4-27.7-4.5-5.4-.5-9.8 1.3-16 14-11.8 24.1-18.2 35.6-30.6 59.2-.8 1.5-4.8 3.5-6.6 3.3-9.8-1-19.3-2.8-29-3.8-3.1-.3-3.8 3.4-5.7 10.5-4.5 16.8-4.7 26.8-7.3 43.9-.2 1.3 1.4 3.3 2.8 3.6 2.3.4 7.5.3 8.3 3.8.9 3.4-162.5 333-169.5 335s-36.4-8.7-45.8-10.9c-1.2-.3-4.1.9-4.2 1.4-2.7 19.7-6.2 35.1-8.6 54.8-.1.9 6.9 1.9 7.1 2.9.4 1.3-2 2.9-2.6 3.6-18.8 21.4-49.4 74.2-71.3 105.1-2.8 3.9-8.1 5.8-12.9 4.4l-47.4-13c-4.8-1.3-6-.3-6.9 3.8-3.6 16.9-5.9 29.6-10 46.3-.9 3.4-3.2 7.3-6.1 9.5-50.7 38.5-158.3 89.7-149.5 112.8 7.9 20.7 69.5 27.6 114.7 40.4 14.2 4 27.8 1.1 42.6-15.5 13.3-15 17.3-21.4 25.2-29.4 63-63.3 164.3-48.2 207.4 26.8 17.9 32.9 19.1 75.8 16.3 104.2-.9 9.5 3.7 51 27.4 64 32.9 18.2 83.6 36.3 91 30.5 23.4-18-16.8-160.8-27.1-225.9zm-71.5-229.7c-4.5 24.8-22.1 83.4-29.9 117.6-1 4.2-5.6 6.9-9.7 5.6l-64.7-19.2c-4.3-1.2-6.1-5.9-3.8-9.7 18.9-31.7 46.9-86.9 62.6-109.3.8-1.1 3.6-2.1 5-1.8l35.7 9.3c4.5 1.2 5.7 2.9 4.8 7.5zm13.6-66l-29.4-7.1c-1.2-.3-1.8-1.4-1.3-2.5l126.3-276.1c1.2-2.5 5.7-1.8 4.8.8L1956.3 920c-.5 1.1-1.9 1.9-3.2 1.6z" fill="#fffbff"/><g class="K"><use xlink:href="#C"/><path d="M2261.1 804.7l21.6-14.6-1 27.1 20.7 16.4-21.7 9.9-2.1 31.4-21.5-29.2-1.7-.3-20.2-3.4-9.9-2.2 4.2-4.6 13.6-15.4-7.6-24-.9-3.4 6.2 3 19.2 8.8z"/></g><use xlink:href="#C" y="-36.7" class="L"/><path d="M2261.1 768l21.6-14.6-1 27.1 20.7 16.4-21.7 9.9-2.1 31.4-21.5-29.2-1.7-.2-20.2-3.5-9.9-2.2 4.2-4.6 13.6-15.4-7.6-24-.9-3.4 6.2 3 19.2 8.8z" fill="#ff8b22"/><path d="M1125.6 573.5c-18.1-14.2-41-20.5-63.5-22.9-55.9-6-93.4 30.6-103.7 84.9-4.5 23.9-6 48.1-8.4 69.2-29.1-10-56.6-22.5-84.6-32.5 9.5-128.6-1.4-273.9-96.9-286.3-173.9-22.5-105.2 262.5-105.2 262.5S376.7 505 383.7 677.5c3.1 76.4 92.2 123.3 190.5 151.8-12.5 34.2-15.6 66.1-15.6 66.1s-183.8-128-213.5 9.6 330.4 274 330.4 274 85.6-186.5 86.7-313.7l30.6 3.2c18.4 17.6 39 32.3 59.6 43.2 63.2 33.5 136.5 53.6 206.4 77.8 23.4 7.8 39.1.1 47.5-20.8l23.3-53.6c35.9-83 60-163.7 40.7-256.5-6.8-32-19.1-65-44.7-85.1z" class="K"/><path d="M726.3 741.7c24 37.8 60.7 69.1 97.1 88.5 63.2 33.5 136.6 53.6 206.4 77.8 23.4 7.8 39.1.1 47.5-20.8l23.3-53.6c35.9-83 60-163.7 40.7-256.5-6.7-32-19-65-44.6-85.1-18.1-14.2-41-20.5-63.5-22.9-55.9-6-93.4 30.6-103.7 84.9-4.5 23.9-6 48.1-8.4 69.2-45.3-15.6-86.9-37.3-132.5-46.2-46.7-9.2-85.9 19.2-89.5 67.8-2.5 34.3 8.5 67.5 27.2 96.9z" class="L"/><path d="M1031.8 542.1c11.9 5.4 21.7 14.7 29.4 28 28 47.4 36.4 102.9 24.8 167.7 5.9-14.6 12.9-29.4 16.1-43.2 13.9-64.6.5-119.1-32-165.3-12.3-18-28.1-28.1-47.7-30.6l9.4 43.4z" class="M"/><path d="M739.8 283.8c208.6 27 81 583.2 81 583.2S286.4 840.8 278 633.8c-8.4-207.1 335.5-35 335.5-35s-82.4-342 126.3-315z" class="K"/><path d="M739.5 304.3c173.9 22.5 67.5 486 67.5 486s-445.3-21.8-452.3-194.4 279.6-29.1 279.6-29.1-68.6-285 105.2-262.5z" class="M"/><path d="M681.8 674.8c133.7 54.5-35.2 422.6-35.2 422.6s-360-136.5-330.4-274c29.7-137.6 213.5-9.6 213.5-9.6s18.4-193.5 152.1-139z" class="N"/><path d="M1263.6 578.7l-25.9 12.9 4.6-29.7-20.8-21.3 25.4-7.7 6.4-34.3 20.2 35.5 1.8.5 22 6.8 10.7 3.9-5.3 4.5-17.1 14.9 5.3 27.7.5 3.8-6.4-4.1-20.3-12.7zm-197-386.9l19.4-37.5-42.4 5.3-29.3-31.9-11.9 37.1-49 7.7 49.5 31.5.7 2.8 8.8 32.7 5.1 16 6.6-7.5 21.8-24.5 39.1 9.2 5.4 1-5.7-9.7-17.1-30.4zM1253 132l32.6 34.3 2.2-51.7 35.6-25-33.5-25.4 1-60.3-38.7 49-2.7-.1-33 .5-16.2 1.1 6.1 10.1 19.7 33.3-15.5 43.4-1.9 6.1 10.3-3.7 32.1-11z" class="K"/><path d="M1255.5 120.5l26.9 28.2 1.8-42.6 29.3-20.5-27.6-21 .9-49.6-31.9 40.3h-2.2l-27.2.3-13.3.9 5 8.4 16.2 27.4-12.7 35.8-1.6 5 8.5-3.1 26.4-9.1z" class="L"/><path d="M1252.5 547.6l-25.8 12.9 4.6-29.7-20.9-21.3 25.5-7.7 6.4-34.3 20.1 35.5 1.8.4 22 6.9 10.8 3.8-5.3 4.6-17.1 14.9 5.2 27.7.6 3.8-6.5-4.2-20.2-12.6z" fill="#ff8b22"/><path d="M1061.3 188.5l15.1-29.1-33 4-22.8-24.7-9.2 28.8-38.1 6 38.5 24.5.5 2.1 6.9 25.5 3.9 12.5 5.1-5.9 17-19 30.4 7.1 4.2.8-4.4-7.6-13.3-23.6z" class="M"/><g class="K"><use xlink:href="#D"/><use xlink:href="#E"/><use xlink:href="#F"/><path d="M179.4 1303.2c6.1-.2 11.8.8 17 3.1 5.3 2.4 9.2 5.7 11 10.3 3 7.6-.8 19.1-10.1 24.9-1.6 1-3.2 1.8-4.9 2.4-3.9 1.4-8.1 1.7-12.5 1-6-1-11.1-3.4-15.8-6.4-4.4-2.9-7.3-6.5-8.2-10.9-.7-3.5-.2-6.8 1-9.7s3.1-5.5 5.4-7.6c5.8-4.8 11.3-6.9 17.1-7.1zm-19.9-276.7c7.6.2 14.7 2 21.3 5.5 6.5 3.4 11.4 8 13.7 14.1 3.7 9.9-1.1 24.4-13 31-2.9 1.6-5.9 2.7-9 3.3-4.1.7-8.4.6-12.9-.4-7.6-1.7-13.9-5.3-19.8-9.6-5.5-4.1-9.1-8.9-10.1-14.7-.6-3.6-.4-7 .5-10 1.4-4.6 4.3-8.5 7.7-11.5 7.5-5.7 14.5-7.9 21.6-7.7z"/><use xlink:href="#G"/><use xlink:href="#H"/></g><use xlink:href="#D" x="-9.9" y="-27.9" class="O"/><use xlink:href="#E" x="-9.9" y="-27.9" class="N"/><use xlink:href="#F" x="-9.9" y="-27.9" fill="#ff3000"/><path d="M169.5 1275.3c6.1-.2 11.8.8 17 3.1 5.3 2.4 9.2 5.7 11 10.3 3 7.6-.8 19.1-10.1 24.9-1.6 1-3.2 1.8-4.9 2.4-3.9 1.4-8.1 1.7-12.5 1-6-1-11.1-3.4-15.8-6.4-4.4-2.9-7.3-6.5-8.2-10.9-.7-3.5-.2-6.8 1-9.7s3.1-5.5 5.4-7.6c5.8-4.8 11.4-6.9 17.1-7.1z" class="O"/><path d="M149.7 998.6c7.6.2 14.7 2 21.3 5.5 6.5 3.4 11.4 8 13.7 14.1 3.7 9.9-1.1 24.4-13 31-2.9 1.6-5.9 2.7-9 3.3-4.1.7-8.4.6-12.9-.4-7.6-1.7-13.9-5.3-19.8-9.6-5.5-4.1-9.1-8.9-10.1-14.7-.6-3.6-.4-7 .5-10 1.4-4.6 4.3-8.5 7.7-11.5 7.4-5.7 14.4-7.9 21.6-7.7z" class="M"/><use xlink:href="#G" x="-9.9" y="-27.9" fill="#ff3000"/><use xlink:href="#H" x="-9.9" y="-27.9" class="O"/><g fill="#fff"><path d="M382.5 1667.8c1.4-2.1 2.4-4.8 3-7.9s1-7.2 1.1-12.2c.5-3.6.3-6.5-.4-8.9l-1.8-5.3c-2.1-5.5-6-8.1-11.6-8-5.6.2-14 2.4-25.3 6.8-6.2 2.4-12.6 5.2-19.1 8.5-6.6 3.2-13 6.7-19.3 10.3s-12.4 7.5-18.2 11.5-11.1 8.1-15.8 12.1l3.8-24 10.2-67.1 24.7-10.8 17.7-7.3c4.9-1.9 9-3.3 12.4-4.3s6.6-1.7 9.5-2 5.9-.5 8.9-.4 6.4.3 10.2.5c1.4.1 2.9-.1 4.5-.8 2.8-1.1 5.2-3.1 7.2-6.1s3.5-6.4 4.4-10.2c1-3.9 1.4-7.9 1.2-12-.2-4.2-1-8.1-2.4-11.8-1.8-4.7-4.7-8.6-8.7-11.5-4-3-9.2-4.1-15.7-3.4-3.4.5-9.1 1.8-17.1 4.1s-18.5 5.9-31.5 11c-14.2 5.5-26.3 11.7-36.3 18.6-10.1 6.9-18.5 15.1-25.3 24.7s-12.1 20.9-15.9 34c-3.8 13-6.6 28.5-8.4 46.3l-5 58c-1.6.6-3.9 1.6-6.9 2.8-3 1.3-6 3.2-9.1 6-3.1 2.7-6 6.4-8.6 10.9-2.7 4.5-4.4 10.2-5.3 17.2-.4 3-.2 5.3.4 7 1.1 3 3.6 4.2 7.3 3.8s8.4-1.7 14-3.9l4-1.5c.1.6.1 1 .2 1.1 0 .1 0 .2.1.5 0 .3 0 .6-.1 1.2 0 .5-.1 1.5 0 2.8 0 1.2-.3 3.8-.7 7.7s-1 8.7-1.7 14.3l-4.9 40.3-2.6 21.9-2.1 20.4c-1.6 17.3-2.5 31.7-2.6 43.4s.9 20.3 3.1 25.9c1.8 4.7 4.7 7.7 8.7 9s9.3.6 16.1-2.1c5.6-2.2 10.3-10.3 14.1-24.3s6.5-34.1 8-60.2l3.1-37.9c1.3-13.2 2.7-25.8 4.3-37.7l4.5-31.9c1.4-9.4 2.6-16.3 3.4-20.7 4.9-3.6 10-6.8 15.5-9.6 5.4-2.8 11.9-5.7 19.5-8.6 7.7-3 16.6-6.1 26.8-9.4s22.4-7 36.8-11.2c3.2-1.3 6-2.6 8.3-4 2.2-1.7 4-3.4 5.4-5.6zm971.6-.9c-1.4 0-2.9.3-4.5 1-1.6.6-3.1 1.6-4.5 2.9l-9.6 9c-3.8 3.4-7.9 7-12.4 10.7a261.62 261.62 0 0 1-14.1 10.8c-5 3.5-9.9 6.7-14.9 9.5s-9.9 5.1-14.8 6.8-9.5 2.6-13.7 2.6c-3.3 0-6.1-.3-8.2-1.1s-3.2-2.7-3.3-5.9c0-.3 0-.6.1-1 .1-.3.1-.6.1-1 .6-6.3 2.1-12.2 4.7-17.6s5.6-10.6 9.1-15.6 7.2-10 11.1-14.8a162.32 162.32 0 0 0 10.8-15.3c3.3-5.3 6-11 8-16.9 2.1-6 3.1-12.5 3-19.6 0-5.4-1.1-9.9-3.2-13.6s-4.9-6.6-8.4-8.7-7.6-3.6-12.1-4.5c-4.6-.9-9.4-1.3-14.5-1.3-8.5.1-16.3 1.4-23.2 3.9s-13.3 5.7-19.1 9.6-11.2 8.1-16.1 12.7l-14 13.4c7-11.9 13.7-24 20.1-36.1l19-36.7 18.9-36.7c6.3-12.2 12.9-24.2 19.7-36.1 2.2-3.3 4.1-7 5.8-10.9s2.5-7.6 2.5-11.1c0-3.8-1.4-7-4.1-9.6s-7.6-3.8-14.5-3.8c-2.8 0-5.7.5-8.5 1.4s-5.5 2.1-8 3.6-4.8 3.2-6.7 5.2c-2 1.9-3.4 3.9-4.3 6l-76.9 154.7-10.9 22.5-20.2 40.5-13.7 9.9c-5.9 4.2-12.4 8.6-19.7 13.2-7.2 4.6-14.7 9-22.5 13s-15.7 7.4-23.6 10.2-15.5 4.3-22.6 4.7c-6.6.3-12-1-16-4s-6.2-7.2-6.5-12.7c-.2-3.8.6-8.4 2.3-13.9s4.1-11.2 7.2-17.1 6.7-11.8 10.6-17.6c4-5.8 8.1-11.1 12.4-15.7s8.6-8.5 13-11.5 8.4-4.6 12-4.8c3.2-.2 5.2.7 6.1 2.7.9 1.9 1.4 4.3 1.5 7.2l.3 7.9.2 6.3c.1 2.4.6 4 1.6 4.9.9.9 3 1.3 6.1 1.1 5.8-.3 10.7-2.3 14.4-5.9 3.8-3.7 6.8-8.2 9.1-13.5s3.8-11 4.6-17 1.1-11.4.8-16.3c-.2-3.9-1-7.3-2.5-10.1s-3.4-4.9-5.8-6.5c-2.4-1.5-5.1-2.6-8.2-3.3-3.1-.6-6.4-.9-9.9-.7-10.3.5-20.3 3.2-30.1 8.2-9.8 4.9-19.2 11.3-28 19-8.9 7.7-17 16.5-24.5 26.2-7.4 9.7-13.8 19.5-19.2 29.5a179.89 179.89 0 0 0-9.1 19.7c-3.4 3-7.1 6-10.8 9-7.7 6.1-15.7 12-24.1 17.6s-16.7 10.4-24.9 14.5c-1.9 1.6-3.6 2.6-4.9 3-1.4.4-2.6.6-3.7.7-1.7.2-3-.2-3.9-1-.9-.9-1.4-1.9-1.5-3.2-.3-3.3.4-6.3 2.2-9 1.3-3 3.1-6.8 5.4-11.4l7.6-15.2a296.01 296.01 0 0 0 8.3-17.7c2.8-6.2 5.2-12.6 7.4-19 2.1-6.4 3.8-12.8 4.9-19.1s1.4-12.3.8-18c-1-9.6-4.5-16.1-10.5-19.6-6-3.4-13.2-4.7-21.5-3.9-7.4.7-15.1 2.7-23.1 5.9s-15.7 7-23.2 11.5c-7.4 4.5-14.1 9.4-20.1 14.7s-10.5 10.3-13.5 15.1c1-2.8 1.6-5.4 1.8-7.8s.2-4.6 0-6.7c-.5-5.3-2.5-9.3-5.7-11.7-3.3-2.4-6.8-3.5-10.6-3.1-4.6.5-9 2.6-13.4 6.4s-7.8 9.2-10.3 16.3l-7.6 21.1-9.8 26.4-6.5 17.7c-.3.2-.6.5-.9.8-1.3.9-3.8 2.9-7.5 6.1s-8.4 7-13.9 11.5c-5.6 4.5-11.9 9.3-18.9 14.4s-14.2 10-21.7 14.6-15.1 8.7-23 12.2c-7.8 3.5-15.3 5.8-22.5 7.1-6.7 1.1-12.3.8-16.8-1.1s-7.5-5-9.1-9.4c19.9-11.4 36.2-22.1 49.1-32.3 12.8-10.1 22.8-19.6 30-28.4s11.9-17.1 14.1-24.9 2.8-14.9 1.7-21.5c-1.9-11.1-6.5-19.2-14-24.4s-17.7-6.6-30.6-4.4c-12.3 2.1-23.6 5.8-33.8 11.3-10.2 5.4-19.4 11.9-27.4 19.3-8 7.5-15 15.7-21 24.6-5.9 9-10.7 17.9-14.3 26.9s-6.1 17.7-7.4 26.2c-.1.5-.1 1-.2 1.5l-19.4 17.5-26.6 23c-8.9 7.6-17.1 14.2-24.5 19.8-1.2.3-2 .3-2.2-.2-.3-.4-.6-1.2-.9-2.5-.4-1.4.7-4.3 3-8.8 2.4-4.5 5.4-9.9 9.1-16.2l12.2-20.5c4.4-7.4 8.4-14.7 12.1-21.8s6.7-13.9 9.2-20.2 3.6-11.6 3.3-15.8c-.1-2.3-.3-4.4-.6-6.3-.3-2-.7-3.8-1.1-5.5-2-7.8-5.3-12.9-9.9-15.2s-10.3-2.6-17.2-.9c-4.3 1.1-9 3-14.1 5.7s-10.4 5.9-15.8 9.6-10.9 8-16.5 12.6c-5.6 4.7-10.9 9.6-15.9 14.8l-.4.3-.2.1c-.2 0-.3-.1-.3-.4-.1-.5-.1-1.1 0-2 .1-.8.2-1.8.4-2.8.1-1 .3-1.9.4-2.8.1-.8.1-1.5 0-2-.7-2.6-2.2-4.7-4.7-6.1-2.5-1.5-5.5-2.5-9-3.1s-7.3-.7-11.5-.4-8.2 1-12.2 2c-3.8 1-7.4 2.3-10.6 4s-5.9 3.8-8.1 6.1c-2.2 2.4-3.7 5.1-4.5 8.1-.9 3.1-.8 6.5.1 10.1 1 4 2.6 7.1 4.7 9.5 2.1 2.3 4.5 4.1 7.1 5.4l-8.2 39.7-5.9 30.4-4.4 23.5c-1.3 6.9-2.6 13.2-4.1 19.2-.9 3.5-1.3 6.6-1.2 9.2.1 2.7.4 4.8.8 6.5 1.1 4.1 2.8 6.9 5.4 8.2s5.6 1.5 9.1.6c3.1-.8 6.3-2.3 9.6-4.6s6.4-5.2 9.3-8.5 5.4-7.2 7.5-11.5 3.5-8.9 4.2-13.8l3.7-20.3 4.6-23.9 4.7-23.2c1.5-7.4 3-13.6 4.4-18.5 1-3.8 3.2-7.8 6.8-11.9 3.5-4.1 7.4-7.9 11.6-11.4s8.2-6.5 12.1-8.9c3.9-2.5 6.7-3.9 8.6-4.4 1.1-.3 1.9-.1 2.4.6s.9 1.4 1 2.2c.8 3.2.6 7-.5 11.4-1.2 4.4-2.8 9.3-5 14.6-2.1 5.4-4.6 11.1-7.2 17.3-2.7 6.2-5.1 12.5-7.4 19.1-2.2 6.6-4 13.4-5.3 20.5-1.3 7-1.7 14.1-1 21.1 0 .7.2 1.6.5 2.8 2 8 6.3 13.8 12.9 17.5s15.2 4.2 25.7 1.5c4.4-1.1 9.4-3.5 15-7.1 5.5-3.6 11.3-8 17.4-13.1 6-5.1 12.2-10.8 18.6-17l18.7-18.8c1.9-1.9 3.7-3.9 5.5-5.8 1 2.4 2.1 4.7 3.3 7 4 7.5 9 13.9 15.1 19.1s13.1 9 20.9 11.4c7.9 2.4 16.5 2.7 25.8 1.2 10.9-1.8 21.8-5.2 32.5-10s20.9-10.2 30.6-16.4c9.6-6.1 18.7-12.6 27-19.4l10.3-8.5c-.6 2-1.1 3.9-1.5 5.7-1.6 6.2-2.3 10.6-2 13.3.5 5 2.5 9.1 6 12.3 3.5 3.1 8 4.4 13.5 3.9 5.4-.5 9.6-2.7 12.8-6.4s6-8.3 8.3-13.7a204.97 204.97 0 0 0 6.5-17.4c2-6.2 4.3-12 6.9-17.5l14.8-28c5.6-10.4 11.9-20.4 18.9-29.9s14.7-17.7 23.1-24.7c8.4-6.9 17.7-10.9 27.8-11.9 2.7-.3 4.8.4 6.3 1.9s2.4 3.5 2.6 5.8c.3 2.7-.4 6.2-2 10.7s-3.7 9.6-6.2 15.3l-8.3 18.3c-3 6.4-5.8 12.9-8.4 19.3-2.6 6.5-4.8 12.7-6.4 18.8-1.7 6.1-2.4 11.5-2.3 16.5v3.5c0 1 .1 2.1.2 3.2.8 8.3 3.4 14.6 7.8 18.9 4.3 4.3 10.7 6 19 5.1 2.8-.3 5.9-.9 9.2-1.9s7-2.3 10.9-4c11.6-4.7 21.7-9.5 30.1-14.4a248.71 248.71 0 0 0 23.7-15.5c4.1-3 8.1-6.2 12.1-9.5.7 2.9 1.6 5.6 2.8 8.3 2.5 5.7 6 10.7 10.5 14.8s9.9 7.3 16.3 9.5 13.6 3.1 21.6 2.7c10.6-.5 21.3-2.7 32-6.5s21.1-8.4 31-13.8c8.7-4.7 16.8-9.8 24.5-15.2l-.6 1.8c-1.2 4-1.8 7.9-1.8 11.5 0 4.9 1.6 9 4.6 12.2s7.3 4.8 12.9 4.7c3.5 0 6.8-1.2 10.1-3.4 3.2-2.2 6.3-5.2 9.2-8.9s5.7-7.8 8.3-12.5l7.6-14.2 7-14c2.3-4.5 4.5-8.5 6.7-12 4.8-7.8 10.1-16 15.7-24.5s11.7-16.4 18.3-23.5c6.6-7.2 13.8-13.1 21.7-17.8s16.5-7 25.8-7.1c2.7 0 4.7.7 6 2.2s1.9 3.4 2 5.8c0 2.7-.5 5.2-1.5 7.5s-2.4 4.8-4.3 7.5c-3.4 6-7.4 12.2-11.9 18.5s-8.8 12.8-12.8 19.6-7.3 13.8-10 21-4 14.9-3.9 22.9c.1 11.1 3.6 19.2 10.4 24.2 6.8 5.1 15.9 7.6 27.1 7.5 8.7-.1 17.6-1.7 26.7-5 9.1-3.2 18.2-7.6 27.3-13.1s18.2-11.7 27.1-18.8c9-7 17.7-14.4 26.4-22.1 5.5-4.3 9.4-8.6 11.6-12.9 2.3-4.3 3.4-8.1 3.3-11.4 0-3.6-1.1-6.5-3-8.6-2.8-1.9-5.3-2.9-8.1-2.9zm-743 53.5c1.1-4.7 2.5-9.6 4.4-14.8 1.8-5.2 4-10.5 6.6-15.9 2.5-5.4 5.6-10.4 9.3-14.9 3.6-4.5 7.8-8.4 12.6-11.6s10.1-5.3 16-6.3c.8-.1 1.5-.3 2.1-.4s1.3-.1 2.1-.1c1.9 0 3.7.6 5.5 1.7 1.7 1.2 2.8 2.9 3.2 5.2.5 2.8-.3 6.3-2.3 10.6s-6.1 9.2-12.4 14.7c-1.4 1.2-3.8 3.5-7.2 6.7-3.4 3.3-7.4 7-12 11.2l-14.8 13.1c-5.2 4.6-10.4 8.7-15.3 12.5.4-3.1 1.1-7 2.2-11.7zm1187.5-155.6c1.6-16.4.6-31.9-2.8-46.5s-9.6-27.7-18.4-39.1-20.4-20.8-34.8-28.3c-14.4-7.4-31.7-12.1-51.8-14-17.3-1.7-34.4-1.5-51.1.6-16.7 2-32.6 5.4-47.7 10.1s-29 10.4-41.8 17.2-24 14.1-33.6 21.8-17.2 15.7-22.9 24-8.9 16.2-9.7 23.7c-1.2 12 5 18.6 18.6 19.9 7.2.7 13.7-.4 19.4-3.4 5.7-2.9 11.1-7 16.3-12 5.2-5.1 10.5-10.8 16-17.3s11.7-12.9 18.7-19.2c6.2-4.7 13.4-8.8 21.8-12.6 8.4-3.7 17.5-6.8 27.2-9.2 9.8-2.4 19.9-4.1 30.4-5.1s20.9-1 31.1 0c11 1.1 20.5 3.8 28.3 8.2s14.1 10.1 18.7 17.1c4.7 7 7.9 15 9.6 24.1 1.8 9.1 2.1 18.8 1.1 29.2-1.2 12.3-4.7 25.1-10.5 38.6-5.8 13.4-13.5 26.6-22.9 39.6s-20.5 25.4-33.1 37.1c-12.7 11.7-26.4 22.1-41.1 31.1-14.8 9-30.4 16.2-46.8 21.6s-33.2 8.2-50.4 8.3c7.8-8.8 16-18.4 24.3-28.8 8.4-10.4 16.6-21 24.8-31.8l23.6-32.4 21.3-30.3 17.5-25.5 12.4-18.4c3.1-4.3 5.7-8.9 7.8-13.8s3.3-9.6 3.7-14.2c.5-5.7-.5-10.7-3.1-15.1s-7.4-6.9-14.5-7.6c-1.6-.2-3.9 0-7 .4s-6.6 1.6-10.7 3.6-8.6 4.9-13.5 8.7-10 9.1-15.2 15.7l-115.7 183.7c-2.9 3.4-5.3 7.1-7.3 11.2s-3.2 8.4-3.6 13c-.6 5.8.8 10.9 4 15.3s8 6.8 14.3 7.5c29 2.8 56.3 1.9 81.9-2.6s49.3-11.7 71-21.5 41.2-21.8 58.5-35.9 32.2-29.2 44.7-45.5 22.3-33.1 29.7-50.6c7.2-17.4 11.7-34.3 13.3-50.6zm496.4 252.8c-.9-2.4-2.3-4.8-4.3-7.2s-4.4-4.6-7.3-6.5c-4-2.6-8.3-4.4-13-5.3s-9.4-1.2-14.2-.8-9.5 1.1-14.2 2.2-9 2.3-12.9 3.7c-1.4.4-2.6 1.4-3.7 3-1.3 2-1.9 4.4-1.9 7.2.1 2.8.3 4.6.7 5.4 3.6 7.8 7 15.9 10.5 24.1 3.4 8.2 5.9 16.3 7.6 24.3a78.12 78.12 0 0 1 1.4 23.5c-.7 7.7-3.3 14.9-7.7 21.6-2.5 3.8-5.5 6.5-9 8s-7.2 2.2-11.3 1.9c-4.1-.2-8.4-1.2-12.8-3a77.09 77.09 0 0 1-13-6.8c-4.1-2.7-8-6-11.6-9.8-2.4-2.5-4.6-5.1-6.5-7.9l23.8-2.4c8.8-.9 15.5-2.8 20.2-5.8 4.6-3 7.8-6.4 9.4-10.2 1.8-4.2 1.9-8.3.3-12.2s-4.2-6.7-7.8-8.2c-.9-.4-4.9-.6-12-.7s-15.7.1-25.8.5c-6.8.3-13.8.8-21.1 1.4-1.3-1.4-2.5-2.5-3.8-3.4-3-2-6.7-2.5-10.9-1.6s-7.5 3.2-9.8 6.7c-.2.3-.4.7-.6 1.1-5.8.9-11.3 2-16.4 3.3l92.4-81.1c1.5-1.4 2.6-3.2 3.5-5.2 1.1-2.5 1.4-5.1 1.1-7.9s-2-4.9-5.1-6.2a110.87 110.87 0 0 0-5.2-2c-1.7-.6-3.8-.9-6.2-1s-5.3.1-8.9.6-8.1 1.4-13.5 2.9l-128 50.1c-3.1 1.1-6.2 1.9-9.3 2.5-3.2.5-5.5.5-7.1-.2-1.7-.7-2.2-2.2-1.2-4.4 1.1-2.5 3.5-5.4 7.3-8.7l75.4-66.1c1.1-1.1 2.1-2.5 2.8-4.2 1.5-3.5 1.1-7-1.1-10.4s-5.6-6.1-10.1-8.1c-4.4-1.9-9.4-2.5-15.2-2-5.7.6-11.3 3.1-16.6 7.5l-23.3 22.9-15.9 14.7c-2.2-.3-4.6.1-7.3 1.4-12 7.6-23.2 14.3-33.6 20-4.4 2.4-9 4.7-13.7 6.9-4.7 2.3-9.1 4.2-13.4 5.8s-8.2 2.8-11.7 3.5-6.4.8-8.7.3c-3.7-.9-6-3-6.8-6.3-.8-3.4-.7-7.4.3-12 .8-3.5 2.4-7.7 4.6-12.5s4.9-9.8 7.9-15.1 6.3-10.7 9.7-16.1l10.1-15.7 8.9-13.7c2.7-4.1 4.7-7.5 6.2-10.3.3-.6.6-1.4.8-2.5.9-3.9-.1-7.8-3.1-11.9-2.9-4.1-7.4-6.8-13.2-8.2-1.8-.4-4.1-.5-6.9-.3-2.7.3-5.4.7-8 1.2-3.1.6-6.1 1.3-9 2.1-2.4-3.6-5.3-7.2-8.8-10.6-3.1-2.8-7-5.7-11.7-8.5-4.7-2.9-10.4-5.1-17.2-6.7-13.1-3-25.5-3.5-37.2-1.4s-22.5 5.8-32.6 11.2c-10 5.4-19.1 12-27.4 19.8-8.2 7.8-15.4 16-21.5 24.6s-11.2 17-15.1 25.4c-4 8.3-6.7 15.7-8.1 22-2 8.5-2 16-.1 22.6s4.8 12.3 8.7 17.1 8.4 8.6 13.3 11.5 9.4 4.7 13.4 5.7c7.9 1.8 16 1.8 24.5-.1s16.9-4.8 25.2-8.8 16.3-8.7 24-14.2a277.32 277.32 0 0 0 20.9-16.2c-1.7 2.5-3.2 5.3-4.4 8.4s-2.2 6.2-2.9 9.4c-1.1 4.9-1.6 9.9-1.5 14.9s1.1 9.6 2.7 13.9c1.7 4.3 4.2 8 7.5 11.2s7.7 5.4 13.1 6.7c6 1.4 12.7 1.4 20.2.2 7.4-1.3 15.2-3.3 23.2-6.2 3.9-1.4 7.7-2.9 11.5-4.5-.8 1.5-1.6 3-2.2 4.5-2.2 5.2-2.1 9.7.4 13.5 2.5 3.7 6.3 6.7 11.2 8.8 15.4 6.6 34.9 6.8 58.5.7s51.8-17.4 84.7-34l-81.4 69.8c-14.8 8-27.2 15.1-37.4 21.3s-18.7 12.2-25.7 17.8-12.5 11.1-16.6 16.5-7.5 11.1-10.1 17.2c-2.8 6.5-3.2 12.5-1.2 17.9s5.9 9.4 11.7 11.8c14.1 6 32.3-.7 54.5-20.1.3-.2 2.1-1.9 5.4-4.9 3.4-3 7.7-7 13-12l18-17.4c6.7-6.6 13.6-13.6 20.6-20.9 6.3-2.3 12.1-4.2 17.3-5.7s10.4-2.8 15.6-3.8c5.2-1.1 10.6-1.9 16.2-2.6l13.3-1.5c.8 2.6 1.9 5.1 3.1 7.6 3.3 6.7 7.6 12.9 13.1 18.7s11.7 10.9 18.5 15.4c9.1 6 18.9 10.8 29.2 14.5 10.4 3.7 20.4 5.7 30.1 6.1s18.6-1 26.9-4.2c8.2-3.2 14.9-8.6 19.8-16.1 3.9-5.9 6.7-12.8 8.5-20.5s2.4-16.1 1.9-25-2.1-18.2-4.9-27.8-6.8-19.2-12.1-28.7c2.8-.2 5.7-.5 8.6-.8 3-.3 5.7-.8 8.3-1.4s4.9-1.4 6.9-2.5c2.1-1.1 3.7-2.6 4.9-4.4.9-1.3 1.3-3.1 1.3-5.2.6-1.7.1-4-.8-6.4zm-383.1-104.2c-.5 2-2.4 4.9-5.7 8.7s-7.4 7.9-12.4 12.5c-4.9 4.5-10.4 9.1-16.3 13.6-5.9 4.6-11.9 8.6-17.8 12.2s-11.5 6.3-16.8 8.3c-5.2 2-9.6 2.5-13 1.8-4.3-1-7.5-2.7-9.6-5.2-2.1-2.4-3.5-5.2-4.3-8.3-.7-3.1-.9-6.3-.5-9.8.4-3.4.9-6.6 1.6-9.7 1.7-7.5 5-14.7 9.8-21.5s10.5-12.5 17.2-17.3c6.6-4.8 13.8-8.3 21.4-10.4s15.1-2.4 22.3-.7c2.5.6 5.3 1.7 8.4 3.3s5.9 3.6 8.5 6c2.5 2.4 4.5 5 6 7.8 1.4 2.9 1.8 5.7 1.2 8.7z"/><path d="M744 2414.1c-.2-.5-.4-1-.8-1.7-.4-.6-.9-1.2-1.5-1.6-.6-.5-1.4-.8-2.2-1a4.64 4.64 0 0 0-2.6.1l-1.6.7c-.6.3-1.2.8-1.7 1.5l-3.5 3.8-6.5 7.2a350.48 350.48 0 0 1-8.9 9.2c-3.3 3.3-6.8 6.5-10.4 9.5-3.6 3.1-7.3 5.9-11.2 8.3-3.9 2.5-7.7 4.3-11.4 5.6-3.5 1.1-6.5 1.4-9 .8s-4.4-2.1-5.6-4.3c9.7-7.7 17.5-14.7 23.5-21.1s10.5-12.3 13.6-17.5c3.1-5.3 4.9-10.1 5.5-14.4s.3-8.2-.9-11.6c-1.9-5.7-5-9.7-9.4-11.8s-9.9-2.1-16.6.1c-6.4 2.1-12.1 5-17.1 8.7s-9.3 7.9-13 12.5-6.7 9.5-9.2 14.8c-2.4 5.2-4.3 10.4-5.5 15.4-1.2 5.1-1.8 9.9-1.8 14.5v1.4l-8.8 10.4c-4.1 4.8-8.3 9.5-12.5 14.2s-8.1 8.8-11.6 12.3c-.6.3-1 .3-1.2.1s-.4-.6-.6-1.3c-.3-.7 0-2.4 1-4.9.9-2.6 2.2-5.7 3.7-9.3l5-11.8c1.8-4.3 3.4-8.4 4.9-12.5 1.4-4.1 2.6-7.9 3.4-11.4.9-3.6 1.1-6.4.6-8.7-.2-1.2-.5-2.3-.8-3.3s-.7-2-1-2.8c-1.6-4-3.8-6.5-6.4-7.4s-5.7-.7-9.3.8c-2.2.9-4.6 2.2-7.1 4s-5.1 3.9-7.7 6.3-5.2 5-7.9 7.9c-2.6 2.9-5.1 5.9-7.4 9.1l-.2.2h-.1c-.1 0-.2 0-.2-.2-.1-.2-.1-.6-.1-1v-3c0-.5-.1-.8-.1-1-.5-1.3-1.5-2.3-3-2.9-1.4-.6-3.1-.9-5-1s-4 .2-6.2.6c-1.7.4-3.4.9-5.1 1.5-.9-.1-1.9-.1-3.1.2-1.8.4-3.7 1-5.8 1.9s-4.4 1.9-6.7 3.1l-26.9 12.8c-.3-5.5 0-11.2.9-17.1.9-5.8 2.1-11.3 3.8-16.3 1.6-5 3.5-9.3 5.7-12.9s4.5-6 6.9-7.1c2-1 3.9-1 5.8-.2 1.8.8 3.5 2.8 5.1 6.1.4.8.7 1.7 1 2.6s.7 1.9 1.1 2.8c.7 1.5 1.9 2.4 3.6 2.5s3.2-.2 4.8-.9c.6-.3 1.3-.7 2.1-1.3s1.4-1.3 2.1-2.2c.6-.9 1.1-1.8 1.5-2.9.3-1.1.4-2.2.1-3.4-1-4.4-2.3-8.3-3.8-11.6-1.6-3.5-3.5-6.3-5.7-8.4-2.1-2.1-4.4-3.7-6.7-4.7s-4.6-1.4-7-1.3-4.6.6-6.8 1.7c-4.6 2.2-9.1 5.3-13.3 9.3-4.3 4-8.1 9.4-11.4 16-3.3 6.7-6 14.9-8.1 24.7l-.3 1.7c0-.2-.1-.3-.1-.5-1.2-4.4-2.7-8.2-4.4-11.4-1.8-3.4-3.8-6.1-6.1-8.1-2.2-2-4.5-3.5-6.9-4.3-2.3-.9-4.7-1.2-7.1-1s-4.6.9-6.7 2c-4.5 2.4-8.8 5.7-12.8 9.9-4.1 4.2-7.6 9.7-10.6 16.6-3 6.8-5.3 15.2-6.9 25-1.6 9.9-2.2 21.6-1.8 35.2l-13.3 7.1c-3.6 1.9-5.9 4.2-6.9 6.9s-1 4.9 0 6.7c.9 1.7 2.5 2.8 4.7 3.3s5.3-.4 9.5-2.6l.7-.4c-.1.7-.3 1.5-.4 2.3-.4 2.4-.9 5.1-1.6 7.9l-2.2 8.7c-.8 3-1.8 5.7-2.9 8.3s-2.3 4.9-3.5 6.9c-1.3 2-2.7 3.5-4.2 4.5-1.1.7-2.2 1.1-3.4 1.4-1.2.2-2.4.1-3.6-.3-.8-3.7-1.7-7.2-2.9-10.3s-2.5-5.8-3.8-7.9c-2.6-4.2-5.7-7.1-9.3-8.8s-7.2-2.6-11-2.6-7.4.6-11 1.8c-3.6 1.3-6.7 2.8-9.5 4.5-6.3 4-11.4 8.7-15.3 14s-6.8 10.9-8.7 16.8-3 11.9-3.2 17.9c-.2 6.1 0 11.8.8 17.3s2 10.5 3.6 15.2c1.6 4.6 3.3 8.4 5.2 11.2 2.7 4.2 5.8 7.3 9.3 9.2s7.1 3 10.6 3.3c3.6.3 6.9 0 10.1-.9s5.7-2 7.8-3.3c5.3-3.4 9.9-7.2 13.8-11.5s7.1-8.9 9.6-13.9c2.6-4.9 4.4-10.1 5.7-15.5 1.2-5.4 1.8-10.9 1.9-16.6 2.6.2 5 0 7.1-.6 2.1-.5 4.1-1.4 6-2.6 2.7-1.7 5-4.2 6.8-7.5 1.8-3.2 3.2-6.7 4.4-10.5.4-1.3.7-2.6 1.1-3.8l3.5 68c.1 2.2.3 4 .5 5.6.3 1.6.6 2.8 1.2 3.8 1 1.9 2.5 3 4.4 3.1s3.8-.3 5.6-1.2c1.3-.7 2.5-1.7 3.7-3.1s2.2-3 3.1-4.8 1.5-3.8 1.9-5.9.6-4.2.5-6.4l-.5-12.3-.8-17.2-1-20.2-1-21.1-.9-20-.6-16.9 19.6-10.6 6.1-3.4c1.7-.3 3.8-1 6.2-2.2l6.1-2.9.4 105.6c0 2.2.1 4 .3 5.6s.5 2.8 1 3.8c1 2 2.4 3.1 4.3 3.3s3.8-.1 5.6-1c1.3-.6 2.6-1.6 3.9-2.9s2.4-2.8 3.3-4.6 1.7-3.7 2.2-5.8.8-4.2.8-6.4c.1-3 .1-7.1.1-12.3v-17.2l-.1-20.2v-21.1l.1-20 .2-16.9 20-9.6c3.4-1.6 6.8-3.4 10.3-5.1l3-1.5c.5.6 1 1.2 1.5 1.7 1.3 1.1 2.7 1.9 4.2 2.4l-1.5 21.7-1.6 29.5c-.2 3.7-.4 7.3-.8 10.5-.2 1.9-.2 3.6 0 5s.6 2.6.9 3.4c.9 2.1 2 3.5 3.5 4 1.4.5 3.1.4 4.9-.3 1.6-.6 3.2-1.7 4.8-3.2s3.1-3.2 4.4-5.2 2.4-4.2 3.2-6.7c.8-2.4 1.2-5 1.2-7.7l.5-11.1.7-13.1.8-12.7c.3-4.1.6-7.5 1-10.2.2-2.1 1.2-4.4 2.7-6.8 1.6-2.4 3.4-4.7 5.3-6.9 2-2.2 3.9-4.1 5.8-5.6 1.9-1.6 3.3-2.6 4.2-3 .6-.2 1-.2 1.3.2.3.3.6.7.7 1.1.7 1.7.9 3.7.5 6.1-.3 2.4-.8 5.1-1.6 8.2l-2.6 9.7c-1 3.5-1.8 7.1-2.5 10.7-.7 3.7-1.2 7.5-1.4 11.3s.1 7.6 1 11.3c0 .3.2.8.5 1.5 1.7 4.1 4.4 6.9 8.2 8.4s8.4 1.2 13.8-1c2.3-.9 4.8-2.6 7.5-4.9s5.5-5.1 8.3-8.2c2.9-3.2 5.7-6.6 8.7-10.4l8.6-11.4c.9-1.2 1.8-2.4 2.6-3.6.7 1.1 1.4 2.2 2.2 3.3 2.7 3.7 5.9 6.6 9.6 8.9s7.7 3.7 12.1 4.4c4.4.6 9 .1 13.8-1.5 5.7-1.9 11.2-4.5 16.5-7.9s10.3-7.1 14.9-11.2c4.6-4 8.9-8.2 12.8-12.5s7.3-8.3 10.1-11.9 5.1-6.7 6.8-9.2 2.7-4.1 3-4.6c.6-1.6.9-3 .7-4.1-.4-.8-.6-1.7-.8-2.5zm-361.1 165a35.77 35.77 0 0 1-4 12.2c-2 3.7-4.7 6.7-8 8.8-2.2 1.4-4.2 2-6.1 1.9s-3.6-.7-5.2-1.6c-1.6-1-3-2.2-4.2-3.7s-2.3-2.9-3.2-4.3c-2.3-3.7-3.9-7.7-4.6-12.1-.8-4.4-.8-8.7-.2-13 .7-4.3 2-8.3 4.1-12s4.8-6.6 8.2-8.7c2.2-1.4 4.3-2.1 6.1-2.1s3.5.4 5 1.3 2.8 2 4 3.4 2.2 2.9 3.1 4.3c2.3 3.7 3.9 7.8 4.7 12.3a42.41 42.41 0 0 1 .3 13.3zm105.3-123.7c-.1 0-.3 0-.4.1-1.7.5-3.6 1.2-5.7 2.2s-4.3 2.1-6.6 3.4l-26.2 14.1a88.98 88.98 0 0 1 .1-17.1c.6-5.9 1.6-11.4 3-16.5s3.1-9.5 5.1-13.2 4.2-6.2 6.5-7.4c1.9-1 3.9-1.2 5.8-.5s3.7 2.7 5.4 5.8c.4.8.8 1.7 1.2 2.6.3.9.8 1.8 1.3 2.8.8 1.5 2 2.3 3.7 2.3s3.2-.4 4.7-1.2c.6-.3 1.3-.8 2-1.4s1.4-1.4 2-2.3c.2-.3.3-.5.4-.8-1.4 7.9-2.1 16.9-2.3 27.1zm172.4-16.5c0-1.7.1-3.8.2-6.4.2-2.6.6-5.3 1.1-8.2.6-2.9 1.3-5.9 2.2-9s2.2-6 3.7-8.7c1.6-2.7 3.5-5.1 5.8-7.2s4.9-3.6 8-4.7c.4-.1.8-.3 1.1-.4s.7-.2 1.1-.2c1-.2 2 0 3 .5s1.7 1.3 2.1 2.5c.5 1.5.4 3.4-.4 5.8-.7 2.4-2.5 5.4-5.4 8.8-.6.8-1.7 2.1-3.3 4.2-1.5 2-3.3 4.3-5.5 6.9l-6.8 8.2c-2.2 2.9-4.6 5.5-6.9 7.9zm199.4-28.3c1.8-4.4 2.2-9 1.1-13.7-.9-3.7-2.5-7.4-4.8-10.9-2.4-3.6-5.4-6.9-9-10-3.7-3.1-7.9-5.9-12.6-8.4-4.8-2.5-10-4.5-15.7-6 1-1.2 1.9-2.4 2.9-3.7s1.8-2.5 2.5-3.7 1.3-2.4 1.6-3.6.4-2.4.1-3.6c-.2-.8-.7-1.6-1.6-2.5-.8-.8-1.9-1.5-3.2-2s-2.7-.9-4.4-1-3.5 0-5.3.4c-2.5.6-4.8 1.6-6.9 3.1s-4 3.2-5.6 5.2-3.1 4.1-4.4 6.3-2.4 4.4-3.4 6.4c-.4.7-.4 1.5-.2 2.5.3 1.2 1 2.4 2.1 3.4s1.9 1.6 2.4 1.7c4.4 1.5 8.8 3.1 13.2 4.9a70.49 70.49 0 0 1 12.3 6.1c3.7 2.3 7 5.1 9.7 8.2s4.6 6.8 5.6 11c.6 2.4.5 4.6-.2 6.5s-1.9 3.6-3.5 5.1-3.6 2.8-5.9 3.9-4.8 1.9-7.5 2.5c-2.6.6-5.3.9-8.1.9s-5.6-.3-8.3-.8c-2.7-.6-5.2-1.4-7.5-2.5s-4.2-2.6-5.8-4.3c-.8-1-1.9-1.6-3.1-1.7s-2.3 0-3.2.2c-1.9.4-3.5 1.7-4.7 3.6s-1.5 4.1-1 6.3c.1.4.3.9.6 1.6 2 4.1 4.5 7.4 7.7 10 3.1 2.6 6.6 4.4 10.4 5.7 3.8 1.2 7.9 1.8 12.2 1.8s8.6-.5 12.9-1.5c5.7-1.3 11.2-3.3 16.5-6s9.8-5.8 13.6-9.4c3.9-3.6 6.6-7.6 8.5-12zm194.3-125c1.7-.3 3.6-1.3 5.9-3.1 2.2-1.8 4.2-4.3 5.9-7.5l22.4-35.8c1.6-2.5 2.6-4.8 3.1-6.9.4-2.1.5-4 .3-5.7-.4-2.6-1.5-4.6-3.4-5.9-1.8-1.3-4-1.8-6.6-1.4-2.7.4-5.6 2-8.6 4.7s-5.7 7-8.1 12.8c-2.1 5.8-4.3 11.5-6.6 17.2l-6.7 17.2c-1.9 5-2.6 8.8-2.3 11.2.5 2.4 2.1 3.6 4.7 3.2zm134.8-14.3c2.3 1.4 6.1 1.9 11.3 1.4 2.8-.3 5.2-1.1 7.1-2.4s3.4-2.8 4.5-4.6 1.9-3.7 2.3-5.7.6-3.8.4-5.4c-.3-2.9-1.5-5.2-3.6-6.9s-5.7-2.3-10.6-1.8c-3 .3-5.5 1.1-7.5 2.4s-3.7 2.9-5 4.7-2.2 3.8-2.7 6c-.5 2.1-.7 4.2-.5 6.1.6 2.7 2 4.7 4.3 6.2zm330.6 66.5c-.1-.7-.4-1.4-.8-2.1s-.9-1.3-1.6-1.8c-.6-.5-1.5-.8-2.5-.9-.5 0-1.1-.1-1.7 0-.6 0-1.4.3-2.2.7-.8.3-2.4 1-4.8 2.1l-8.8 4c-3.5 1.6-7.5 3.2-11.8 4.9s-8.8 3.2-13.3 4.6-9.1 2.4-13.6 3.1c-4.6.7-8.8.9-12.7.5-3.6-.3-6.5-1.3-8.6-2.9s-3.2-3.7-3.4-6.2c11.9-3.2 21.9-6.5 30-9.9 8.1-3.5 14.6-7 19.5-10.6 5-3.6 8.5-7.3 10.8-11 2.2-3.7 3.5-7.4 3.8-10.9.6-6-.7-10.9-3.9-14.6s-8.3-5.9-15.3-6.6c-6.7-.6-13.1-.2-19.2 1.1-6.1 1.4-11.7 3.5-16.9 6.2-5.2 2.8-10 6-14.3 9.9-4.3 3.8-8.1 7.8-11.2 12s-5.6 8.3-7.5 12.6c-.8 1.7-1.4 3.4-1.9 5.1-1 .7-2 1.5-3 2.2-3.3 2.4-6.7 4.7-10.1 6.9s-6.6 4.2-9.8 5.9c-3.1 1.7-6 3.1-8.7 4.1s-4.9 1.5-6.7 1.5c-1.4 0-2.4-.4-2.9-1.2s-.7-1.8-.7-3.1c0-2 .5-4.4 1.4-6.9.9-2.6 1.9-4.9 2.8-6.8l7.8-16.2 9.6-19.8 21.1-42.6 9.6-18.8 7.7-14.6c1.1-1.9 2.1-3.8 2.8-5.5s1.1-3.3 1.1-4.8c0-3.2-1-5.6-3.2-7.1s-4.6-2.2-7.2-2.2a16.55 16.55 0 0 0-7.9 2c-2.6 1.3-4.7 3.7-6.3 7l-48.1 99.9-3.9 8.3s-.1 0-.1.1c-5 5.7-9.8 10.9-14.4 15.4-1.9 1.9-3.9 3.8-6 5.6-2.1 1.9-4.1 3.5-6 5-2 1.5-3.8 2.7-5.5 3.6s-3.2 1.4-4.5 1.5c-2 .1-3.5-.6-4.5-2.2-.9-1.6-1.5-3.7-1.6-6.2-.1-2 .1-4.3.5-7.1s1-5.8 1.8-9 1.6-6.5 2.6-9.8l2.9-9.6 2.5-8.4c.8-2.5 1.3-4.6 1.6-6.2.1-.3.1-.8 0-1.4-.1-2.1-1.2-4-3.4-5.7-2.1-1.7-4.8-2.4-8.1-2.2-1 .1-2.2.4-3.6.9s-2.7 1.2-3.9 1.8c-1.5.8-2.9 1.6-4.3 2.4-1.8-1.5-3.8-2.9-6.1-4.1-2-1-4.5-1.9-7.3-2.7-2.9-.8-6.2-1.1-9.9-.9-7.2.4-13.7 2-19.4 4.9-5.7 2.8-10.8 6.4-15.1 10.7-4.4 4.3-8.1 9.1-11.2 14.4a91.76 91.76 0 0 0-7.4 16c-1.2 3.3-2.1 6.5-2.8 9.6-1.3 1.5-2.6 3.1-4 4.8-2 2.3-4.2 4.7-6.5 7a70.58 70.58 0 0 1-7.2 6.3c-2.5 1.9-4.9 3.5-7.4 4.7-2.5 1.3-4.9 2-7.3 2.3-2.1.2-3.8 0-5-.6s-1.9-2-2.2-4.3c-.2-2.1 0-4.5.5-7.1s1.3-5.3 2.1-8l2.8-8.1 2.7-7.3 1.7-4.8c.5-1.3.9-2.7 1.5-4.1.5-1.4 1.1-2.9 1.7-4.5a125.57 125.57 0 0 1 2.4-5.9c.3-.8.5-1.6.6-2.4 0-.8.1-1.5.1-2.3-.3-3.2-1.8-5.7-4.3-7.6-2.5-1.8-5.4-2.6-8.6-2.3-1.9.2-3.8.9-5.6 2.1s-3.2 3.1-4.4 5.6l-3.4 9.3-2.7 7.3-1.7 5.3c-.9 3.1-2 6.3-3.4 9.8a116.95 116.95 0 0 0-3 8.3c-1.7 1.5-3.8 3.2-6.1 5.2-3 2.5-6.3 5.1-10 7.9s-7.5 5.4-11.5 7.9-8.1 4.6-12.2 6.5c-4.1 1.8-8.1 3-11.9 3.5-3.5.5-6.5 0-8.7-1.5-2.3-1.4-3.6-3.6-4-6.6-.1-1-.1-2.2 0-3.5 0 0 0-.1.1-.1.9-1.5 1.3-2.8 1.3-3.9 0-.9 0-1.7-.1-2.4.7-2.3 1.5-4.7 2.6-7.1 1.4-3.3 3.1-6.6 5-9.9s3.9-6.3 6-8.9c2.1-2.7 4.3-4.9 6.5-6.7s4.3-2.8 6.2-3.1c1.7-.2 2.8.2 3.4 1.2s.9 2.3 1.1 3.8c.2 1.4.3 2.8.5 4.3.1 1.5.3 2.6.4 3.4.2 1.3.5 2.1 1 2.6.5.4 1.6.6 3.3.3 3.1-.4 5.6-1.7 7.5-3.8s3.3-4.7 4.3-7.6c1-3 1.6-6.1 1.8-9.3s.1-6.2-.2-8.8c-.3-2.1-.9-3.9-1.8-5.3s-2-2.5-3.4-3.2c-1.3-.7-2.9-1.2-4.6-1.4s-3.5-.2-5.3 0c-5.5.7-10.8 2.6-15.8 5.6-5.1 3.1-9.8 6.8-14.3 11.4-4.4 4.5-8.5 9.5-12 15.1-3.6 5.5-6.6 11.1-9.1 16.6-2.5 5.6-4.3 10.9-5.4 16.1-.1.2-.1.5-.1.7-2.8 2.2-6 4.5-9.5 7-3.8 2.7-7.7 5.3-11.8 7.7s-8.2 4.6-12.4 6.4-8.3 3-12.2 3.6c-3.6.6-6.6.3-9-.7s-4-2.8-4.8-5.1c10.8-6 19.7-11.6 26.6-17 7-5.3 12.4-10.4 16.3-15.1s6.5-9.1 7.8-13.3c1.2-4.2 1.6-8 1.1-11.5-.9-6-3.4-10.4-7.3-13.2-4-2.8-9.4-3.7-16.4-2.6-6.6 1-12.7 3-18.3 5.8-5.5 2.8-10.5 6.2-14.9 10.2s-8.2 8.3-11.5 13.1-5.9 9.6-7.9 14.3a65.57 65.57 0 0 0-2.1 5.7l-15.7 16.8c-6.6 7-12.2 12.6-16.5 16.8-4.4 4.2-7.8 7.3-10.3 9.1s-4.5 2.9-5.9 3.2c-1.8.3-3.1.2-3.9-.3-.9-.5-1.4-1.2-1.6-2.2-.1-.8.8-2.4 2.5-4.9s3.9-5.6 6.5-9.2 5.3-7.6 8.2-12 5.6-8.8 7.9-13.3c2.4-4.5 4.2-8.9 5.6-13.2 1.3-4.3 1.7-8.1 1.1-11.6-.5-2.6-1.6-4.8-3.3-6.5s-3.7-3-6.1-3.9-5-1.4-7.8-1.6-5.6 0-8.4.5c-4 .7-7.9 2.2-11.7 4.3-3.8 2.2-7.4 4.7-10.8 7.7s-6.7 6.2-9.8 9.6c-3.1 3.5-5.9 6.9-8.5 10.3.2-.5.3-1.4.4-2.5s.2-2.3.2-3.6v-3.6c0-1.1-.1-1.9-.2-2.4-.5-2.5-1.6-4.3-3.3-5.3s-4.3-1.2-7.6-.6c-2.2.4-4 1.8-5.6 4.1-1.5 2.3-2.8 4.9-3.8 7.9s-1.9 5.9-2.5 8.9l-1.6 6.9c-1.1 7.7-2.8 15.9-5 24.5s-4.7 17.5-7.5 26.5l-8.9 27.5-9.2 27.7-1.3 5.1c-.5 1.8-1 3.6-1.4 5.4a54.34 54.34 0 0 0-.9 5.6 18.57 18.57 0 0 0 .2 5.3c.6 3.4 2 5.6 4.2 6.4 2.2.9 4.8 1 7.8.5 2.3-.4 4.4-1.3 6.1-2.5s3.2-2.7 4.4-4.4 2.2-3.7 3-5.8 1.4-4.4 1.8-6.7c.1-.8.4-2.3 1-4.6.5-2.3 1.2-4.9 1.9-7.9l2.3-9.5 2.3-9.6c.7-3 1.4-5.7 2-8s1-3.8 1.3-4.6c.2-.6.6-1.8 1.1-3.5l1.7-5.8c.6-2.2 1.4-4.4 2.2-6.9l2.3-7.1c.7-2.3 1.4-4.4 2-6.2l1.4-4.3c1.1-3.2 2.6-6.8 4.3-10.7 1.8-3.9 3.8-7.8 6-11.8 2.3-4 4.8-7.8 7.5-11.6s5.6-7.2 8.6-10.3 6.2-5.7 9.5-7.8 6.6-3.5 10-4.1c1.9-.4 3.4-.3 4.3.1s1.5 1.2 1.7 2.2c.3 1.7-.3 4-1.8 7.1-1.5 3-3.5 6.5-6 10.2l-8.1 12.1c-2.9 4.3-5.7 8.4-8.2 12.5s-4.6 8-6.3 11.7-2.4 6.8-2.3 9.4c0 .4 0 .8.1 1.1s.1.6.2.9c.8 4.1 3.1 7 7 8.7s9 2 15.4.8c6.8-1.2 12.9-3.5 18.5-6.8 5.5-3.3 11.1-7.5 16.6-12.6s11.3-11.1 17.3-17.9c.9-1 1.9-2.1 2.8-3.2.8 2.6 1.7 5 2.9 7.3 2.1 4.1 4.8 7.5 8 10.4s7 4.9 11.2 6.3c4.2 1.3 8.8 1.6 13.9.8 5.9-.9 11.7-2.6 17.6-5.1s11.3-5.4 16.6-8.6c5.2-3.2 10.1-6.6 14.7-10.2 1.3-1 2.4-1.9 3.6-2.9.4.9.8 1.8 1.2 2.6 1.6 3 3.7 5.5 6.2 7.5 2.6 2 5.6 3.5 9.1 4.4s7.4 1.1 11.7.6c5.7-.7 11.3-2.3 16.9-4.8s11-5.4 16.1-8.7 9.8-6.9 14.2-10.6l5.2-4.6v.3c.8 7.5 3.3 12.7 7.6 15.9 4.3 3.1 9.9 4.3 16.7 3.6 4.8-.5 9.5-1.9 14.1-4.2s9-5.3 13.4-8.9c4.1-3.3 8-7 11.8-11.1.6 2.2 1.4 4.2 2.5 5.9 2 3.1 4.3 5.6 7.1 7.5 2.7 1.9 5.6 3.2 8.6 3.9s5.6 1 7.8.9c4.3-.2 8.5-1.5 12.6-3.7s8-5 11.7-8.3 7.1-7 10.3-10.9c3.1-4 5.9-7.8 8.4-11.5-.5 1.6-.8 3.2-1 5s-.2 3.5-.1 5.3c.2 2.7.6 5.4 1.5 7.9.8 2.6 2 4.8 3.5 6.8s3.4 3.5 5.6 4.7 4.8 1.7 7.8 1.5c3.3-.2 6.8-1.2 10.4-3 3.7-1.8 7.3-4 11.1-6.7 3.7-2.7 7.4-5.6 10.9-8.9 1.4-1.3 2.9-2.6 4.2-4-.1 1.2-.2 2.4-.2 3.5a31.25 31.25 0 0 0 .8 7c.6 2.2 1.6 4.1 2.9 5.8 1.4 1.6 3.2 2.9 5.6 3.9 2.3 1 5.2 1.5 8.7 1.5 5.1 0 10.4-.9 15.8-2.9s10.9-4.7 16.4-8.1c5.2-3.2 10.4-6.8 15.6-10.9 1 4.4 2.8 8.3 5.2 11.8 2.4 3.6 5.5 6.5 9.3 8.8s8.2 3.7 13.3 4.2c5.9.6 12 .3 18.3-.7s12.3-2.4 18.2-4.3c5.9-1.8 11.4-3.9 16.8-6.3 5.3-2.4 10-4.6 14-6.8 4.1-2.2 7.4-4.1 10-5.7s4.1-2.6 4.6-3c1.2-1.3 2-2.4 2.2-3.4.3-1 .4-1.9.5-2.7-.8-.9-.8-1.6-.9-2.3zm-508.5 14.6a70.01 70.01 0 0 1 2.4-7.9c1-2.8 2.2-5.6 3.7-8.5 1.4-2.9 3.1-5.5 5.1-8 2-2.4 4.3-4.5 6.9-6.2s5.5-2.8 8.7-3.3c.4-.1.8-.1 1.1-.2s.7-.1 1.2 0a4.64 4.64 0 0 1 2.9 1c.9.6 1.5 1.6 1.7 2.8.2 1.5-.2 3.4-1.3 5.7s-3.4 4.9-6.8 7.8c-.8.6-2.1 1.8-3.9 3.6s-4 3.7-6.5 5.9l-8 6.9c-2.9 2.4-5.6 4.6-8.3 6.6.1-1.7.5-3.7 1.1-6.2zm274.8-38c-1.1 2.5-2.6 5.2-4.5 8.3s-4 6.3-6.4 9.5-4.8 6.2-7.4 9c-2.5 2.7-5 5-7.4 6.8s-4.6 2.7-6.4 2.9c-2.4.1-4.3-.3-5.8-1.2s-2.6-2.2-3.5-3.6c-.9-1.5-1.4-3.1-1.7-5-.3-1.8-.5-3.6-.6-5.3-.2-4.2.4-8.4 1.9-12.6s3.6-8.1 6.3-11.5c2.7-3.5 5.9-6.3 9.5-8.6 3.6-2.2 7.4-3.5 11.4-3.7 1.4-.1 3 .1 4.8.4 1.9.4 3.6 1 5.3 1.8s3.1 1.9 4.3 3.2 1.8 2.7 1.9 4.3c0 1.1-.5 2.9-1.7 5.3zm150.2 8.8c1.2-2.3 2.6-4.6 4.3-7.1 1.7-2.4 3.6-4.9 5.6-7.4 2.1-2.5 4.4-4.6 6.9-6.5s5.2-3.3 8.2-4.3a21.82 21.82 0 0 1 9.2-1.1c.4 0 .8.1 1.1.1s.7.1 1.1.2c1 .3 1.9.8 2.6 1.7.7.8 1 1.9.9 3.2-.1 1.5-1 3.3-2.7 5.2-1.6 1.9-4.5 3.9-8.5 5.9-.9.4-2.4 1.3-4.7 2.5-2.2 1.2-4.8 2.6-7.8 4.1l-9.5 4.8c-3.4 1.7-6.6 3.1-9.7 4.3.9-1.4 1.8-3.3 3-5.6z"/></g><defs ><path id="B" d="M1309.9 824.6c64.1 28.4 141.9 30.8 206.9 61.3 36 16.9 79.2 57.9 119.8 53.3-2-43.9-60.9-77.9-95.3-97.4-81.8-46.5-170.3-81-261.8-102-10.8-2.5-23.2-4.4-31.8 2.6-15.4 12.5-3.2 37.8 11.7 50.8 15.4 13.3 32.4 23.4 50.5 31.4z"/><path id="C" d="M2265.3 1045.3l-29.8-24.5 3.1 42.6-26.6 24.4 29.8 17.1 4.9 49.5 26.9-44.4 2.2-.2 26.8-4 13.1-2.7-6-7.6-19.2-25.1 8.4-37.3 1-5.2-8 4.2-25.1 12.5z"/><path id="D" d="M136.9 470.1c5.2 2.5 10.5 3.8 15.9 3.7s10-1.7 13.4-5.2c5.4-5.8 6.5-17.9.6-26.9-1-1.5-2.1-2.9-3.4-4.1-2.8-2.8-6.3-4.7-10.4-5.8-5.6-1.5-10.9-1.2-16-.2-4.9.9-8.7 3.1-11.1 6.9-1.9 3-2.7 6.1-2.8 9.3s.7 6.3 1.8 9.1c3.1 6.6 7.1 10.8 12 13.2z"/><path id="E" d="M30.4 731.4c6.6 2.7 13.5 3.8 20.4 3.2s12.8-2.9 17.1-7.7c6.9-7.7 8.1-22.9.4-33.6-1.9-2.6-4.1-4.8-6.6-6.5-3.2-2.3-7-3.8-11.3-4.6-7.2-1.3-14-.6-20.6 1.2-6.3 1.6-11.2 4.7-14.2 9.6-1.9 3.1-2.9 6.3-3.3 9.4-.5 4.8.5 9.5 2.3 13.6 4.3 8.1 9.5 12.9 15.8 15.4z"/><path id="F" d="M473.8 346.1c2.5-10 2.7-18.9 1.9-25.2-1.2-7.4-3-11-5.4-11.8-2.5-.8-5.2.1-8.1 3s-5.4 7.3-7.5 13.9c-1.2 3.8-2.1 8.5-2.7 13.3-1.1 8.6-1.1 17.6.5 23.4 1.4 5 3.6 7.2 6.6 6.2 2.1-.7 4.1-2.5 6.2-5 .7-.9 1.5-1.9 2.2-2.9 2.6-3.7 4.8-8.6 6.3-14.9z"/><path id="G" d="M522.3 1180.2c3.1 7.4 2.2 13.9-.2 18.6-3.3 5.5-7 8.1-11.5 8.7-4.7.6-9.6-.1-14.4-2.3s-8.9-5.4-11.7-10.3c-1.6-2.8-2.7-6.3-3.1-9.8-.8-6.3.5-13 4.3-17.2 3.3-3.7 7.6-5.3 12.9-4.6 3.7.5 7.2 1.9 10.6 3.7 1.2.7 2.4 1.4 3.6 2.2 4.3 2.8 7.6 6.4 9.5 11z"/><path id="H" d="M951.5 1124.3c7 3.4 14.2 5.1 21.5 5 7.3-.2 13.6-2.3 18.1-7.1 7.4-7.9 8.8-24.3.8-36.4-1.4-2-2.9-3.9-4.6-5.5-3.8-3.7-8.6-6.4-14.1-7.8-7.6-2-14.7-1.6-21.8-.2-6.6 1.3-11.8 4.2-15.1 9.3-2.6 4-3.7 8.3-3.8 12.5-.1 4.3.9 8.5 2.5 12.3 4.5 9.1 9.9 14.7 16.5 17.9z"/></defs></svg>