<svg xmlns="http://www.w3.org/2000/svg" xmlns:xlink="http://www.w3.org/1999/xlink" viewBox="0 0 1149.1 982.2" xmlns:v="https://vecta.io/nano"><path d="M69.3 403.7c64.1 28.4 141.9 30.8 206.9 61.3 36 16.9 79.2 57.9 119.8 53.3-2-43.9-60.9-77.9-95.3-97.4-81.8-46.5-170.3-81-261.8-102-10.8-2.5-23.2-4.4-31.8 2.6-15.4 12.5-3.2 37.8 11.7 50.8 15.4 13.3 32.4 23.3 50.5 31.4zm591.4-183.2c7.4 21.4 14.3 36.9 19.3 38.5 16.6 5.4 12.4-11.6 13.7-17.9 8.1-39.6-5.4-228.2-80.8-190.5 12.3 57 28.8 115 47.8 169.9zM343.4 193C448 264.2 476.8 363.9 505.2 376.1c1.4.6 2.8 1.1 4.3 1.6 19.2 6.4 36.6 0 29-19.4-32.2-81.5-85.6-154.7-159.7-217.8-10-8.5-41.1-32-56.3-14-2.9 3.4-4.2 7.8-4.5 12.7-1.2 19.4 14.9 46.6 25.4 53.8z" fill="#142333"/><path d="M72.6 357.9c64.1 28.4 141.9 30.8 206.9 61.3 36 16.9 79.2 57.9 119.8 53.3-2-43.9-60.9-77.9-95.3-97.4-81.8-46.5-170.3-81-261.8-102-10.8-2.5-23.2-4.4-31.8 2.6-15.4 12.5-3.2 37.8 11.7 50.8 15.4 13.3 32.4 23.4 50.5 31.4z" fill="#3960ac"/><path d="M664.1 174.8c7.4 21.4 14.3 36.9 19.3 38.5 16.6 5.4 12.4-11.6 13.7-17.9 8.1-39.6-5.4-228.2-80.8-190.5 12.2 57 28.8 114.9 47.8 169.9z" fill="#ec2d3a"/><path d="M346.7 147.2c104.7 71.3 133.4 170.9 161.8 183.1 1.4.6 2.8 1.1 4.3 1.6 19.2 6.4 36.6 0 29-19.4-32.2-81.4-85.6-154.5-159.7-217.7-10-8.5-41.1-32-56.3-14-2.9 3.4-4.2 7.8-4.5 12.7-1.1 19.3 14.9 46.6 25.4 53.7z" fill="#fffffd"/><path d="M868.1 785.9c-.3-1.9.5-4.5 1.6-6.2l27.9-42.8c.5-.8-.2-3.4-.9-3.6l-42.2-13.8c-4.1-1.3-6.5-5.2-5.8-9.5 4.6-30.8 18.1-83.3 19.1-105.9.2-4.1 1.3-4.8 5-3.4.9.3 3.3-.7 3.9-1.6l26-43.7c.5-.8-.7-3.5-1.8-3.8-7.3-2-28.3-3.4-34.8-9.3-6.5-5.8 91.9-304 94.7-306.3 2.8-2.2 8.8-.4 11.8.1 1.2.2 3.7-.6 4.3-1.5l32.6-45.5c.4-.6-.3-2.6-1.1-2.8l-27.2-4.5c-1.3-.2-2.8-2.3-2.4-3.4l16-55.3c2-7.5-1.7-12.3-3.7-12.7-10.4-1.9-13.3-2.9-23.9-3.9-4.6-.4-8.5 1.1-13.8 12.1-10.2 20.9-15.8 30.8-26.5 51.2-.7 1.3-4.1 3-5.7 2.9-8.4-.8-16.7-2.4-25.1-3.3-2.7-.3-3.3 2.9-4.9 9.1-3.9 14.6-4 23.2-6.3 38-.2 1.1 1.2 2.9 2.5 3.1 2 .4 6.5.3 7.2 3.2.8 3-140.5 288-146.6 289.7s-31.5-7.5-39.6-9.4c-1-.2-3.6.8-3.6 1.2-2.3 17-5.4 30.4-7.4 47.4-.1.7 6 1.7 6.2 2.5.3 1.1-1.7 2.5-2.3 3.1-16.3 18.5-42.7 64.2-61.7 90.9-2.4 3.4-7 5-11.1 3.8l-41-11.3c-4.1-1.1-5.2-.3-5.9 3.3-3.1 14.6-5.1 25.6-8.7 40.1-.7 3-2.7 6.3-5.3 8.2-43.8 33.3-136.9 77.6-129.3 97.6 6.8 17.9 60.1 23.9 99.2 35 12.3 3.5 24 1 36.8-13.4 11.5-13 15-18.5 21.8-25.4 54.5-54.8 142.1-41.7 179.3 23.2 15.5 28.4 16.5 65.5 14.1 90.1-.8 8.2 3.2 44.1 23.7 55.4 28.4 15.8 72.3 31.4 78.7 26.4 19.9-15.5-14.8-139.1-23.8-195.3zm-61.8-198.7c-3.9 21.5-19.1 72.1-25.9 101.7-.8 3.6-4.8 5.9-8.4 4.9l-56-16.6c-3.7-1.1-5.3-5.1-3.3-8.3 16.3-27.4 40.6-75.2 54.1-94.5.7-1 3.2-1.9 4.3-1.6l30.9 8.1c4 .8 5 2.3 4.3 6.3zm11.7-57.1l-25.4-6.2c-1.1-.3-1.6-1.2-1.2-2.2l109.3-238.8c1-2.2 4.9-1.5 4.1.7l-84.1 245c-.3 1.1-1.5 1.7-2.7 1.5z" fill="#142333"/><path d="M868.1 740c-.3-1.9.5-4.5 1.6-6.2l27.9-42.8c.5-.8-.2-3.4-.9-3.6l-42.2-13.8c-4.1-1.3-6.5-5.2-5.8-9.5 4.6-30.8 18.1-83.3 19.1-105.9.2-4.1 1.3-4.8 5-3.4.9.3 3.3-.7 3.9-1.6l26-43.7c.5-.8-.7-3.5-1.8-3.8-7.3-2-28.3-3.4-34.8-9.3-6.5-5.8 91.9-304 94.7-306.3 2.8-2.2 8.8-.4 11.8.1 1.2.2 3.7-.6 4.3-1.5l32.6-45.5c.4-.6-.3-2.6-1.1-2.8l-27.2-4.5c-1.3-.2-2.8-2.3-2.4-3.4l16-55.3c2-7.5-1.7-12.3-3.7-12.7-10.4-1.9-13.3-2.9-23.9-3.9-4.6-.4-8.5 1.1-13.8 12.1-10.2 20.9-15.8 30.8-26.5 51.2-.7 1.3-4.1 3-5.7 2.9-8.4-.8-16.7-2.4-25.1-3.3-2.7-.3-3.3 2.9-4.9 9.1-3.9 14.6-4 23.2-6.3 38-.2 1.1 1.2 2.9 2.5 3.1 2 .4 6.5.3 7.2 3.2.8 3-140.5 288-146.6 289.7s-31.5-7.5-39.6-9.4c-1-.2-3.6.8-3.6 1.2-2.3 17-5.4 30.4-7.4 47.4-.1.7 6 1.7 6.2 2.5.3 1.1-1.7 2.5-2.3 3.1-16.3 18.5-42.7 64.2-61.7 90.9-2.4 3.4-7 5-11.1 3.8l-41-11.3c-4.1-1.1-5.2-.3-5.9 3.3-3.1 14.6-5.1 25.6-8.7 40.1-.7 3-2.7 6.3-5.3 8.2-43.8 33.3-136.9 77.6-129.3 97.6 6.8 17.9 60.1 23.9 99.2 35 12.3 3.5 24 1 36.8-13.4 11.5-13 15-18.5 21.8-25.4 54.5-54.8 142.1-41.7 179.3 23.2 15.5 28.4 16.5 65.5 14.1 90.1-.8 8.2 3.2 44.1 23.7 55.4 28.4 15.8 72.3 31.4 78.7 26.4 19.9-15.5-14.8-139.1-23.8-195.3zm-61.8-198.7c-3.9 21.5-19.1 72.1-25.9 101.7-.8 3.6-4.8 5.9-8.4 4.9l-56-16.6c-3.7-1.1-5.3-5.1-3.3-8.3 16.3-27.4 40.6-75.2 54.1-94.5.7-1 3.2-1.9 4.3-1.6L802 535c4 .9 5 2.3 4.3 6.3zm11.7-57.1l-25.4-6.2c-1.1-.3-1.6-1.2-1.2-2.2L900.7 237c1-2.2 4.9-1.5 4.1.7l-84.1 245c-.3 1.1-1.5 1.8-2.7 1.5z" fill="#fffbfd"/><g fill="#142333"><use xlink:href="#B"/><use xlink:href="#C"/></g><use xlink:href="#B" y="-36.7" fill="#ec2d3a"/><use xlink:href="#C" y="-36.7" fill="#f68b29"/><defs ><path id="B" d="M1098.7 676.6l-29.9-24.5 3.2 42.6-26.6 24.3 29.8 17.2 4.9 49.5 26.9-44.4 2.2-.2 26.8-4 13.1-2.7-6-7.6-19.2-25.2 8.4-37.2 1-5.2-8.1 4.2-25.1 12.5z"/><path id="C" d="M1094.5 436l21.6-14.6-1 27 20.7 16.5-21.7 9.9-2.1 31.3-21.5-29.2-1.7-.2-20.2-3.4-9.9-2.2 4.2-4.7 13.6-15.3-7.6-24.1-.9-3.3 6.2 3 19.2 8.8z"/></defs></svg>