<svg xmlns="http://www.w3.org/2000/svg" xmlns:xlink="http://www.w3.org/1999/xlink" viewBox="0 0 976.9 871.7" xmlns:v="https://vecta.io/nano"><path d="M626.3 402.9c7.8 34.1 26.6 66.8 48.5 90.6 37.8 41.2 86.6 75.1 131.8 111.2 15.2 11.9 28.8 10.2 40.5-2.9l31.1-33.4c48.1-51.8 87-105 96.9-178.3 3.4-25.3 3-52.8-10.6-74.3-9.6-15.2-24.8-25.8-40.8-33.5-39.6-19-76.8-1.9-98.6 35.5-9.6 16.4-17 33.9-24.3 48.8-29.3-23.3-54.3-50.2-85.5-68.7-32-19-68.3-8.3-83.6 26.6-10.9 24.6-11.5 51.9-5.4 78.4zm286.4-55.4c13.6 48.7 8.7 98.7-22.4 149.1-6.8 10.7-17.2 21.1-26.5 31.7 29.2-51.2 38.8-100.6 29.3-149-2.5-13.5-8-24.2-16.5-32.4l5.1-39.5c15.6 8 26 21.2 31 40.1z" fill="#ec2d3a"/><path d="M876.5 346.9c8.4 8.2 13.9 18.9 16.5 32.4 9.5 48.4-.1 97.7-29.3 149 9.3-10.6 19.7-20.9 26.5-31.7 31.1-50.4 36.1-100.4 22.4-149.1-5-18.9-15.3-32.1-31.1-40.1l-5 39.5zM750.3 84.1c122.2 62-77.2 375.7-77.2 375.7S350.7 327.4 390.6 198.5 604.3 250 604.3 250s23.8-227.9 146-165.9z" fill="#fffffd"/><path d="M611 342c84.2 75.1-136.3 302.2-136.3 302.2S245 449.6 302.8 356s159.8 48.7 159.8 48.7S526.8 266.9 611 342z" fill="#3960ac"/><g fill="#142333"><use xlink:href="#B"/><path d="M72.6 252.4c4.8 4.3 10.2 7.3 16.3 8.8 6 1.5 11.7 1.4 16.7-1.4 8.1-4.4 13.7-16.9 10.4-28.2-.8-2.7-2-5.2-3.6-7.5-2.1-2.9-4.8-5.3-8.2-7.3-5.7-3.3-11.6-4.7-17.8-5.2-5.8-.5-10.8.6-14.9 3.9-2.5 2-4.4 4.4-5.6 7-1.9 3.9-2.4 8.2-2.1 12.1 1.4 8.1 4.3 13.7 8.8 17.8z"/><use xlink:href="#C"/><path d="M27.3 779.5c5.2 1.6 9.7 4.2 13.4 7.7 3.7 3.6 6 7.5 6.2 12 .3 7.3-6.4 15.9-16 18-1.6.4-3.3.5-4.9.5-3.7 0-7.3-1-10.9-2.9-4.8-2.6-8.4-6.2-11.4-10.1C.8 801-.5 797.1.1 793c.5-3.2 1.8-5.8 3.7-7.9s4.3-3.7 6.8-4.8c6.5-2.2 11.8-2.4 16.7-.8z"/><use xlink:href="#D"/><use xlink:href="#E"/><use xlink:href="#F"/></g><use xlink:href="#B" y="-26.5" fill="#f57e2d"/><path d="M72.6 225.8c4.8 4.3 10.2 7.3 16.3 8.8 6 1.5 11.7 1.4 16.7-1.4 8.1-4.4 13.7-16.9 10.4-28.2-.8-2.7-2-5.2-3.6-7.5-2.1-2.9-4.8-5.3-8.2-7.3-5.7-3.3-11.6-4.7-17.8-5.2-5.8-.5-10.8.6-14.9 3.9-2.5 2-4.4 4.4-5.6 7-1.9 3.9-2.4 8.2-2.1 12.1 1.4 8.2 4.3 13.8 8.8 17.8z" fill="#3960ac"/><use xlink:href="#C" y="-26.5" fill="#ef3b24"/><path d="M27.3 753c5.2 1.6 9.7 4.2 13.4 7.7 3.7 3.6 6 7.5 6.2 12 .3 7.3-6.4 15.9-16 18-1.6.4-3.3.5-4.9.5-3.7 0-7.3-1-10.9-2.9-4.8-2.6-8.4-6.2-11.4-10.1-2.9-3.7-4.2-7.6-3.6-11.7.5-3.2 1.8-5.8 3.7-7.9s4.3-3.7 6.8-4.8c6.5-2.2 11.8-2.4 16.7-.8z" fill="#f57e2d"/><use xlink:href="#D" y="-26.5" fill="#fffffd"/><use xlink:href="#E" y="-26.5" fill="#ef3b24"/><use xlink:href="#F" y="-26.5" fill="#f57e2d"/><defs ><path id="B" d="M240.7 63.6c3.6 3.7 7.7 6.4 12.3 7.9s9 1.6 12.9-.4c6.3-3.3 10.8-13.2 8.5-22.5-.4-1.6-.9-3.1-1.6-4.5-1.6-3.2-3.9-5.9-7.1-8-4.3-2.9-8.8-4.3-13.5-5-4.4-.7-8.3 0-11.5 2.5-2.5 1.9-4.1 4.4-5.1 7-1 2.7-1.3 5.5-1.2 8.2.8 6.6 2.9 11.3 6.3 14.8z"/><path id="C" d="M562.2 59.8c5.1-7.7 7.9-15.2 9.1-20.7 1.2-6.6.8-10.2-1-11.5-1.9-1.5-4.5-1.5-7.8.1s-6.8 4.6-10.5 9.5c-2.2 2.9-4.3 6.5-6.3 10.4-3.5 6.9-6.2 14.5-6.5 19.9-.3 4.7.9 7.1 3.7 7.2 2 .1 4.2-.9 6.7-2.4a21.11 21.11 0 0 0 2.7-1.8c3.4-2.3 6.7-5.8 9.9-10.7z"/><path id="D" d="M93.4 540c6.3 2.5 11.8 6.1 16.3 11s7.2 10.2 7.3 16c.1 9.5-8.3 20.3-20.2 22.3-2.9.5-5.8.5-8.6.1-3.7-.6-7.3-2-10.8-4.2-5.9-3.7-10.2-8.6-13.8-14-3.4-5.1-5-10.2-4.1-15.4.5-3.3 1.8-6 3.4-8.3 2.6-3.5 6.2-5.9 9.9-7.4 8-2.6 14.6-2.4 20.6-.1z"/><path id="E" d="M353.5 778.3c.4 7.2-2.3 12.4-5.7 15.6-4.4 3.6-8.3 4.7-12.3 3.9-4.2-.9-8-3-11.5-6.2-3.4-3.3-5.9-7.3-6.8-12.2-.5-2.9-.4-6.1.3-9.2 1.3-5.6 4.3-10.8 8.8-13.3 3.9-2.1 8-2.2 12.3 0 3 1.5 5.5 3.7 7.8 6.3.8.9 1.6 1.9 2.4 2.9 2.8 3.7 4.5 7.7 4.7 12.2z"/><path id="F" d="M732.5 859.6c4.9 5 10.4 8.6 16.7 10.6s12.2 2.2 17.4-.6c8.6-4.4 14.7-17.8 11.6-30.4-.5-2.1-1.3-4.1-2.2-6-2.1-4.3-5.3-7.9-9.6-10.8-5.8-3.9-11.9-5.8-18.3-6.7-6-.9-11.3 0-15.6 3.4-3.4 2.6-5.6 5.9-7 9.4-1.4 3.6-1.8 7.4-1.6 11.1 1.1 8.9 4 15.3 8.6 20z"/></defs></svg>