<svg xmlns="http://www.w3.org/2000/svg" viewBox="0 0 43.04 47.53" fill="#5EB258"><path d="M21.52 47.53a1 1 0 0 1-.49-.14A43.93 43.93 0 0 1 0 10.13v-.66a.91.91 0 0 1 .91-.91 7.85 7.85 0 0 0 8-7.65.91.91 0 0 1 .94-.91H33.2a.91.91 0 0 1 .91.91 7.85 7.85 0 0 0 8 7.65.91.91 0 0 1 .91.91v.66a43.38 43.38 0 0 1-.91 8.8 43.93 43.93 0 0 1-12.7 22.69 46.24 46.24 0 0 1-7.4 5.77 1 1 0 0 1-.48.14zm-19.7-37.2a42.08 42.08 0 0 0 19.69 35.19 44.31 44.31 0 0 0 6.64-5.23 42.07 42.07 0 0 0 12.18-21.75 41.09 41.09 0 0 0 .87-8.21 9.68 9.68 0 0 1-8.89-8.51h-21.6a9.68 9.68 0 0 1-8.89 8.51zM6 31a.88.88 0 0 1-.79-.46.92.92 0 0 1 .34-1.25l36.12-20.6a.92.92 0 0 1 1.25.32.9.9 0 0 1-.34 1.24L6.43 30.9A.92.92 0 0 1 6 31z"/></svg>