<svg xmlns="http://www.w3.org/2000/svg" viewBox="0 0 17.15 16.64" fill="#5EB258"><path d="M8.57 10.6a2.31 2.31 0 0 1-2.3-2.3 2.3 2.3 0 1 1 4.6 0c.01 1.26-1.02 2.3-2.3 2.3zm0-3.9a1.59 1.59 0 0 0-1.6 1.6c0 .88.72 1.6 1.6 1.6s1.6-.72 1.6-1.6a1.6 1.6 0 0 0-1.61-1.6zm0-2.77c-1.08 0-1.97-.88-1.97-1.96A1.98 1.98 0 0 1 8.57 0c1.08 0 1.97.88 1.97 1.96a1.97 1.97 0 0 1-1.97 1.97zm0-3.24c-.7 0-1.28.57-1.28 1.28 0 .7.57 1.28 1.28 1.28s1.28-.57 1.28-1.28A1.27 1.27 0 0 0 8.57.69zm6.6 7.97c-1.08 0-1.97-.88-1.97-1.96s.88-1.96 1.97-1.96c1.08 0 1.97.88 1.97 1.96s-.88 1.96-1.97 1.96zm0-3.24c-.7 0-1.28.57-1.28 1.28 0 .7.57 1.28 1.28 1.28s1.28-.57 1.28-1.28-.57-1.28-1.28-1.28zm-3.36 11.22c-1.08 0-1.97-.88-1.97-1.96s.88-1.96 1.97-1.96 1.97.88 1.97 1.96a1.98 1.98 0 0 1-1.97 1.96zm0-3.25c-.7 0-1.28.57-1.28 1.28 0 .7.57 1.28 1.28 1.28s1.28-.57 1.28-1.28c0-.7-.57-1.28-1.28-1.28z"/><path d="M5.2 16.64c-1.08 0-1.97-.88-1.97-1.96s.88-1.96 1.97-1.96 1.97.88 1.97 1.96-.88 1.96-1.97 1.96zm0-3.25c-.7 0-1.28.57-1.28 1.28 0 .7.57 1.28 1.28 1.28s1.28-.57 1.28-1.28c0-.7-.57-1.28-1.28-1.28zM1.97 8.66C.88 8.66 0 7.78 0 6.7a1.93 1.93 0 0 1 .1-.63c.06-.18.26-.28.43-.22.18.06.28.26.2.43-.03.14-.05.28-.05.42 0 .7.57 1.28 1.28 1.28s1.3-.58 1.3-1.28c0-.62-.44-1.15-1.05-1.26-.2-.03-.3-.2-.28-.4s.2-.3.4-.28c.93.17 1.6.98 1.6 1.94 0 1.08-.88 1.96-1.96 1.96zm-.9-2.96a.35.35 0 0 1-.24-.1c-.07-.07-.1-.15-.1-.24a.35.35 0 0 1 .1-.24c.12-.13.36-.13.48 0a.31.31 0 0 1 .1.24.31.31 0 0 1-.1.24.35.35 0 0 1-.24.1zM8.5 6.72c-.2 0-.24-.15-.24-.34v-2.8c0-.2.06-.34.24-.34s.24.15.24.34v2.8c0 .2-.05.35-.24.35z"/><path d="M10.52 8.66c-.14 0-.27-.08-.32-.22-.06-.18.03-.38.2-.44l3.1-1.17c.18-.07.37.02.44.2s-.02.37-.2.44l-3.1 1.17c-.04.01-.08.02-.12.02zm-3.9 0c-.03 0-.06 0-.1-.01L3.3 7.78c-.18-.05-.3-.24-.24-.42s.24-.3.42-.24L6.7 8a.33.33 0 0 1 .25.42c-.04.15-.18.25-.33.25zm-.73 4.9a.4.4 0 0 1-.15-.03.35.35 0 0 1-.16-.46l1.56-3.3c.08-.17.28-.24.46-.16a.35.35 0 0 1 .16.46l-1.56 3.3c-.06.1-.18.2-.3.2zm5.24 0c-.13 0-.26-.08-.3-.2l-1.44-3.3c-.08-.17 0-.38.18-.45.17-.08.38 0 .45.18l1.44 3.3c.08.17 0 .38-.18.45-.05.02-.1.03-.14.03z"/></svg>