<svg xmlns="http://www.w3.org/2000/svg" viewBox="0 0 47.53 34.24" fill="#5eb258"><path d="M23.77,0A23.79,23.79,0,0,0,0,23.77a.91.91,0,0,0,.91.91H5.45a.92.92,0,1,0,0-1.83H1.85A21.78,21.78,0,0,1,7.2,9.41L10,12.22a.92.92,0,0,0,1.3-1.29L8.45,8.08a21.85,21.85,0,0,1,14.4-6.23v3.6a.92.92,0,1,0,1.83,0V1.85a21.85,21.85,0,0,1,14.4,6.23l-2.85,2.85a.91.91,0,0,0,0,1.29.89.89,0,0,0,.64.27.91.91,0,0,0,.65-.27l2.81-2.81a21.78,21.78,0,0,1,5.35,13.44H41.61a.92.92,0,1,0,0,1.83h4.53a.93.93,0,0,0,.24-.05.93.93,0,0,0,.24.05.91.91,0,0,0,.91-.91A23.79,23.79,0,0,0,23.77,0Z"/><path class="cls-1" d="M27.83,17.37l-.19-1.66a.92.92,0,0,0-1.71-.35l-.82,1.46a28.19,28.19,0,0,0-3.57,11.37,3.39,3.39,0,0,0-1.28,2.56,3.41,3.41,0,0,0,3.41,3.49,3.49,3.49,0,0,0,1.63-.41,3.38,3.38,0,0,0,1.36-4.6A28.35,28.35,0,0,0,27.83,17.37ZM24.82,29a.93.93,0,0,0,.1.92,1.53,1.53,0,0,1,.29,1.25,1.58,1.58,0,0,1-2.14,1.15,1.57,1.57,0,0,1-.19-2.82.87.87,0,0,0,.45-.77,26.68,26.68,0,0,1,2.79-9.92A26.46,26.46,0,0,1,24.82,29Z"/></svg>