<svg xmlns="http://www.w3.org/2000/svg" viewBox="0 0 17.15 15.83" fill="#5EB258"><path d="M15.74 2.5c-.1 0-.2-.05-.28-.14-.68-.9-1.62-1.5-2.64-1.64-.73-.1-1.47.01-2.14.32-.17.08-.38.01-.46-.16s-.01-.38.16-.46c.8-.37 1.66-.5 2.53-.38 1.2.17 2.3.85 3.1 1.9.1.15.08.37-.07.48-.05.04-.13.07-.2.07z"/><path d="M14.03 10.9a.31.31 0 0 1-.24-.1c-.13-.13-.13-.35 0-.48l1.2-1.2c1.13-1.1 1.67-2.76 1.43-4.46a4.98 4.98 0 0 0-.94-2.3.33.33 0 0 1 .07-.48c.15-.1.37-.08.48.07.56.75.93 1.66 1.07 2.6.27 1.9-.34 3.8-1.63 5.05l-1.18 1.18c-.07.07-.16.1-.25.1zm-1.33 1.3c-.1 0-.17-.04-.24-.1a.31.31 0 0 1-.1-.24.35.35 0 0 1 .1-.24c.13-.13.36-.13.48 0 .07.07.1.15.1.24a.31.31 0 0 1-.1.24.35.35 0 0 1-.24.1zm-4.13 3.63c-.45 0-1.58-.9-6.24-5.57l-.64-.64C.4 8.37-.2 6.48.06 4.57.24 3.3.83 2.13 1.73 1.3c.14-.13.35-.13.48.01s.13.35-.01.48A4.93 4.93 0 0 0 .74 4.67c-.24 1.7.3 3.36 1.43 4.46l.65.65 5.75 5.36c.16-.07.7-.43 2.44-2.1.14-.13.35-.13.5.01.13.14.13.35-.01.5-2.4 2.3-2.72 2.3-2.92 2.3zm0-12.95c-.12 0-.23-.06-.3-.16-.9-1.45-2.4-2.22-3.96-2a3.64 3.64 0 0 0-1.1.36c-.17.08-.38.01-.46-.16-.1-.17-.02-.37.15-.46.42-.2.87-.35 1.33-.42C5.9-.2 7.5.52 8.58 1.93c.5-.65 1.1-1.17 1.82-1.5.17-.08.38-.01.46.16s.01.38-.16.46c-.74.35-1.37.92-1.83 1.67-.07.1-.18.16-.3.16zm0 9.4c-1.46 0-2.64-1.24-2.64-2.7 0-.2.15-.4.34-.4h4.6c.2 0 .34.2.34.4.01 1.46-1.18 2.7-2.64 2.7zm-1.92-2.12c.16.5.96 1.6 1.93 1.6.96 0 1.76-1.12 1.93-1.6H6.65zm.53-3.5c-.12 0-.23-.06-.3-.17a1.2 1.2 0 0 0-1.07-.63c-.44 0-.84.23-1.07.63-.1.16-.3.22-.47.13-.16-.1-.2-.3-.12-.47.34-.6.98-.97 1.66-.97s1.32.37 1.66.97a.33.33 0 0 1-.12.46.31.31 0 0 1-.17.05z"/><path d="M12.7 6.64c-.12 0-.23-.06-.3-.17a1.22 1.22 0 0 0-1.07-.63c-.44 0-.84.23-1.07.63-.1.16-.3.22-.47.13-.15-.1-.2-.3-.12-.47.34-.6.98-.97 1.66-.97s1.32.37 1.66.97c.1.16.04.37-.13.47-.04.02-.1.04-.16.04zm-2.46 4.5H6.58c-.2 0-.34-.06-.34-.24s.15-.24.34-.24h3.65c.2 0 .34.06.34.24s-.15.24-.33.24z"/></svg>