<svg xmlns="http://www.w3.org/2000/svg" viewBox="0 0 47.53 47.53" fill="#5EB258"><path d="M23.77 47.53A23.59 23.59 0 0 1 2.44 34.24a.92.92 0 0 1 .82-1.32H15.6a1.78 1.78 0 0 0 1.78-1.77 1.8 1.8 0 0 0-.53-1.27 1.75 1.75 0 0 0-1.25-.51H11.5a3.61 3.61 0 0 1-3.61-3.6V24.7a3.61 3.61 0 0 1 3.61-3.6h4.36a1.51 1.51 0 0 0 1.5-1.51 3.33 3.33 0 0 1 3.33-3.33h.1a1.72 1.72 0 0 0 1.72-1.73 1.7 1.7 0 0 0-.5-1.21 1.73 1.73 0 0 0-1.22-.51h-6.2a1.34 1.34 0 0 0-1.34 1.35 3.2 3.2 0 0 1-.93 2.25 3.23 3.23 0 0 1-2.24.92h-8a.91.91 0 0 1-.74-.38.94.94 0 0 1-.13-.83A23.77 23.77 0 0 1 46 15.24a.9.9 0 0 1-.1.84.91.91 0 0 1-.75.4H37.5a1.14 1.14 0 0 0-1.13 1.13 3 3 0 0 1-3 3h-4.83a2.33 2.33 0 0 0-2.33 2.33 2.34 2.34 0 0 0 2.33 2.33h2.93a3.62 3.62 0 0 1 0 7.23h-1a1.13 1.13 0 0 0-1.14 1.12 1.08 1.08 0 0 0 .33.79 1.14 1.14 0 0 0 .81.34H43.3a.93.93 0 0 1 .8.47.92.92 0 0 1 0 .92 23.62 23.62 0 0 1-20.32 11.39zm-19-12.78a21.94 21.94 0 0 0 36.81 1.8H30.45a2.94 2.94 0 0 1-2.09-.87 2.88 2.88 0 0 1-.87-2.09 3 3 0 0 1 3-3h1a1.79 1.79 0 0 0 0-3.58h-2.96a4.16 4.16 0 1 1 0-8.31h4.88a1.12 1.12 0 0 0 .8-.34 1.11 1.11 0 0 0 .32-.8 3 3 0 0 1 3-3h6.23a21.95 21.95 0 0 0-40.28.84h6.67a1.35 1.35 0 0 0 1.34-1.34A3.19 3.19 0 0 1 14.62 11h6.2a3.59 3.59 0 0 1 2.51 1 3.56 3.56 0 0 1-2.51 6.07h-.1a1.5 1.5 0 0 0-1.5 1.5 3.34 3.34 0 0 1-3.33 3.33H11.5a1.78 1.78 0 0 0-1.78 1.78v1.08a1.78 1.78 0 0 0 1.78 1.77h4.08a3.57 3.57 0 0 1 2.55 1.05 3.65 3.65 0 0 1 1.06 2.56 3.61 3.61 0 0 1-3.61 3.6zm38.52 1.8H30.45a2.94 2.94 0 0 1-2.09-.87 2.88 2.88 0 0 1-.87-2.09 3 3 0 0 1 3-3h1a1.79 1.79 0 0 0 0-3.58h-2.96a4.16 4.16 0 1 1 0-8.31h4.88a1.12 1.12 0 0 0 .8-.34 1.11 1.11 0 0 0 .32-.8 3 3 0 0 1 3-3h7.57a.9.9 0 0 1 .85.59 23.77 23.77 0 0 1-1.88 20.87.9.9 0 0 1-.78.53zm-12.84-4.08a1.13 1.13 0 0 0-1.14 1.12 1.08 1.08 0 0 0 .33.79 1.14 1.14 0 0 0 .81.34h12.32a22 22 0 0 0 1.69-18.24h-7a1.14 1.14 0 0 0-1.13 1.13 3 3 0 0 1-3 3h-4.8a2.33 2.33 0 0 0-2.33 2.33 2.34 2.34 0 0 0 2.33 2.33h2.93a3.62 3.62 0 0 1 0 7.23zM15.6 34.75H3.26a.93.93 0 0 1-.82-.5 23.8 23.8 0 0 1-1.18-18.14.93.93 0 0 1 .87-.62h8a1.35 1.35 0 0 0 1.34-1.34A3.19 3.19 0 0 1 14.62 11h6.2a3.59 3.59 0 0 1 2.51 1 3.56 3.56 0 0 1-2.51 6.07h-.1a1.5 1.5 0 0 0-1.5 1.5 3.34 3.34 0 0 1-3.33 3.33H11.5a1.78 1.78 0 0 0-1.78 1.78v1.08a1.78 1.78 0 0 0 1.78 1.77h4.08a3.57 3.57 0 0 1 2.55 1.05 3.65 3.65 0 0 1 1.06 2.56 3.61 3.61 0 0 1-3.61 3.61zM3.84 32.92H15.6a1.78 1.78 0 0 0 1.78-1.77 1.8 1.8 0 0 0-.53-1.27 1.75 1.75 0 0 0-1.25-.51H11.5a3.61 3.61 0 0 1-3.61-3.6V24.7a3.61 3.61 0 0 1 3.61-3.6h4.36a1.51 1.51 0 0 0 1.5-1.51 3.33 3.33 0 0 1 3.33-3.33h.1a1.72 1.72 0 0 0 1.72-1.73 1.7 1.7 0 0 0-.5-1.21 1.73 1.73 0 0 0-1.22-.51h-6.2a1.34 1.34 0 0 0-1.34 1.35 3.2 3.2 0 0 1-.93 2.25 3.23 3.23 0 0 1-2.24.92H2.8a22 22 0 0 0 1 15.6z"/></svg>