<svg xmlns="http://www.w3.org/2000/svg" viewBox="0 0 15.68 17.12" fill="#5EB258"><path d="M7.68 17.12c-.1 0-.23-.06-.3-.16a.34.34 0 0 1 .11-.47 16.1 16.1 0 0 0 2.57-2c.14-.13.35-.13.48.01s.13.35-.01.48a16.01 16.01 0 0 1-2.68 2.08.3.3 0 0 1-.18.06z"/><path d="M.6 3.64c.03 5.16 2.74 9.97 7.26 12.8.16.1.2.33.1.5a.37.37 0 0 1-.29.18c-.06 0-.08-.02-.14-.05C2.8 14.1 0 9.07 0 3.63"/><path d="M.3 3.05c1.6 0 2.86-1.2 2.86-2.72 0-.2.13-.33.32-.33h8.4c.2 0 .34.14.34.33 0 1.5 1.4 2.73 3 2.73.2 0 .46.15.46.34v.24c0 1.06-.23 2.13-.45 3.17-.04.2-.28.3-.46.27-.2-.04-.33-.22-.3-.4.2-.97.3-2.04.3-3.02-1.7-.16-3.05-1.2-3.22-3.15H3.8C3.63 2.45 2.3 3.48.6 3.64"/><path d="M10.3 15.08c-.1 0-.18-.04-.25-.1-.13-.14-.13-.35.01-.48 2.24-2.15 3.76-4.85 4.38-7.83.04-.2.22-.3.4-.26s.3.22.27.4c-.65 3.1-2.24 5.94-4.58 8.18-.07.06-.15.1-.24.1zM8.58 9.8h-1.8c-.2 0-.4-.13-.4-.32V7.6c-.5-.34-.5-.8-.5-1.3 0-1 .82-1.8 1.8-1.8s1.74.8 1.74 1.8c0 .5-.1.95-.6 1.28v1.88c0 .2-.05.33-.24.33zm-1.23-.5h.98V7.44c0-.1 0-.2.08-.27.26-.2.4-.52.4-.86a1.11 1.11 0 0 0-1.1-1.1 1.11 1.11 0 0 0-1.1 1.1c0 .34.26.65.53.86.08.07.24.16.24.27V9.3z"/></svg>