<svg xmlns="http://www.w3.org/2000/svg" viewBox="0 0 17.32 14.54" fill="#5EB258"><path d="M15.84 4.92a.31.31 0 0 1-.24-.1.31.31 0 0 1-.1-.24.35.35 0 0 1 .1-.24c.13-.13.36-.13.48 0a.31.31 0 0 1 .1.24.31.31 0 0 1-.1.24.31.31 0 0 1-.24.1zM4.3 10.5h-.76C1.6 10.5 0 8.95 0 7c0-1.6 1.06-2.95 2.57-3.38v-.1C2.57 1.58 4.16 0 6.1 0c1.62 0 3 1.1 3.42 2.63a3.32 3.32 0 0 1 1.4-.3 3.52 3.52 0 0 1 2.63 1.18c.08-.01.16-.01.23-.01a3.37 3.37 0 0 1 1.04.16c.18.06.3.25.23.43s-.25.28-.43.23a2.76 2.76 0 0 0-1.17-.1c-.12.01-.23-.03-.3-.13a2.84 2.84 0 0 0-2.22-1.06 2.8 2.8 0 0 0-1.46.41c-.1.05-.23.06-.33.01a.34.34 0 0 1-.19-.27A2.86 2.86 0 0 0 6.11.69C4.54.7 3.26 1.97 3.26 3.54c0 .1.01.22.02.34a.35.35 0 0 1-.28.38C1.66 4.5.7 5.74.7 7.1.7 8.67 1.97 10 3.54 10h.76c.2 0 .34.06.34.24 0 .2-.15.25-.34.25zm9.48 0h-.76c-.2 0-.34-.06-.34-.24 0-.2.15-.24.34-.24h.76c1.57 0 2.85-1.33 2.85-2.9a2.95 2.95 0 0 0-.24-1.17c-.08-.17 0-.4.18-.46.17-.08.38 0 .45.17.2.45.3.88.3 1.37 0 1.94-1.6 3.47-3.54 3.47zM2 7.27a.33.33 0 0 1-.34-.34c0-1.1.9-1.97 1.97-1.97a.33.33 0 0 1 .34.34c0 .2-.15.34-.34.34a1.31 1.31 0 0 0-1.3 1.3.33.33 0 0 1-.34.34zm6.66 7.27a.43.43 0 0 1-.22-.06 7.92 7.92 0 0 1-3.54-6.6v-.1c0-.2.18-.34.37-.34.6 0 1.13-.45 1.13-1.07 0-.2.17-.28.36-.28h3.8c.2 0 .34.1.34.28 0 .63.44 1.1 1.06 1.1a.27.27 0 0 1 .3.3v.1c0 .52.01 1.05-.1 1.56-.04.2-.2.3-.37.27-.2-.04-.3-.22-.26-.4.08-.4.13-.85.14-1.26-.72-.14-1.28-.5-1.42-1.48h-3.2c-.14.98-.7 1.34-1.43 1.48.06 2.3 1.17 4.4 3.02 5.72.34-.24.65-.5.94-.8.13-.13.35-.13.5 0a.36.36 0 0 1 0 .5 8.69 8.69 0 0 1-1.24 1.03c-.06.03-.12.05-.2.05z"/><path d="M9.85 13.56a.31.31 0 0 1-.24-.1c-.14-.13-.14-.35 0-.5a7.13 7.13 0 0 0 1.94-3.67c.04-.2.22-.3.4-.27.2.04.3.22.27.4a7.9 7.9 0 0 1-2.12 4.02.32.32 0 0 1-.25.11zm-.78-1.36a.31.31 0 0 1-.24-.1c-.14-.13-.14-.35 0-.5a4.91 4.91 0 0 0 1.34-2.54c.04-.2.22-.3.4-.27.2.04.3.22.27.4a5.69 5.69 0 0 1-1.53 2.89c-.06.08-.15.1-.24.1z"/></svg>