<svg xmlns="http://www.w3.org/2000/svg" viewBox="0 0 245.4 244.46" fill="#31afe1" fill-rule="evenodd"><path d="M245.4 124.26c-.8 2.57-2.52 4.45-4.38 6.3q-18.68 18.62-37.28 37.28c-4.48 4.48-9.26 4.47-13.75 0l-38.46-38.5c-4.36-4.37-4.36-9.14 0-13.52q19.32-19.36 38.67-38.7c4.2-4.2 9.12-4.2 13.3 0l37.5 37.5c1.86 1.85 3.6 3.74 4.37 6.3zm-123.57 120.2c-2.55-.82-4.4-2.6-6.25-4.44Q97 221.33 78.34 202.7c-4.45-4.45-4.45-9.2 0-13.64l38.57-38.6c4.27-4.28 9.17-4.3 13.42 0L168.87 189c4.42 4.42 4.43 9.26 0 13.66q-18.78 18.8-37.57 37.64a14.34 14.34 0 0 1-6.12 4.12zm-45.1-152.7l-.08-42.9c-.06-4.14.93-7.37 4.1-10.1 2.54-2.2 4.8-4.74 7.18-7.12q14.1-14.14 28.27-28.3c4.43-4.43 9.2-4.43 13.64 0l38.46 38.5c4.4 4.4 4.4 9.25 0 13.66l-85.67 85.7c-2.48 2.5-4.68 1.9-5.58-1.53a13.73 13.73 0 0 1-.31-3.33v-44.6m-30.67 31v39.4a11 11 0 0 1-.65 3.72c-.88 2.28-2.52 2.56-4.24.84q-9.06-9-18.1-18.1l-20.9-20.94a6.64 6.64 0 0 1 0-9.8Q21.38 98.4 40.62 79c.85-.86 1.65-2 3.1-1.48a3.55 3.55 0 0 1 2.11 3.14 17.41 17.41 0 0 1 .18 2.55v39.53z"/></svg>