<svg xmlns="http://www.w3.org/2000/svg" viewBox="0 0 167.3 238" enable-background="new 0 0 167.3 238"><style type="text/css">.st0{opacity:0.1;fill:#F6A847;}</style><path class="st0" d="M154.9 97v-26.7c0-38.8-31.4-70.3-70.2-70.3h-2c-38.8 0-70.3 31.4-70.3 70.2v26.8c-7.5 3.1-12.4 10.4-12.4 18.5v102.4c0 11.1 9 20.1 20.1 20.1h127.2c11.1 0 20.1-9 20.1-20.1v-102.4c-.1-8.1-5-15.4-12.5-18.5zm-59.6 70.7v20.2c0 6.4-5.2 11.6-11.6 11.6-6.4 0-11.6-5.2-11.6-11.6v-20.2c-8.2-6.4-9.7-18.3-3.3-26.5s18.3-9.7 26.5-3.3 9.7 18.3 3.3 26.5c-1 1.3-2.1 2.3-3.3 3.3zm-59.5-72.3v-25.1c0-25.9 21-46.8 46.8-46.8h2c25.9 0 46.8 21 46.8 46.8v25.2h-95.6z"/></svg>