<svg xmlns="http://www.w3.org/2000/svg" viewBox="0 0 154.7 95" enable-background="new 0 0 154.7 95"><style type="text/css">.st0{fill:#F54997;}</style><desc id="desc4">Created by HiQPdf</desc><path id="path3068" d="M82.8 23.8c0 4-5 3.8-5 3.8h-5v-7.2h5c5.1-.1 5 3.4 5 3.4m-10-14.5h3.8c3.9.2 3.8 3.1 3.8 3.1 0 3.6-4.4 3.7-4.4 3.7h-3.2v-6.8zm9.1 8.3s3.4-1.5 3.4-5.3c0 0 .5-6.3-7.9-7.1h-9.3v26.5h10.6s8.9 0 8.9-7.5c0 0 .2-5.1-5.7-6.6m-24.1-17.6h39.1v36.8h-39.1v-36.8zm-20.1 23.8c0 4-5 3.8-5 3.8h-5v-7.2h5c5.1-.1 5 3.4 5 3.4m-10-14.5h3.8c3.9.2 3.8 3.1 3.8 3.1 0 3.6-4.4 3.7-4.4 3.7h-3.2v-6.8zm9.1 8.3s3.4-1.5 3.4-5.3c0 0 .5-6.3-7.9-7.1h-9.3v26.5h10.6s8.9 0 8.9-7.5c0 0 .3-5.1-5.7-6.6m-24.1-17.6h39.1v36.8h-39.1v-36.8zm121.3 7.1v4.9s-4.8-2.9-10.1-3c0 0-9.8-.2-10.3 9.4 0 0-.4 8.9 10.2 9.4 0 0 4.4.5 10.4-3.3v5.1s-8 4.8-17.3 1.1c0 0-7.8-2.9-8.1-12.2 0 0-.3-9.6 10.1-12.8 0 0 2.8-1.1 7.8-.6 0-.1 3 .2 7.3 2m-31.1 29.7h39.1v-36.8h-39.1v36.8z"/><g id="g4"><path id="path6" class="st0" d="M109.164 59.392l1.952-4.879h-9.34l-5.576 17.982h-.139l-5.994-17.982h-10.176l1.394 3.346h-.139c-2.37-2.927-6.273-4.043-10.594-4.043-4.043 0-6.134.558-9.618 1.533 0 0-2.091 6.412-2.23 6.691s.139.697.558.418c2.37-1.115 5.437-2.37 9.34-2.37 3.346 0 6.134.976 6.273 4.74-1.255-.279-2.927-.418-4.321-.418-4.043 0-10.455.697-12.964 5.158h-.139v-24.673h-9.34v8.782h-.139c-1.812-5.715-6.97-8.782-16.17-8.782h-11.709v9.897l4.043 7.667c.558.558.697 1.255 0 1.952l-4.043 7.806v9.897h9.758v-11.849h3.764c7.527 0 12.546-3.485 14.079-8.921h.139v20.77h9.34v-3.903h.139c1.673 3.067 5.297 4.321 9.2 4.461 4.74.139 7.388-2.23 8.364-2.927.279-.139.418-.279.418 0 0 .836.139 1.673.139 2.23h8.643c-.418-2.23-.558-4.321-.558-6.552v-10.315c0-.558 0-1.115-.139-1.673h.139l7.527 19.098s-1.255 4.321-5.158 4.321c-1.673 0-2.649-.279-4.043-.976-.279-.139-.418 0-.558.279l-2.23 6.97c1.394.697 4.74 1.812 8.364 1.812 7.946 0 11.431-8.782 13.8-14.916l5.715-14.637h.139c-.139.836-.139 1.673-.139 2.649 0 9.061 6.831 14.497 15.891 14.497 2.788 0 5.715-.558 8.085-1.394 0 0 1.952-5.715 2.37-6.97.139-.418-.279-.697-.558-.418-2.37 1.255-5.018 2.509-8.085 2.509-4.6 0-7.527-1.533-7.946-5.297h18.261v11.012h9.34v-11.709c0-5.994 3.206-8.643 6.831-8.643.836 0 1.533.279 1.533.279l2.091-7.249c0-.279 0-.418-.279-.558-.836-.139-1.812-.279-2.788-.279-4.043 0-6.97 2.23-8.643 5.715h-.139v-5.018h-8.503v9.061h-.139c-1.533-5.576-5.437-9.618-12.964-9.618-5.158 0-9.479 1.952-12.128 5.437zm-76.808 3.764h-2.509v-11.152h2.509c3.346 0 5.994 1.812 5.994 5.576 0 3.903-2.649 5.576-5.994 5.576m36.522 13.243c-2.23 0-3.903-1.115-3.903-3.067 0-2.649 2.509-3.624 5.715-3.624 1.394 0 2.788.139 3.903.139.139 3.206-2.091 6.552-5.715 6.552m47.117-10.734c.139-3.206 1.812-5.715 5.158-5.715 3.764 0 5.158 2.649 5.158 5.715h-10.315z"/><path id="path8" class="st0" d="M9.216 44.895h-9.2v9.34h9.2v-3.903l14.916 13.103-14.916 13.243v-17.843h-9.2v23.279h9.2l20.631-18.679"/></g></svg>