<svg xmlns="http://www.w3.org/2000/svg" viewBox="0 0 245.1 34.1"><path d="M28.3 25.9c0 .6-.1 1-.2 1.1-.1.2-.5.3-1.1.2h-2.4v.2c-.1 1.1-.1 4.1-.2 5.1-.1.7-.3 1-.5 1.1s-.5.1-.9.1h-4.6l-2.7-3h-2.4l-2.8 2.9H5.3c-.5 0-.7-.2-.8-.4s-.1-.5-.1-.6l-.3-5.3H1.7c-.6 0-.9-.1-1.1-.3s-.2-.6-.2-1.2v-9.6c0-1.2 1-2.1 2.1-2.1h1.6v-1.5A10.18 10.18 0 0 1 14.3 2.4c5.6 0 10.2 4.5 10.2 10.1V14h1.6c1.2 0 2.1 1 2.1 2.1v9.8h.1z" fill="#4cb649" stroke="#359335" stroke-width=".75" stroke-miterlimit="10"/><path d="M24.2 14.9V27H4.4V14.9h-.3v12.4h.3v.4h19.8v-.4h.4V14.9h-.4z" fill="#118011"/><linearGradient id="A" gradientUnits="userSpaceOnUse" x1="14.075" y1="18.831" x2="14.075" y2="16.467"><stop offset="0" stop-color="#4cb649"/><stop offset="1" stop-color="#78b280"/></linearGradient><path d="M21.2 17.5c0 .7-3.2 1.3-7.1 1.3S7 18.2 7 17.5s3.2-1.3 7.1-1.3c4 0 7.1.6 7.1 1.3z" fill="url(#A)"/><path d="M20.8,14.2v-1.9c0-3.6-2.9-6.5-6.5-6.5s-6.5,2.9-6.5,6.5v1.9H20.8z" fill="#fff"/><radialGradient id="B" cx="14.503" cy="-159.388" r="2.702" gradientTransform="matrix(1 0 0 -1 0 -146.7733)" gradientUnits="userSpaceOnUse"><stop offset="0"/><stop offset=".19" stop-color="#030303"/><stop offset=".324" stop-color="#0c0c0c"/><stop offset=".44" stop-color="#1c1c1c"/><stop offset=".546" stop-color="#323232"/><stop offset=".646" stop-color="#4e4e4e"/><stop offset=".74" stop-color="#717171"/><stop offset=".831" stop-color="#9a9a9a"/><stop offset=".916" stop-color="#c9c9c9"/><stop offset=".999" stop-color="#fefefe"/><stop offset="1" stop-color="#fff"/></radialGradient><path d="M11.6 12.2h5.8v.7h-5.8v-.7z" fill="url(#B)"/><path d="M13.3 9.4c0 .7-.5 1.2-1.2 1.2s-1.2-.5-1.2-1.2.5-1.2 1.2-1.2 1.2.5 1.2 1.2zm4.3 0c0 .7-.5 1.2-1.2 1.2s-1.2-.5-1.2-1.2.5-1.2 1.2-1.2 1.2.5 1.2 1.2z"/><path d="M12 21.4h4.3v3.2H12v-3.2zm.6-.3c.2-.7.8-1.2 1.5-1.2s1.3.5 1.5 1.2h.5c-.2-1-1-1.7-2-1.7s-1.8.7-2 1.7h.5z" fill="#fff"/><path d="M27.3 27.9h.3v-.4h-2.8l-.1 2.5h.4l.1-2.2h2.1v.1z" fill="#118011"/><linearGradient id="C" gradientUnits="userSpaceOnUse" x1="23.892" y1="26.451" x2="26.514" y2="29.198"><stop offset="0" stop-color="#23ff16"/><stop offset="1" stop-color="#189a33"/></linearGradient><path d="M27.6 28.1v-.2h-2.4l-.1 2.2h.5c1.1 0 2-.9 2-2z" fill="url(#C)"/><path d="M3.7 27.6H1.6c-.3 0-.6 0-.8-.1v.4h2.5l.1 2.2h.4l-.1-2.5z" fill="#118011"/><linearGradient id="D" gradientUnits="userSpaceOnUse" x1="5.528" y1="25.435" x2="1.533" y2="29.867"><stop offset="0" stop-color="#23ff16"/><stop offset="1" stop-color="#189a33"/></linearGradient><path d="M1.3 28H.9v.2c0 1.1.9 2 2 2h.7L3.4 28H1.3z" fill="url(#D)"/><path d="M38.9 6.3c-1.1 0-2.1.4-2.8 1.3L36 6.5h-2.7v15.3h2.9v-5.2c.7.8 1.6 1.2 2.7 1.2 1.3 0 2.4-.5 3.1-1.5.8-1 1.2-2.4 1.2-4.1V12c0-1.8-.4-3.1-1.1-4.2-.8-1-1.9-1.5-3.2-1.5zm-.8 9.1c-.9 0-1.6-.4-1.9-1.1V9.8c.3-.7 1-1.1 1.9-1.1.7 0 1.2.3 1.6.8.4.6.5 1.4.5 2.4 0 2.3-.7 3.5-2.1 3.5zm10.1-7.6l-.1-1.3h-2.8v11h2.9v-7.2c.3-.8 1.1-1.1 2.2-1.1.3 0 .7 0 1.1.1V6.5c-.3-.1-.6-.1-.9-.1-1-.1-1.9.4-2.4 1.4zm6.6-5.7c-.5 0-.9.1-1.2.4s-.4.6-.4 1.1c0 .4.2.8.5 1.1s.7.4 1.2.4.9-.1 1.2-.4.5-.7.5-1.1-.1-.8-.4-1.1c-.5-.2-.9-.4-1.4-.4zm-1.4 4.4h3v11h-3v-11zm9.8 7.4l-2.1-7.4h-3l3.7 11h2.8l3.7-11h-3.1l-2 7.4zm15.5-3.7c0-1.2-.4-2.2-1.2-2.9s-1.9-1-3.2-1c-.9 0-1.7.2-2.4.5-.8.3-1.4.7-1.8 1.2s-.6 1.1-.6 1.8h2.9c0-.4.1-.7.4-1 .3-.2.7-.4 1.2-.4.6 0 1 .2 1.2.5.3.3.4.7.4 1.2v.6h-1.4c-1.6 0-2.9.3-3.8.9s-1.3 1.5-1.3 2.7c0 1 .4 1.7 1.1 2.4.7.6 1.6.9 2.7.9s2.1-.4 2.8-1.2l.3 1h3v-.2c-.3-.5-.4-1.3-.4-2.4v-4.6h.1zm-3 4.2c-.2.3-.4.6-.8.8s-.8.3-1.2.3-.8-.1-1.1-.4c-.3-.2-.4-.5-.4-.9V14c.1-1 .9-1.5 2.4-1.5h1.1v1.9zm9.3.6c-.2-.2-.2-.5-.2-.9V8.7h1.9V6.5h-1.9V3.8h-2.9v2.7h-1.6v2.2h1.6v5.9c0 2.1 1.1 3.1 3.2 3.1.6 0 1.2-.1 1.8-.3v-2.2c-.3 0-.5.1-.9.1-.5 0-.8-.1-1-.3zm8.3-8.7c-1 0-1.9.2-2.7.7s-1.4 1.1-1.8 2-.6 1.9-.6 3v.3c0 1.6.5 3 1.5 4s2.3 1.5 3.9 1.5c.9 0 1.8-.2 2.5-.5.8-.3 1.4-.8 1.8-1.5l-1.4-1.6c-.6.8-1.5 1.2-2.7 1.2-.7 0-1.3-.2-1.8-.7-.5-.4-.8-1-.9-1.7h7v-1.2c0-1.7-.4-3.1-1.3-4-.8-1-1.9-1.5-3.5-1.5zm2 4.7h-4.1c.1-.7.3-1.3.7-1.7s.8-.6 1.4-.6 1.1.2 1.4.5c.3.4.5.9.5 1.5l.1.3zm5.5-4.5h1.2v11h-1.2v-11zm.6-4c-.3 0-.5.1-.6.2-.1.2-.2.4-.2.6s.1.4.2.6.4.2.6.2c.3 0 .5-.1.6-.2.2-.2.2-.3.2-.6 0-.2-.1-.4-.2-.6-.1-.1-.3-.2-.6-.2zm9 3.8c-.7 0-1.4.2-2 .5a4.63 4.63 0 0 0-1.5 1.6V6.5h-1.2v11h1.2V10c.3-.8.7-1.4 1.3-1.9s1.2-.7 2-.7c.9 0 1.6.2 2 .7s.6 1.2.6 2.2v7.2h1.2v-7.2c0-1.3-.3-2.3-.9-3s-1.5-1-2.7-1zm10.3 10.4c-.5 0-.9-.1-1.1-.4s-.3-.8-.3-1.4V7.5h2.3v-1h-2.3V3.7h-1.2v2.8h-2v1h2v7.4c0 .9.2 1.7.6 2.1.4.5 1 .7 1.8.7a4.44 4.44 0 0 0 1.3-.2l-.1-1-1 .2zm7.7-10.4c-.9 0-1.6.2-2.4.7a5.51 5.51 0 0 0-1.7 2c-.4.8-.6 1.8-.6 2.9v.4a6.71 6.71 0 0 0 .6 2.8c.4.8 1 1.5 1.8 1.9.8.5 1.6.7 2.5.7 1.7 0 3-.6 3.9-1.9l-.8-.6c-.4.5-.9.9-1.4 1.1s-1.1.4-1.7.4c-1.1 0-2-.4-2.7-1.2s-1.1-1.9-1.1-3.1v-.2h7.9v-.7c0-1.6-.4-2.8-1.2-3.7-.7-1-1.7-1.5-3.1-1.5zm3.2 4.8H125c.1-1.1.5-2 1.1-2.7s1.4-1 2.3-1 1.7.3 2.2 1c.6.7.9 1.5.9 2.6v.1h.1zm5.1-2.8V6.5h-1.2v11h1.2V10c.2-.8.6-1.4 1.1-1.8s1.2-.6 1.9-.6c.3 0 .6 0 .8.1V6.6c-.2-.1-.5-.1-.8-.1-1.3-.2-2.4.5-3 1.8zm10.9-2c-.7 0-1.4.2-2 .5a4.63 4.63 0 0 0-1.5 1.6V6.5h-1.2v11h1.2V10c.3-.8.7-1.4 1.3-1.9s1.2-.7 2-.7c.9 0 1.6.2 2 .7s.6 1.2.6 2.2v7.2h1.2v-7.2c0-1.3-.3-2.3-.9-3s-1.5-1-2.7-1h0zm11 0c-.9 0-1.6.2-2.4.7a5.51 5.51 0 0 0-1.7 2c-.4.8-.6 1.8-.6 2.9v.4a6.71 6.71 0 0 0 .6 2.8c.4.8 1 1.5 1.8 1.9.8.5 1.6.7 2.5.7 1.7 0 3-.6 3.9-1.9l-.8-.6c-.4.5-.9.9-1.4 1.1s-1.1.4-1.7.4c-1.1 0-2-.4-2.7-1.2s-1.1-1.9-1.1-3.1v-.2h7.9v-.7c0-1.6-.4-2.8-1.2-3.7-.7-1-1.7-1.5-3.1-1.5zm3.2 4.8h-6.6c.1-1.1.5-2 1.1-2.7s1.4-1 2.3-1 1.7.3 2.2 1c.6.7.9 1.5.9 2.6v.1h.1zm7.2 5.6c-.5 0-.9-.1-1.1-.4s-.3-.8-.3-1.4V7.5h2.3v-1h-2.3V3.7h-1.2v2.8h-2v1h2v7.4c0 .9.2 1.7.6 2.1.4.5 1 .7 1.8.7a4.44 4.44 0 0 0 1.3-.2l-.1-1-1 .2zm11.6-6.9c0-1.1-.4-2-1.1-2.6s-1.7-.9-2.9-.9-2.2.3-3 1c-.8.6-1.2 1.4-1.2 2.3h1.2c0-.6.3-1.1.8-1.6.6-.4 1.3-.7 2.1-.7.9 0 1.6.2 2.1.7s.7 1.1.7 1.9v1.3h-2.2c-1.6 0-2.8.3-3.7.9s-1.3 1.5-1.3 2.5c0 .9.3 1.6 1 2.2s1.5.9 2.6.9c.7 0 1.4-.2 2.1-.5s1.2-.7 1.6-1.3c0 .7.1 1.2.2 1.5h1.3v-.1c-.2-.5-.3-1.3-.3-2.4V9.8zm-1.2 4.7c-.3.7-.8 1.2-1.4 1.6s-1.4.6-2.2.6c-.7 0-1.3-.2-1.8-.6s-.7-.9-.7-1.5c0-.8.3-1.3 1-1.8.7-.4 1.6-.7 2.9-.7h2.2v2.4zm6.3-6c.6-.8 1.5-1.2 2.6-1.2.9 0 1.6.3 2.1.8.6.5.9 1.2.9 2.1h1.2c-.1-1.2-.5-2.1-1.3-2.8s-1.8-1.1-3-1.1c-1 0-1.8.2-2.5.7s-1.3 1.1-1.6 1.9c-.4.8-.6 1.8-.6 2.9v.4c0 1.7.4 3 1.3 4.1.8 1 2 1.5 3.4 1.5.7 0 1.4-.2 2.1-.5.6-.3 1.2-.7 1.5-1.3.4-.6.6-1.2.6-1.8h-1.2c0 .8-.4 1.4-.9 1.9-.6.5-1.3.7-2.1.7-1.1 0-2-.4-2.6-1.2s-.9-1.9-.9-3.3v-.4c.1-1.5.4-2.6 1-3.4zm11 0c.6-.8 1.5-1.2 2.6-1.2.9 0 1.6.3 2.1.8.6.5.9 1.2.9 2.1h1.2c-.1-1.2-.5-2.1-1.3-2.8s-1.8-1.1-3-1.1c-1 0-1.8.2-2.5.7s-1.3 1.1-1.6 1.9c-.4.8-.6 1.8-.6 2.9v.4c0 1.7.4 3 1.3 4.1.8 1 2 1.5 3.4 1.5.7 0 1.4-.2 2.1-.5.6-.3 1.2-.7 1.5-1.3.4-.6.6-1.2.6-1.8h-1.2c0 .8-.4 1.4-.9 1.9-.6.5-1.3.7-2.1.7-1.1 0-2-.4-2.6-1.2s-.9-1.9-.9-3.3v-.4c.1-1.5.4-2.6 1-3.4zm13.6-2.2c-.9 0-1.6.2-2.4.7a5.51 5.51 0 0 0-1.7 2c-.4.8-.6 1.8-.6 2.9v.4a6.71 6.71 0 0 0 .6 2.8c.4.8 1 1.5 1.8 1.9.8.5 1.6.7 2.5.7 1.7 0 3-.6 3.9-1.9l-.8-.6c-.4.5-.9.9-1.4 1.1s-1.1.4-1.7.4c-1.1 0-2-.4-2.7-1.2s-1.1-1.9-1.1-3.1v-.2h7.9v-.7c0-1.6-.4-2.8-1.2-3.7-.7-1-1.7-1.5-3.1-1.5zm3.2 4.8h-6.6c.1-1.1.5-2 1.1-2.7s1.4-1 2.3-1 1.7.3 2.2 1c.6.7.9 1.5.9 2.6v.1h.1zm10.1 1.1c-.5-.3-1.3-.6-2.4-.8-1.1-.3-1.8-.5-2.2-.8s-.6-.7-.6-1.3.2-1 .7-1.4 1.1-.5 1.9-.5 1.5.2 2 .6.8 1 .8 1.6h1.2a3.04 3.04 0 0 0-1.1-2.4c-.7-.6-1.7-.9-3-.9-1.1 0-2.1.3-2.8.9S217 8.5 217 9.4c0 .5.1 1 .4 1.4s.7.7 1.2 1 1.3.5 2.3.7 1.7.5 2.2.9.7.9.7 1.5-.3 1-.8 1.4-1.2.6-2.1.6-1.6-.2-2.2-.6-.9-1-.9-1.7h-1.2c0 1 .4 1.7 1.2 2.4.8.6 1.8.9 3.1.9 1.2 0 2.2-.3 2.9-.8.8-.6 1.1-1.3 1.1-2.2 0-.6-.1-1.1-.4-1.5 0-.6-.4-.9-.9-1.2h0zm10.9 0c-.5-.3-1.3-.6-2.4-.8-1.1-.3-1.8-.5-2.2-.8s-.6-.7-.6-1.3.2-1 .7-1.4 1.1-.5 1.9-.5 1.5.2 2 .6.8 1 .8 1.6h1.2a3.04 3.04 0 0 0-1.1-2.4c-.7-.6-1.7-.9-3-.9-1.1 0-2.1.3-2.8.9s-1.1 1.3-1.1 2.2c0 .5.1 1 .4 1.4s.7.7 1.2 1 1.3.5 2.3.7 1.7.5 2.2.9.7.9.7 1.5-.3 1-.8 1.4-1.2.6-2.1.6-1.6-.2-2.2-.6-.9-1-.9-1.7h-1.2c0 1 .4 1.7 1.2 2.4.8.6 1.8.9 3.1.9 1.2 0 2.2-.3 2.9-.8.8-.6 1.1-1.3 1.1-2.2 0-.6-.1-1.1-.4-1.5 0-.6-.4-.9-.9-1.2h0zm8.2-9c.1-.1.2-.3.2-.5 0-.3-.1-.6-.3-.7-.2-.2-.5-.2-.8-.2h-1.1V5h.4V3.7h.8l.7 1.3h.5l-.8-1.4c.1-.1.3-.2.4-.4h0zm-1 .1h-.6V2.1h.7c.2 0 .4.1.5.2s.2.3.2.5-.1.3-.2.4c-.2.1-.3.1-.6.1h0zm0-3.3a3.37 3.37 0 0 0-3.4 3.4 3.37 3.37 0 1 0 6.8 0 3.37 3.37 0 0 0-3.4-3.4zm0 6.3c-1.6 0-2.9-1.3-2.9-2.9s1.3-2.9 2.9-2.9 2.9 1.3 2.9 2.9-1.3 2.9-2.9 2.9z" fill="#fff"/><path d="M122.6 27.1c0-.6-.2-1.1-.6-1.5s-1-.5-1.7-.5c-.5 0-.9.1-1.3.3s-.7.4-.9.7-.3.6-.3.9h1.1c0-.3.1-.5.4-.7a1.69 1.69 0 0 1 1-.3c.4 0 .8.1 1 .3s.3.5.3.9v.5h-1c-.9 0-1.6.2-2.1.5-.5.4-.7.9-.7 1.5 0 .5.2 1 .6 1.3s.9.5 1.5.5c.7 0 1.3-.3 1.8-.8 0 .3.1.5.2.7h1.1v-.1c-.1-.3-.2-.8-.2-1.4v-2.8h-.2zm-1.1 2.6c-.1.3-.4.5-.7.7a1.69 1.69 0 0 1-1 .3c-.4 0-.6-.1-.9-.3-.2-.2-.3-.5-.3-.8 0-.8.7-1.1 2-1.1h.8l.1 1.2zm3-7.1h1.1v8.9h-1.1v-8.9zm8.6 7.4l-1.5-4.8h-.9l-1.4 4.7-1.3-4.7h-1l1.8 6.3h.8l1.5-4.8 1.5 4.8h.9l1.8-6.3h-1l-1.2 4.8zm8.2-2.9c0-.6-.2-1.1-.6-1.5s-1-.5-1.7-.5c-.5 0-.9.1-1.3.3s-.7.4-.9.7-.3.6-.3.9h1.1c0-.3.1-.5.4-.7a1.69 1.69 0 0 1 1-.3c.4 0 .8.1 1 .3s.3.5.3.9v.5h-1c-.9 0-1.6.2-2.1.5-.5.4-.7.9-.7 1.5 0 .5.2 1 .6 1.3s.9.5 1.5.5c.7 0 1.3-.3 1.8-.8 0 .3.1.5.2.7h1.1v-.1c-.1-.3-.2-.8-.2-1.4v-2.8h-.2zm-1.1 2.6c-.1.3-.4.5-.7.7a1.69 1.69 0 0 1-1 .3c-.4 0-.6-.1-.9-.3-.2-.2-.3-.5-.3-.8 0-.8.7-1.1 2-1.1h.8l.1 1.2zm4.9.2l-1.6-4.7h-1.2l2.2 6.2-.2.6c-.1.4-.3.7-.5.8s-.5.2-.8.2h-.3v.9l.4.1h.2c.8 0 1.5-.5 1.9-1.6l2.5-7.2h-1.1l-1.5 4.7zm7.4-1.6c-.3-.2-.8-.3-1.3-.4s-.9-.2-1.1-.4c-.2-.1-.3-.3-.3-.6s.1-.5.3-.7.5-.3.9-.3.7.1.9.3.4.5.4.8h1.1c0-.6-.2-1-.7-1.4s-1-.5-1.7-.5-1.2.2-1.7.5c-.4.4-.6.8-.6 1.3 0 .3.1.6.2.8.2.2.4.4.7.6s.7.3 1.3.4a4.33 4.33 0 0 1 1.1.4c.2.2.3.4.3.7s-.1.5-.4.7c-.2.2-.6.2-1 .2s-.8-.1-1.1-.3-.4-.5-.4-.9h-1.1a1.69 1.69 0 0 0 .3 1c.2.3.5.6.9.7.4.2.8.3 1.3.3.7 0 1.3-.2 1.7-.5s.7-.8.7-1.3c0-.3-.1-.6-.2-.9 0-.1-.2-.3-.5-.5h0zm9.8 1.5c-.3.6-.8.9-1.6.9s-1.2-.5-1.2-1.4v-4h-1.1v4.1c0 .8.2 1.3.5 1.7s.9.6 1.5.6c.8 0 1.4-.2 1.8-.7v.6h1v-6.3h-1.1v4.5h.2zm6.6-1.5c-.3-.2-.8-.3-1.3-.4s-.9-.2-1.1-.4c-.2-.1-.3-.3-.3-.6s.1-.5.3-.7.5-.3.9-.3.7.1.9.3.4.5.4.8h1.1c0-.6-.2-1-.7-1.4s-1-.5-1.7-.5-1.2.2-1.7.5c-.4.4-.6.8-.6 1.3 0 .3.1.6.2.8.2.2.4.4.7.6s.7.3 1.3.4.9.3 1.1.4c.2.2.3.4.3.7s-.1.5-.4.7c-.2.2-.6.2-1 .2s-.8-.1-1.1-.3-.4-.5-.4-.9h-1.1a1.69 1.69 0 0 0 .3 1c.2.3.5.6.9.7.4.2.8.3 1.3.3.7 0 1.3-.2 1.7-.5s.7-.8.7-1.3c0-.3-.1-.6-.2-.9.1-.1-.2-.3-.5-.5h0zm5-3.2c-.5 0-1 .1-1.4.4s-.8.7-1 1.1c-.2.5-.4 1-.4 1.7v.2c0 .9.3 1.7.8 2.2.5.6 1.2.8 2.1.8 1 0 1.8-.4 2.4-1.2l-.7-.5c-.2.3-.4.5-.7.6s-.6.2-1 .2c-.5 0-1-.2-1.3-.6s-.5-.9-.5-1.5h4.2v-.4c0-1-.2-1.8-.7-2.3-.3-.4-1-.7-1.8-.7h0zm1.5 2.7h-3.1a3.2 3.2 0 0 1 .5-1.3c.3-.3.7-.5 1.1-.5s.8.1 1.1.4c.2.3.4.8.4 1.4zm8.8-2.7c-.8 0-1.4.3-1.8.8l-.1-.7h-1v8.7h1.1v-3c.4.5 1 .7 1.8.7.7 0 1.3-.3 1.8-.9.4-.6.7-1.3.7-2.3v-.1c0-1-.2-1.8-.7-2.4-.5-.5-1.1-.8-1.8-.8zm.9 5c-.3.4-.7.6-1.2.6-.7 0-1.1-.3-1.5-.9v-3c.3-.6.8-.9 1.5-.9.5 0 .9.2 1.2.6s.5 1 .5 1.7c-.1.9-.2 1.5-.5 1.9zm4.2-4.2v-.7h-1v6.3h1.1V27c.3-.6.7-.9 1.4-.9h.5v-1c-.1-.1-.3-.1-.5-.1-.7.1-1.2.4-1.5.9zm5.7-.8c-.6 0-1 .1-1.5.4-.4.3-.8.6-1 1.1s-.4 1-.4 1.7v.1c0 1 .3 1.8.8 2.3.5.6 1.2.9 2.1.9.6 0 1.1-.1 1.5-.4s.8-.6 1-1.1.3-1 .3-1.6v-.1c0-1-.3-1.8-.8-2.4s-1.2-.9-2-.9h0zm1.3 5c-.3.4-.8.6-1.3.6s-1-.2-1.3-.6-.5-1-.5-1.7c0-.8.2-1.4.5-1.8s.7-.6 1.3-.6c.5 0 1 .2 1.3.6s.5 1 .5 1.7c0 .8-.2 1.4-.5 1.8zm4.7.4c-.1-.1-.2-.3-.2-.6V26h1.2v-.8h-1.2v-1.5h-1.1v1.5h-1.1v.8h1.1v3.9c0 .5.1.9.4 1.2.2.3.6.4 1.1.4.3 0 .5 0 .8-.1v-.9c-.2 0-.4.1-.5.1-.2.1-.4 0-.5-.1zm4.8-5.4c-.5 0-1 .1-1.4.4s-.8.7-1 1.1c-.2.5-.4 1-.4 1.7v.2c0 .9.3 1.7.8 2.2.5.6 1.2.8 2.1.8 1 0 1.8-.4 2.4-1.2l-.7-.5c-.2.3-.4.5-.7.6-.3.2-.6.2-1 .2-.5 0-1-.2-1.3-.6s-.5-.9-.5-1.5h4.2v-.4c0-1-.2-1.8-.7-2.3-.4-.4-1-.7-1.8-.7h0zm1.5 2.7h-3.1a3.2 3.2 0 0 1 .5-1.3c.3-.3.7-.5 1.1-.5s.8.1 1.1.4c.2.3.4.8.4 1.4zm3.8-1.2c.3-.4.7-.6 1.3-.6.4 0 .7.1 1 .4s.4.6.5 1h1c0-.7-.3-1.2-.7-1.6a2.52 2.52 0 0 0-1.7-.6c-.6 0-1.1.1-1.5.4s-.7.6-1 1.1c-.2.5-.3 1-.3 1.6v.2c0 1 .3 1.8.8 2.3.5.6 1.2.9 2 .9.4 0 .8-.1 1.2-.3a2.36 2.36 0 0 0 .9-.8c.2-.3.4-.7.4-1h-1c0 .3-.2.6-.5.9a1.69 1.69 0 0 1-1 .3c-.6 0-1-.2-1.3-.6s-.4-.9-.4-1.7v-.2a2.73 2.73 0 0 1 .3-1.7zm7 3.9c-.1-.1-.2-.3-.2-.6V26h1.2v-.8h-1.2v-1.5h-1.1v1.5h-1.1v.8h1.1v3.9c0 .5.1.9.4 1.2.2.3.6.4 1.1.4.3 0 .5 0 .8-.1v-.9c-.2 0-.4.1-.5.1-.2.1-.4 0-.5-.1zm2.5-5.3h1.1v6.3h-1.1v-6.3zm.6-2.3c-.2 0-.4.1-.5.2a.76.76 0 0 0-.2.4c0 .2.1.3.2.4s.3.2.5.2.4-.1.5-.2a.76.76 0 0 0 .2-.4c0-.2-.1-.3-.2-.4-.2-.1-.3-.2-.5-.2zm5 2.2c-.6 0-1 .1-1.5.4-.4.3-.8.6-1 1.1s-.4 1-.4 1.7v.1c0 1 .3 1.8.8 2.3.5.6 1.2.9 2.1.9.6 0 1.1-.1 1.5-.4s.8-.6 1-1.1.3-1 .3-1.6v-.1c0-1-.3-1.8-.8-2.4s-1.2-.9-2-.9h0zm1.3 5c-.3.4-.8.6-1.3.6s-1-.2-1.3-.6-.5-1-.5-1.7c0-.8.2-1.4.5-1.8s.7-.6 1.3-.6c.5 0 1 .2 1.3.6s.5 1 .5 1.7c-.1.8-.2 1.4-.5 1.8zm6-5a2.32 2.32 0 0 0-1.9.9v-.8h-1v6.3h1.1V27c.1-.3.4-.5.6-.7.3-.2.6-.3.9-.3.4 0 .7.1.9.3s.3.5.3 1v4.1h1.1v-4.1c0-1.5-.7-2.2-2-2.2h0zm7-2.9c.1-.1.1-.3.1-.4 0-.3-.1-.5-.2-.6-.2-.1-.4-.2-.7-.2h-.9v2.7h.4v-1.1h.6l.6 1.1h.4l-.6-1.2.3-.3zm-.8 0h-.6v-1h.5c.2 0 .3 0 .4.1s.2.2.2.4-.1.3-.2.4c0 .1-.1.1-.3.1h0zm0-2.7c-1.6 0-2.9 1.3-2.9 2.9s1.3 2.9 2.9 2.9 2.9-1.3 2.9-2.9-1.4-2.9-2.9-2.9zm0 5.3c-1.3 0-2.4-1.1-2.4-2.4s1.1-2.4 2.4-2.4 2.4 1.1 2.4 2.4-1.1 2.4-2.4 2.4z" fill="#ccc"/></svg>