<svg xmlns="http://www.w3.org/2000/svg" viewBox="0 0 322.7 277" enable-background="new 0 0 322.7 277"><style type="text/css">.st0{fill:#4279BB;}</style><path id="path3897" d="M226.2 244.1c-18.4 0-33.3-14.9-33.3-33.3s14.9-33.3 33.3-33.3 33.3 14.9 33.3 33.3-14.9 33.3-33.3 33.3m-.3-100c-36.7 0-66.5 29.8-66.5 66.5s29.7 66.4 66.5 66.4c36.7 0 66.4-29.7 66.4-66.4.1-36.7-29.7-66.5-66.4-66.5"/><path id="path3899" class="st0" d="M225.9 184.5c-14.4 0-26.1 11.7-26.1 26.1 0 14.4 11.7 26.1 26.1 26.1 14.4 0 26.1-11.7 26.1-26.1.1-14.5-11.6-26.1-26.1-26.1"/><path id="path3901" d="M90.4 228.6h37.4c-8.3 24-31.1 20-31.1 20-18.4-.3-27-15.4-27-15.4-15.4-26.7 0-46.4 0-46.4 7-12.4 25.4-13.7 25.4-13.7 22.4 0 30 16.7 30 16.7h34.7c-8.7-26.6-33.7-45.8-63.1-45.8-36.7 0-66.4 29.8-66.4 66.5s29.7 66.4 66.4 66.4 66.5-29.8 66.5-66.4c0-2.5-.1-4.9-.4-7.3h-72.4v25.4z"/><path id="path3903" d="M256.6 92.2c14.4 0 26-11.7 26-26 0-14.4-11.6-26-26-26s-26 11.7-26 26 11.6 26 26 26m-33.1-26c0-18.3 14.8-33.1 33.1-33.1s33.1 14.8 33.1 33.1-14.8 33.1-33.1 33.1-33.1-14.9-33.1-33.1m-46.1 0c4.1-.5 10.9-5.2 13.3-8.2-.8 3.7-.9 14.4.1 18.1-2.7-4.2-9.2-9.4-13.4-9.9m-23.8-35.1c5.2 0 9.3 5.1 9.3 11 0 5.8-4.1 11-9.3 11h-17.9v-22h17.9zm-.1 48.8c5.2 0 9.3 5.1 9.3 11 0 5.8-4.1 11-9.3 11h-17.9v-22h17.9zm103.1 53c36.4 0 66.1-30.3 66.1-66.7 0-37.3-29.7-66.2-66.1-66.2-36.4 0-55 26.7-59.6 37.6 0-16.2-16-35.4-34.7-35.4h-60.3v130.1h56.2c22.7 0 38.8-19.6 38.8-36.5 5.2 10.5 23.2 37.1 59.6 37.1m-161.9-.6h-35.4v-50.5h-22.9v50.5h-36.3l-.1-130.1h36.4v48.4h22.9v-48.4h35.3l.1 130.1z"/></svg>