<svg xmlns="http://www.w3.org/2000/svg" width="3543.307" height="1222.161" viewBox="0 0 999.99998 344.92091"><g fill-rule="evenodd"><path d="M864.97 186.721l-38.322 132.793h27.626l4.012-16.928h35.651l3.568 16.928h28.07l-38.767-132.793zm11.141 36.095c0 1.784.374 4.457 1.113 8.025.749 3.56 1.41 6.832 2.011 9.8l8.913 38.766h-24.51l9.357-38.766c.592-2.968 1.261-6.24 2.001-9.8.749-3.569 1.115-6.241 1.115-8.025z"/><path d="M737.077 186.277v133.237h26.739v-42.336h11.583l17.826 42.336h26.295l-18.723-47.679c5.649-3.864 10.254-9.139 13.822-15.823 3.56-6.684 5.345-14.336 5.345-22.944v-3.125c0-12.472-3.787-22.873-11.368-31.194-7.572-8.321-17.302-12.473-29.183-12.473zm26.739 24.954h12.925c4.752 0 8.765 1.559 12.029 4.675 3.264 3.125 4.899 7.945 4.899 14.482v.898c0 7.424-1.635 12.777-4.899 16.041-3.264 3.264-7.277 4.899-12.029 4.899h-12.925z"/><path d="M808.378 25.85v133.237h42.779c6.832 0 13.142-1.331 18.939-4.003 5.797-2.681 10.619-6.388 14.484-11.14 3.864-4.761 6.911-10.775 9.139-18.052 2.228-7.276 3.342-15.076 3.342-23.396v-24.066c0-7.424-1.114-14.403-3.342-20.94-2.228-6.537-5.274-12.186-9.139-16.938-3.864-4.752-8.687-8.39-14.484-10.914-5.797-2.524-12.107-3.787-18.939-3.787zm26.739 24.954h12.925c3.856 0 7.128.593 9.8 1.785 2.672 1.184 4.9 2.969 6.684 5.345 2.08 2.672 3.569 5.797 4.457 9.357.888 3.569 1.34 7.581 1.34 12.037v21.384c0 5.649-.452 10.619-1.34 14.927-.888 4.308-2.377 7.947-4.457 10.924-1.784 2.376-4.012 4.309-6.684 5.788-2.672 1.488-5.944 2.227-9.8 2.227h-12.925z"/><path d="M506.679 24.066c-6.232 0-11.654.817-16.258 2.445-4.604 1.636-8.843 3.796-12.707 6.468-5.64 5.048-10.096 11.732-13.368 20.053-3.264 8.321-4.901 18.713-4.901 31.194v16.041c0 12.777 1.637 23.475 4.901 32.083 3.273 8.617 7.728 15.153 13.368 19.609 3.864 2.977 8.103 5.274 12.707 6.91 4.604 1.636 10.026 2.446 16.258 2.446 5.649 0 10.775-.81 15.379-2.446 4.604-1.636 8.836-3.934 12.7-6.91 5.945-4.456 10.4-10.992 13.368-19.609 2.968-8.608 4.456-19.158 4.456-31.639v-16.484c0-12.481-1.488-22.873-4.456-31.194-2.968-8.321-7.424-15.004-13.368-20.053-3.864-2.672-8.096-4.832-12.7-6.468-4.604-1.628-9.731-2.445-15.379-2.445zm0 24.954c2.681 0 5.058.443 7.138 1.34 2.08.888 3.856 2.228 5.345 4.003 2.08 2.376 3.716 6.024 4.899 10.924 1.192 4.9 1.785 11.506 1.785 19.827v15.153c0 8.321-.593 14.858-1.785 19.611-1.184 4.752-2.819 8.32-4.899 10.696-1.488 2.08-3.343 3.639-5.571 4.675-2.228 1.044-4.536 1.557-6.912 1.557-2.968 0-5.639-.513-8.015-1.557-2.376-1.036-4.308-2.595-5.797-4.675-2.08-2.376-3.709-5.944-4.901-10.696-1.192-4.752-1.783-11.29-1.783-19.611v-15.153c0-8.321.591-14.926 1.783-19.827 1.192-4.9 2.821-8.548 4.901-10.924 1.488-1.776 3.421-3.116 5.797-4.003 2.376-.896 5.047-1.34 8.015-1.34z"/><path d="M934.487 186.278v133.237h65.513v-24.51h-38.775v-108.727z"/><path d="M671.564 211.231v108.283h26.294v-108.283h24.954v-24.954h-76.201v24.954z"/><path d="M549.468 186.278v133.237h24.057v-77.089l36.103 77.089h23.613v-133.237h-24.51v77.986l-36.094-77.986z"/><path d="M462.117 186.278v133.237h67.741v-24.51h-41.003v-30.742h34.763v-24.962h-34.763v-28.07h41.003v-24.954z"/><path d="M392.6 215.244c1.488-2.08 3.342-3.49 5.57-4.239 2.228-.74 4.683-1.114 7.355-1.114 3.569 0 7.059.897 10.471 2.672 3.421 1.784 6.162 5.353 8.242 10.697l23.622-9.8c-3.864-10.105-9.583-17.529-17.155-22.282-7.581-4.752-15.971-7.128-25.18-7.128-5.649 0-10.915.888-15.823 2.672-4.9 1.784-9.13 4.16-12.699 7.128-5.64 4.752-10.027 11.289-13.143 19.61-3.125 8.321-4.683 18.713-4.683 31.194v16.485c0 12.777 1.558 23.326 4.683 31.638 3.116 8.321 7.503 14.857 13.143 19.61 3.569 2.977 7.799 5.205 12.699 6.684 4.909 1.488 10.175 2.228 15.823 2.228 9.8 0 18.347-2.298 25.624-6.902 7.276-4.604 12.847-11.515 16.711-20.724l-23.622-10.697c-2.08 5.344-4.752 8.913-8.016 10.697-3.273 1.784-6.832 2.672-10.697 2.672-2.672 0-5.127-.374-7.355-1.114-2.228-.74-4.082-2.15-5.57-4.23-2.08-2.08-3.708-5.57-4.9-10.479-1.192-4.9-1.784-11.506-1.784-19.827v-14.709c0-8.913.592-15.745 1.784-20.497 1.192-4.752 2.82-8.164 4.9-10.244z"/><path d="M190.734 195.634c-3.864 7.128-9.435 12.847-16.711 17.155-7.285 4.308-15.232 6.458-23.848 6.458-12.768 0-23.692-4.526-32.752-13.587-9.061-9.061-13.587-19.984-13.587-32.752 0-12.777 4.526-23.77 13.587-32.979s19.984-13.813 32.752-13.813c8.617 0 16.563 2.298 23.848 6.902 7.276 4.604 12.847 10.323 16.711 17.155l36.094-20.497c-7.433-13.369-17.973-24.135-31.638-32.308-13.674-8.164-28.67-12.255-45.016-12.255-11.881 0-23.169 2.306-33.866 6.911-10.697 4.604-19.975 10.845-27.852 18.713-7.868 7.877-14.109 17.155-18.713 27.852-4.604 10.697-6.911 22.134-6.911 34.319 0 12.177 2.306 23.613 6.911 34.31 4.604 10.697 10.845 19.975 18.713 27.852 7.877 7.877 17.155 14.109 27.852 18.713 10.697 4.604 21.986 6.911 33.866 6.911 16.05 0 30.977-4.16 44.789-12.481 13.813-8.312 24.431-19.009 31.864-32.082z" fill="#f8ba0f" fill-opacity=".941"/><path d="M619.872 159.087h21.838l19.61-72.633 8.469 72.633h24.51l-15.153-133.237h-24.954l-23.178 83.774-23.169-83.774h-25.406l-15.597 133.237h24.962l8.016-72.633z"/><path d="M715.239 25.85v133.237h70.413v-24.51h-44.119v-30.742h38.766v-25.406h-38.766v-27.626h44.119v-24.954z"/><path d="M934.487 94.923v64.164h26.738v-64.164l37.435-69.073h-28.966l-22.282 41.882-21.385-41.882h-28.966z"/><path d="M392.6 54.364c1.488-1.776 3.342-3.116 5.57-4.004 2.228-.896 4.683-1.34 7.355-1.34 3.569 0 7.059.966 10.471 2.898 3.421 1.932 6.162 5.718 8.242 11.358l23.622-10.688c-3.864-10.105-9.583-17.381-17.155-21.838-7.581-4.456-15.971-6.684-25.18-6.684-5.649 0-10.915.818-15.823 2.446-4.9 1.636-9.13 3.795-12.699 6.467-5.64 5.048-10.027 11.733-13.143 20.053-3.125 8.321-4.683 18.713-4.683 31.194v16.041c0 12.777 1.558 23.474 4.683 32.082 3.116 8.617 7.503 15.153 13.143 19.61 3.569 2.977 7.799 5.274 12.699 6.911 4.909 1.636 10.175 2.446 15.823 2.446 9.8 0 18.347-2.298 25.624-6.902 7.276-4.604 12.847-11.663 16.711-21.168l-23.622-10.253c-2.08 5.048-4.752 8.617-8.016 10.697-3.273 2.08-6.832 3.116-10.697 3.116-2.672 0-5.127-.514-7.355-1.558-2.228-1.036-4.082-2.594-5.57-4.674-2.08-2.376-3.708-5.945-4.9-10.697-1.192-4.752-1.784-11.289-1.784-19.61v-15.153c0-8.321.592-14.927 1.784-19.827 1.192-4.9 2.82-8.547 4.9-10.923z"/><path d="M322.639 172.012c0 23.77-4.535 46.2-13.595 67.297-9.061 21.089-21.315 39.437-36.765 55.034-15.449 15.597-33.718 27.922-54.807 36.982-21.098 9.061-43.527 13.595-67.297 13.595-32.082 0-61.422-8.173-88.012-24.51-26.59-16.337-47.305-37.731-62.162-64.173l36.094-19.61c10.993 19.61 26.738 35.503 47.235 47.688 20.506 12.177 42.788 18.269 66.845 18.269 17.825 0 34.763-3.421 50.804-10.253 16.041-6.832 29.932-16.111 41.665-27.852 11.741-11.733 21.098-25.545 28.078-41.439 6.98-15.893 10.471-32.9 10.471-51.03v.897c0-18.13-3.49-35.137-10.471-51.03-6.98-15.893-16.337-29.706-28.078-41.439-11.733-11.741-25.624-21.02-41.665-27.852-16.041-6.832-32.979-10.253-50.804-10.253-24.057 0-46.339 6.093-66.845 18.269-20.497 12.185-36.242 28.078-47.235 47.688l-36.094-19.61c14.857-26.442 35.572-47.836 62.162-64.173 26.59-16.337 55.93-24.51 88.012-24.51 23.77 0 46.199 4.535 67.297 13.595 21.089 9.061 39.358 21.385 54.807 36.982 15.449 15.597 27.704 33.945 36.765 55.034 9.061 21.098 13.595 43.527 13.595 67.297z" fill="#f8ba0f" fill-opacity=".941"/></g></svg>