<svg xmlns="http://www.w3.org/2000/svg" viewBox="0 0 80 80"><defs><style>.cls-1{fill:#3ab54a;}.cls-2{opacity:0.28;}</style></defs><title>Artboard 95 copy 6</title><g id="Layer_1"><path class="cls-1" d="M39.86.71a39.46 39.46 0 0 0-29.64 13l-3.38-4.79-2.3 12.68-.16.59a39.47 39.47 0 0 0-4.38 17.81 39.58 39.58 0 0 0 39.86 39.29 39.58 39.58 0 0 0 39.87-39.29 39.58 39.58 0 0 0-39.87-39.29zm.83 6.62a32.73 32.73 0 0 1 8.2 1h-1.15a22.38 22.38 0 0 1 9.88 4.52c-.06.21-.13.42-.17.61l-5.23 1.38c10.27 2.5 14.72 11.91 14.72 11.91l-2.55.35c2.1 5 0 13.27 0 13.27l-3.23-2.15s.05 6.37-1.49 9.74c-7.55 13.23-22.67 9.52-25.94 8.49a9.74 9.74 0 0 1-4.87-3.45 46.92 46.92 0 0 0 5.17.16c3.93 0 9.06-4.32 11.34-5.06s2.48-1.41.7-3.49l-6.48-1.36s-6.14 3.14-10.82 1.85l-4.5-8.25 5.82-.12v-5.12a91.88 91.88 0 0 0 7.91-6.61 2.5 2.5 0 0 0 .34-.39 1.84 1.84 0 0 0-.6-2.61h-8.88a8.06 8.06 0 0 0-1.37-3.85l2.8-5.85-8.91 5-4.07-.3a32.59 32.59 0 0 1 23.38-9.67zM6.83 8.92h.01-.01z"/></g></svg>