<svg xmlns="http://www.w3.org/2000/svg" viewBox="0 0 80 80"><defs><style>.cls-1{fill:#3ab54a;fill-rule:evenodd;}.cls-2{opacity:0.28;}</style></defs><title>Artboard 95 copy 5</title><g id="Layer_1"><path class="cls-1" d="M33.35 79.22a39.72 39.72 0 0 1-28.91-57.45l15.13 26.23a21.55 21.55 0 0 0 24.37 12.87l-10.58 18.35zM41.36 79.7l16.4-28.4a21.56 21.56 0 0 0-2.17-25.84h21.08a39.74 39.74 0 0 1-35.31 54.24zM51.57 47.72l-.22.39a14.29 14.29 0 1 1 .24-.37zM8.84 15a39.72 39.72 0 0 1 64.1 3.21h-33.94a21.55 21.55 0 0 0-19.89 14.62l-10.28-17.83z"/></g></svg>