<svg xmlns="http://www.w3.org/2000/svg" viewBox="0 0 80 80"><defs><style>.cls-1{fill:#3ab54a;}.cls-2{opacity:0.28;}</style></defs><title>Artboard 95 copy 4</title><g id="Layer_1"><path class="cls-1" d="M.79 31.88h6.33v30.98h-6.33zM4.75 15.24a4.76 4.76 0 1 0 4.76 4.76 4.76 4.76 0 0 0-4.76-4.76zM79 44.1a11.32 11.32 0 0 0-2.77-3.7 14.72 14.72 0 0 0-3.76-2.4c-1.24-.58-2.54-1.11-3.88-1.59s-2.46-.91-3.68-1.41a12.53 12.53 0 0 1-2.8-1.49 6.49 6.49 0 0 1-1.76-1.93 5.52 5.52 0 0 1-.63-2.85 7.71 7.71 0 0 1 .48-2.69 6.33 6.33 0 0 1 1.32-2.14 6.1 6.1 0 0 1 2.13-1.41 7.86 7.86 0 0 1 3.07-.49 8.09 8.09 0 0 1 2.93.45 10.76 10.76 0 0 1 2.08 1.07 11.61 11.61 0 0 1 1.33 1.08l.1.08-.16-.14 4.62-4.35a16.53 16.53 0 0 0-5.62-3.65 14.21 14.21 0 0 0-5.28-.9 14.49 14.49 0 0 0-5.49 1 12.35 12.35 0 0 0-7 7.19 14 14 0 0 0-.88 4.92 11.62 11.62 0 0 0 .43 3.25c-3-9.51-11.14-16.39-20.86-16.39-12.36 0-22.23 11.07-22.23 24.56s9.89 24.55 22.22 24.55 22.14-11.03 22.14-24.52a27 27 0 0 0-1-7.21 11.93 11.93 0 0 0 .8 1.83 12.63 12.63 0 0 0 3.51 3.84 18.6 18.6 0 0 0 4.21 2.27c1.27.5 2.54 1 3.82 1.44s2.28.88 3.4 1.39a8.54 8.54 0 0 1 2.21 1.39 5.07 5.07 0 0 1 1.23 1.67 6.24 6.24 0 0 1 .42 2.6 11.31 11.31 0 0 1-.6 3.74 8.2 8.2 0 0 1-1.61 2.75 7.35 7.35 0 0 1-2.59 1.81 9.15 9.15 0 0 1-3.77.69 10.18 10.18 0 0 1-4.85-1 11.59 11.59 0 0 1-3.23-2.6l-4.7 4.24a17.93 17.93 0 0 0 4.93 3.95 16.37 16.37 0 0 0 7.85 1.8 15.47 15.47 0 0 0 6.33-1.23 13.8 13.8 0 0 0 4.72-3.35 14.49 14.49 0 0 0 2.9-4.9 17.64 17.64 0 0 0 1-5.85 12.48 12.48 0 0 0-1.03-5.37zm-46 14.32c-8.77 0-16-8.09-16-18.22s7.23-18.2 15.92-18.2 15.8 8 15.8 18.2-7.15 18.22-15.8 18.22z"/></g></svg>