<svg xmlns="http://www.w3.org/2000/svg" viewBox="0 0 80 80"><defs><style>.cls-1{fill:#3ab54a;}.cls-2{opacity:0.28;}</style></defs><title>Artboard 95 copy</title><path id="MacOS_logo" class="cls-1" d="M44 26.54v-.67l-2 .13a2.64 2.64 0 0 0-1.31.37 1.09 1.09 0 0 0-.22 1.52 1.15 1.15 0 0 0 .22.22 1.87 1.87 0 0 0 1.17.32 2.37 2.37 0 0 0 .87-.14 2.23 2.23 0 0 0 .7-.4 1.73 1.73 0 0 0 .57-1.35zm-4-26.54a39.71 39.71 0 0 0-40 39.4v.6a39.71 39.71 0 0 0 39.4 40h.6a39.71 39.71 0 0 0 40-39.4v-.6a39.71 39.71 0 0 0-39.4-40zm7.76 23.71a4.14 4.14 0 0 1 .8-1.36 3.51 3.51 0 0 1 1.24-.88 4.53 4.53 0 0 1 3.08-.06 3.32 3.32 0 0 1 1.12.65 3 3 0 0 1 .73 1 3.19 3.19 0 0 1 .33 1.14h-1.6a2.09 2.09 0 0 0-.22-.62 1.49 1.49 0 0 0-.41-.49 1.77 1.77 0 0 0-.6-.33 2.09 2.09 0 0 0-.78-.12 2 2 0 0 0-1.64.79 2.94 2.94 0 0 0-.46.92 4.4 4.4 0 0 0-.16 1.2 4.22 4.22 0 0 0 .16 1.22 2.63 2.63 0 0 0 .47.91 2 2 0 0 0 .72.57 2.4 2.4 0 0 0 2.27-.25 1.77 1.77 0 0 0 .67-1.13h1.61a3.17 3.17 0 0 1-.37 1.2 3.11 3.11 0 0 1-.72.93 3.55 3.55 0 0 1-1.1.59 4.21 4.21 0 0 1-1.4.21 4.14 4.14 0 0 1-1.63-.3 3.38 3.38 0 0 1-1.25-.86 3.8 3.8 0 0 1-.81-1.35 5.53 5.53 0 0 1-.28-1.81 5.18 5.18 0 0 1 .28-1.78zm-22.84-2.44h1.61v1.43a2.55 2.55 0 0 1 .39-.63 2.24 2.24 0 0 1 .54-.48 2.17 2.17 0 0 1 .68-.3 2.65 2.65 0 0 1 .79-.11 2.54 2.54 0 0 1 1.49.42 2.33 2.33 0 0 1 .87 1.22 2.72 2.72 0 0 1 1.78-1.53 3.56 3.56 0 0 1 .86-.11 3.13 3.13 0 0 1 1.13.2 2.33 2.33 0 0 1 .86.56 2.4 2.4 0 0 1 .56.88 3.14 3.14 0 0 1 .26 1.18v5.75h-1.67v-5.39a1.81 1.81 0 0 0-.43-1.28 1.59 1.59 0 0 0-1.22-.46 1.73 1.73 0 0 0-.71.14 1.51 1.51 0 0 0-.56.38 1.66 1.66 0 0 0-.36.58 1.91 1.91 0 0 0-.13.75v5.23h-1.66v-5.48a1.88 1.88 0 0 0-.12-.66 1.38 1.38 0 0 0-.32-.5 1.19 1.19 0 0 0-.51-.32 1.89 1.89 0 0 0-.67-.12 1.79 1.79 0 0 0-.72.15 1.7 1.7 0 0 0-.57.39 1.79 1.79 0 0 0-.36.61 2.23 2.23 0 0 0-.23.76v5.16h-1.58zm3.65 40.36c-7.37 0-12-5.12-12-13.3s4.63-13.33 12-13.33 12 5.14 12 13.32-4.63 13.31-12 13.31zm13.65-31.95a3.46 3.46 0 0 1-.84.11 3.74 3.74 0 0 1-1.15-.18 2.59 2.59 0 0 1-.9-.51 2.31 2.31 0 0 1-.59-.79 2.56 2.56 0 0 1-.21-1 2 2 0 0 1 .83-1.73 4.34 4.34 0 0 1 2.4-.73l2.24-.16v-.69a1.35 1.35 0 0 0-.46-1.11 2 2 0 0 0-1.31-.38 2.74 2.74 0 0 0-.64.08 2.08 2.08 0 0 0-.52.25 1.34 1.34 0 0 0-.37.38 1.28 1.28 0 0 0-.2.5h-1.5a2.22 2.22 0 0 1 .28-1 2.51 2.51 0 0 1 .7-.82 3.22 3.22 0 0 1 1.02-.54 4.18 4.18 0 0 1 1.32-.2 4.67 4.67 0 0 1 1.39.2 3.11 3.11 0 0 1 1.07.55 2.51 2.51 0 0 1 .92 2v5.79h-1.62v-1.4a2.77 2.77 0 0 1-.46.62 2.89 2.89 0 0 1-.62.47 3.46 3.46 0 0 1-.75.3zm10.6 32c-5.62 0-9.44-3-9.71-7.57h3.66c.29 2.65 2.84 4.39 6.34 4.39s5.77-1.75 5.77-4.14c0-2.07-1.47-3.32-4.86-4.18l-3.3-.82c-4.72-1.22-6.91-3.36-6.91-6.93 0-4.37 3.82-7.41 9.27-7.41s9 3 9.18 7.44h-3.63c-.25-2.65-2.41-4.27-5.63-4.27s-5.41 1.65-5.41 4c0 1.87 1.4 3 4.79 3.84l2.78.7c5.3 1.28 7.48 3.37 7.48 7.12 0 4.78-3.78 7.77-9.82 7.77zm-24.25-23.38c-5.05 0-8.21 3.87-8.21 10s3.16 10 8.21 10 8.21-3.87 8.21-10-3.18-10-8.21-10z"/></svg>