<svg xmlns="http://www.w3.org/2000/svg" viewBox="0 0 80 80"><defs><style>.cls-1{fill:#3ab54a;}.cls-2{opacity:0.28;}</style></defs><title>Artboard 95 copy 2</title><path class="cls-1" d="M36.89 19c0 .2-.36.16-.56.21s-.28.23-.45.23-.46 0-.48-.23.3-.44.51-.44a1.12 1.12 0 0 1 .88 0 .17.17 0 0 1 .1.18zm1.86 0s0-.14.11-.17a1 1 0 0 1 .87 0c.21 0 .53.22.51.44s-.3.22-.45.22l-.5-.22s-.48-.15-.53-.27zm3.66 5.27a12.83 12.83 0 0 1-5 1.76 8 8 0 0 1-4.32-1.55c-.51-.45-.93-.89-1.27-1.12s-.47-1.1-.24-1.1.44.43.66.66a14.21 14.21 0 0 1 1.21 1.08 7 7 0 0 0 3.93 1.57 10.75 10.75 0 0 0 4.73-1.57c.65-.43 1.49-1.1 2.17-1.54s.51-.9.95-.9.11.44-.49 1.11a26.26 26.26 0 0 1-2.33 1.56zm5 .21a79 79 0 0 0 5.85 14.92 34.38 34.38 0 0 1 3.71 10.1 6.48 6.48 0 0 1 1.76.21c2.15-5.62-1.79-11.61-3.73-13.28-.73-.66-.77-1.1-.39-1.1a19.3 19.3 0 0 1 5.54 9.2 11.37 11.37 0 0 1 0 5.56 3.29 3.29 0 0 0 .69.23c3.51 1.76 4.77 3.13 4.16 5.13v-.16h-.62c.51-1.54-.61-2.74-3.51-4.07s-5.57-1.12-6 1.54v.46a4.44 4.44 0 0 1-.71.21 6.11 6.11 0 0 0-2.68 4 34.56 34.56 0 0 0-.69 6.25 25.94 25.94 0 0 1-1.19 4.5c-5.08 3.51-12.08 5.12-18.05 1.1a9.68 9.68 0 0 0-1.37-1.76 4.09 4.09 0 0 0-.93-1.1 6 6 0 0 0 1.58-.23 2.11 2.11 0 0 0 1.09-1.19 4.39 4.39 0 0 0-1.16-3.92 21.42 21.42 0 0 0-6-5.09 8.52 8.52 0 0 1-3.88-4.65 10.61 10.61 0 0 1 0-5.48 32.19 32.19 0 0 1 4.3-9.22c.37-.23.12.44-1.37 3.25-1.33 2.49-3.85 8.32-.42 12.85a27.14 27.14 0 0 1 2.19-9.59c1.9-4.26 5.89-11.69 6.2-17.55.16.12.72.44 1 .66l2 1.54a4 4 0 0 0 3 1.13h.4a7.22 7.22 0 0 0 3.37-.9c1-.44 1.76-1.1 2.49-1.33a6.49 6.49 0 0 0 3.46-2.34zm-9.45-7.23a7 7 0 0 1 4.04 1.29 15.73 15.73 0 0 0 3.51 1.56 3.72 3.72 0 0 1 1.62 1.34v-.44a1.85 1.85 0 0 1 0 1.56 6 6 0 0 1-3.51 2.81c-.91.44-1.76 1.1-2.62 1.54a6.51 6.51 0 0 1-3.42.9 4.08 4.08 0 0 1-1.51-.23 10.89 10.89 0 0 1-1.07-.66 19.45 19.45 0 0 0-2.06-1.55 5.25 5.25 0 0 1-2.31-2.37 1.65 1.65 0 0 1 .65-2c.75-.46 1.28-.89 1.63-1.12l.6-.44a5.61 5.61 0 0 1 4.42-2.23zm-4.64-5.69h.13a2.43 2.43 0 0 1 1.35.45 4.55 4.55 0 0 1 1.16 1.55 5.72 5.72 0 0 1 .51 2.23 6.46 6.46 0 0 1 0 .88v.26h-.29a11 11 0 0 0-1.33.66 3.32 3.32 0 0 0 0-.89 3.63 3.63 0 0 0-.28-1.11 2.08 2.08 0 0 0-.56-.89.79.79 0 0 0-1.25.23 1.92 1.92 0 0 0-.4.91 3.32 3.32 0 0 0 0 1.09 4.36 4.36 0 0 0 .24 1.07 2 2 0 0 0 .56.88.34.34 0 0 0 .12.09 3.68 3.68 0 0 0-.59.45 1.1 1.1 0 0 1-.44.23 9 9 0 0 1-.93-1.35 5.87 5.87 0 0 1-.53-2.21 6 6 0 0 1 .27-2.23 4.73 4.73 0 0 1 1-1.76 1.93 1.93 0 0 1 1.28-.56zm10-.16a3.22 3.22 0 0 1 2 .66 5.09 5.09 0 0 1 1.5 1.76 6.22 6.22 0 0 1 .54 2.4v.07a5.65 5.65 0 0 1-.49 2.3 3.26 3.26 0 0 1-.72 1.13l-.3-.14a3.58 3.58 0 0 1-1-.44 6.34 6.34 0 0 0-.74-.23c.16-.19.48-.44.62-.65a3.92 3.92 0 0 0 .27-1.39 4.06 4.06 0 0 0-.19-1.34 6.13 6.13 0 0 0-.62-1.12 1.81 1.81 0 0 0-.89-.41 1.08 1.08 0 0 0-.88.44 2.87 2.87 0 0 0-.7 1.12 3.89 3.89 0 0 0-.3 1.34 6.61 6.61 0 0 0 0 .89c-.65-.23-1.48-.45-2.05-.66a3.64 3.64 0 0 1 0-.66 5.68 5.68 0 0 1 .43-2.64 3.54 3.54 0 0 1 1.44-1.75 3.34 3.34 0 0 1 2.08-.69zm-1.76-11.4h-1.56c-14.32 1.11-10.58 16-10.74 21.07a17.92 17.92 0 0 1-3.51 10.06 49.3 49.3 0 0 0-9.17 15.08 17.78 17.78 0 0 0-1 8.3 2 2 0 0 0-.37.46c-.88.9-1.51 2-2.23 2.79a8.08 8.08 0 0 1-2.69 1.34 4.81 4.81 0 0 0-2.89 2.28 4.11 4.11 0 0 0-.46 2 8.71 8.71 0 0 0 .2 1.76 8 8 0 0 1 .12 3.23 6.27 6.27 0 0 0-.35 4.95 4.88 4.88 0 0 0 3.09 2.05c2.72.67 6.44.46 9.35 2a13.07 13.07 0 0 0 8.78 1.57 5.94 5.94 0 0 0 4.08-3.15c2 0 4.14-.89 7.62-1.12 2.35-.19 5.26.89 8.77.66a5.59 5.59 0 0 0 .4 1.13 6.37 6.37 0 0 0 6.31 3.54 11.94 11.94 0 0 0 7.62-4.36c2.12-2.56 5.67-3.61 8-5a3.64 3.64 0 0 0 2.22-2.77c0-1.33-.68-2.7-2.42-4.6v-.37a7.5 7.5 0 0 1-1.09-3.05 5.66 5.66 0 0 0-1.64-3.56c-.21-.2-.42-.23-.63-.46a1.28 1.28 0 0 0-.65-.21 17.75 17.75 0 0 0-.58-12.29 42.47 42.47 0 0 0-7.34-11.62c-2.69-3.36-5.27-6.52-5.27-11.24.03-7.18.73-20.47-11.97-20.47z" id="Layer_1"/></svg>