<svg xmlns="http://www.w3.org/2000/svg" viewBox="0 0 248 38" enable-background="new 0 0 248 38"><style type="text/css">.st0{fill:#4CB649;stroke:#359335;stroke-width:0.75;stroke-miterlimit:10;} .st1{fill:#118011;} .st2{fill:url(#SVGID_1_);} .st3{fill:#FFFFFF;} .st4{fill:url(#SVGID_2_);} .st5{fill:url(#SVGID_3_);} .st6{fill:url(#SVGID_4_);} .st7{fill:#4E4E4F;}</style><path class="st0" d="M29.2 26.9c0 .6-.1 1-.2 1.1-.1.2-.5.3-1.1.2h-2.4v.2c-.1 1.1-.1 4.1-.2 5.1-.1.7-.3 1-.5 1.1-.2.1-.5.1-.9.1h-4.6l-2.7-3h-2.4l-2.8 2.9h-5.2c-.5 0-.7-.2-.8-.4-.1-.2-.1-.5-.1-.6l-.3-5.3h-2.4c-.6 0-.9-.1-1.1-.3-.2-.2-.2-.6-.2-1.2v-9.6c0-1.2 1-2.1 2.1-2.1h1.6v-1.5c0-5.7 4.6-10.2 10.2-10.2s10.2 4.5 10.2 10.1v1.5h1.6c1.2 0 2.1 1 2.1 2.1v9.8z"/><path class="st1" d="M25.1 15.9v12.1h-19.8v-12.1h-.3v12.4h.3v.4h19.8v-.4h.4v-12.4z"/><linearGradient id="SVGID_1_" gradientUnits="userSpaceOnUse" x1="15.054" y1="19.831" x2="15.054" y2="17.467"><stop offset="0" stop-color="#4CB649"/><stop offset="1" stop-color="#78B280"/></linearGradient><path class="st2" d="M22.1 18.5c0 .7-3.2 1.3-7.1 1.3-3.9 0-7.1-.6-7.1-1.3 0-.7 3.2-1.3 7.1-1.3 4 0 7.1.6 7.1 1.3z"/><path class="st3" d="M21.7 15.2v-1.9c0-3.6-2.9-6.5-6.5-6.5s-6.5 2.9-6.5 6.5v1.9h13z"/><radialGradient id="SVGID_2_" cx="15.428" cy="13.615" r="2.702" gradientUnits="userSpaceOnUse"><stop offset="0"/><stop offset=".19" stop-color="#030303"/><stop offset=".324" stop-color="#0C0C0C"/><stop offset=".44" stop-color="#1C1C1C"/><stop offset=".546" stop-color="#323232"/><stop offset=".646" stop-color="#4E4E4E"/><stop offset=".74" stop-color="#717171"/><stop offset=".831" stop-color="#9A9A9A"/><stop offset=".916" stop-color="#C9C9C9"/><stop offset=".999" stop-color="#FEFEFE"/><stop offset="1" stop-color="#fff"/></radialGradient><path class="st4" d="M12.5 13.2h5.8v.7h-5.8z"/><path d="M14.2 10.4c0 .7-.5 1.2-1.2 1.2s-1.2-.5-1.2-1.2.5-1.2 1.2-1.2 1.2.5 1.2 1.2zM18.5 10.4c0 .7-.5 1.2-1.2 1.2s-1.2-.5-1.2-1.2.5-1.2 1.2-1.2 1.2.5 1.2 1.2z"/><path class="st3" d="M12.9 22.4h4.3v3.2h-4.3zM13.5 22.1c.2-.7.8-1.2 1.5-1.2s1.3.5 1.5 1.2h.5c-.2-1-1-1.7-2-1.7s-1.8.7-2 1.7h.5z"/><path class="st1" d="M28.2 28.9h.3v-.4h-2.8c0 .6-.1 1.6-.1 2.5h.4c0-.9 0-1.7.1-2.2h2.1z"/><linearGradient id="SVGID_3_" gradientUnits="userSpaceOnUse" x1="24.802" y1="27.466" x2="27.424" y2="30.213"><stop offset="0" stop-color="#23FF16"/><stop offset="1" stop-color="#189A33"/></linearGradient><path class="st5" d="M28.5 29.1v-.2h-2.4c0 .5 0 1.3-.1 2.2h.5c1.1 0 2-.9 2-2z"/><path class="st1" d="M4.6 28.6h-2.1c-.3 0-.6 0-.8-.1v.4h2.5l.1 2.2h.4l-.1-2.5z"/><linearGradient id="SVGID_4_" gradientUnits="userSpaceOnUse" x1="6.38" y1="26.369" x2="2.385" y2="30.801"><stop offset="0" stop-color="#23FF16"/><stop offset="1" stop-color="#189A33"/></linearGradient><path class="st6" d="M2.2 29h-.4v.2c0 1.1.9 2 2 2h.7l-.2-2.2h-2.1z"/><path d="M39.8 7.3c-1.1 0-2.1.4-2.8 1.3l-.1-1.1h-2.7v15.3h2.9v-5.2c.7.8 1.6 1.2 2.7 1.2 1.3 0 2.4-.5 3.1-1.5.8-1 1.2-2.4 1.2-4.1v-.2c0-1.8-.4-3.1-1.1-4.2-.8-1-1.9-1.5-3.2-1.5zm-.8 9.1c-.9 0-1.6-.4-1.9-1.1v-4.5c.3-.7 1-1.1 1.9-1.1.7 0 1.2.3 1.6.8.4.6.5 1.4.5 2.4 0 2.3-.7 3.5-2.1 3.5zM49.1 8.8l-.1-1.3h-2.8v11h2.9v-7.2c.3-.8 1.1-1.1 2.2-1.1.3 0 .7 0 1.1.1v-2.8c-.3-.1-.6-.1-.9-.1-1-.1-1.9.4-2.4 1.4zM55.7 3.1c-.5 0-.9.1-1.2.4-.3.3-.4.6-.4 1.1 0 .4.2.8.5 1.1.3.3.7.4 1.2.4s.9-.1 1.2-.4c.3-.3.5-.7.5-1.1 0-.4-.1-.8-.4-1.1-.5-.2-.9-.4-1.4-.4zM54.3 7.5h3v11h-3zM64.1 14.9l-2.1-7.4h-3l3.7 11h2.8l3.7-11h-3.1zM79.6 11.2c0-1.2-.4-2.2-1.2-2.9-.8-.7-1.9-1-3.2-1-.9 0-1.7.2-2.4.5-.8.3-1.4.7-1.8 1.2-.4.5-.6 1.1-.6 1.8h2.9c0-.4.1-.7.4-1 .3-.2.7-.4 1.2-.4.6 0 1 .2 1.2.5.3.3.4.7.4 1.2v.6h-1.4c-1.6 0-2.9.3-3.8.9-.9.6-1.3 1.5-1.3 2.7 0 1 .4 1.7 1.1 2.4.7.6 1.6.9 2.7.9s2.1-.4 2.8-1.2c.1.4.2.7.3 1h3v-.2c-.3-.5-.4-1.3-.4-2.4v-4.6zm-3 4.2c-.2.3-.4.6-.8.8-.4.2-.8.3-1.2.3-.4 0-.8-.1-1.1-.4-.3-.2-.4-.5-.4-.9v-.2c.1-1 .9-1.5 2.4-1.5h1.1v1.9zM85.9 16c-.2-.2-.2-.5-.2-.9v-5.4h1.9v-2.2h-1.9v-2.7h-2.9v2.7h-1.6v2.2h1.6v5.9c0 2.1 1.1 3.1 3.2 3.1.6 0 1.2-.1 1.8-.3v-2.2c-.3 0-.5.1-.9.1-.5 0-.8-.1-1-.3zM94.2 7.3c-1 0-1.9.2-2.7.7-.8.5-1.4 1.1-1.8 2-.4.9-.6 1.9-.6 3v.3c0 1.6.5 3 1.5 4s2.3 1.5 3.9 1.5c.9 0 1.8-.2 2.5-.5.8-.3 1.4-.8 1.8-1.5l-1.4-1.6c-.6.8-1.5 1.2-2.7 1.2-.7 0-1.3-.2-1.8-.7-.5-.4-.8-1-.9-1.7h7v-1.2c0-1.7-.4-3.1-1.3-4-.8-1-1.9-1.5-3.5-1.5zm2 4.7h-4.1c.1-.7.3-1.3.7-1.7.4-.4.8-.6 1.4-.6.6 0 1.1.2 1.4.5.3.4.5.9.5 1.5v.3zM101.7 7.5h1.2v11h-1.2zM102.3 3.5c-.3 0-.5.1-.6.2-.1.2-.2.4-.2.6 0 .2.1.4.2.6.1.2.4.2.6.2.3 0 .5-.1.6-.2.2-.2.2-.3.2-.6 0-.2-.1-.4-.2-.6-.1-.1-.3-.2-.6-.2zM111.3 7.3c-.7 0-1.4.2-2 .5-.6.4-1.1.9-1.5 1.6v-1.9h-1.2v11h1.2v-7.5c.3-.8.7-1.4 1.3-1.9.6-.5 1.2-.7 2-.7.9 0 1.6.2 2 .7.4.5.6 1.2.6 2.2v7.2h1.2v-7.2c0-1.3-.3-2.3-.9-3-.6-.7-1.5-1-2.7-1zM121.6 17.7c-.5 0-.9-.1-1.1-.4-.2-.3-.3-.8-.3-1.4v-7.4h2.3v-1h-2.3v-2.8h-1.2v2.8h-2v1h2v7.4c0 .9.2 1.7.6 2.1.4.5 1 .7 1.8.7.5 0 1-.1 1.3-.2l-.1-1c-.4.1-.8.2-1 .2zM129.3 7.3c-.9 0-1.6.2-2.4.7-.7.5-1.3 1.2-1.7 2-.4.8-.6 1.8-.6 2.9v.4c0 1 .2 1.9.6 2.8.4.8 1 1.5 1.8 1.9.8.5 1.6.7 2.5.7 1.7 0 3-.6 3.9-1.9l-.8-.6c-.4.5-.9.9-1.4 1.1-.5.2-1.1.4-1.7.4-1.1 0-2-.4-2.7-1.2-.7-.8-1.1-1.9-1.1-3.1v-.2h7.9v-.7c0-1.6-.4-2.8-1.2-3.7-.7-1-1.7-1.5-3.1-1.5zm3.2 4.8h-6.6c.1-1.1.5-2 1.1-2.7.6-.7 1.4-1 2.3-1 .9 0 1.7.3 2.2 1 .6.7.9 1.5.9 2.6v.1zM137.6 9.3v-1.8h-1.2v11h1.2v-7.5c.2-.8.6-1.4 1.1-1.8.5-.4 1.2-.6 1.9-.6.3 0 .6 0 .8.1v-1.1c-.2-.1-.5-.1-.8-.1-1.3-.2-2.4.5-3 1.8zM148.5 7.3c-.7 0-1.4.2-2 .5-.6.4-1.1.9-1.5 1.6v-1.9h-1.2v11h1.2v-7.5c.3-.8.7-1.4 1.3-1.9.6-.5 1.2-.7 2-.7.9 0 1.6.2 2 .7.4.5.6 1.2.6 2.2v7.2h1.2v-7.2c0-1.3-.3-2.3-.9-3-.6-.7-1.5-1-2.7-1zM159.5 7.3c-.9 0-1.6.2-2.4.7-.7.5-1.3 1.2-1.7 2-.4.8-.6 1.8-.6 2.9v.4c0 1 .2 1.9.6 2.8.4.8 1 1.5 1.8 1.9.8.5 1.6.7 2.5.7 1.7 0 3-.6 3.9-1.9l-.8-.6c-.4.5-.9.9-1.4 1.1-.5.2-1.1.4-1.7.4-1.1 0-2-.4-2.7-1.2-.7-.8-1.1-1.9-1.1-3.1v-.2h7.9v-.7c0-1.6-.4-2.8-1.2-3.7-.7-1-1.7-1.5-3.1-1.5zm3.2 4.8h-6.6c.1-1.1.5-2 1.1-2.7.6-.7 1.4-1 2.3-1 .9 0 1.7.3 2.2 1 .6.7.9 1.5.9 2.6v.1zM169.9 17.7c-.5 0-.9-.1-1.1-.4-.2-.3-.3-.8-.3-1.4v-7.4h2.3v-1h-2.3v-2.8h-1.2v2.8h-2v1h2v7.4c0 .9.2 1.7.6 2.1.4.5 1 .7 1.8.7.5 0 1-.1 1.3-.2l-.1-1c-.5.1-.8.2-1 .2zM181.5 10.8c0-1.1-.4-2-1.1-2.6-.7-.6-1.7-.9-2.9-.9s-2.2.3-3 1c-.8.6-1.2 1.4-1.2 2.3h1.2c0-.6.3-1.1.8-1.6.6-.4 1.3-.7 2.1-.7.9 0 1.6.2 2.1.7.5.5.7 1.1.7 1.9v1.3h-2.2c-1.6 0-2.8.3-3.7.9-.9.6-1.3 1.5-1.3 2.5 0 .9.3 1.6 1 2.2s1.5.9 2.6.9c.7 0 1.4-.2 2.1-.5.7-.3 1.2-.7 1.6-1.3 0 .7.1 1.2.2 1.5h1.3v-.1c-.2-.5-.3-1.3-.3-2.4v-5.1zm-1.2 4.7c-.3.7-.8 1.2-1.4 1.6-.6.4-1.4.6-2.2.6-.7 0-1.3-.2-1.8-.6-.5-.4-.7-.9-.7-1.5 0-.8.3-1.3 1-1.8.7-.4 1.6-.7 2.9-.7h2.2v2.4zM186.6 9.5c.6-.8 1.5-1.2 2.6-1.2.9 0 1.6.3 2.1.8.6.5.9 1.2.9 2.1h1.2c-.1-1.2-.5-2.1-1.3-2.8-.8-.7-1.8-1.1-3-1.1-1 0-1.8.2-2.5.7-.7.5-1.3 1.1-1.6 1.9-.4.8-.6 1.8-.6 2.9v.4c0 1.7.4 3 1.3 4.1.8 1 2 1.5 3.4 1.5.7 0 1.4-.2 2.1-.5.6-.3 1.2-.7 1.5-1.3.4-.6.6-1.2.6-1.8h-1.2c0 .8-.4 1.4-.9 1.9-.6.5-1.3.7-2.1.7-1.1 0-2-.4-2.6-1.2-.6-.8-.9-1.9-.9-3.3v-.4c.1-1.5.4-2.6 1-3.4zM197.6 9.5c.6-.8 1.5-1.2 2.6-1.2.9 0 1.6.3 2.1.8.6.5.9 1.2.9 2.1h1.2c-.1-1.2-.5-2.1-1.3-2.8-.8-.7-1.8-1.1-3-1.1-1 0-1.8.2-2.5.7-.7.5-1.3 1.1-1.6 1.9-.4.8-.6 1.8-.6 2.9v.4c0 1.7.4 3 1.3 4.1.8 1 2 1.5 3.4 1.5.7 0 1.4-.2 2.1-.5.6-.3 1.2-.7 1.5-1.3.4-.6.6-1.2.6-1.8h-1.2c0 .8-.4 1.4-.9 1.9-.6.5-1.3.7-2.1.7-1.1 0-2-.4-2.6-1.2-.6-.8-.9-1.9-.9-3.3v-.4c.1-1.5.4-2.6 1-3.4zM211.2 7.3c-.9 0-1.6.2-2.4.7-.7.5-1.3 1.2-1.7 2-.4.8-.6 1.8-.6 2.9v.4c0 1 .2 1.9.6 2.8.4.8 1 1.5 1.8 1.9.8.5 1.6.7 2.5.7 1.7 0 3-.6 3.9-1.9l-.8-.6c-.4.5-.9.9-1.4 1.1-.5.2-1.1.4-1.7.4-1.1 0-2-.4-2.7-1.2-.7-.8-1.1-1.9-1.1-3.1v-.2h7.9v-.7c0-1.6-.4-2.8-1.2-3.7-.7-1-1.7-1.5-3.1-1.5zm3.2 4.8h-6.6c.1-1.1.5-2 1.1-2.7s1.4-1 2.3-1c.9 0 1.7.3 2.2 1 .6.7.9 1.5.9 2.6v.1zM224.5 13.2c-.5-.3-1.3-.6-2.4-.8-1.1-.3-1.8-.5-2.2-.8-.4-.3-.6-.7-.6-1.3 0-.6.2-1 .7-1.4.5-.4 1.1-.5 1.9-.5.8 0 1.5.2 2 .6.5.4.8 1 .8 1.6h1.2c0-1-.4-1.8-1.1-2.4-.7-.6-1.7-.9-3-.9-1.1 0-2.1.3-2.8.9-.7.6-1.1 1.3-1.1 2.2 0 .5.1 1 .4 1.4.3.4.7.7 1.2 1 .5.3 1.3.5 2.3.7 1 .2 1.7.5 2.2.9.5.4.7.9.7 1.5s-.3 1-.8 1.4c-.5.4-1.2.6-2.1.6-.9 0-1.6-.2-2.2-.6-.6-.4-.9-1-.9-1.7h-1.2c0 1 .4 1.7 1.2 2.4.8.6 1.8.9 3.1.9 1.2 0 2.2-.3 2.9-.8.8-.6 1.1-1.3 1.1-2.2 0-.6-.1-1.1-.4-1.5 0-.6-.4-.9-.9-1.2zM235.4 13.2c-.5-.3-1.3-.6-2.4-.8-1.1-.3-1.8-.5-2.2-.8-.4-.3-.6-.7-.6-1.3 0-.6.2-1 .7-1.4.5-.4 1.1-.5 1.9-.5.8 0 1.5.2 2 .6.5.4.8 1 .8 1.6h1.2c0-1-.4-1.8-1.1-2.4-.7-.6-1.7-.9-3-.9-1.1 0-2.1.3-2.8.9-.7.6-1.1 1.3-1.1 2.2 0 .5.1 1 .4 1.4.3.4.7.7 1.2 1 .5.3 1.3.5 2.3.7 1 .2 1.7.5 2.2.9.5.4.7.9.7 1.5s-.3 1-.8 1.4c-.5.4-1.2.6-2.1.6-.9 0-1.6-.2-2.2-.6-.6-.4-.9-1-.9-1.7h-1.2c0 1 .4 1.7 1.2 2.4.8.6 1.8.9 3.1.9 1.2 0 2.2-.3 2.9-.8.8-.6 1.1-1.3 1.1-2.2 0-.6-.1-1.1-.4-1.5 0-.6-.4-.9-.9-1.2zM243.6 4.2c.1-.1.2-.3.2-.5 0-.3-.1-.6-.3-.7-.2-.2-.5-.2-.8-.2h-1.1v3.2h.4v-1.3h.8l.7 1.3h.5l-.8-1.4c.1-.1.3-.2.4-.4zm-1 .1h-.6v-1.2h.7c.2 0 .4.1.5.2.1.1.2.3.2.5s-.1.3-.2.4c-.2.1-.3.1-.6.1zM242.6 1c-1.9 0-3.4 1.5-3.4 3.4s1.5 3.4 3.4 3.4 3.4-1.5 3.4-3.4-1.5-3.4-3.4-3.4zm0 6.3c-1.6 0-2.9-1.3-2.9-2.9s1.3-2.9 2.9-2.9c1.6 0 2.9 1.3 2.9 2.9s-1.3 2.9-2.9 2.9z"/><path class="st7" d="M123.5 28.1c0-.6-.2-1.1-.6-1.5-.4-.4-1-.5-1.7-.5-.5 0-.9.1-1.3.3-.4.2-.7.4-.9.7-.2.3-.3.6-.3.9h1.1c0-.3.1-.5.4-.7.3-.2.6-.3 1-.3s.8.1 1 .3c.2.2.3.5.3.9v.5h-1c-.9 0-1.6.2-2.1.5-.5.4-.7.9-.7 1.5 0 .5.2 1 .6 1.3.4.3.9.5 1.5.5.7 0 1.3-.3 1.8-.8 0 .3.1.5.2.7h1.1v-.1c-.1-.3-.2-.8-.2-1.4v-2.8zm-1.1 2.6c-.1.3-.4.5-.7.7-.3.2-.6.3-1 .3s-.6-.1-.9-.3c-.2-.2-.3-.5-.3-.8 0-.8.7-1.1 2-1.1h.8v1.2zM125.4 23.6h1.1v8.9h-1.1zM134 31l-1.5-4.8h-.9l-1.4 4.7-1.3-4.7h-1l1.8 6.3h.8l1.5-4.8 1.5 4.8h.9l1.8-6.3h-1zM142.2 28.1c0-.6-.2-1.1-.6-1.5-.4-.4-1-.5-1.7-.5-.5 0-.9.1-1.3.3-.4.2-.7.4-.9.7-.2.3-.3.6-.3.9h1.1c0-.3.1-.5.4-.7.3-.2.6-.3 1-.3s.8.1 1 .3c.2.2.3.5.3.9v.5h-1c-.9 0-1.6.2-2.1.5-.5.4-.7.9-.7 1.5 0 .5.2 1 .6 1.3.4.3.9.5 1.5.5.7 0 1.3-.3 1.8-.8 0 .3.1.5.2.7h1.1v-.1c-.1-.3-.2-.8-.2-1.4v-2.8zm-1.1 2.6c-.1.3-.4.5-.7.7-.3.2-.6.3-1 .3s-.6-.1-.9-.3c-.2-.2-.3-.5-.3-.8 0-.8.7-1.1 2-1.1h.8v1.2zM146 30.9l-1.6-4.7h-1.2l2.2 6.2-.2.6c-.1.4-.3.7-.5.8-.2.1-.5.2-.8.2h-.3v.9l.4.1h.2c.8 0 1.5-.5 1.9-1.6l2.5-7.2h-1.1l-1.5 4.7zM153.4 29.3c-.3-.2-.8-.3-1.3-.4-.5-.1-.9-.2-1.1-.4-.2-.1-.3-.3-.3-.6s.1-.5.3-.7c.2-.2.5-.3.9-.3s.7.1.9.3c.2.2.4.5.4.8h1.1c0-.6-.2-1-.7-1.4s-1-.5-1.7-.5-1.2.2-1.7.5c-.4.4-.6.8-.6 1.3 0 .3.1.6.2.8.2.2.4.4.7.6.3.2.7.3 1.3.4.5.1.9.3 1.1.4.2.2.3.4.3.7 0 .3-.1.5-.4.7-.2.2-.6.2-1 .2s-.8-.1-1.1-.3c-.3-.2-.4-.5-.4-.9h-1.1c0 .4.1.7.3 1 .2.3.5.6.9.7.4.2.8.3 1.3.3.7 0 1.3-.2 1.7-.5.4-.3.7-.8.7-1.3 0-.3-.1-.6-.2-.9 0-.1-.2-.3-.5-.5zM163.2 30.8c-.3.6-.8.9-1.6.9s-1.2-.5-1.2-1.4v-4h-1.1v4.1c0 .8.2 1.3.5 1.7.3.4.9.6 1.5.6.8 0 1.4-.2 1.8-.7v.6h1v-6.3h-1.1v4.5zM169.8 29.3c-.3-.2-.8-.3-1.3-.4-.5-.1-.9-.2-1.1-.4-.2-.1-.3-.3-.3-.6s.1-.5.3-.7c.2-.2.5-.3.9-.3s.7.1.9.3c.2.2.4.5.4.8h1.1c0-.6-.2-1-.7-1.4s-1-.5-1.7-.5-1.2.2-1.7.5c-.4.4-.6.8-.6 1.3 0 .3.1.6.2.8.2.2.4.4.7.6.3.2.7.3 1.3.4s.9.3 1.1.4c.2.2.3.4.3.7 0 .3-.1.5-.4.7-.2.2-.6.2-1 .2s-.8-.1-1.1-.3c-.3-.2-.4-.5-.4-.9h-1.1c0 .4.1.7.3 1 .2.3.5.6.9.7.4.2.8.3 1.3.3.7 0 1.3-.2 1.7-.5.4-.3.7-.8.7-1.3 0-.3-.1-.6-.2-.9.1-.1-.2-.3-.5-.5zM174.8 26.1c-.5 0-1 .1-1.4.4-.4.3-.8.7-1 1.1-.2.5-.4 1-.4 1.7v.2c0 .9.3 1.7.8 2.2.5.6 1.2.8 2.1.8 1 0 1.8-.4 2.4-1.2l-.7-.5c-.2.3-.4.5-.7.6s-.6.2-1 .2c-.5 0-1-.2-1.3-.6-.3-.4-.5-.9-.5-1.5h4.2v-.4c0-1-.2-1.8-.7-2.3-.3-.4-1-.7-1.8-.7zm1.5 2.7h-3.1c.1-.6.3-1 .5-1.3.3-.3.7-.5 1.1-.5.4 0 .8.1 1.1.4.2.3.4.8.4 1.4zM185.1 26.1c-.8 0-1.4.3-1.8.8l-.1-.7h-1v8.7h1.1v-3c.4.5 1 .7 1.8.7.7 0 1.3-.3 1.8-.9.4-.6.7-1.3.7-2.3v-.1c0-1-.2-1.8-.7-2.4-.5-.5-1.1-.8-1.8-.8zm.9 5c-.3.4-.7.6-1.2.6-.7 0-1.1-.3-1.5-.9v-3c.3-.6.8-.9 1.5-.9.5 0 .9.2 1.2.6.3.4.5 1 .5 1.7-.1.9-.2 1.5-.5 1.9zM190.2 26.9v-.7h-1v6.3h1.1v-4.5c.3-.6.7-.9 1.4-.9h.5v-1c-.1-.1-.3-.1-.5-.1-.7.1-1.2.4-1.5.9zM195.9 26.1c-.6 0-1 .1-1.5.4-.4.3-.8.6-1 1.1-.2.5-.4 1-.4 1.7v.1c0 1 .3 1.8.8 2.3.5.6 1.2.9 2.1.9.6 0 1.1-.1 1.5-.4.4-.3.8-.6 1-1.1.2-.5.3-1 .3-1.6v-.1c0-1-.3-1.8-.8-2.4-.5-.6-1.2-.9-2-.9zm1.3 5c-.3.4-.8.6-1.3.6s-1-.2-1.3-.6c-.3-.4-.5-1-.5-1.7 0-.8.2-1.4.5-1.8.3-.4.7-.6 1.3-.6.5 0 1 .2 1.3.6.3.4.5 1 .5 1.7 0 .8-.2 1.4-.5 1.8zM201.9 31.5c-.1-.1-.2-.3-.2-.6v-3.9h1.2v-.8h-1.2v-1.5h-1.1v1.5h-1.1v.8h1.1v3.9c0 .5.1.9.4 1.2.2.3.6.4 1.1.4.3 0 .5 0 .8-.1v-.9c-.2 0-.4.1-.5.1-.2.1-.4 0-.5-.1zM206.7 26.1c-.5 0-1 .1-1.4.4-.4.3-.8.7-1 1.1-.2.5-.4 1-.4 1.7v.2c0 .9.3 1.7.8 2.2.5.6 1.2.8 2.1.8 1 0 1.8-.4 2.4-1.2l-.7-.5c-.2.3-.4.5-.7.6-.3.2-.6.2-1 .2-.5 0-1-.2-1.3-.6-.3-.4-.5-.9-.5-1.5h4.2v-.4c0-1-.2-1.8-.7-2.3-.4-.4-1-.7-1.8-.7zm1.5 2.7h-3.1c.1-.6.3-1 .5-1.3.3-.3.7-.5 1.1-.5.4 0 .8.1 1.1.4.2.3.4.8.4 1.4zM212 27.6c.3-.4.7-.6 1.3-.6.4 0 .7.1 1 .4.3.3.4.6.5 1h1c0-.7-.3-1.2-.7-1.6-.5-.4-1-.6-1.7-.6-.6 0-1.1.1-1.5.4-.4.3-.7.6-1 1.1-.2.5-.3 1-.3 1.6v.2c0 1 .3 1.8.8 2.3.5.6 1.2.9 2 .9.4 0 .8-.1 1.2-.3s.7-.5.9-.8c.2-.3.4-.7.4-1h-1c0 .3-.2.6-.5.9-.3.2-.6.3-1 .3-.6 0-1-.2-1.3-.6-.3-.4-.4-.9-.4-1.7v-.2c-.1-.8.1-1.3.3-1.7zM219 31.5c-.1-.1-.2-.3-.2-.6v-3.9h1.2v-.8h-1.2v-1.5h-1.1v1.5h-1.1v.8h1.1v3.9c0 .5.1.9.4 1.2.2.3.6.4 1.1.4.3 0 .5 0 .8-.1v-.9c-.2 0-.4.1-.5.1-.2.1-.4 0-.5-.1zM221.5 26.2h1.1v6.3h-1.1zM222.1 23.9c-.2 0-.4.1-.5.2-.1.1-.2.3-.2.4 0 .2.1.3.2.4.1.1.3.2.5.2s.4-.1.5-.2.2-.3.2-.4c0-.2-.1-.3-.2-.4-.2-.1-.3-.2-.5-.2zM227.1 26.1c-.6 0-1 .1-1.5.4-.4.3-.8.6-1 1.1-.2.5-.4 1-.4 1.7v.1c0 1 .3 1.8.8 2.3.5.6 1.2.9 2.1.9.6 0 1.1-.1 1.5-.4.4-.3.8-.6 1-1.1.2-.5.3-1 .3-1.6v-.1c0-1-.3-1.8-.8-2.4-.5-.6-1.2-.9-2-.9zm1.3 5c-.3.4-.8.6-1.3.6s-1-.2-1.3-.6c-.3-.4-.5-1-.5-1.7 0-.8.2-1.4.5-1.8.3-.4.7-.6 1.3-.6.5 0 1 .2 1.3.6.3.4.5 1 .5 1.7-.1.8-.2 1.4-.5 1.8zM234.4 26.1c-.8 0-1.4.3-1.9.9v-.8h-1v6.3h1.1v-4.5c.1-.3.4-.5.6-.7.3-.2.6-.3.9-.3.4 0 .7.1.9.3.2.2.3.5.3 1v4.1h1.1v-4.1c0-1.5-.7-2.2-2-2.2zM241.4 23.2c.1-.1.1-.3.1-.4 0-.3-.1-.5-.2-.6-.2-.1-.4-.2-.7-.2h-.9v2.7h.4v-1.1h.6l.6 1.1h.4l-.6-1.2.3-.3zm-.8 0h-.6v-1h.5c.2 0 .3 0 .4.1.1.1.2.2.2.4s-.1.3-.2.4c0 .1-.1.1-.3.1zM240.6 20.5c-1.6 0-2.9 1.3-2.9 2.9s1.3 2.9 2.9 2.9 2.9-1.3 2.9-2.9-1.4-2.9-2.9-2.9zm0 5.3c-1.3 0-2.4-1.1-2.4-2.4 0-1.3 1.1-2.4 2.4-2.4s2.4 1.1 2.4 2.4c0 1.3-1.1 2.4-2.4 2.4z"/></svg>