<svg xmlns="http://www.w3.org/2000/svg" viewBox="0 0 161.94 115.67"><path fill="#53b04c" d="M42.78 111.3c-2.9 2.9-5.82 4.37-8.73 4.37h-14.4c-3.8 0-5.67-1.02-5.67-3.06 0-2.03.58-3.63 1.75-4.8l14.4-19.64c2.03-2.9 3.06-5.52 3.06-7.86 0-2.33-1.46-3.93-4.37-4.8h-3.06C8.58 75.5 0 67.66 0 51.94V27.06C0 9.02 8.73 0 26.2 0h23.57C67.8 0 76.82 9.02 76.82 27.06v24.88c0 4.37-1.38 9.75-4.15 16.15S65.75 81.34 60.23 88.6l-17.45 22.7zm85.1 0c-2.9 2.9-5.82 4.37-8.73 4.37h-14.4c-3.8 0-5.67-1.02-5.67-3.06 0-2.03.58-3.63 1.75-4.8l14.4-19.64c2.03-2.9 3.06-5.52 3.06-7.86 0-2.33-1.46-3.93-4.37-4.8h-3.06c-17.17 0-25.75-7.86-25.75-23.57v-24.9C85.12 9.02 93.85 0 111.3 0h23.57c18.04 0 27.06 9.02 27.06 27.06v24.88c0 4.37-1.38 9.75-4.15 16.15s-6.92 13.25-12.44 20.52l-17.46 22.7z"/></svg>