<svg enable-background="new 0 0 807.8 85.7" viewBox="0 0 807.8 85.7" xmlns="http://www.w3.org/2000/svg" preserveAspectRatio="none"><path fill="#4CC273" d="M47.2 5.406v3h757.6v69h-15.4v3h18.3v-74.9h-760.5zM754.3 77.306h-751.4v-69h11v-3h-13.9v74.9h754.3v-2.9zM30.943 9.6c0 2.4 1.9 4.3 4.3 4.3s4.3-1.9 4.3-4.3c0-1.8-1.2-3.5-2.9-4.1l1.5-5.6h-2.6l-3.9 7.7c-.5.7-.7 1.4-.7 2zM21.743 9.6c0 2.4 1.9 4.3 4.3 4.3s4.3-1.9 4.3-4.3c0-1.8-1.2-3.5-2.9-4.1l1.5-5.6h-2.6l-3.9 7.7c-.5.7-.7 1.4-.7 2zM773.6 76.089c0-2.4-1.9-4.3-4.3-4.3s-4.3 1.9-4.3 4.3c0 1.8 1.2 3.5 2.9 4.1l-1.5 5.6h2.6l3.9-7.7c.5-.7.7-1.3.7-2zM782.8 76.089c0-2.4-1.9-4.3-4.3-4.3s-4.3 1.9-4.3 4.3c0 1.8 1.2 3.5 2.9 4.1l-1.5 5.6h2.6l3.9-7.7c.5-.7.7-1.3.7-2z"/></svg>