<svg viewBox="0 0 807.78 259.72" xmlns="http://www.w3.org/2000/svg" preserveAspectRatio="none"><path fill="#4cc273" d="M47.22 5.4v3h757.64v243.04h-15.42v3h18.34v-249.04zM754.34 251.44h-751.43v-243.06h11.09v-3h-14v249h754.34zM31 9.64a4.29 4.29 0 1 0 5.65-4l1.41-5.64h-2.63l-3.95 7.74a3.2 3.2 0 0 0-.48 1.9zM21.74 9.64a4.29 4.29 0 1 0 5.65-4l1.46-5.64h-2.63l-3.94 7.74a3.29 3.29 0 0 0-.54 1.9zM773.57 250.07a4.29 4.29 0 1 0-5.65 4.05l-1.46 5.6h2.63l3.91-7.72a3.12 3.12 0 0 0 .57-1.93zM782.78 250.07a4.29 4.29 0 1 0-5.65 4.05l-1.46 5.6h2.63l3.94-7.75a3.12 3.12 0 0 0 .54-1.9z"/></svg>