<svg xmlns="http://www.w3.org/2000/svg" viewBox="0 0 244.2 20.6" enable-background="new 0 0 244.2 20.6"><style type="text/css">.st0{enable-background:new ;} .st1{fill:#004249;} .st2{fill:#3AB54A;} .st3{fill:#005128;} .st4{fill:#73CF11;} .st5{fill:#E5E5E5;} .st6{fill:#FFFFFF;}</style><title>Asset 1</title><g id="Layer_2-2"><path class="st1" d="M9.8 17c-.7.3-1.4.4-2.1.4-1.1 0-2.1-.2-2.9-.6-.8-.3-1.6-.8-2.2-1.5-.6-.6-1-1.4-1.4-2.3-.3-.9-.5-1.9-.5-2.9 0-1.1.2-2.1.5-3 .4-.9.8-1.7 1.4-2.4.6-.7 1.4-1.2 2.2-1.6.9-.4 1.9-.6 2.9-.6.7 0 1.4.1 2.1.3.7.2 1.3.5 1.9 1 .6.4 1 1 1.4 1.6.4.6.6 1.3.7 2.2h-3c-.2-.8-.5-1.4-1.1-1.8-.5-.4-1.2-.6-1.9-.6s-1.3.1-1.8.4c-.5.2-.9.6-1.2 1.1s-.5 1-.7 1.6c-.1.5-.2 1.1-.2 1.8 0 .6.1 1.2.2 1.8.1.6.4 1.1.7 1.5s.7.8 1.2 1.1c.5.3 1.1.4 1.8.4 1 0 1.8-.3 2.4-.8.6-.5.9-1.3 1-2.3h-3.2v-2.4h6v7.7h-2l-.3-1.6c-.6.7-1.2 1.2-1.9 1.5zM19 6.8v1.9c.1-.3.3-.6.5-.9s.5-.5.8-.7l.9-.5c.3-.1.7-.2 1-.2.2 0 .4 0 .6.1v2.6c-.1 0-.3 0-.5-.1h-.5c-.5 0-1 .1-1.3.3-.4.2-.6.4-.9.7-.2.3-.4.6-.5 1s-.1.8-.1 1.3v4.7h-2.8v-10.2h2.8z"/><g class="st0"><path class="st1" d="M26.7 14.7c.4.4 1 .6 1.8.6.6 0 1.1-.1 1.5-.4.4-.3.7-.6.8-.9h2.5c-.4 1.2-1 2.1-1.8 2.7s-1.8.8-3 .8c-.8 0-1.5-.1-2.2-.4-.7-.3-1.2-.6-1.7-1.1-.5-.5-.8-1.1-1-1.7-.2-.7-.4-1.4-.4-2.2 0-.8.1-1.5.4-2.2.3-.7.6-1.2 1.1-1.7.5-.5 1-.9 1.7-1.2.6-.3 1.4-.4 2.1-.4.9 0 1.6.2 2.3.5.7.3 1.2.8 1.6 1.4s.7 1.2.9 2c.2.7.3 1.5.2 2.3h-7.5c.1.8.3 1.4.7 1.9zm3.2-5.5c-.3-.4-.9-.6-1.6-.6-.5 0-.8.1-1.1.2-.2.2-.5.4-.7.7-.2.2-.3.5-.4.7s-.1.5-.1.7h4.6c-.1-.8-.3-1.3-.7-1.7zM35.5 8.3c.3-.4.7-.8 1.1-1.1.5-.3 1-.5 1.5-.6s1.1-.2 1.7-.2c.5 0 1 0 1.6.1s1 .2 1.5.4c.4.2.8.5 1.1.9.3.4.4.9.4 1.5v5.4c0 .5 0 .9.1 1.3s.1.7.3 1h-2.9c-.1-.2-.1-.3-.1-.5l-.1-.5c-.5.5-1 .8-1.6 1-.6.2-1.2.3-1.9.3-.5 0-1-.1-1.4-.2s-.8-.3-1.1-.6c-.3-.3-.6-.6-.8-1-.2-.4-.3-.8-.3-1.4 0-.6.1-1.1.3-1.4.2-.4.5-.7.8-.9s.7-.4 1.1-.5c.4-.1.8-.2 1.3-.3.4-.1.8-.1 1.3-.2.4 0 .8-.1 1.1-.2s.6-.2.8-.4c.2-.2.3-.4.3-.7 0-.3 0-.5-.1-.7-.1-.2-.2-.3-.4-.4-.2-.1-.4-.2-.6-.2h-.7c-.6 0-1 .1-1.3.4-.4.4-.6.8-.6 1.4h-2.9c.1-.7.2-1.2.5-1.7zm5.6 4c-.2.1-.4.1-.6.1-.2 0-.4.1-.7.1l-.7.1c-.2 0-.4.1-.6.2s-.4.2-.5.3c-.2.1-.3.3-.4.4-.1.2-.1.4-.1.7 0 .3 0 .5.1.6.1.2.2.3.4.4.2.1.3.2.6.2.2 0 .4.1.7.1.6 0 1-.1 1.3-.3.3-.2.5-.4.7-.7l.3-.8v-1.7000000000000002c-.1.2-.3.3-.5.3zM52.3 6.8v1.9h-2.1v5.1c0 .5.1.8.2 1 .2.2.5.2 1 .2h.5c.1 0 .3 0 .4-.1v2.2c-.2 0-.5.1-.8.1h-.9c-.4 0-.9 0-1.3-.1s-.7-.2-1-.3c-.3-.2-.5-.4-.7-.7-.2-.3-.3-.7-.3-1.3v-6.1h-1.7v-1.9h1.7v-3.1h2.8v3.1h2.2z"/></g><g id="Trustpilot_brandmark_gr-blk_RGB"><path id="Path_60" class="st1" d="M185.2 7.9h8.1v1.5h-3.2v8.5h-1.8v-8.5h-3.2c.1 0 .1-1.5.1-1.5zm7.8 2.7h1.5v1.4l.3-.6c.1-.2.3-.4.5-.5.2-.2.4-.3.6-.4.2-.1.5-.1.7-.1h.6000000000000001v1.6h-.7c-.3 0-.5.1-.8.2-.2.1-.5.3-.6.5-.2.2-.3.5-.4.8-.1.3-.2.7-.2 1.1v3.4h-1.5v-7.4zm11.6 7.3h-1.6v-1c-.2.4-.5.7-.9.9-.4.2-.8.3-1.2.3-.8.1-1.5-.2-2.1-.7-.5-.6-.7-1.4-.6-2.1v-4.6h1.6v4.4c-.1.5.1 1 .4 1.3.3.3.6.4 1 .4.3 0 .6 0 .8-.2.2-.1.4-.2.6-.4l.3-.6c.1-.3.1-.5.1-.8v-4.2h1.6v7.3zm2.7-2.3c0 .4.2.8.5 1 .3.2.7.3 1.1.3h.5c.2 0 .4-.1.5-.1.2-.1.3-.2.4-.3.1-.1.2-.3.1-.5 0-.2-.1-.4-.2-.5l-.5-.3c-.2-.1-.5-.2-.8-.2l-.9-.2-.9-.2c-.3-.1-.5-.2-.7-.4-.2-.2-.4-.4-.5-.6-.1-.3-.2-.6-.2-.9 0-.4.1-.7.3-1 .2-.3.4-.5.7-.6.3-.2.7-.3 1-.4.3-.1.7-.1 1-.1.4 0 .7 0 1.1.1.3.1.6.2.9.4.3.2.5.4.7.7.2.3.3.6.3 1h-1.7c0-.3-.2-.6-.5-.8-.3-.1-.6-.2-.9-.2h-.4c-.2 0-.3.1-.4.1l-.4.2c-.1.1-.1.2-.1.4s.1.4.2.5l.5.3.7.2.9.2.9.2c.3.1.5.2.8.4.2.2.4.4.5.6.1.3.2.6.2.9 0 .4-.1.8-.3 1.1-.2.3-.5.5-.8.7-.3.2-.7.4-1.1.5-.4.1-.8.1-1.1.1-.4 0-.8 0-1.3-.1-.4-.1-.7-.3-1-.5-.3-.2-.5-.5-.7-.8-.2-.3-.3-.7-.3-1.1l1.9-.1zm5.3-5h1.2v-2.1h1.6v2.2h1.4v1.2h-1.4v4.3l.1.3c.1.1.1.2.2.2l.4.1h.6v1.2l-.5.1h-.5c-.3 0-.7 0-1-.1-.2-.1-.4-.2-.6-.4-.2-.2-.3-.4-.3-.6-.1-.3-.1-.5-.1-.8v-4.3h-1.2l.1-1.3zm5.4 0h1.5v1c.2-.4.5-.7.9-.9.9-.4 1.9-.4 2.8 0 .4.2.8.5 1.1.8.3.4.5.8.6 1.2.1.5.2 1 .2 1.5s-.1 1-.2 1.4c-.1.4-.3.8-.6 1.2-.3.4-.6.6-1 .8-.4.2-.9.3-1.4.3-.2 0-.5 0-.7-.1-.2 0-.5-.1-.7-.2-.2-.1-.4-.2-.6-.4-.2-.1-.3-.3-.5-.5v3.6h-1.6l.2-9.7zm5.6 3.7c0-.3 0-.6-.1-.9-.1-.3-.2-.6-.4-.8l-.6-.6c-.8-.4-1.8-.2-2.4.5-.4.6-.5 1.2-.5 1.9 0 .3 0 .7.1 1 .1.3.2.6.4.8.2.2.4.4.6.5.6.3 1.2.3 1.8 0 .2-.1.5-.3.6-.6.2-.2.3-.5.4-.8 0-.4 0-.7.1-1zm2.8-6.4h1.6v1.5h-1.6v-1.5zm0 2.7h1.6v7.3h-1.6v-7.3zm3-2.7h1.6v10h-1.6v-10zm6.5 10.2c-.5 0-1.1-.1-1.5-.3-.9-.4-1.6-1.1-1.9-2-.2-.5-.3-1-.3-1.5s.1-1 .3-1.5c.2-.4.4-.9.7-1.2.3-.3.7-.6 1.2-.8 1-.4 2.1-.4 3.1 0 .9.4 1.6 1.1 1.9 2 .2.5.3 1 .3 1.5s-.1 1-.3 1.5c-.3.9-1 1.6-1.9 2-.6.2-1.1.3-1.6.3zm0-1.3c.3 0 .6-.1.9-.2.3-.1.5-.3.6-.6.2-.3.3-.5.4-.8.2-.6.2-1.3 0-1.9-.1-.3-.2-.6-.4-.8l-.6-.6c-.6-.3-1.3-.3-1.9 0-.3.1-.5.3-.6.6-.2.2-.3.5-.4.8-.2.6-.2 1.3 0 1.9.1.3.2.6.4.8l.6.6c.3.2.6.2 1 .2zm4.1-6.2h1.2v-2.1h1.6v2.2h1.4v1.2h-1.4v4.3c0 .1 0 .2.1.3.1.1.1.2.2.2.1.1.3.1.4.1h.6v1.2l-.5.1h-.5c-.3 0-.7 0-1-.1-.2-.1-.4-.2-.6-.4-.2-.2-.3-.4-.3-.6-.1-.3-.1-.5-.1-.8v-4.3h-1.1v-1.3z"/><g id="Star"><path id="Path_61" class="st2" d="M183.3 7.9h-7.3l-2.3-7-2.3 7h-7.3l5.9 4.3-2.3 7 5.9-4.3 5.9 4.3-2.3-7 6.1-4.3z"/><path id="Path_62" class="st3" d="M177.9 13.8l-.5-1.6-3.7 2.7 4.2-1.1z"/></g></g><path class="st4" d="M60.2 1.8h17.8v17.8h-17.8v-17.8zm19.3 0h17.8v17.8h-17.8v-17.8zm19.3 0h17.8v17.8h-17.8v-17.8zm19.3 0h17.8v17.8h-17.8v-17.8z"/><path class="st5" d="M137.4 1.8h17.8v17.8h-17.8v-17.8z"/><path class="st6" d="M69.2 13.8l2.7-.7 1.1 3.5-3.8-2.8zm6.2-4.5h-4.8l-1.5-4.5-1.5 4.5h-4.8l3.9 2.8-1.5 4.5 3.9-2.8 2.4-1.7 3.9-2.8zm13 4.5l2.7-.7 1.1 3.5-3.8-2.8zm6.3-4.5h-4.8l-1.5-4.5-1.4 4.5h-4.8l3.9 2.8-1.5 4.5 3.9-2.8 2.4-1.7c-.1 0 3.8-2.8 3.8-2.8zm13 4.5l2.7-.7 1.1 3.5-3.8-2.8zm6.3-4.5h-4.8l-1.5-4.5-1.5 4.5h-4.8l3.9 2.8-1.5 4.5 3.9-2.8 2.4-1.7 3.9-2.8zm13 4.5l2.7-.7 1.1 3.5-3.8-2.8zm6.2-4.5h-4.7l-1.5-4.5-1.5 4.5h-4.7l3.9 2.8-1.5 4.5 3.9-2.8 2.4-1.7 3.7-2.8zm13.1 4.5l2.7-.7 1.1 3.5-3.8-2.8zm6.3-4.5h-4.8l-1.5-4.5-1.5 4.5h-4.8l3.9 2.8-1.5 4.5 3.9-2.8 2.4-1.7 3.9-2.8z"/></g></svg>