<svg xmlns="http://www.w3.org/2000/svg" viewBox="0 0 244.24 45.43"><defs><style>.cls-1,.cls-2,.cls-3{isolation:isolate;}.cls-2{font-size:14px;font-family:Helvetica;}.cls-2,.cls-3,.cls-5{fill:#004249;}.cls-3{font-size:20px;font-family:HelveticaNeue-Bold, Helvetica Neue;font-weight:700;}.cls-4{letter-spacing:-0.02em;}.cls-6{fill:#3ab54a;}.cls-7{fill:#005128;}.cls-8{fill:#73cf11;}.cls-9{fill:#e5e5e5;}.cls-10{fill:#fff;}</style></defs><title>Asset 1</title><g id="Layer_2-2"><text class="cls-2" transform="translate(50.13 38.7)" id="based_on_5484reviews">based on 5535 reviews</text><text class="cls-3" transform="translate(0 17.14)" id="Excellent">G<tspan class="cls-4" x="15.18" y="0">r</tspan><tspan x="22.6" y="0">eat</tspan></text><g id="Trustpilot_brandmark_gr-blk_RGB"><path id="Path_60" class="cls-5" d="M185.19 7.87h8.11v1.52h-3.19v8.5h-1.75v-8.5h-3.17v-1.52zm7.81 2.77h1.5v1.36a1.69 1.69 0 0 1 .28-.57 2.16 2.16 0 0 1 .49-.51 2.71 2.71 0 0 1 .63-.38 2 2 0 0 1 .72-.14h.38a1.46 1.46 0 0 0 .22 0v1.6h-.7a1.83 1.83 0 0 0-.76.17 1.79 1.79 0 0 0-.62.47 2.36 2.36 0 0 0-.42.78 3.19 3.19 0 0 0-.16 1.07v3.45h-1.56v-7.3zm11.59 7.25h-1.59v-1a2.17 2.17 0 0 1-.87.88 2.47 2.47 0 0 1-1.19.33 2.67 2.67 0 0 1-2.07-.71 3.11 3.11 0 0 1-.64-2.14v-4.6h1.6v4.45a1.92 1.92 0 0 0 .37 1.35 1.35 1.35 0 0 0 1 .4 2 2 0 0 0 .84-.16 1.33 1.33 0 0 0 .55-.42 1.7 1.7 0 0 0 .3-.62 3.39 3.39 0 0 0 .09-.78v-4.22h1.6zm2.72-2.32a1.25 1.25 0 0 0 .53 1 2.16 2.16 0 0 0 1.11.28 4.36 4.36 0 0 0 .51 0 2.15 2.15 0 0 0 .54-.14 1 1 0 0 0 .41-.29.67.67 0 0 0 .15-.49.68.68 0 0 0-.22-.5 1.64 1.64 0 0 0-.54-.32 5.26 5.26 0 0 0-.75-.21l-.85-.18a6.59 6.59 0 0 1-.87-.24 3.05 3.05 0 0 1-.74-.38 1.7 1.7 0 0 1-.52-.61 1.93 1.93 0 0 1-.2-.92 1.67 1.67 0 0 1 .29-1 2.25 2.25 0 0 1 .73-.64 3.37 3.37 0 0 1 1-.35 7.18 7.18 0 0 1 1-.1 5 5 0 0 1 1.08.12 2.78 2.78 0 0 1 .92.39 2.39 2.39 0 0 1 .69.69 2.41 2.41 0 0 1 .34 1h-1.66a1 1 0 0 0-.53-.77 2 2 0 0 0-.94-.2h-.4a2.18 2.18 0 0 0-.44.11 1 1 0 0 0-.35.23.53.53 0 0 0-.14.38.58.58 0 0 0 .21.48 1.62 1.62 0 0 0 .53.3 6.21 6.21 0 0 0 .74.2l.87.19a7.76 7.76 0 0 1 .86.24 2.41 2.41 0 0 1 .75.38 1.8 1.8 0 0 1 .53.6 1.88 1.88 0 0 1 .2.9 1.94 1.94 0 0 1-.3 1.1 2.4 2.4 0 0 1-.76.73 3.64 3.64 0 0 1-1.09.45 5.45 5.45 0 0 1-1.14.12 4.51 4.51 0 0 1-1.26-.12 2.92 2.92 0 0 1-1-.47 2.29 2.29 0 0 1-.67-.78 2.71 2.71 0 0 1-.27-1.12h1.62zm5.27-4.93h1.21v-2.18h1.6v2.18h1.45v1.19h-1.45v4.32a1.12 1.12 0 0 0 .1.31.5.5 0 0 0 .24.19 1 1 0 0 0 .42.06h.34a2 2 0 0 0 .34 0v1.23l-.52.06a4.36 4.36 0 0 1-.51 0 3.48 3.48 0 0 1-1-.12 1.28 1.28 0 0 1-.6-.36 1.24 1.24 0 0 1-.3-.58 3.57 3.57 0 0 1-.09-.8v-4.29h-1.21v-1.21zm5.38 0h1.52v1a2 2 0 0 1 .94-.9 3.58 3.58 0 0 1 2.8 0 2.86 2.86 0 0 1 1.06.82 3.68 3.68 0 0 1 .63 1.23 5.09 5.09 0 0 1 .22 1.5 5.24 5.24 0 0 1-.2 1.42 3.73 3.73 0 0 1-.57 1.21 2.8 2.8 0 0 1-1 .84 2.94 2.94 0 0 1-1.4.32 4.14 4.14 0 0 1-.7-.06 2.74 2.74 0 0 1-.67-.21 2.39 2.39 0 0 1-.59-.36 2 2 0 0 1-.46-.51v3.62h-1.6zm5.59 3.63a3.4 3.4 0 0 0-.13-.95 2.78 2.78 0 0 0-.38-.82 2 2 0 0 0-.63-.57 2 2 0 0 0-2.39.48 3.14 3.14 0 0 0-.51 1.86 3.49 3.49 0 0 0 .14 1 2.05 2.05 0 0 0 .4.81 1.9 1.9 0 0 0 .63.53 2 2 0 0 0 1.79 0 1.81 1.81 0 0 0 .62-.58 2.45 2.45 0 0 0 .36-.81 4.92 4.92 0 0 0 .06-.95zm2.82-6.4h1.6v1.52h-1.6zm0 2.77h1.6v7.25h-1.6zm3-2.77h1.63v10h-1.6zm6.5 10.22a3.87 3.87 0 0 1-1.54-.29 3.25 3.25 0 0 1-1.87-2 4.78 4.78 0 0 1-.25-1.54 4.67 4.67 0 0 1 .25-1.53 3.51 3.51 0 0 1 .71-1.21 3.42 3.42 0 0 1 1.16-.79 4.25 4.25 0 0 1 3.1 0 3.23 3.23 0 0 1 1.86 2 4.67 4.67 0 0 1 .25 1.53 4.78 4.78 0 0 1-.25 1.54 3.22 3.22 0 0 1-1.86 2 4 4 0 0 1-1.56.29zm0-1.27a1.85 1.85 0 0 0 .93-.22 1.91 1.91 0 0 0 .64-.59 2.78 2.78 0 0 0 .38-.82 3.66 3.66 0 0 0 0-1.86 2.36 2.36 0 0 0-.38-.82 1.88 1.88 0 0 0-.64-.58 2 2 0 0 0-1.85 0 2.1 2.1 0 0 0-.64.58 2.55 2.55 0 0 0-.38.82 3.66 3.66 0 0 0 0 1.86 2.28 2.28 0 0 0 .38.82 1.91 1.91 0 0 0 .64.59 1.74 1.74 0 0 0 .92.22zm4.13-6.18h1.21v-2.18h1.6v2.18h1.44v1.19h-1.44v3.88a3.31 3.31 0 0 0 0 .44.71.71 0 0 0 .1.31.43.43 0 0 0 .23.19 1 1 0 0 0 .43.06h.33a1.86 1.86 0 0 0 .34 0v1.23l-.51.06a4.53 4.53 0 0 1-.52 0 3.56 3.56 0 0 1-1-.12 1.38 1.38 0 0 1-.6-.36 1.24 1.24 0 0 1-.3-.58 5.29 5.29 0 0 1-.09-.8v-4.29h-1.22v-1.21z"/><g id="Star"><path id="Path_61" class="cls-6" d="M183.33 7.87h-7.33l-2.27-7-2.27 7h-7.32l5.93 4.31-2.27 7 5.93-4.3 5.93 4.3-2.26-7z"/><path id="Path_62" class="cls-7" d="M177.91 13.76l-.5-1.58-3.67 2.66z"/></g></g><path class="cls-8" d="M60.24 1.83h17.81v17.81h-17.81zM79.54 1.83h17.81v17.81h-17.81zM98.84 1.83h17.81v17.81h-17.81zM118.13 1.83h17.81v17.81h-17.81z"/><path class="cls-9" d="M137.43 1.83h17.81v17.81h-17.81z"/><path class="cls-10" d="M69.15 13.84l2.71-.69 1.14 3.49zm6.23-4.51h-4.77l-1.46-4.49-1.47 4.49h-4.77l3.86 2.78-1.46 4.49 3.86-2.78 2.37-1.71 3.84-2.78zM88.44 13.84l2.71-.69 1.14 3.49zm6.24-4.51h-4.77l-1.47-4.49-1.44 4.49h-4.79l3.86 2.78-1.47 4.49 3.86-2.78 2.38-1.71 3.84-2.78zM107.74 13.84l2.71-.69 1.13 3.49zm6.26-4.51h-4.77l-1.47-4.49-1.46 4.49h-4.77l3.86 2.78-1.49 4.49 3.86-2.78 2.37-1.71 3.87-2.78zM127 13.84l2.71-.69 1.13 3.49zm6.23-4.51h-4.73l-1.5-4.49-1.47 4.49h-4.73l3.86 2.78-1.46 4.49 3.86-2.78 2.37-1.71 3.84-2.78zM146.34 13.84l2.7-.69 1.14 3.49zm6.23-4.51h-4.77l-1.46-4.49-1.47 4.49h-4.77l3.9 2.78-1.47 4.49 3.86-2.78 2.38-1.71 3.84-2.78z"/></g></svg>