<svg xmlns="http://www.w3.org/2000/svg" viewBox="0 0 279 44.87"><defs><style>.cls-1,.cls-2,.cls-3{isolation:isolate;}.cls-2{font-size:20px;font-family:HelveticaNeue-Bold, Helvetica Neue;font-weight:700;}.cls-2,.cls-3,.cls-6{fill:#004249;}.cls-3{font-size:14px;font-family:Helvetica;}.cls-4{fill:#3ab54a;}.cls-5{fill:#fff;}.cls-7{fill:#005128;}</style></defs><title>Layer 1 (2)</title><g id="Layer_2" data-name="Layer 2"><g id="Layer_2-2" data-name="Layer 2"><g id="Layer_1-2" data-name="Layer 1"><g id="Excellent" class="cls-1"><text class="cls-2" transform="translate(0 17.14)">Excellent</text></g><g id="based_on_5484reviews" data-name="based on 5484reviews" class="cls-1"><text class="cls-3" transform="translate(65 38.14)">based on 5484reviews</text></g><g id="Trustpilot_ratings_5star-RGB" data-name="Trustpilot ratings 5star-RGB"><rect id="Rectangle_7" data-name="Rectangle 7" class="cls-4" x="95" y="2.25" width="17.93" height="17.45"/><rect id="Rectangle_8" data-name="Rectangle 8" class="cls-4" x="114.39" y="2.25" width="17.93" height="17.45"/><rect id="Rectangle_9" data-name="Rectangle 9" class="cls-4" x="133.78" y="2.25" width="17.45" height="17.45"/><rect id="Rectangle_10" data-name="Rectangle 10" class="cls-4" x="153.16" y="2.25" width="17.45" height="17.45"/><rect id="Rectangle_11" data-name="Rectangle 11" class="cls-4" x="172.07" y="2.25" width="17.93" height="17.45"/><g id="Group_9" data-name="Group 9"><path id="Path_55" data-name="Path 55" class="cls-5" d="M104,14l2.7-.69,1.13,3.48Zm6.22-4.5H105.5L104,5l-1.47,4.48H97.81l3.86,2.78-1.47,4.49L104.06,14l2.37-1.7,3.83-2.78Z"/></g><g id="Group_10" data-name="Group 10"><path id="Path_56" data-name="Path 56" class="cls-5" d="M123.31,14l2.7-.69,1.13,3.48Zm6.22-4.5h-4.76L123.31,5l-1.47,4.48h-4.76l3.85,2.78-1.46,4.49L123.32,14l2.37-1.7,3.84-2.78Z"/></g><g id="Group_11" data-name="Group 11"><path id="Path_57" data-name="Path 57" class="cls-5" d="M142.57,14l2.7-.69,1.13,3.48Zm6.23-4.5H144L142.57,5l-1.46,4.48h-4.76l3.85,2.78-1.46,4.49L142.59,14l2.37-1.7,3.84-2.78Z"/></g><g id="Group_12" data-name="Group 12"><path id="Path_58" data-name="Path 58" class="cls-5" d="M161.84,14l2.7-.69,1.13,3.48Zm6.22-4.5H163.3L161.84,5l-1.46,4.48h-4.77l3.86,2.78L158,16.73,161.86,14l2.37-1.7,3.83-2.78Z"/></g><g id="Group_13" data-name="Group 13"><path id="Path_59" data-name="Path 59" class="cls-5" d="M181.11,14l2.7-.69,1.13,3.48Zm6.22-4.5h-4.76L181.11,5l-1.47,4.48h-4.76l3.86,2.78-1.47,4.49L181.12,14l2.38-1.7,3.83-2.78Z"/></g></g><g id="Trustpilot_brandmark_gr-blk_RGB" data-name="Trustpilot brandmark gr-blk RGB"><g id="Type"><g id="Group_14" data-name="Group 14"><path id="Path_60" data-name="Path 60" class="cls-6" d="M220,7.32h8.11V8.83h-3.19v8.5h-1.75V8.83H220V7.32Zm7.76,2.76h1.5v1.4h0a1.69,1.69,0,0,1,.28-.57,2.63,2.63,0,0,1,.49-.51,2.52,2.52,0,0,1,.63-.38,2,2,0,0,1,.72-.14l.39,0,.21,0v1.55a1.86,1.86,0,0,0-.34-.05,2.06,2.06,0,0,0-.35,0,1.82,1.82,0,0,0-.76.16,1.79,1.79,0,0,0-.62.47,2.59,2.59,0,0,0-.43.78,3.26,3.26,0,0,0-.15,1.07v3.45h-1.6V10.08Zm11.6,7.25h-1.57v-1h0a2.19,2.19,0,0,1-.88.88,2.36,2.36,0,0,1-1.18.33,2.66,2.66,0,0,1-2.08-.71,3.15,3.15,0,0,1-.63-2.14v-4.6h1.6v4.45a1.92,1.92,0,0,0,.37,1.35,1.33,1.33,0,0,0,1,.4,1.85,1.85,0,0,0,.84-.16,1.4,1.4,0,0,0,.55-.41,1.83,1.83,0,0,0,.3-.63,3.39,3.39,0,0,0,.09-.78V10.09h1.6ZM242,15a1.24,1.24,0,0,0,.53,1,2.16,2.16,0,0,0,1.11.28,4.36,4.36,0,0,0,.51,0,2.15,2.15,0,0,0,.54-.14,1,1,0,0,0,.41-.29.67.67,0,0,0,.15-.49.66.66,0,0,0-.23-.5,1.51,1.51,0,0,0-.53-.32,6.93,6.93,0,0,0-.75-.2l-.86-.19a6.46,6.46,0,0,1-.86-.24,2.48,2.48,0,0,1-.74-.38,1.7,1.7,0,0,1-.52-.61,1.82,1.82,0,0,1-.2-.92,1.67,1.67,0,0,1,.29-1,2.32,2.32,0,0,1,.72-.64,3.76,3.76,0,0,1,1-.35,7,7,0,0,1,1-.1,4.81,4.81,0,0,1,1.07.12,3.06,3.06,0,0,1,.93.39,2.3,2.3,0,0,1,.69.7,2.33,2.33,0,0,1,.34,1H245a1,1,0,0,0-.52-.77,2.08,2.08,0,0,0-1-.2l-.4,0a2.07,2.07,0,0,0-.43.1,1,1,0,0,0-.35.23.5.5,0,0,0-.14.39.6.6,0,0,0,.2.47,1.86,1.86,0,0,0,.53.3,5.26,5.26,0,0,0,.75.21c.29,0,.58.12.87.18a7.76,7.76,0,0,1,.86.24,2.65,2.65,0,0,1,.75.38,2,2,0,0,1,.53.6,1.88,1.88,0,0,1,.2.9,2,2,0,0,1-.3,1.1,2.34,2.34,0,0,1-.77.73,3.47,3.47,0,0,1-1,.41,5.54,5.54,0,0,1-1.14.13,4.91,4.91,0,0,1-1.27-.16,2.92,2.92,0,0,1-1-.47,2.33,2.33,0,0,1-.68-.78,2.56,2.56,0,0,1-.26-1.12H242Zm5.27-4.93h1.21V7.9h1.6v2.18h1.44v1.2h-1.44v3.87c0,.15,0,.29,0,.44a.87.87,0,0,0,.1.31.5.5,0,0,0,.24.19,1,1,0,0,0,.42.06h.34l.34,0v1.23l-.52.06a4.36,4.36,0,0,1-.51,0,3.48,3.48,0,0,1-1-.12,1.26,1.26,0,0,1-.6-.35,1.25,1.25,0,0,1-.3-.58,3.63,3.63,0,0,1-.09-.8V11.29h-1.21V10.08Zm5.38,0h1.51v1h0a2.1,2.1,0,0,1,.94-.9,3.11,3.11,0,0,1,1.31-.27,3.34,3.34,0,0,1,1.49.3A2.86,2.86,0,0,1,259,11a3.68,3.68,0,0,1,.63,1.23,4.81,4.81,0,0,1,.21,1.5,4.86,4.86,0,0,1-.19,1.42,3.54,3.54,0,0,1-.57,1.21,2.86,2.86,0,0,1-1,.85,2.78,2.78,0,0,1-1.39.31,4.14,4.14,0,0,1-.7-.06,2.74,2.74,0,0,1-.67-.21,2.39,2.39,0,0,1-.59-.36,1.87,1.87,0,0,1-.46-.51h0V20h-1.6Zm5.59,3.64a3.83,3.83,0,0,0-.13-1,2.78,2.78,0,0,0-.38-.82,2,2,0,0,0-.63-.57,2,2,0,0,0-2.39.48,3.17,3.17,0,0,0-.51,1.87,3.83,3.83,0,0,0,.13,1,2.36,2.36,0,0,0,.4.81,2,2,0,0,0,.64.53,2,2,0,0,0,1.79,0,1.81,1.81,0,0,0,.62-.58,2.17,2.17,0,0,0,.35-.81A4.92,4.92,0,0,0,258.27,13.72Zm2.82-6.4h1.6V8.83h-1.6Zm0,2.76h1.6v7.25h-1.6Zm3-2.76h1.6v10h-1.6Zm6.5,10.21a4,4,0,0,1-1.55-.29,3.26,3.26,0,0,1-1.86-2,4.84,4.84,0,0,1,0-3.07,3.45,3.45,0,0,1,.71-1.21,3.38,3.38,0,0,1,1.15-.79,4.36,4.36,0,0,1,3.1,0,3.25,3.25,0,0,1,1.87,2,4.67,4.67,0,0,1,.25,1.53,4.78,4.78,0,0,1-.25,1.54,3.36,3.36,0,0,1-.71,1.21,3.42,3.42,0,0,1-1.16.79,3.92,3.92,0,0,1-1.55.29Zm0-1.26a1.86,1.86,0,0,0,.93-.23,2,2,0,0,0,.64-.59,2.67,2.67,0,0,0,.38-.82,3.66,3.66,0,0,0,0-1.86,2.55,2.55,0,0,0-.38-.82,2.22,2.22,0,0,0-.64-.58,2,2,0,0,0-1.85,0A2.14,2.14,0,0,0,269,12a2.53,2.53,0,0,0-.37.82,3.66,3.66,0,0,0,0,1.86,2.35,2.35,0,0,0,.37.82,1.93,1.93,0,0,0,.65.59,1.75,1.75,0,0,0,.92.23Zm4.13-6.19H276V7.9h1.6v2.18H279v1.2h-1.44v3.87a2.16,2.16,0,0,0,0,.44.71.71,0,0,0,.1.31.43.43,0,0,0,.23.19,1,1,0,0,0,.42.06h.34l.34,0v1.23l-.51.06-.52,0a3.52,3.52,0,0,1-1-.12,1.31,1.31,0,0,1-.6-.35,1.35,1.35,0,0,1-.3-.58,5.44,5.44,0,0,1-.09-.8V11.29h-1.21V10.08Z"/></g></g><g id="Star"><path id="Path_61" data-name="Path 61" class="cls-4" d="M218.09,7.32h-7.33l-2.26-7-2.27,7h-7.32l5.93,4.31-2.27,7,5.93-4.3,5.93,4.3-2.27-7Z"/><path id="Path_62" data-name="Path 62" class="cls-7" d="M212.67,13.2l-.51-1.58-3.66,2.66Z"/></g></g></g></g></g></svg>