<svg xmlns="http://www.w3.org/2000/svg" xmlns:xlink="http://www.w3.org/1999/xlink" viewBox="0 0 171.6 222.3" enable-background="new 0 0 171.6 222.3"><style type="text/css">.st0{fill:#858585;} .st1{fill:url(#SVGID_1_);} .st2{fill:#6ACF51;} .st3{fill:#295400;} .st4{fill:#396609;} .st5{opacity:0.3;} .st6{fill:#294F00;} .st7{fill:url(#SVGID_2_);} .st8{fill:#FFFFFF;} .st9{fill:#B8BFD9;} .st10{fill:url(#SVGID_3_);} .st11{fill:url(#SVGID_4_);} .st12{fill:#343B54;} .st13{fill:#58AD40;} .st14{fill:url(#SVGID_5_);} .st15{fill:url(#SVGID_6_);} .st16{fill:url(#SVGID_7_);} .st17{fill:#AAAAAA;} .st18{clip-path:url(#SVGID_9_);} .st19{fill:#3D4663;} .st20{fill:#616B8C;} .st21{fill:#5A6382;} .st22{fill:#CACFE3;} .st23{fill:#818AA8;} .st24{fill:#E6E9F5;} .st25{enable-background:new ;} .st26{fill:#B4BAD1;} .st27{fill:#515975;}</style><g id="unlock"><path class="st0" d="M100 163.5c-8.6-5-22.9-6.6-34.4 0l-58.1 33.8c-11.4 6.7-8.5 14.9.1 19.9s29.2 7.9 40.6 1.3l51.9-35c11.4-6.7 8.5-15-.1-20z"/><linearGradient id="SVGID_1_" gradientUnits="userSpaceOnUse" x1="17.6" y1="68.665" x2="125.5" y2="68.665" gradientTransform="matrix(1 0 0 -1 0 224)"><stop offset="0" stop-color="#198719"/><stop offset=".101" stop-color="#1C8B19"/><stop offset=".211" stop-color="#25981A"/><stop offset=".31" stop-color="#31AB1B"/></linearGradient><path class="st1" d="M118 101.6l-58.1 33.8c-11.4 6.6-25.7 5-34.4 0-4.6-2.7-7.6-6.3-7.6-10.1l-.3 79.1c0 3.8 3 7.5 7.6 10.1 8.6 5 22.9 6.6 34.4 0l58.1-33.8c5.3-3.1 7.5-6.5 7.5-9.8l.3-79.1c0 3.3-2.2 6.7-7.5 9.8z"/><path class="st2" d="M117.9 81.7c-8.6-5-22.9-6.6-34.4 0-29.5 17.2-28.5 16.6-58.1 33.8-11.4 6.6-8.5 14.9.1 19.9s22.9 6.6 34.4 0l58.1-33.8c11.5-6.6 8.6-14.9-.1-19.9z"/><path class="st3" d="M99.5 147.8c-.2-5.7-4.1-7.8-9-4.9-4.9 2.9-8.9 9.8-8.9 15.5 0 3.9 1.9 6.3 4.6 6.4.3 0 .5.2.5.5v7.1c0 5.6 7.5 1.3 7.5-4.7v-7.4c3.2-3.5 5.5-8.2 5.3-12.5z"/><path class="st4" d="M99.7 148.1c0-4.4-2.4-6.8-5.8-6.4.9 1.1 1.4 2.7 1.4 4.8 0 4-1.9 8.6-4.8 12-.2.2-.3.5-.3.8v7.1c0 2.8-1.7 5.3-3.5 6.5.4 5.4 7.8.9 7.8-5v-7.2c0-.3.1-.5.3-.7 3-3.3 4.9-7.9 4.9-11.9z"/><path class="st5" d="M110 89l-9.1 8.3-9.9.2c-3.5.1-6.9-.3-10.3-1.1l-15.7-3.9c4.2-2.4 9.2-5.3 15.8-9.2l29.2 5.7z"/><ellipse class="st6" cx="100.8" cy="90.7" rx="13" ry="7.5"/><linearGradient id="SVGID_2_" gradientUnits="userSpaceOnUse" x1="144.057" y1="143.15" x2="169.068" y2="143.15" gradientTransform="matrix(1 0 0 -1 0 224)"><stop offset=".203" stop-color="#8790AB"/><stop offset=".314" stop-color="#8F98B2"/><stop offset=".486" stop-color="#A5ADC5"/><stop offset=".695" stop-color="#C8CEE3"/><stop offset=".856" stop-color="#E8EDFF"/></linearGradient><path class="st7" d="M169 81.2v-8.1h-25v8.1c-.1 1.9 1.2 3.8 3.7 5.3 4.9 2.8 12.8 2.8 17.7 0 2.5-1.5 3.7-3.4 3.6-5.3z"/><path class="st8" d="M156.9 88.6c2.4 0 4.9-.5 7-1.3l-.7-13.2h-5.6c.1.5-.7 13.3-.7 14.5z"/><path class="st9" d="M158.8 73h-6.8c.1.6.1 13.7 0 15 2.3.5 4.8.6 7.1.3l-.3-15.3z"/><linearGradient id="SVGID_3_" gradientUnits="userSpaceOnUse" x1="146.226" y1="146.214" x2="166.915" y2="156.756" gradientTransform="matrix(1 0 0 -1 0 224)"><stop offset="0" stop-color="#C1C6E0"/><stop offset=".396" stop-color="#E3E6F2"/><stop offset=".558" stop-color="#F2F3F9"/><stop offset=".755" stop-color="#FCFCFE"/><stop offset="1" stop-color="#fff"/></linearGradient><ellipse class="st10" cx="156.6" cy="72.5" rx="12.5" ry="7.2"/><linearGradient id="SVGID_4_" gradientUnits="userSpaceOnUse" x1="148" y1="159.287" x2="164.534" y2="159.287" gradientTransform="matrix(1 0 0 -1 0 224)"><stop offset=".134" stop-color="#7E87A8"/><stop offset=".624" stop-color="#B4BAD0"/><stop offset="1" stop-color="#DADDEB"/></linearGradient><path class="st11" d="M148 70.6v-16.7h16.5v16.7c0 1.3-.8 2.5-2.4 3.5-3.2 1.9-8.5 1.9-11.7 0-1.6-1-2.4-2.3-2.4-3.5z"/><path class="st12" d="M53.9 117.6c4.9 2.9 5.1 7.4 0 10.4-5.1 2.9-13.3 2.9-18.4 0-5-2.9-5.1-7.5 0-10.4 5.1-3 13.4-3 18.4 0z"/><path class="st13" d="M35.5 121.7c5.1-2.9 13.3-2.9 18.4 0 1.6.9 2.7 2 3.3 3.2 1.3-2.6.2-5.5-3.3-7.5-5.1-2.9-13.3-2.9-18.4 0-3.5 2-4.6 4.9-3.3 7.5.6-1.2 1.7-2.3 3.3-3.2z"/><linearGradient id="SVGID_5_" gradientUnits="userSpaceOnUse" x1="88.886" y1="175.294" x2="168.986" y2="175.294" gradientTransform="matrix(1 0 0 -1 0 224)"><stop offset=".016" stop-color="#DCDFED"/><stop offset="1" stop-color="#DFE2EF"/></linearGradient><path class="st14" d="M168.9 28.5c0-.6-.1-1.2-.2-1.8-1-4.6-3.8-16-14.5-22.5-5.7-3.5-16.8-6.6-31-1.6-13.2 4.6-23.7 16.6-29.5 34.5-3.1 9.6-4.4 18.2-4.8 21.8v2l-.1 29.5c0 1.8 1.1 3.6 3.5 5 4.7 2.7 12.4 2.7 17.1 0 2.4-1.4 3.5-3.1 3.5-4.9l.1-30.1.1-1c1-9.9 5.4-30.7 17.8-35 3.1-1.1 7.4-2.1 10-.5 1.9 1.1 3.8 3.5 3.9 5.6v25.8c0 1.8 1.1 3.4 3.5 4.8 4.7 2.7 12.4 2.9 17.1.2 2.4-1.4 3.5-3.1 3.5-4.9v-26.9z"/><linearGradient id="SVGID_6_" gradientUnits="userSpaceOnUse" x1="88.886" y1="175.288" x2="142.386" y2="175.288" gradientTransform="matrix(1 0 0 -1 0 224)"><stop offset="0" stop-color="#7E87A8"/><stop offset=".086" stop-color="#979EBA"/><stop offset=".196" stop-color="#AFB5CC"/><stop offset=".321" stop-color="#C2C7DA"/><stop offset=".466" stop-color="#D0D4E4"/><stop offset=".65" stop-color="#D8DBE9"/><stop offset="1" stop-color="#DADDEB"/></linearGradient><path class="st15" d="M101.7 95.3c-2.4-1.4-3.6-3.2-3.5-5v-31.5c.3-3.6 1.7-12.2 4.8-21.8 5.8-17.9 16.2-29.8 29.5-34.5 3.5-1.2 6.8-1.9 9.8-2.3-5.3-.6-11.7-.2-19 2.4-13.3 4.6-23.8 16.6-29.6 34.5-3.1 9.6-4.4 18.2-4.8 21.8v2l-.1 29.5c0 1.8 1.1 3.6 3.5 5 3.6 2.1 8.8 2.6 13.2 1.5-1.3-.5-2.7-1-3.8-1.6z"/><linearGradient id="SVGID_7_" gradientUnits="userSpaceOnUse" x1="141.155" y1="181.432" x2="161.583" y2="181.432" gradientTransform="matrix(1 0 0 -1 0 224)"><stop offset="0" stop-color="#7E87A8"/><stop offset=".013" stop-color="#818AAA"/><stop offset=".168" stop-color="#9DA4BD"/><stop offset=".335" stop-color="#B4B9CD"/><stop offset=".515" stop-color="#C4C8D8"/><stop offset=".72" stop-color="#CDD0DE"/><stop offset="1" stop-color="#D0D3E0"/></linearGradient><path class="st16" d="M157.7 60.2c-2.4-1.4-3.6-3.2-3.5-5v-25.8c-.2-2.1-2-4.4-3.9-5.6-2.4-1.4-6-.8-9 .1 1.8 1.2 3.6 3.4 3.7 5.4v25.8c0 1.8 1.1 3.6 3.5 5 3.6 2.1 8.8 2.6 13.2 1.5-1.5-.2-2.9-.7-4-1.4z"/><path class="st17" d="M89.3 197.3l40.9 23.4c5.2 3 12.9-1.5 7.8-4.5-16.7-9.6-24.3-13.8-40.9-23.4l-7.8 4.5z"/><path class="st5" d="M97.1 154.3v38.599999999999994l-7.7 4.5v-27.2c.6-1.1 1-2.4 1-3.7v-7.1c0-.3.1-.6.3-.8l.7-.9 5.7-3.4z"/><defs><path id="SVGID_8_" d="M171.6 169.8c-.1-2.9-73.2-26.8-74.8-27.7-1.6-.9-3.8-.7-6.3.8-4.9 2.9-8.9 9.8-8.9 15.5 0 3.9 1.9 6.3 4.6 6.4.3 0 .5.2.5.5v7.1c0 5.6 79.8 47.1 79.8 41l5.1-43.6z"/></defs><clipPath id="SVGID_9_"><use xlink:href="#SVGID_8_" overflow="visible"/></clipPath><g class="st18"><path class="st19" d="M89 151.4l-5.9-3.4 2.2 23.3 3.7-1.2z"/><path class="st20" d="M76.4 160.4v-5.2l-3.7-2v-7.9l12.6 7.2v18.8l-4.8-2.8v-5.7z"/><path class="st19" d="M72.7 145l12.6 7.5.2 2.8-12.8-7.3z"/><path class="st21" d="M71.7 144.2c0 1.6.7 2.7 1.7 3.1l50.7 29.2 1.5-2.5-53.7-31c-.1.4-.2.8-.2 1.2z"/><path class="st22" d="M130.6 165.4l-51-29.4s-.1 0-.1-.1c-.8-.4-1.9-.3-3.1.4-.6.4-1.2.9-1.8 1.4l54 31.2 2-3.5z"/><path class="st23" d="M72.9 140c-.5 1-.9 2-1.1 3l53.7 31 1.6-2.7-54.2-31.3z"/><path class="st24" d="M128.5 168.9l-54-31.2c-.6.7-1.2 1.4-1.6 2.2l54.2 31.3 1.4-2.3z"/><g class="st25"><path class="st26" d="M144.3 192.6c3.3 1.9 6.4 2.1 8.6.8l-5 3.1c-2.2 1.3-5.2.9-8.6-1l5-2.9z"/><path class="st19" d="M138.8 167.3l5.6-2.4-.1 27.7-5 2.9z"/><path class="st26" d="M132.8 158.9c3-1.7 7.1-1.5 11.6 1.1l-5.3 3.1c-4.5-2.6-8.3-3-11.3-1.3l5-2.9z"/><path class="st27" d="M158.4 177.3c1.4 3.6 2.2 7.3 2.2 10.8 0 5.1-1.8 8.7-4.7 10.4l-5 2.9c2.9-1.7 4.2-5.3 4.2-10.4 0-3.5-.7-7-2.2-10.6l5.5-3.1z"/><path class="st24" d="M139.2 163.1l5.2-3c2.3 1.3 4.4 3.1 6.4 5.2l-5.2 3c-2-2.1-4.1-3.9-6.4-5.2z"/><path class="st23" d="M145.5 168.3l5.2-3c3.2 3.4 5.9 7.7 7.6 12.1l-5.2 3c-1.6-4.5-4.4-8.7-7.6-12.1z"/><path class="st20" d="M123.1 172.3c0 10.3 7.2 22.9 16.2 28.1 9 5.2 16.3 1 16.3-9.3s-7.2-22.9-16.2-28.1c-9-5.2-16.3-1-16.3 9.3zm16.2 23.2l.1-27.7c6.6 3.8 12 13.2 12 20.8-.1 7.7-5.5 10.8-12.1 6.9z"/><path class="st23" d="M132.1 185.3l1.2.7c.6.3 1.3-.1 1.3-.7v-11.8c0-.7-.4-1.4-1-1.7l-1.2-.7c-.6-.3-1.3.1-1.3.7v11.8c0 .7.4 1.4 1 1.7z"/></g></g></g></svg>