<svg xmlns="http://www.w3.org/2000/svg" viewBox="0 0 13 13.9" enable-background="new 0 0 13 13.9"><style type="text/css">.st0{fill:#fff;} .st1{fill:#fff;}</style><path class="st0" d="M13 .9c-.1.8-3.4 5-4.1 6 .8.9 3.5 4.7 4.1 5.8 0 .1-.1 2-1.9.9-.8-.5-2.9-4.2-3.5-5-.4.5-4.1 4.7-4.4 5.1-.4.5-2.6.5-1.6-1.3 0 0 4.1-4.9 4.7-5.5l-4.5-5c-1.3-1.5.5-2.3 1.3-1.5.8.8 3.7 3.9 4.4 4.8 0 0 2.7-4.1 3.6-4.9s1.9.3 1.9.6z"/><path class="st1" d="M11.7.9c-.1.8-3.4 5-4.1 6 .8.9 3.5 4.7 4.1 5.8 0 .1-.1 2-1.9.9-.8-.5-2.9-4.2-3.5-5-.4.5-4.1 4.7-4.4 5.1-.4.5-2.6.5-1.6-1.3 0 0 4.1-4.9 4.7-5.5l-4.5-5c-1.2-1.5.7-2.2 1.4-1.5.8.8 3.7 3.9 4.4 4.8 0 0 2.7-4.1 3.6-4.9s1.9.3 1.8.6z"/></svg>